<svg width="20" height="19" viewBox="0 0 20 19" fill="none" xmlns="http://www.w3.org/2000/svg">
<g clip-path="url(#clip0_207_204)">
<path d="M10 0.894531C5.05 0.894531 1 4.94453 1 9.89453C1 14.8445 5.05 18.8945 10 18.8945C12.257 18.8945 14.3207 18.0578 15.9062 16.6727C16.0891 16.5848 16.2402 16.4336 16.3281 16.2508C17.9664 14.6195 19 12.3766 19 9.89453C19 4.94453 14.95 0.894531 10 0.894531ZM10.9281 2.75078C12.0707 2.90195 13.1395 3.33438 14.05 3.96016C12.9531 4.92344 11.1812 6.90977 10.9562 9.86641C10.6504 9.88047 10.3305 9.89453 10 9.89453C9.68711 9.89453 9.38828 9.87695 9.1 9.86641C9.10352 7.39141 9.58164 5.59141 10.0562 4.41016C10.5133 3.27461 10.8965 2.78945 10.9281 2.75078ZM8.81875 2.80703C8.68164 3.07422 8.5375 3.39063 8.39687 3.73516C7.85195 5.08164 7.32461 7.07148 7.3 9.69766C6.97656 9.65195 6.65664 9.58867 6.37187 9.52891C6.23125 6.57578 5.59844 4.81094 5.41562 4.35391C6.36836 3.56641 7.54961 3.02148 8.81875 2.80703ZM15.4 5.16953C16.1488 6.02734 16.6973 7.07148 16.975 8.20703C16.8379 8.32656 16.5145 8.57617 15.6531 8.93828C14.9816 9.22305 14.0148 9.4832 12.7844 9.66953C13.0867 7.25781 14.6301 5.78125 15.4 5.16953ZM4.0375 5.90078C4.22734 6.58984 4.43828 7.5707 4.54375 8.99453C4.48398 8.96992 4.40312 8.96289 4.34687 8.93828C3.48555 8.57617 3.16211 8.32656 3.025 8.20703C3.22891 7.37734 3.57344 6.59336 4.0375 5.90078ZM2.8 10.2039C3.04609 10.341 3.32031 10.4605 3.64375 10.5977C3.91445 10.7102 4.24141 10.8297 4.57187 10.9352C4.5332 12.1375 4.30117 13.1922 4.06562 13.9445C3.33086 12.8688 2.85977 11.5855 2.8 10.2039ZM17.2 10.2039C17.1262 11.9512 16.402 13.5473 15.2875 14.7602C14.5246 14.3523 13.1219 13.3574 12.8125 11.4977C14.3031 11.2938 15.4984 10.9598 16.3562 10.5977C16.6797 10.4605 16.9539 10.341 17.2 10.2039ZM6.37187 11.3852C6.67773 11.4414 7.01523 11.4836 7.35625 11.5258C7.51797 13.4488 7.95742 14.9676 8.39687 16.0539C8.5375 16.3984 8.68164 16.7148 8.81875 16.982C7.56367 16.7711 6.39297 16.2367 5.44375 15.4633C5.74258 14.7355 6.25234 13.2484 6.37187 11.3852ZM9.18437 11.6664C9.44805 11.677 9.71875 11.6945 10 11.6945C10.348 11.6945 10.6891 11.6805 11.0125 11.6664C11.3359 13.8813 12.7598 15.2383 13.8531 15.9695C12.9883 16.5215 11.9863 16.8977 10.9281 17.0383C10.8965 16.9996 10.5133 16.5145 10.0562 15.3789C9.70117 14.4965 9.34258 13.266 9.18437 11.6664Z" fill="white"/>
</g>
<defs>
<clipPath id="clip0_207_204">
<rect width="18.55" height="18.55" fill="white" transform="translate(0.838867 0.0234375)"/>
</clipPath>
</defs>
</svg>
