<svg width="20" height="20" viewBox="0 0 20 20" fill="none" xmlns="http://www.w3.org/2000/svg">
<path d="M8.44463 2.72656C7.58674 2.72656 6.88907 3.43472 6.88907 4.30551V5.88446H3.00018V16.1476C3.00018 17.0184 3.69785 17.7266 4.55574 17.7266H15.4446C16.3025 17.7266 17.0002 17.0184 17.0002 16.1476V5.88446H13.1113V4.30551C13.1113 3.43472 12.4136 2.72656 11.5557 2.72656H8.44463ZM8.44463 4.30551H11.5557V5.88446H8.44463V4.30551ZM4.55574 7.4634H15.4446L15.4461 16.1476H4.55574V7.4634ZM7.66685 9.04235C7.23752 9.04235 6.88907 9.39604 6.88907 9.83183C6.88907 10.2676 7.23752 10.6213 7.66685 10.6213C8.09618 10.6213 8.44463 10.2676 8.44463 9.83183C8.44463 9.39604 8.09618 9.04235 7.66685 9.04235ZM12.3335 9.04235C11.9042 9.04235 11.5557 9.39604 11.5557 9.83183C11.5557 10.2676 11.9042 10.6213 12.3335 10.6213C12.7628 10.6213 13.1113 10.2676 13.1113 9.83183C13.1113 9.39604 12.7628 9.04235 12.3335 9.04235Z" fill="white"/>
</svg>
