<svg width="20" height="20" viewBox="0 0 20 20" fill="none" xmlns="http://www.w3.org/2000/svg">
<path d="M8.44469 2.68359C7.5868 2.68359 6.88913 3.39175 6.88913 4.26254V5.84149H3.00024V16.1046C3.00024 16.9754 3.69791 17.6836 4.5558 17.6836H15.4447C16.3026 17.6836 17.0002 16.9754 17.0002 16.1046V5.84149H13.1114V4.26254C13.1114 3.39175 12.4137 2.68359 11.5558 2.68359H8.44469ZM8.44469 4.26254H11.5558V5.84149H8.44469V4.26254ZM4.5558 7.42044H15.4447L15.4462 16.1046H4.5558V7.42044ZM7.66691 8.99938C7.23758 8.99938 6.88913 9.35307 6.88913 9.78886C6.88913 10.2246 7.23758 10.5783 7.66691 10.5783C8.09624 10.5783 8.44469 10.2246 8.44469 9.78886C8.44469 9.35307 8.09624 8.99938 7.66691 8.99938ZM12.3336 8.99938C11.9042 8.99938 11.5558 9.35307 11.5558 9.78886C11.5558 10.2246 11.9042 10.5783 12.3336 10.5783C12.7629 10.5783 13.1114 10.2246 13.1114 9.78886C13.1114 9.35307 12.7629 8.99938 12.3336 8.99938Z" fill="white"/>
</svg>
