<svg width="20" height="20" viewBox="0 0 20 20" fill="none" xmlns="http://www.w3.org/2000/svg">
<path d="M8.44469 2.72656C7.5868 2.72656 6.88913 3.43472 6.88913 4.30551V5.88446H3.00024V16.1476C3.00024 17.0184 3.69791 17.7266 4.5558 17.7266H15.4447C16.3026 17.7266 17.0002 17.0184 17.0002 16.1476V5.88446H13.1114V4.30551C13.1114 3.43472 12.4137 2.72656 11.5558 2.72656H8.44469ZM8.44469 4.30551H11.5558V5.88446H8.44469V4.30551ZM4.5558 7.4634H15.4447L15.4462 16.1476H4.5558V7.4634ZM7.66691 9.04235C7.23758 9.04235 6.88913 9.39604 6.88913 9.83183C6.88913 10.2676 7.23758 10.6213 7.66691 10.6213C8.09624 10.6213 8.44469 10.2676 8.44469 9.83183C8.44469 9.39604 8.09624 9.04235 7.66691 9.04235ZM12.3336 9.04235C11.9042 9.04235 11.5558 9.39604 11.5558 9.83183C11.5558 10.2676 11.9042 10.6213 12.3336 10.6213C12.7629 10.6213 13.1114 10.2676 13.1114 9.83183C13.1114 9.39604 12.7629 9.04235 12.3336 9.04235Z" fill="white"/>
</svg>
