<svg width="20" height="20" viewBox="0 0 20 20" fill="none" xmlns="http://www.w3.org/2000/svg">
<path d="M10.5 3C6.37497 3 2.99997 6.375 2.99997 10.5C2.99997 14.625 6.37497 18 10.5 18C12.3808 18 14.1006 17.3027 15.4218 16.1484C15.5742 16.0752 15.7002 15.9492 15.7734 15.7969C17.1386 14.4375 18 12.5684 18 10.5C18 6.375 14.625 3 10.5 3ZM11.2734 4.54688C12.2256 4.67285 13.1162 5.0332 13.875 5.55469C12.9609 6.35742 11.4843 8.0127 11.2968 10.4766C11.042 10.4883 10.7754 10.5 10.5 10.5C10.2392 10.5 9.9902 10.4854 9.74997 10.4766C9.7529 8.41406 10.1513 6.91406 10.5468 5.92969C10.9277 4.9834 11.247 4.5791 11.2734 4.54688ZM9.51559 4.59375C9.40134 4.81641 9.28122 5.08008 9.16403 5.36719C8.70993 6.48926 8.27048 8.14746 8.24997 10.3359C7.98044 10.2979 7.71384 10.2451 7.47653 10.1953C7.35934 7.73438 6.832 6.26367 6.67966 5.88281C7.4736 5.22656 8.45798 4.77246 9.51559 4.59375ZM15 6.5625C15.624 7.27734 16.081 8.14746 16.3125 9.09375C16.1982 9.19336 15.9287 9.40137 15.2109 9.70312C14.6513 9.94043 13.8457 10.1572 12.8203 10.3125C13.0722 8.30273 14.3584 7.07227 15 6.5625ZM5.53122 7.17188C5.68942 7.74609 5.8652 8.56348 5.95309 9.75C5.90329 9.72949 5.83591 9.72363 5.78903 9.70312C5.07126 9.40137 4.80173 9.19336 4.68747 9.09375C4.85739 8.40234 5.1445 7.74902 5.53122 7.17188ZM4.49997 10.7578C4.70505 10.8721 4.93356 10.9717 5.20309 11.0859C5.42868 11.1797 5.70114 11.2793 5.97653 11.3672C5.94431 12.3691 5.75095 13.248 5.55466 13.875C4.94235 12.9785 4.54977 11.9092 4.49997 10.7578ZM16.5 10.7578C16.4384 12.2139 15.8349 13.5439 14.9062 14.5547C14.2705 14.2148 13.1015 13.3857 12.8437 11.8359C14.0859 11.666 15.082 11.3877 15.7968 11.0859C16.0664 10.9717 16.2949 10.8721 16.5 10.7578ZM7.47653 11.7422C7.73141 11.7891 8.01266 11.8242 8.29684 11.8594C8.43161 13.4619 8.79782 14.7275 9.16403 15.6328C9.28122 15.9199 9.40134 16.1836 9.51559 16.4062C8.4697 16.2305 7.49411 15.7852 6.70309 15.1406C6.95212 14.5342 7.37692 13.2949 7.47653 11.7422ZM9.82028 11.9766C10.04 11.9854 10.2656 12 10.5 12C10.79 12 11.0742 11.9883 11.3437 11.9766C11.6133 13.8223 12.7998 14.9531 13.7109 15.5625C12.9902 16.0225 12.1552 16.3359 11.2734 16.4531C11.247 16.4209 10.9277 16.0166 10.5468 15.0703C10.2509 14.335 9.95212 13.3096 9.82028 11.9766Z" fill="white"/>
</svg>
