<svg width="20" height="20" viewBox="0 0 20 20" fill="none" xmlns="http://www.w3.org/2000/svg">
<path d="M10.5 3C6.375 3 3 6.375 3 10.5C3 14.625 6.375 18 10.5 18C12.3809 18 14.1006 17.3027 15.4219 16.1484C15.5742 16.0752 15.7002 15.9492 15.7734 15.7969C17.1387 14.4375 18 12.5684 18 10.5C18 6.375 14.625 3 10.5 3ZM11.2734 4.54688C12.2256 4.67285 13.1162 5.0332 13.875 5.55469C12.9609 6.35742 11.4844 8.0127 11.2969 10.4766C11.042 10.4883 10.7754 10.5 10.5 10.5C10.2393 10.5 9.99023 10.4854 9.75 10.4766C9.75293 8.41406 10.1514 6.91406 10.5469 5.92969C10.9277 4.9834 11.2471 4.5791 11.2734 4.54688ZM9.51562 4.59375C9.40137 4.81641 9.28125 5.08008 9.16406 5.36719C8.70996 6.48926 8.27051 8.14746 8.25 10.3359C7.98047 10.2979 7.71387 10.2451 7.47656 10.1953C7.35938 7.73438 6.83203 6.26367 6.67969 5.88281C7.47363 5.22656 8.45801 4.77246 9.51562 4.59375ZM15 6.5625C15.624 7.27734 16.0811 8.14746 16.3125 9.09375C16.1982 9.19336 15.9287 9.40137 15.2109 9.70312C14.6514 9.94043 13.8457 10.1572 12.8203 10.3125C13.0723 8.30273 14.3584 7.07227 15 6.5625ZM5.53125 7.17188C5.68945 7.74609 5.86523 8.56348 5.95312 9.75C5.90332 9.72949 5.83594 9.72363 5.78906 9.70312C5.07129 9.40137 4.80176 9.19336 4.6875 9.09375C4.85742 8.40234 5.14453 7.74902 5.53125 7.17188ZM4.5 10.7578C4.70508 10.8721 4.93359 10.9717 5.20312 11.0859C5.42871 11.1797 5.70117 11.2793 5.97656 11.3672C5.94434 12.3691 5.75098 13.248 5.55469 13.875C4.94238 12.9785 4.5498 11.9092 4.5 10.7578ZM16.5 10.7578C16.4385 12.2139 15.835 13.5439 14.9062 14.5547C14.2705 14.2148 13.1016 13.3857 12.8438 11.8359C14.0859 11.666 15.082 11.3877 15.7969 11.0859C16.0664 10.9717 16.2949 10.8721 16.5 10.7578ZM7.47656 11.7422C7.73145 11.7891 8.0127 11.8242 8.29688 11.8594C8.43164 13.4619 8.79785 14.7275 9.16406 15.6328C9.28125 15.9199 9.40137 16.1836 9.51562 16.4062C8.46973 16.2305 7.49414 15.7852 6.70312 15.1406C6.95215 14.5342 7.37695 13.2949 7.47656 11.7422ZM9.82031 11.9766C10.04 11.9854 10.2656 12 10.5 12C10.79 12 11.0742 11.9883 11.3438 11.9766C11.6133 13.8223 12.7998 14.9531 13.7109 15.5625C12.9902 16.0225 12.1553 16.3359 11.2734 16.4531C11.2471 16.4209 10.9277 16.0166 10.5469 15.0703C10.251 14.335 9.95215 13.3096 9.82031 11.9766Z" fill="white"/>
</svg>
