<svg width="20" height="20" viewBox="0 0 20 20" fill="none" xmlns="http://www.w3.org/2000/svg">
<path d="M8.44444 2.72656C7.58656 2.72656 6.88889 3.43472 6.88889 4.30551V5.88446H3V16.1476C3 17.0184 3.69767 17.7266 4.55556 17.7266H15.4444C16.3023 17.7266 17 17.0184 17 16.1476V5.88446H13.1111V4.30551C13.1111 3.43472 12.4134 2.72656 11.5556 2.72656H8.44444ZM8.44444 4.30551H11.5556V5.88446H8.44444V4.30551ZM4.55556 7.4634H15.4444L15.446 16.1476H4.55556V7.4634ZM7.66667 9.04235C7.23733 9.04235 6.88889 9.39604 6.88889 9.83183C6.88889 10.2676 7.23733 10.6213 7.66667 10.6213C8.096 10.6213 8.44444 10.2676 8.44444 9.83183C8.44444 9.39604 8.096 9.04235 7.66667 9.04235ZM12.3333 9.04235C11.904 9.04235 11.5556 9.39604 11.5556 9.83183C11.5556 10.2676 11.904 10.6213 12.3333 10.6213C12.7627 10.6213 13.1111 10.2676 13.1111 9.83183C13.1111 9.39604 12.7627 9.04235 12.3333 9.04235Z" fill="white"/>
</svg>
