<svg width="20" height="19" viewBox="0 0 20 19" fill="none" xmlns="http://www.w3.org/2000/svg">
<g clip-path="url(#clip0_1_6249)">
<path d="M9.99997 1C5.04997 1 0.999969 5.05 0.999969 10C0.999969 14.95 5.04997 19 9.99997 19C12.257 19 14.3207 18.1633 15.9062 16.7781C16.089 16.6902 16.2402 16.5391 16.3281 16.3562C17.9664 14.725 19 12.482 19 10C19 5.05 14.95 1 9.99997 1ZM10.9281 2.85625C12.0707 3.00742 13.1394 3.43984 14.05 4.06562C12.9531 5.02891 11.1812 7.01523 10.9562 9.97187C10.6504 9.98594 10.3304 10 9.99997 10C9.68708 10 9.38825 9.98242 9.09997 9.97187C9.10348 7.49687 9.58161 5.69687 10.0562 4.51562C10.5133 3.38008 10.8965 2.89492 10.9281 2.85625ZM8.81872 2.9125C8.68161 3.17969 8.53747 3.49609 8.39684 3.84062C7.85192 5.18711 7.32458 7.17695 7.29997 9.80312C6.97653 9.75742 6.65661 9.69414 6.37184 9.63437C6.23122 6.68125 5.59841 4.91641 5.41559 4.45937C6.36833 3.67187 7.54958 3.12695 8.81872 2.9125ZM15.4 5.275C16.1488 6.13281 16.6972 7.17695 16.975 8.3125C16.8379 8.43203 16.5144 8.68164 15.6531 9.04375C14.9816 9.32852 14.0148 9.58867 12.7843 9.775C13.0867 7.36328 14.63 5.88672 15.4 5.275ZM4.03747 6.00625C4.22731 6.69531 4.43825 7.67617 4.54372 9.1C4.48395 9.07539 4.40309 9.06836 4.34684 9.04375C3.48552 8.68164 3.16208 8.43203 3.02497 8.3125C3.22888 7.48281 3.57341 6.69883 4.03747 6.00625ZM2.79997 10.3094C3.04606 10.4465 3.32028 10.566 3.64372 10.7031C3.91442 10.8156 4.24138 10.9352 4.57184 11.0406C4.53317 12.243 4.30114 13.2977 4.06559 14.05C3.33083 12.9742 2.85973 11.691 2.79997 10.3094ZM17.2 10.3094C17.1261 12.0566 16.4019 13.6527 15.2875 14.8656C14.5246 14.4578 13.1218 13.4629 12.8125 11.6031C14.3031 11.3992 15.4984 11.0652 16.3562 10.7031C16.6797 10.566 16.9539 10.4465 17.2 10.3094ZM6.37184 11.4906C6.6777 11.5469 7.0152 11.5891 7.35622 11.6312C7.51794 13.5543 7.95739 15.073 8.39684 16.1594C8.53747 16.5039 8.68161 16.8203 8.81872 17.0875C7.56364 16.8766 6.39294 16.3422 5.44372 15.5687C5.74255 14.841 6.25231 13.3539 6.37184 11.4906ZM9.18434 11.7719C9.44802 11.7824 9.71872 11.8 9.99997 11.8C10.348 11.8 10.689 11.7859 11.0125 11.7719C11.3359 13.9867 12.7597 15.3437 13.8531 16.075C12.9883 16.627 11.9863 17.0031 10.9281 17.1437C10.8965 17.1051 10.5133 16.6199 10.0562 15.4844C9.70114 14.602 9.34255 13.3715 9.18434 11.7719Z" fill="white"/>
</g>
<defs>
<clipPath id="clip0_1_6249">
<rect width="18.55" height="18.55" fill="white" transform="translate(0.839081 0.128906)"/>
</clipPath>
</defs>
</svg>
