<svg width="20" height="20" viewBox="0 0 20 20" fill="none" xmlns="http://www.w3.org/2000/svg">
<path d="M10.5 2.61719C6.375 2.61719 3 5.99219 3 10.1172C3 14.2422 6.375 17.6172 10.5 17.6172C12.3809 17.6172 14.1006 16.9199 15.4219 15.7656C15.5742 15.6924 15.7002 15.5664 15.7734 15.4141C17.1387 14.0547 18 12.1855 18 10.1172C18 5.99219 14.625 2.61719 10.5 2.61719ZM11.2734 4.16406C12.2256 4.29004 13.1162 4.65039 13.875 5.17188C12.9609 5.97461 11.4844 7.62988 11.2969 10.0938C11.042 10.1055 10.7754 10.1172 10.5 10.1172C10.2393 10.1172 9.99023 10.1025 9.75 10.0938C9.75293 8.03125 10.1514 6.53125 10.5469 5.54688C10.9277 4.60059 11.2471 4.19629 11.2734 4.16406ZM9.51562 4.21094C9.40137 4.43359 9.28125 4.69727 9.16406 4.98438C8.70996 6.10645 8.27051 7.76465 8.25 9.95312C7.98047 9.91504 7.71387 9.8623 7.47656 9.8125C7.35938 7.35156 6.83203 5.88086 6.67969 5.5C7.47363 4.84375 8.45801 4.38965 9.51562 4.21094ZM15 6.17969C15.624 6.89453 16.0811 7.76465 16.3125 8.71094C16.1982 8.81055 15.9287 9.01855 15.2109 9.32031C14.6514 9.55762 13.8457 9.77441 12.8203 9.92969C13.0723 7.91992 14.3584 6.68945 15 6.17969ZM5.53125 6.78906C5.68945 7.36328 5.86523 8.18066 5.95312 9.36719C5.90332 9.34668 5.83594 9.34082 5.78906 9.32031C5.07129 9.01855 4.80176 8.81055 4.6875 8.71094C4.85742 8.01953 5.14453 7.36621 5.53125 6.78906ZM4.5 10.375C4.70508 10.4893 4.93359 10.5889 5.20312 10.7031C5.42871 10.7969 5.70117 10.8965 5.97656 10.9844C5.94434 11.9863 5.75098 12.8652 5.55469 13.4922C4.94238 12.5957 4.5498 11.5264 4.5 10.375ZM16.5 10.375C16.4385 11.8311 15.835 13.1611 14.9062 14.1719C14.2705 13.832 13.1016 13.0029 12.8438 11.4531C14.0859 11.2832 15.082 11.0049 15.7969 10.7031C16.0664 10.5889 16.2949 10.4893 16.5 10.375ZM7.47656 11.3594C7.73145 11.4062 8.0127 11.4414 8.29688 11.4766C8.43164 13.0791 8.79785 14.3447 9.16406 15.25C9.28125 15.5371 9.40137 15.8008 9.51562 16.0234C8.46973 15.8477 7.49414 15.4023 6.70312 14.7578C6.95215 14.1514 7.37695 12.9121 7.47656 11.3594ZM9.82031 11.5938C10.04 11.6025 10.2656 11.6172 10.5 11.6172C10.79 11.6172 11.0742 11.6055 11.3438 11.5938C11.6133 13.4395 12.7998 14.5703 13.7109 15.1797C12.9902 15.6396 12.1553 15.9531 11.2734 16.0703C11.2471 16.0381 10.9277 15.6338 10.5469 14.6875C10.251 13.9521 9.95215 12.9268 9.82031 11.5938Z" fill="white"/>
</svg>
