<svg width="20" height="19" viewBox="0 0 20 19" fill="none" xmlns="http://www.w3.org/2000/svg">
<g clip-path="url(#clip0_1_4333)">
<path d="M10 1C5.05 1 1 5.05 1 10C1 14.95 5.05 19 10 19C12.257 19 14.3207 18.1633 15.9062 16.7781C16.0891 16.6902 16.2402 16.5391 16.3281 16.3562C17.9664 14.725 19 12.482 19 10C19 5.05 14.95 1 10 1ZM10.9281 2.85625C12.0707 3.00742 13.1395 3.43984 14.05 4.06562C12.9531 5.02891 11.1812 7.01523 10.9562 9.97187C10.6504 9.98594 10.3305 10 10 10C9.68711 10 9.38828 9.98242 9.1 9.97187C9.10352 7.49687 9.58164 5.69687 10.0562 4.51562C10.5133 3.38008 10.8965 2.89492 10.9281 2.85625ZM8.81875 2.9125C8.68164 3.17969 8.5375 3.49609 8.39687 3.84062C7.85195 5.18711 7.32461 7.17695 7.3 9.80312C6.97656 9.75742 6.65664 9.69414 6.37187 9.63437C6.23125 6.68125 5.59844 4.91641 5.41562 4.45937C6.36836 3.67187 7.54961 3.12695 8.81875 2.9125ZM15.4 5.275C16.1488 6.13281 16.6973 7.17695 16.975 8.3125C16.8379 8.43203 16.5145 8.68164 15.6531 9.04375C14.9816 9.32852 14.0148 9.58867 12.7844 9.775C13.0867 7.36328 14.6301 5.88672 15.4 5.275ZM4.0375 6.00625C4.22734 6.69531 4.43828 7.67617 4.54375 9.1C4.48398 9.07539 4.40312 9.06836 4.34687 9.04375C3.48555 8.68164 3.16211 8.43203 3.025 8.3125C3.22891 7.48281 3.57344 6.69883 4.0375 6.00625ZM2.8 10.3094C3.04609 10.4465 3.32031 10.566 3.64375 10.7031C3.91445 10.8156 4.24141 10.9352 4.57187 11.0406C4.5332 12.243 4.30117 13.2977 4.06562 14.05C3.33086 12.9742 2.85977 11.691 2.8 10.3094ZM17.2 10.3094C17.1262 12.0566 16.402 13.6527 15.2875 14.8656C14.5246 14.4578 13.1219 13.4629 12.8125 11.6031C14.3031 11.3992 15.4984 11.0652 16.3562 10.7031C16.6797 10.566 16.9539 10.4465 17.2 10.3094ZM6.37187 11.4906C6.67773 11.5469 7.01523 11.5891 7.35625 11.6312C7.51797 13.5543 7.95742 15.073 8.39687 16.1594C8.5375 16.5039 8.68164 16.8203 8.81875 17.0875C7.56367 16.8766 6.39297 16.3422 5.44375 15.5687C5.74258 14.841 6.25234 13.3539 6.37187 11.4906ZM9.18437 11.7719C9.44805 11.7824 9.71875 11.8 10 11.8C10.348 11.8 10.6891 11.7859 11.0125 11.7719C11.3359 13.9867 12.7598 15.3437 13.8531 16.075C12.9883 16.627 11.9863 17.0031 10.9281 17.1437C10.8965 17.1051 10.5133 16.6199 10.0562 15.4844C9.70117 14.602 9.34258 13.3715 9.18437 11.7719Z" fill="white"/>
</g>
<defs>
<clipPath id="clip0_1_4333">
<rect width="18.55" height="18.55" fill="white" transform="translate(0.838867 0.128906)"/>
</clipPath>
</defs>
</svg>
