<svg width="20" height="20" viewBox="0 0 20 20" fill="none" xmlns="http://www.w3.org/2000/svg">
<path d="M8.5 2C4.375 2 1 5.375 1 9.5C1 13.625 4.375 17 8.5 17C10.3809 17 12.1006 16.3027 13.4219 15.1484C13.5742 15.0752 13.7002 14.9492 13.7734 14.7969C15.1387 13.4375 16 11.5684 16 9.5C16 5.375 12.625 2 8.5 2ZM9.27344 3.54688C10.2256 3.67285 11.1162 4.0332 11.875 4.55469C10.9609 5.35742 9.48438 7.0127 9.29688 9.47656C9.04199 9.48828 8.77539 9.5 8.5 9.5C8.23926 9.5 7.99023 9.48535 7.75 9.47656C7.75293 7.41406 8.15137 5.91406 8.54688 4.92969C8.92773 3.9834 9.24707 3.5791 9.27344 3.54688ZM7.51562 3.59375C7.40137 3.81641 7.28125 4.08008 7.16406 4.36719C6.70996 5.48926 6.27051 7.14746 6.25 9.33594C5.98047 9.29785 5.71387 9.24512 5.47656 9.19531C5.35938 6.73438 4.83203 5.26367 4.67969 4.88281C5.47363 4.22656 6.45801 3.77246 7.51562 3.59375ZM13 5.5625C13.624 6.27734 14.0811 7.14746 14.3125 8.09375C14.1982 8.19336 13.9287 8.40137 13.2109 8.70312C12.6514 8.94043 11.8457 9.15723 10.8203 9.3125C11.0723 7.30273 12.3584 6.07227 13 5.5625ZM3.53125 6.17188C3.68945 6.74609 3.86523 7.56348 3.95312 8.75C3.90332 8.72949 3.83594 8.72363 3.78906 8.70312C3.07129 8.40137 2.80176 8.19336 2.6875 8.09375C2.85742 7.40234 3.14453 6.74902 3.53125 6.17188ZM2.5 9.75781C2.70508 9.87207 2.93359 9.97168 3.20312 10.0859C3.42871 10.1797 3.70117 10.2793 3.97656 10.3672C3.94434 11.3691 3.75098 12.248 3.55469 12.875C2.94238 11.9785 2.5498 10.9092 2.5 9.75781ZM14.5 9.75781C14.4385 11.2139 13.835 12.5439 12.9062 13.5547C12.2705 13.2148 11.1016 12.3857 10.8438 10.8359C12.0859 10.666 13.082 10.3877 13.7969 10.0859C14.0664 9.97168 14.2949 9.87207 14.5 9.75781ZM5.47656 10.7422C5.73145 10.7891 6.0127 10.8242 6.29688 10.8594C6.43164 12.4619 6.79785 13.7275 7.16406 14.6328C7.28125 14.9199 7.40137 15.1836 7.51562 15.4062C6.46973 15.2305 5.49414 14.7852 4.70312 14.1406C4.95215 13.5342 5.37695 12.2949 5.47656 10.7422ZM7.82031 10.9766C8.04004 10.9854 8.26562 11 8.5 11C8.79004 11 9.07422 10.9883 9.34375 10.9766C9.61328 12.8223 10.7998 13.9531 11.7109 14.5625C10.9902 15.0225 10.1553 15.3359 9.27344 15.4531C9.24707 15.4209 8.92773 15.0166 8.54688 14.0703C8.25098 13.335 7.95215 12.3096 7.82031 10.9766Z" fill="white"/>
</svg>
