<svg width="20" height="20" viewBox="0 0 20 20" fill="none" xmlns="http://www.w3.org/2000/svg">
<path d="M5.33333 1.61719C4.05425 1.61719 3 2.70156 3 4.01719V15.2172C3 16.5328 4.05425 17.6172 5.33333 17.6172H14.6667C15.9457 17.6172 17 16.5328 17 15.2172V4.01719C17 2.70156 15.9457 1.61719 14.6667 1.61719H5.33333ZM5.33333 3.21719H6.88889V5.61719H13.1111V3.21719H14.6667C15.0981 3.21719 15.4444 3.57344 15.4444 4.01719V8.81719H12.9896C12.6432 7.43906 11.4492 6.41719 10 6.41719C8.55078 6.41719 7.35677 7.43906 7.01042 8.81719H4.55556V4.01719C4.55556 3.57344 4.90191 3.21719 5.33333 3.21719ZM8.44444 3.21719H11.5556V4.01719H8.44444V3.21719ZM10 8.01719C10.6289 8.01719 11.112 8.32656 11.3611 8.81719H8.63889C8.88802 8.32656 9.37109 8.01719 10 8.01719ZM4.55556 10.4172H7.01042C7.35677 11.7953 8.55078 12.8172 10 12.8172C11.4492 12.8172 12.6432 11.7953 12.9896 10.4172H15.4444V15.2172C15.4444 15.6609 15.0981 16.0172 14.6667 16.0172H13.1111V13.6172H6.88889V16.0172H5.33333C4.90191 16.0172 4.55556 15.6609 4.55556 15.2172V10.4172ZM8.63889 10.4172H11.3611C11.112 10.9078 10.6289 11.2172 10 11.2172C9.37109 11.2172 8.88802 10.9078 8.63889 10.4172ZM8.44444 15.2172H11.5556V16.0172H8.44444V15.2172Z" fill="white"/>
</svg>
