<svg width="20" height="19" viewBox="0 0 20 19" fill="none" xmlns="http://www.w3.org/2000/svg">
<g clip-path="url(#clip0_1_6398)">
<path d="M4.13228 2C3.0765 2 2.23202 2.94418 2.36487 3.99809V3.99983C2.62961 6.07962 3.61162 7.59108 4.43407 8.80253C5.25652 10.014 5.84765 10.9049 5.84765 11.7684C5.84599 11.8861 5.86773 12.003 5.91161 12.1122C5.95549 12.2214 6.02064 12.3207 6.10327 12.4046C6.18589 12.4884 6.28435 12.5549 6.39292 12.6003C6.50149 12.6457 6.618 12.6691 6.73569 12.6691C6.85338 12.6691 6.96989 12.6457 7.07846 12.6003C7.18703 12.5549 7.28549 12.4884 7.36812 12.4046C7.45075 12.3207 7.51589 12.2214 7.55978 12.1122C7.60366 12.003 7.6254 11.8861 7.62373 11.7684C7.62373 11.7541 7.62041 11.7411 7.62026 11.7268C8.4892 13.6921 9.39981 14.4326 9.39981 14.4326H12.952C12.952 14.4326 13.8626 13.6921 14.7315 11.7268C14.7314 11.7411 14.7281 11.7541 14.7281 11.7684C14.7264 11.8861 14.7481 12.003 14.792 12.1122C14.8359 12.2214 14.901 12.3207 14.9837 12.4046C15.0663 12.4884 15.1648 12.5549 15.2733 12.6003C15.3819 12.6457 15.4984 12.6691 15.6161 12.6691C15.7338 12.6691 15.8503 12.6457 15.9589 12.6003C16.0674 12.5549 16.1659 12.4884 16.2485 12.4046C16.3312 12.3207 16.3963 12.2214 16.4402 12.1122C16.4841 12.003 16.5058 11.8861 16.5041 11.7684C16.5041 10.9049 17.0953 10.014 17.9177 8.80253C18.7402 7.59108 19.7222 6.07962 19.9869 3.99983C20.1217 2.94441 19.2753 2 18.2195 2H4.13228ZM18.2247 3.77435C18.0152 5.41989 17.2526 6.62096 16.4486 7.80522C16.1626 8.22653 15.8739 8.65541 15.6057 9.09565C15.9529 7.67736 16.2044 5.92147 16.2613 3.77608H18.2195C18.2294 3.77608 18.2247 3.77435 18.2247 3.77435ZM4.12707 3.77608C4.12671 3.77323 4.12241 3.77608 4.13228 3.77608H6.09048C6.14736 5.92147 6.3989 7.67736 6.7461 9.09565C6.47791 8.65541 6.18919 8.22654 5.90315 7.80522C5.09945 6.62139 4.33687 5.4207 4.12707 3.77608ZM7.62373 16.2086C7.13353 16.2086 6.73569 16.6065 6.73569 17.0967C6.73569 17.5869 7.13353 17.9847 7.62373 17.9847H14.7281C15.2183 17.9847 15.6161 17.5869 15.6161 17.0967C15.6161 16.6065 15.2183 16.2086 14.7281 16.2086H7.62373Z" fill="white"/>
</g>
<defs>
<clipPath id="clip0_1_6398">
<rect width="18.55" height="18.55" fill="white" transform="translate(0.838867 0.363281)"/>
</clipPath>
</defs>
</svg>
