<svg width="20" height="20" viewBox="0 0 20 20" fill="none" xmlns="http://www.w3.org/2000/svg">
<g clip-path="url(#clip0_1_350)">
<g clip-path="url(#clip1_1_350)">
<path d="M16.939 18.9189C18.0478 18.9189 18.9678 17.999 18.9678 16.8902L18.9678 2.68902C18.9678 1.58025 18.0478 0.660277 16.939 0.660277L2.73785 0.660276C1.62908 0.660276 0.709107 1.58025 0.709107 2.68902L0.709106 16.8902C0.709106 17.999 1.62908 18.9189 2.73785 18.9189L16.939 18.9189ZM16.939 16.8902L7.8097 16.8902L7.8097 9.78961L7.8097 2.68902L16.939 2.68902L16.939 16.8902ZM7.8097 9.78961L11.8672 13.8471L11.8672 10.804L14.9103 10.804L14.9103 8.77524L11.8672 8.77524L11.8672 5.73213L7.8097 9.78961Z" fill="white"/>
</g>
</g>
<defs>
<clipPath id="clip0_1_350">
<rect width="18.55" height="18.55" fill="white" transform="translate(0.838867 0.789551)"/>
</clipPath>
<clipPath id="clip1_1_350">
<rect width="18.55" height="18.55" fill="white" transform="translate(0.838867 0.789551)"/>
</clipPath>
</defs>
</svg>
