<svg width="20" height="20" viewBox="0 0 20 20" fill="none" xmlns="http://www.w3.org/2000/svg">
<g clip-path="url(#clip0_1_6252)">
<path d="M6.18616 0.76714C5.2092 0.76714 4.41866 1.55768 4.41866 2.53464C4.41866 3.5116 5.2092 4.30214 6.18616 4.30214C7.16311 4.30214 7.95366 3.5116 7.95366 2.53464C7.95366 1.55768 7.16311 0.76714 6.18616 0.76714ZM15.7141 0.76714C15.4345 0.801662 15.2998 0.932843 15.2998 0.932843L6.02045 10.1846C5.79261 10.4124 5.79261 10.7853 6.02045 11.0131L9.19643 14.1891C9.42427 14.4169 9.7971 14.4169 10.0249 14.1891L19.2767 4.90972C19.2767 4.90972 20.0362 3.90169 18.172 2.03753C17.0052 0.870705 16.1801 0.708454 15.7141 0.76714ZM5.7719 12.0902V12.4768C5.77535 12.8635 5.63036 13.2536 5.35764 13.5263L1.93311 16.9232C1.69836 17.1579 1.69836 17.5446 1.93311 17.7793L2.43022 18.2764C2.66496 18.5112 3.05161 18.5112 3.28635 18.2764L6.68327 14.8519C6.96289 14.5723 7.33917 14.4307 7.73272 14.4376H8.11936L5.7719 12.0902Z" fill="white"/>
</g>
<defs>
<clipPath id="clip0_1_6252">
<rect width="18.55" height="18.55" fill="white" transform="translate(0.839081 0.9375)"/>
</clipPath>
</defs>
</svg>
