<svg width="20" height="20" viewBox="0 0 20 20" fill="none" xmlns="http://www.w3.org/2000/svg">
<g clip-path="url(#clip0_207_210)">
<path d="M11 0.893555C6.05 0.893555 2 4.94355 2 9.89355C2 14.8436 6.05 18.8936 11 18.8936C13.257 18.8936 15.3207 18.0568 16.9062 16.6717C17.0891 16.5838 17.2402 16.4326 17.3281 16.2498C18.9664 14.6186 20 12.3756 20 9.89355C20 4.94355 15.95 0.893555 11 0.893555ZM11.9281 2.7498C13.0707 2.90098 14.1395 3.3334 15.05 3.95918C13.9531 4.92246 12.1812 6.90879 11.9562 9.86543C11.6504 9.87949 11.3305 9.89355 11 9.89355C10.6871 9.89355 10.3883 9.87598 10.1 9.86543C10.1035 7.39043 10.5816 5.59043 11.0562 4.40918C11.5133 3.27363 11.8965 2.78848 11.9281 2.7498ZM9.81875 2.80605C9.68164 3.07324 9.5375 3.38965 9.39687 3.73418C8.85195 5.08066 8.32461 7.07051 8.3 9.69668C7.97656 9.65098 7.65664 9.58769 7.37187 9.52793C7.23125 6.5748 6.59844 4.80996 6.41562 4.35293C7.36836 3.56543 8.54961 3.02051 9.81875 2.80605ZM16.4 5.16855C17.1488 6.02637 17.6973 7.07051 17.975 8.20605C17.8379 8.32559 17.5145 8.57519 16.6531 8.9373C15.9816 9.22207 15.0148 9.48223 13.7844 9.66855C14.0867 7.25684 15.6301 5.78027 16.4 5.16855ZM5.0375 5.8998C5.22734 6.58887 5.43828 7.56973 5.54375 8.99355C5.48398 8.96894 5.40312 8.96191 5.34687 8.9373C4.48555 8.57519 4.16211 8.32559 4.025 8.20605C4.22891 7.37637 4.57344 6.59238 5.0375 5.8998ZM3.8 10.2029C4.04609 10.34 4.32031 10.4596 4.64375 10.5967C4.91445 10.7092 5.24141 10.8287 5.57187 10.9342C5.5332 12.1365 5.30117 13.1912 5.06562 13.9436C4.33086 12.8678 3.85977 11.5846 3.8 10.2029ZM18.2 10.2029C18.1262 11.9502 17.402 13.5463 16.2875 14.7592C15.5246 14.3514 14.1219 13.3564 13.8125 11.4967C15.3031 11.2928 16.4984 10.9588 17.3562 10.5967C17.6797 10.4596 17.9539 10.34 18.2 10.2029ZM7.37187 11.3842C7.67773 11.4404 8.01523 11.4826 8.35625 11.5248C8.51797 13.4479 8.95742 14.9666 9.39687 16.0529C9.5375 16.3975 9.68164 16.7139 9.81875 16.9811C8.56367 16.7701 7.39297 16.2357 6.44375 15.4623C6.74258 14.7346 7.25234 13.2475 7.37187 11.3842ZM10.1844 11.6654C10.448 11.676 10.7187 11.6936 11 11.6936C11.348 11.6936 11.6891 11.6795 12.0125 11.6654C12.3359 13.8803 13.7598 15.2373 14.8531 15.9686C13.9883 16.5205 12.9863 16.8967 11.9281 17.0373C11.8965 16.9986 11.5133 16.5135 11.0562 15.3779C10.7012 14.4955 10.3426 13.265 10.1844 11.6654Z" fill="white"/>
</g>
<defs>
<clipPath id="clip0_207_210">
<rect width="18.55" height="18.55" fill="white" transform="translate(0.838867 0.640625)"/>
</clipPath>
</defs>
</svg>
