<svg width="20" height="20" viewBox="0 0 20 20" fill="none" xmlns="http://www.w3.org/2000/svg">
<g clip-path="url(#clip0_1_6973)">
<path d="M3.00024 0.691406C1.90718 0.691406 1.00024 1.59834 1.00024 2.69141V8.69141H3.00024V2.69141H9.00024V0.691406H3.00024ZM11.0002 0.691406V2.69141H17.0002V8.69141H19.0002V2.69141C19.0002 1.59834 18.0933 0.691406 17.0002 0.691406H11.0002ZM13.5002 4.69141C13.1024 4.69141 12.7209 4.84944 12.4396 5.13075C12.1583 5.41205 12.0002 5.79358 12.0002 6.19141C12.0002 6.58923 12.1583 6.97076 12.4396 7.25207C12.7209 7.53337 13.1024 7.69141 13.5002 7.69141C13.8981 7.69141 14.2796 7.53337 14.5609 7.25207C14.8422 6.97076 15.0002 6.58923 15.0002 6.19141C15.0002 5.79358 14.8422 5.41205 14.5609 5.13075C14.2796 4.84944 13.8981 4.69141 13.5002 4.69141ZM8.50024 10.0234L5.00024 14.6914H15.0002L12.5002 11.3594L11.0002 13.3594L8.50024 10.0234ZM1.00024 10.6914V16.6914C1.00024 17.7845 1.90718 18.6914 3.00024 18.6914H9.00024V16.6914H3.00024V10.6914H1.00024ZM17.0002 10.6914V16.6914H11.0002V18.6914H17.0002C18.0933 18.6914 19.0002 17.7845 19.0002 16.6914V10.6914H17.0002Z" fill="white"/>
</g>
<defs>
<clipPath id="clip0_1_6973">
<rect width="18.55" height="18.55" fill="white" transform="translate(0.839111 0.597656)"/>
</clipPath>
</defs>
</svg>
