<svg width="20" height="20" viewBox="0 0 20 20" fill="none" xmlns="http://www.w3.org/2000/svg">
<g clip-path="url(#clip0_1_6965)">
<path d="M5.99952 1.5918C3.80213 1.5918 1.99934 3.39459 1.99934 5.59198C1.99934 7.78938 3.80213 9.59217 5.99952 9.59217C8.19692 9.59217 9.99971 7.78938 9.99971 5.59198C9.99971 3.39459 8.19692 1.5918 5.99952 1.5918ZM13.9999 1.5918C12.9068 1.5918 11.9998 2.49878 11.9998 3.59189V7.59207C11.9998 8.68519 12.9068 9.59217 13.9999 9.59217H18.0001C19.0932 9.59217 20.0002 8.68519 20.0002 7.59207V3.59189C20.0002 2.49878 19.0932 1.5918 18.0001 1.5918H13.9999ZM5.99952 3.59189C7.11599 3.59189 7.99961 4.47552 7.99961 5.59198C7.99961 6.70845 7.11599 7.59207 5.99952 7.59207C4.88306 7.59207 3.99943 6.70845 3.99943 5.59198C3.99943 4.47552 4.88306 3.59189 5.99952 3.59189ZM13.9999 3.59189H18.0001V7.59207H13.9999V3.59189ZM15.5273 11.3266C15.3069 11.3202 15.0906 11.3868 14.912 11.5161L11.617 13.9107C11.4463 14.0348 11.3192 14.2097 11.254 14.4104C11.1887 14.6111 11.1886 14.8272 11.2537 15.028L12.5135 18.9012C12.5787 19.1021 12.7059 19.2773 12.8767 19.4015C13.0476 19.5257 13.2535 19.5926 13.4647 19.5926H17.5352C17.7465 19.5926 17.9523 19.5257 18.1232 19.4015C18.2941 19.2773 18.4212 19.1021 18.4864 18.9012L19.7463 15.028C19.8113 14.8272 19.8112 14.6111 19.7459 14.4104C19.6807 14.2097 19.5536 14.0348 19.383 13.9107L16.0879 11.5161C15.9244 11.3978 15.729 11.3318 15.5273 11.3266ZM6.00733 11.5923C5.82028 11.5908 5.63656 11.6418 5.47705 11.7395C5.31753 11.8372 5.18862 11.9777 5.10495 12.145L2.10481 18.1453C2.02859 18.2978 1.99261 18.4672 2.00028 18.6375C2.00796 18.8078 2.05903 18.9733 2.14866 19.1183C2.23828 19.2633 2.36349 19.383 2.51238 19.466C2.66127 19.549 2.82891 19.5926 2.99938 19.5926H8.99966C9.17013 19.5926 9.33777 19.549 9.48666 19.466C9.63555 19.383 9.76076 19.2633 9.85038 19.1183C9.94001 18.9733 9.99109 18.8078 9.99876 18.6375C10.0064 18.4672 9.97045 18.2978 9.89423 18.1453L6.89409 12.145C6.81161 11.9801 6.68513 11.8412 6.52864 11.7436C6.37215 11.6461 6.19173 11.5937 6.00733 11.5923ZM15.5 13.5611L17.6192 15.1022L16.8086 17.5925H14.1894L13.3807 15.1022L15.5 13.5611ZM5.99952 14.8287L7.3824 17.5925H4.61664L5.99952 14.8287Z" fill="white"/>
</g>
<defs>
<clipPath id="clip0_1_6965">
<rect width="18.55" height="18.55" fill="white" transform="translate(0.839111 0.980469)"/>
</clipPath>
</defs>
</svg>
