<svg width="20" height="19" viewBox="0 0 20 19" fill="none" xmlns="http://www.w3.org/2000/svg">
<g clip-path="url(#clip0_1_6231)">
<path d="M4.13249 2C3.07671 2 2.23224 2.94418 2.36508 3.99809V3.99983C2.62983 6.07962 3.61183 7.59108 4.43429 8.80253C5.25674 10.014 5.84787 10.9049 5.84787 11.7684C5.8462 11.8861 5.86794 12.003 5.91182 12.1122C5.9557 12.2214 6.02085 12.3207 6.10348 12.4046C6.18611 12.4884 6.28457 12.5549 6.39313 12.6003C6.5017 12.6457 6.61822 12.6691 6.73591 12.6691C6.85359 12.6691 6.97011 12.6457 7.07868 12.6003C7.18725 12.5549 7.28571 12.4884 7.36833 12.4046C7.45096 12.3207 7.51611 12.2214 7.55999 12.1122C7.60387 12.003 7.62561 11.8861 7.62395 11.7684C7.62395 11.7541 7.62062 11.7411 7.62048 11.7268C8.48941 13.6921 9.40003 14.4326 9.40003 14.4326H12.9522C12.9522 14.4326 13.8628 13.6921 14.7317 11.7268C14.7316 11.7411 14.7283 11.7541 14.7283 11.7684C14.7266 11.8861 14.7483 12.003 14.7922 12.1122C14.8361 12.2214 14.9013 12.3207 14.9839 12.4046C15.0665 12.4884 15.165 12.5549 15.2735 12.6003C15.3821 12.6457 15.4986 12.6691 15.6163 12.6691C15.734 12.6691 15.8505 12.6457 15.9591 12.6003C16.0677 12.5549 16.1661 12.4884 16.2487 12.4046C16.3314 12.3207 16.3965 12.2214 16.4404 12.1122C16.4843 12.003 16.506 11.8861 16.5044 11.7684C16.5044 10.9049 17.0955 10.014 17.9179 8.80253C18.7404 7.59108 19.7224 6.07962 19.9871 3.99983C20.1219 2.94441 19.2755 2 18.2197 2H4.13249ZM18.2249 3.77435C18.0155 5.41989 17.2528 6.62096 16.4488 7.80522C16.1628 8.22653 15.8741 8.65541 15.6059 9.09565C15.9531 7.67736 16.2046 5.92147 16.2615 3.77608H18.2197C18.2296 3.77608 18.2249 3.77435 18.2249 3.77435ZM4.12729 3.77608C4.12693 3.77323 4.12262 3.77608 4.13249 3.77608H6.09069C6.14757 5.92147 6.39911 7.67736 6.74631 9.09565C6.47812 8.65541 6.1894 8.22654 5.90337 7.80522C5.09967 6.62139 4.33708 5.4207 4.12729 3.77608ZM7.62395 16.2086C7.13375 16.2086 6.73591 16.6065 6.73591 17.0967C6.73591 17.5869 7.13375 17.9847 7.62395 17.9847H14.7283C15.2185 17.9847 15.6163 17.5869 15.6163 17.0967C15.6163 16.6065 15.2185 16.2086 14.7283 16.2086H7.62395Z" fill="white"/>
</g>
<defs>
<clipPath id="clip0_1_6231">
<rect width="18.55" height="18.55" fill="white" transform="translate(0.839081 0.363281)"/>
</clipPath>
</defs>
</svg>
