<svg width="20" height="20" viewBox="0 0 20 20" fill="none" xmlns="http://www.w3.org/2000/svg">
<g clip-path="url(#clip0_207_186)">
<path d="M4.13277 2.61719C3.07698 2.61719 2.23251 3.56136 2.36536 4.61528V4.61701C2.6301 6.69681 3.61211 8.20827 4.43456 9.41972C5.25701 10.6312 5.84814 11.5221 5.84814 12.3856C5.84648 12.5033 5.86822 12.6201 5.9121 12.7293C5.95598 12.8385 6.02113 12.9379 6.10375 13.0217C6.18638 13.1055 6.28484 13.1721 6.39341 13.2175C6.50198 13.2629 6.61849 13.2863 6.73618 13.2863C6.85387 13.2863 6.97038 13.2629 7.07895 13.2175C7.18752 13.1721 7.28598 13.1055 7.36861 13.0217C7.45123 12.9379 7.51638 12.8385 7.56026 12.7293C7.60414 12.6201 7.62589 12.5033 7.62422 12.3856C7.62422 12.3713 7.6209 12.3582 7.62075 12.344C8.48969 14.3093 9.4003 15.0498 9.4003 15.0498H12.9525C12.9525 15.0498 13.8631 14.3093 14.732 12.344C14.7319 12.3582 14.7285 12.3713 14.7285 12.3856C14.7269 12.5033 14.7486 12.6201 14.7925 12.7293C14.8364 12.8385 14.9015 12.9379 14.9842 13.0217C15.0668 13.1055 15.1652 13.1721 15.2738 13.2175C15.3824 13.2629 15.4989 13.2863 15.6166 13.2863C15.7343 13.2863 15.8508 13.2629 15.9594 13.2175C16.0679 13.1721 16.1664 13.1055 16.249 13.0217C16.3316 12.9379 16.3968 12.8385 16.4407 12.7293C16.4845 12.6201 16.5063 12.5033 16.5046 12.3856C16.5046 11.5221 17.0958 10.6312 17.9182 9.41972C18.7407 8.20827 19.7227 6.6968 19.9874 4.61701C20.1222 3.56159 19.2758 2.61719 18.22 2.61719H4.13277ZM18.2252 4.39153C18.0157 6.03707 17.2531 7.23814 16.4491 8.42241C16.1631 8.84372 15.8744 9.2726 15.6062 9.71284C15.9534 8.29455 16.2049 6.53866 16.2618 4.39327H18.22C18.2299 4.39327 18.2252 4.39153 18.2252 4.39153ZM4.12756 4.39327C4.1272 4.39042 4.1229 4.39327 4.13277 4.39327H6.09096C6.14784 6.53866 6.39939 8.29455 6.74659 9.71284C6.4784 9.2726 6.18967 8.84372 5.90364 8.42241C5.09994 7.23857 4.33736 6.03789 4.12756 4.39327ZM7.62422 16.8258C7.13402 16.8258 6.73618 17.2237 6.73618 17.7139C6.73618 18.2041 7.13402 18.6019 7.62422 18.6019H14.7285C15.2187 18.6019 15.6166 18.2041 15.6166 17.7139C15.6166 17.2237 15.2187 16.8258 14.7285 16.8258H7.62422Z" fill="white"/>
</g>
<defs>
<clipPath id="clip0_207_186">
<rect width="18.55" height="18.55" fill="white" transform="translate(0.838867 0.980469)"/>
</clipPath>
</defs>
</svg>
