<svg width="20" height="19" viewBox="0 0 20 19" fill="none" xmlns="http://www.w3.org/2000/svg">
<g clip-path="url(#clip0_1_3055)">
<path d="M5.99946 0.634766C3.80206 0.634766 1.99928 2.43755 1.99928 4.63495C1.99928 6.83235 3.80206 8.63514 5.99946 8.63514C8.19686 8.63514 9.99965 6.83235 9.99965 4.63495C9.99965 2.43755 8.19686 0.634766 5.99946 0.634766ZM13.9998 0.634766C12.9067 0.634766 11.9997 1.54174 11.9997 2.63486V6.63504C11.9997 7.72816 12.9067 8.63514 13.9998 8.63514H18C19.0931 8.63514 20.0001 7.72816 20.0001 6.63504V2.63486C20.0001 1.54174 19.0931 0.634766 18 0.634766H13.9998ZM5.99946 2.63486C7.11593 2.63486 7.99955 3.51848 7.99955 4.63495C7.99955 5.75142 7.11593 6.63504 5.99946 6.63504C4.88299 6.63504 3.99937 5.75142 3.99937 4.63495C3.99937 3.51848 4.88299 2.63486 5.99946 2.63486ZM13.9998 2.63486H18V6.63504H13.9998V2.63486ZM15.5272 10.3696C15.3069 10.3632 15.0906 10.4298 14.912 10.5591L11.6169 12.9537C11.4462 13.0778 11.3192 13.2527 11.2539 13.4533C11.1887 13.654 11.1886 13.8702 11.2536 14.0709L12.5134 17.9442C12.5786 18.1451 12.7058 18.3202 12.8767 18.4445C13.0476 18.5687 13.2534 18.6356 13.4646 18.6356H17.5352C17.7464 18.6356 17.9522 18.5687 18.1231 18.4445C18.294 18.3202 18.4212 18.1451 18.4864 17.9442L19.7462 14.0709C19.8112 13.8702 19.8111 13.654 19.7459 13.4533C19.6806 13.2527 19.5536 13.0778 19.3829 12.9537L16.0878 10.5591C15.9243 10.4408 15.7289 10.3748 15.5272 10.3696ZM6.00727 10.6352C5.82022 10.6338 5.6365 10.6848 5.47699 10.7825C5.31747 10.8802 5.18856 11.0207 5.10489 11.188L2.10475 17.1883C2.02853 17.3407 1.99255 17.5102 2.00022 17.6805C2.00789 17.8508 2.05897 18.0163 2.1486 18.1613C2.23822 18.3063 2.36343 18.426 2.51232 18.509C2.66121 18.592 2.82885 18.6356 2.99932 18.6356H8.9996C9.17007 18.6356 9.33771 18.592 9.4866 18.509C9.63549 18.426 9.7607 18.3063 9.85032 18.1613C9.93995 18.0163 9.99102 17.8508 9.9987 17.6805C10.0064 17.5102 9.97039 17.3407 9.89417 17.1883L6.89403 11.188C6.81155 11.0231 6.68507 10.8841 6.52858 10.7866C6.37209 10.689 6.19167 10.6367 6.00727 10.6352ZM15.4999 12.6041L17.6191 14.1452L16.8086 16.6355H14.1893L13.3807 14.1452L15.4999 12.6041ZM5.99946 13.8717L7.38234 16.6355H4.61658L5.99946 13.8717Z" fill="white"/>
</g>
<defs>
<clipPath id="clip0_1_3055">
<rect width="18.55" height="18.55" fill="white" transform="translate(0.83905 0.0239258)"/>
</clipPath>
</defs>
</svg>
