<svg width="20" height="20" viewBox="0 0 20 20" fill="none" xmlns="http://www.w3.org/2000/svg">
<g clip-path="url(#clip0_1_6996)">
<path d="M11 0.894531C6.05 0.894531 2 4.94453 2 9.89453C2 14.8445 6.05 18.8945 11 18.8945C13.257 18.8945 15.3207 18.0578 16.9062 16.6727C17.0891 16.5848 17.2402 16.4336 17.3281 16.2508C18.9664 14.6195 20 12.3766 20 9.89453C20 4.94453 15.95 0.894531 11 0.894531ZM11.9281 2.75078C13.0707 2.90195 14.1395 3.33438 15.05 3.96016C13.9531 4.92344 12.1812 6.90977 11.9562 9.86641C11.6504 9.88047 11.3305 9.89453 11 9.89453C10.6871 9.89453 10.3883 9.87695 10.1 9.86641C10.1035 7.39141 10.5816 5.59141 11.0562 4.41016C11.5133 3.27461 11.8965 2.78945 11.9281 2.75078ZM9.81875 2.80703C9.68164 3.07422 9.5375 3.39063 9.39687 3.73516C8.85195 5.08164 8.32461 7.07148 8.3 9.69766C7.97656 9.65195 7.65664 9.58867 7.37187 9.52891C7.23125 6.57578 6.59844 4.81094 6.41562 4.35391C7.36836 3.56641 8.54961 3.02148 9.81875 2.80703ZM16.4 5.16953C17.1488 6.02734 17.6973 7.07148 17.975 8.20703C17.8379 8.32656 17.5145 8.57617 16.6531 8.93828C15.9816 9.22305 15.0148 9.4832 13.7844 9.66953C14.0867 7.25781 15.6301 5.78125 16.4 5.16953ZM5.0375 5.90078C5.22734 6.58984 5.43828 7.5707 5.54375 8.99453C5.48398 8.96992 5.40312 8.96289 5.34687 8.93828C4.48555 8.57617 4.16211 8.32656 4.025 8.20703C4.22891 7.37734 4.57344 6.59336 5.0375 5.90078ZM3.8 10.2039C4.04609 10.341 4.32031 10.4605 4.64375 10.5977C4.91445 10.7102 5.24141 10.8297 5.57187 10.9352C5.5332 12.1375 5.30117 13.1922 5.06562 13.9445C4.33086 12.8688 3.85977 11.5855 3.8 10.2039ZM18.2 10.2039C18.1262 11.9512 17.402 13.5473 16.2875 14.7602C15.5246 14.3523 14.1219 13.3574 13.8125 11.4977C15.3031 11.2938 16.4984 10.9598 17.3562 10.5977C17.6797 10.4605 17.9539 10.341 18.2 10.2039ZM7.37187 11.3852C7.67773 11.4414 8.01523 11.4836 8.35625 11.5258C8.51797 13.4488 8.95742 14.9676 9.39687 16.0539C9.5375 16.3984 9.68164 16.7148 9.81875 16.982C8.56367 16.7711 7.39297 16.2367 6.44375 15.4633C6.74258 14.7355 7.25234 13.2484 7.37187 11.3852ZM10.1844 11.6664C10.448 11.677 10.7187 11.6945 11 11.6945C11.348 11.6945 11.6891 11.6805 12.0125 11.6664C12.3359 13.8813 13.7598 15.2383 14.8531 15.9695C13.9883 16.5215 12.9863 16.8977 11.9281 17.0383C11.8965 16.9996 11.5133 16.5145 11.0562 15.3789C10.7012 14.4965 10.3426 13.266 10.1844 11.6664Z" fill="white"/>
</g>
<defs>
<clipPath id="clip0_1_6996">
<rect width="18.55" height="18.55" fill="white" transform="translate(0.839111 0.641113)"/>
</clipPath>
</defs>
</svg>
