<svg width="20" height="20" viewBox="0 0 20 20" fill="none" xmlns="http://www.w3.org/2000/svg">
<path d="M5.3333 2C4.05422 2 2.99997 3.08438 2.99997 4.4V15.6C2.99997 16.9156 4.05422 18 5.3333 18H14.6666C15.9457 18 17 16.9156 17 15.6V4.4C17 3.08438 15.9457 2 14.6666 2H5.3333ZM5.3333 3.6H6.88886V6H13.1111V3.6H14.6666C15.0981 3.6 15.4444 3.95625 15.4444 4.4V9.2H12.9896C12.6432 7.82188 11.4492 6.8 9.99997 6.8C8.55075 6.8 7.35674 7.82188 7.01039 9.2H4.55553V4.4C4.55553 3.95625 4.90188 3.6 5.3333 3.6ZM8.44441 3.6H11.5555V4.4H8.44441V3.6ZM9.99997 8.4C10.6289 8.4 11.1119 8.70938 11.3611 9.2H8.63886C8.88799 8.70938 9.37106 8.4 9.99997 8.4ZM4.55553 10.8H7.01039C7.35674 12.1781 8.55075 13.2 9.99997 13.2C11.4492 13.2 12.6432 12.1781 12.9896 10.8H15.4444V15.6C15.4444 16.0438 15.0981 16.4 14.6666 16.4H13.1111V14H6.88886V16.4H5.3333C4.90188 16.4 4.55553 16.0438 4.55553 15.6V10.8ZM8.63886 10.8H11.3611C11.1119 11.2906 10.6289 11.6 9.99997 11.6C9.37106 11.6 8.88799 11.2906 8.63886 10.8ZM8.44441 15.6H11.5555V16.4H8.44441V15.6Z" fill="white"/>
</svg>
