<svg width="20" height="20" viewBox="0 0 20 20" fill="none" xmlns="http://www.w3.org/2000/svg">
<path d="M14.2186 4.00116C14.5386 4.04394 14.8482 4.14894 15.1274 4.31227L17.2106 5.52716L16.8882 7.09049H16.6002H15.0002V8.64605V14.8683H7.00021V8.64605V7.09049H5.40021H5.11221L4.79061 5.52716L6.87381 4.31227C7.15301 4.14972 7.46261 4.04394 7.78261 4.00116C8.45701 4.76727 9.54741 5.53494 11.0002 5.53494C12.453 5.53494 13.5434 4.76727 14.2186 4.00116ZM13.8922 2.42383H13.4002C13.4002 2.42383 12.6002 3.97938 11.0002 3.97938C9.40021 3.97938 8.60021 2.42383 8.60021 2.42383H8.10821C7.38341 2.42383 6.67221 2.61516 6.04981 2.97838L3.00021 4.75716L3.80021 8.64605H5.40021V16.4238H16.6002V8.64605H18.2002L19.0002 4.75716L15.9506 2.97838C15.3282 2.61516 14.617 2.42383 13.8922 2.42383Z" fill="white"/>
</svg>
