<svg width="20" height="19" viewBox="0 0 20 19" fill="none" xmlns="http://www.w3.org/2000/svg">
<path d="M14.2184 3.61835C14.5384 3.66113 14.848 3.76613 15.1272 3.92946L17.2104 5.14435L16.888 6.70768H16.6H15V8.26324V14.4855H7V8.26324V6.70768H5.4H5.112L4.7904 5.14435L6.8736 3.92946C7.1528 3.7669 7.4624 3.66113 7.7824 3.61835C8.4568 4.38446 9.5472 5.15213 11 5.15213C12.4528 5.15213 13.5432 4.38446 14.2184 3.61835ZM13.892 2.04102H13.4C13.4 2.04102 12.6 3.59657 11 3.59657C9.4 3.59657 8.6 2.04102 8.6 2.04102H8.108C7.3832 2.04102 6.672 2.23235 6.0496 2.59557L3 4.37435L3.8 8.26324H5.4V16.041H16.6V8.26324H18.2L19 4.37435L15.9504 2.59557C15.328 2.23235 14.6168 2.04102 13.892 2.04102Z" fill="white"/>
</svg>
