<svg width="20" height="19" viewBox="0 0 20 19" fill="none" xmlns="http://www.w3.org/2000/svg">
<g clip-path="url(#clip0_1_5114)">
<path d="M9.71429 2C5.45429 2 2 5.45429 2 9.71429C2 13.9743 5.45429 17.4286 9.71429 17.4286C12.9886 17.4286 15.7918 15.38 16.9146 12.5L19.7941 5.57422C19.7941 5.57422 20 5.12 20 4.57143C20 3.14857 18.8514 2 17.4286 2H9.71429ZM9.71429 3.71429C13.0314 3.71429 15.7143 6.39714 15.7143 9.71429C15.7143 13.0314 13.0314 15.7143 9.71429 15.7143C8.31553 15.7143 7.03243 15.2324 6.01283 14.4319C6.1178 14.4783 6.23481 14.4976 6.35603 14.4721C6.66288 14.4078 6.62391 14.1901 6.58705 13.9715C6.54848 13.7375 6.70985 13.726 6.86328 13.7372C7.15728 13.7577 7.32791 13.6322 7.43248 13.3588C7.74276 12.5454 8.06443 11.7355 8.38672 10.9263C8.51358 10.6083 8.63845 10.5707 8.86217 10.8175C9.24788 11.2427 9.60851 11.6903 9.97879 12.1283C10.0019 12.1558 10.0213 12.192 10.029 12.2271C10.179 12.8777 10.3597 13.5234 10.466 14.1808C10.5422 14.6505 10.8547 15.0039 11.3382 15.0296C11.4736 15.0364 11.6561 15.0375 11.7349 14.9509C11.7864 14.8943 11.724 14.683 11.6546 14.5776C11.3991 14.1884 11.3435 13.7603 11.2963 13.3086C11.2166 12.5509 11.1743 11.7658 10.5932 11.1641C10.4295 10.9943 10.2749 10.8145 10.4275 10.5497C10.4489 10.5128 10.4348 10.4283 10.4057 10.3906C10.1357 10.0392 9.88562 9.66721 9.57533 9.35435C9.37305 9.15035 9.29557 9.00282 9.44643 8.75167C9.521 8.62825 9.6027 8.48789 9.61384 8.34989C9.63698 8.06446 9.76715 7.95997 10.0474 7.91797C10.4434 7.85883 10.8656 7.82399 11.1339 7.44085C11.1734 7.38342 11.3097 7.34747 11.3834 7.36719C11.6628 7.44262 11.8331 7.38008 11.8605 7.04408L12.1183 6.98382C12.3369 6.87496 12.489 6.80229 12.639 6.726C12.8147 6.63686 12.9812 6.52586 13.1646 6.45815C13.3249 6.399 13.5028 6.3868 13.6451 6.35938C13.5765 6.21109 13.5124 6.07404 13.4609 5.96261C13.1164 5.96261 12.7562 6.06007 12.5017 5.9375C12.2325 5.80721 12.0143 5.88674 11.7734 5.87388C11.608 5.86446 11.4124 5.88908 11.2829 5.81194C10.9281 5.59937 10.6307 5.74679 10.3153 5.88393C10.2381 5.91736 10.144 5.91125 10.0575 5.92411C10.0498 5.82982 10.0305 5.73629 10.0374 5.64286C10.0485 5.498 10.1192 5.34547 10.091 5.21261C10.0001 4.78575 9.62242 4.57143 9.22042 4.57143C8.773 4.57143 8.50961 4.87527 8.48047 5.33984C8.4659 5.5687 8.37784 5.72177 8.22098 5.89063C7.94327 6.19148 7.59647 6.45848 7.5279 6.90848C7.44562 7.44077 7.35144 7.96995 7.27344 8.50223C7.23572 8.7568 7.21084 9.01518 7.20313 9.27232C7.19455 9.54575 7.26815 9.8321 7.20815 10.091C7.06329 10.7141 6.8495 11.3211 6.6875 11.9408C6.61293 12.2263 6.49279 12.43 6.22879 12.5938C5.63222 12.964 5.46386 13.5163 5.70815 14.1172C5.72776 14.1655 5.75669 14.2048 5.78516 14.2444C4.51794 13.1449 3.71429 11.5263 3.71429 9.71429C3.71429 6.39714 6.39714 3.71429 9.71429 3.71429ZM10.2651 6.46652C10.4066 6.44413 10.5734 6.47327 10.7556 6.56027C10.4959 6.68027 10.2779 6.78913 10.0525 6.8817C10.0105 6.89884 9.9295 6.86413 9.89007 6.82813C9.87207 6.81184 9.89612 6.72611 9.92355 6.68583C10.0067 6.56411 10.1235 6.48891 10.2651 6.46652Z" fill="white"/>
</g>
<defs>
<clipPath id="clip0_1_5114">
<rect width="18.55" height="18.55" fill="white" transform="translate(0.839111 0.363281)"/>
</clipPath>
</defs>
</svg>
