<svg width="20" height="20" viewBox="0 0 20 20" fill="none" xmlns="http://www.w3.org/2000/svg">
<g clip-path="url(#clip0_1_4306)">
<path d="M4.13277 1C3.07698 1 2.23251 1.94418 2.36536 2.99809V2.99983C2.6301 5.07962 3.61211 6.59108 4.43456 7.80253C5.25701 9.01398 5.84814 9.90487 5.84814 10.7684C5.84648 10.8861 5.86822 11.003 5.9121 11.1122C5.95598 11.2214 6.02113 11.3207 6.10375 11.4046C6.18638 11.4884 6.28484 11.5549 6.39341 11.6003C6.50198 11.6457 6.61849 11.6691 6.73618 11.6691C6.85387 11.6691 6.97038 11.6457 7.07895 11.6003C7.18752 11.5549 7.28598 11.4884 7.36861 11.4046C7.45123 11.3207 7.51638 11.2214 7.56026 11.1122C7.60414 11.003 7.62589 10.8861 7.62422 10.7684C7.62422 10.7541 7.6209 10.7411 7.62075 10.7268C8.48969 12.6921 9.4003 13.4326 9.4003 13.4326H12.9525C12.9525 13.4326 13.8631 12.6921 14.732 10.7268C14.7319 10.7411 14.7285 10.7541 14.7285 10.7684C14.7269 10.8861 14.7486 11.003 14.7925 11.1122C14.8364 11.2214 14.9015 11.3207 14.9842 11.4046C15.0668 11.4884 15.1652 11.5549 15.2738 11.6003C15.3824 11.6457 15.4989 11.6691 15.6166 11.6691C15.7343 11.6691 15.8508 11.6457 15.9594 11.6003C16.0679 11.5549 16.1664 11.4884 16.249 11.4046C16.3316 11.3207 16.3968 11.2214 16.4407 11.1122C16.4845 11.003 16.5063 10.8861 16.5046 10.7684C16.5046 9.90487 17.0958 9.01398 17.9182 7.80253C18.7407 6.59108 19.7227 5.07962 19.9874 2.99983C20.1222 1.94441 19.2758 1 18.22 1H4.13277ZM18.2252 2.77435C18.0157 4.41989 17.2531 5.62096 16.4491 6.80522C16.1631 7.22653 15.8744 7.65541 15.6062 8.09565C15.9534 6.67736 16.2049 4.92147 16.2618 2.77608H18.22C18.2299 2.77608 18.2252 2.77435 18.2252 2.77435ZM4.12756 2.77608C4.1272 2.77323 4.1229 2.77608 4.13277 2.77608H6.09096C6.14784 4.92147 6.39939 6.67736 6.74659 8.09565C6.4784 7.65541 6.18967 7.22654 5.90364 6.80522C5.09994 5.62139 4.33736 4.4207 4.12756 2.77608ZM7.62422 15.2086C7.13402 15.2086 6.73618 15.6065 6.73618 16.0967C6.73618 16.5869 7.13402 16.9847 7.62422 16.9847H14.7285C15.2187 16.9847 15.6166 16.5869 15.6166 16.0967C15.6166 15.6065 15.2187 15.2086 14.7285 15.2086H7.62422Z" fill="white"/>
</g>
<defs>
<clipPath id="clip0_1_4306">
<rect width="18.55" height="18.55" fill="white" transform="translate(0.838867 0.554688)"/>
</clipPath>
</defs>
</svg>
