<svg width="20" height="20" viewBox="0 0 20 20" fill="none" xmlns="http://www.w3.org/2000/svg">
<g clip-path="url(#clip0_1_5141)">
<path d="M6.18619 0.76714C5.20923 0.76714 4.41869 1.55768 4.41869 2.53464C4.41869 3.5116 5.20923 4.30214 6.18619 4.30214C7.16314 4.30214 7.95369 3.5116 7.95369 2.53464C7.95369 1.55768 7.16314 0.76714 6.18619 0.76714ZM15.7141 0.76714C15.4345 0.801662 15.2999 0.932843 15.2999 0.932843L6.02048 10.1846C5.79264 10.4124 5.79264 10.7853 6.02048 11.0131L9.19646 14.1891C9.4243 14.4169 9.79713 14.4169 10.025 14.1891L19.2767 4.90972C19.2767 4.90972 20.0362 3.90169 18.172 2.03753C17.0052 0.870705 16.1802 0.708454 15.7141 0.76714ZM5.77193 12.0902V12.4768C5.77538 12.8635 5.63039 13.2536 5.35767 13.5263L1.93314 16.9232C1.69839 17.1579 1.69839 17.5446 1.93314 17.7793L2.43025 18.2764C2.665 18.5112 3.05164 18.5112 3.28638 18.2764L6.6833 14.8519C6.96292 14.5723 7.3392 14.4307 7.73275 14.4376H8.11939L5.77193 12.0902Z" fill="white"/>
</g>
<defs>
<clipPath id="clip0_1_5141">
<rect width="18.55" height="18.55" fill="white" transform="translate(0.839111 0.9375)"/>
</clipPath>
</defs>
</svg>
