<svg width="20" height="20" viewBox="0 0 20 20" fill="none" xmlns="http://www.w3.org/2000/svg">
<g clip-path="url(#clip0_1_1337)">
<g clip-path="url(#clip1_1_1337)">
<path d="M16.9398 18.9189C18.0485 18.9189 18.9685 17.999 18.9685 16.8902L18.9685 2.68902C18.9685 1.58025 18.0485 0.660277 16.9398 0.660277L2.73858 0.660276C1.62981 0.660276 0.709839 1.58025 0.709839 2.68902L0.709838 16.8902C0.709838 17.999 1.62981 18.9189 2.73858 18.9189L16.9398 18.9189ZM16.9398 16.8902L7.81043 16.8902L7.81043 9.78961L7.81043 2.68902L16.9398 2.68902L16.9398 16.8902ZM7.81043 9.78961L11.8679 13.8471L11.8679 10.804L14.911 10.804L14.911 8.77524L11.8679 8.77524L11.8679 5.73213L7.81043 9.78961Z" fill="white"/>
</g>
</g>
<defs>
<clipPath id="clip0_1_1337">
<rect width="18.55" height="18.55" fill="white" transform="translate(0.839111 0.789551)"/>
</clipPath>
<clipPath id="clip1_1_1337">
<rect width="18.55" height="18.55" fill="white" transform="translate(0.839111 0.789551)"/>
</clipPath>
</defs>
</svg>
