<svg width="20" height="20" viewBox="0 0 20 20" fill="none" xmlns="http://www.w3.org/2000/svg">
<g clip-path="url(#clip0_1_4528)">
<path d="M4.13228 1C3.0765 1 2.23202 1.94418 2.36487 2.99809V2.99983C2.62961 5.07962 3.61162 6.59108 4.43407 7.80253C5.25652 9.01398 5.84765 9.90487 5.84765 10.7684C5.84599 10.8861 5.86773 11.003 5.91161 11.1122C5.95549 11.2214 6.02064 11.3207 6.10327 11.4046C6.18589 11.4884 6.28435 11.5549 6.39292 11.6003C6.50149 11.6457 6.618 11.6691 6.73569 11.6691C6.85338 11.6691 6.96989 11.6457 7.07846 11.6003C7.18703 11.5549 7.28549 11.4884 7.36812 11.4046C7.45075 11.3207 7.51589 11.2214 7.55978 11.1122C7.60366 11.003 7.6254 10.8861 7.62373 10.7684C7.62373 10.7541 7.62041 10.7411 7.62026 10.7268C8.4892 12.6921 9.39981 13.4326 9.39981 13.4326H12.952C12.952 13.4326 13.8626 12.6921 14.7315 10.7268C14.7314 10.7411 14.7281 10.7541 14.7281 10.7684C14.7264 10.8861 14.7481 11.003 14.792 11.1122C14.8359 11.2214 14.901 11.3207 14.9837 11.4046C15.0663 11.4884 15.1648 11.5549 15.2733 11.6003C15.3819 11.6457 15.4984 11.6691 15.6161 11.6691C15.7338 11.6691 15.8503 11.6457 15.9589 11.6003C16.0674 11.5549 16.1659 11.4884 16.2485 11.4046C16.3312 11.3207 16.3963 11.2214 16.4402 11.1122C16.4841 11.003 16.5058 10.8861 16.5041 10.7684C16.5041 9.90487 17.0953 9.01398 17.9177 7.80253C18.7402 6.59108 19.7222 5.07962 19.9869 2.99983C20.1217 1.94441 19.2753 1 18.2195 1H4.13228ZM18.2247 2.77435C18.0152 4.41989 17.2526 5.62096 16.4486 6.80522C16.1626 7.22653 15.8739 7.65541 15.6057 8.09565C15.9529 6.67736 16.2044 4.92147 16.2613 2.77608H18.2195C18.2294 2.77608 18.2247 2.77435 18.2247 2.77435ZM4.12707 2.77608C4.12671 2.77323 4.12241 2.77608 4.13228 2.77608H6.09048C6.14736 4.92147 6.3989 6.67736 6.7461 8.09565C6.47791 7.65541 6.18919 7.22654 5.90315 6.80522C5.09945 5.62139 4.33687 4.4207 4.12707 2.77608ZM7.62373 15.2086C7.13353 15.2086 6.73569 15.6065 6.73569 16.0967C6.73569 16.5869 7.13353 16.9847 7.62373 16.9847H14.7281C15.2183 16.9847 15.6161 16.5869 15.6161 16.0967C15.6161 15.6065 15.2183 15.2086 14.7281 15.2086H7.62373Z" fill="white"/>
</g>
<defs>
<clipPath id="clip0_1_4528">
<rect width="18.55" height="18.55" fill="white" transform="translate(0.838867 0.554688)"/>
</clipPath>
</defs>
</svg>
