<svg width="20" height="20" viewBox="0 0 20 20" fill="none" xmlns="http://www.w3.org/2000/svg">
<path d="M17.3636 4.61719H2.63636C2.63636 4.61719 1 9.76004 1 12.3315C1 14.698 2.83191 16.6172 5.09091 16.6172C6.80909 16.6172 13.1909 16.6172 14.9091 16.6172C17.1681 16.6172 19 14.698 19 12.3315C19 9.76004 17.3636 4.61719 17.3636 4.61719ZM9.18182 11.4743H7.54545V13.1886H5.90909V11.4743H4.27273V9.76004H5.90909V8.04576H7.54545V9.76004H9.18182V11.4743ZM13.2727 9.76004C12.8211 9.76004 12.4545 9.37604 12.4545 8.9029C12.4545 8.42976 12.8211 8.04576 13.2727 8.04576C13.7244 8.04576 14.0909 8.42976 14.0909 8.9029C14.0909 9.37604 13.7244 9.76004 13.2727 9.76004ZM14.9091 13.1886C14.4575 13.1886 14.0909 12.8046 14.0909 12.3315C14.0909 11.8583 14.4575 11.4743 14.9091 11.4743C15.3607 11.4743 15.7273 11.8583 15.7273 12.3315C15.7273 12.8046 15.3607 13.1886 14.9091 13.1886Z" fill="white"/>
</svg>
