<svg width="20" height="20" viewBox="0 0 20 20" fill="none" xmlns="http://www.w3.org/2000/svg">
<g clip-path="url(#clip0_1_4337)">
<path d="M6.18594 0.76714C5.20898 0.76714 4.41844 1.55768 4.41844 2.53464C4.41844 3.5116 5.20898 4.30214 6.18594 4.30214C7.1629 4.30214 7.95344 3.5116 7.95344 2.53464C7.95344 1.55768 7.1629 0.76714 6.18594 0.76714ZM15.7139 0.76714C15.4342 0.801662 15.2996 0.932843 15.2996 0.932843L6.02024 10.1846C5.7924 10.4124 5.7924 10.7853 6.02024 11.0131L9.19622 14.1891C9.42406 14.4169 9.79689 14.4169 10.0247 14.1891L19.2765 4.90972C19.2765 4.90972 20.036 3.90169 18.1718 2.03753C17.005 0.870705 16.1799 0.708454 15.7139 0.76714ZM5.77168 12.0902V12.4768C5.77514 12.8635 5.63015 13.2536 5.35743 13.5263L1.9329 16.9232C1.69815 17.1579 1.69815 17.5446 1.9329 17.7793L2.43 18.2764C2.66475 18.5112 3.05139 18.5112 3.28614 18.2764L6.68305 14.8519C6.96268 14.5723 7.33896 14.4307 7.7325 14.4376H8.11915L5.77168 12.0902Z" fill="white"/>
</g>
<defs>
<clipPath id="clip0_1_4337">
<rect width="18.55" height="18.55" fill="white" transform="translate(0.838867 0.9375)"/>
</clipPath>
</defs>
</svg>
