<svg width="20" height="20" viewBox="0 0 20 20" fill="none" xmlns="http://www.w3.org/2000/svg">
<g clip-path="url(#clip0_1_5110)">
<path d="M4.13252 1C3.07674 1 2.23227 1.94418 2.36511 2.99809V2.99983C2.62986 5.07962 3.61186 6.59108 4.43432 7.80253C5.25677 9.01398 5.8479 9.90487 5.8479 10.7684C5.84623 10.8861 5.86797 11.003 5.91185 11.1122C5.95574 11.2214 6.02088 11.3207 6.10351 11.4046C6.18614 11.4884 6.2846 11.5549 6.39317 11.6003C6.50173 11.6457 6.61825 11.6691 6.73594 11.6691C6.85362 11.6691 6.97014 11.6457 7.07871 11.6003C7.18728 11.5549 7.28574 11.4884 7.36836 11.4046C7.45099 11.3207 7.51614 11.2214 7.56002 11.1122C7.6039 11.003 7.62564 10.8861 7.62398 10.7684C7.62398 10.7541 7.62066 10.7411 7.62051 10.7268C8.48944 12.6921 9.40006 13.4326 9.40006 13.4326H12.9522C12.9522 13.4326 13.8628 12.6921 14.7318 10.7268C14.7316 10.7411 14.7283 10.7541 14.7283 10.7684C14.7266 10.8861 14.7484 11.003 14.7923 11.1122C14.8361 11.2214 14.9013 11.3207 14.9839 11.4046C15.0665 11.4884 15.165 11.5549 15.2736 11.6003C15.3821 11.6457 15.4987 11.6691 15.6163 11.6691C15.734 11.6691 15.8505 11.6457 15.9591 11.6003C16.0677 11.5549 16.1661 11.4884 16.2488 11.4046C16.3314 11.3207 16.3965 11.2214 16.4404 11.1122C16.4843 11.003 16.506 10.8861 16.5044 10.7684C16.5044 9.90487 17.0955 9.01398 17.918 7.80253C18.7404 6.59108 19.7224 5.07962 19.9872 2.99983C20.122 1.94441 19.2755 1 18.2198 1H4.13252ZM18.225 2.77435C18.0155 4.41989 17.2529 5.62096 16.4489 6.80522C16.1628 7.22653 15.8741 7.65541 15.6059 8.09565C15.9531 6.67736 16.2047 4.92147 16.2616 2.77608H18.2198C18.2296 2.77608 18.225 2.77435 18.225 2.77435ZM4.12732 2.77608C4.12696 2.77323 4.12265 2.77608 4.13252 2.77608H6.09072C6.1476 4.92147 6.39914 6.67736 6.74634 8.09565C6.47815 7.65541 6.18943 7.22654 5.9034 6.80522C5.0997 5.62139 4.33711 4.4207 4.12732 2.77608ZM7.62398 15.2086C7.13378 15.2086 6.73594 15.6065 6.73594 16.0967C6.73594 16.5869 7.13378 16.9847 7.62398 16.9847H14.7283C15.2185 16.9847 15.6163 16.5869 15.6163 16.0967C15.6163 15.6065 15.2185 15.2086 14.7283 15.2086H7.62398Z" fill="white"/>
</g>
<defs>
<clipPath id="clip0_1_5110">
<rect width="18.55" height="18.55" fill="white" transform="translate(0.839111 0.554688)"/>
</clipPath>
</defs>
</svg>
