<svg width="20" height="20" viewBox="0 0 20 20" fill="none" xmlns="http://www.w3.org/2000/svg">
<g clip-path="url(#clip0_1_3060)">
<g clip-path="url(#clip1_1_3060)">
<path d="M16.9396 18.9189C18.0484 18.9189 18.9684 17.999 18.9684 16.8902L18.9684 2.68902C18.9684 1.58025 18.0484 0.660277 16.9396 0.660277L2.73846 0.660276C1.62969 0.660276 0.709717 1.58025 0.709717 2.68902L0.709716 16.8902C0.709716 17.999 1.62969 18.9189 2.73846 18.9189L16.9396 18.9189ZM16.9396 16.8902L7.81031 16.8902L7.81031 9.78961L7.81031 2.68902L16.9396 2.68902L16.9396 16.8902ZM7.81031 9.78961L11.8678 13.8471L11.8678 10.804L14.9109 10.804L14.9109 8.77524L11.8678 8.77524L11.8678 5.73213L7.81031 9.78961Z" fill="white"/>
</g>
</g>
<defs>
<clipPath id="clip0_1_3060">
<rect width="18.55" height="18.55" fill="white" transform="translate(0.83905 0.789551)"/>
</clipPath>
<clipPath id="clip1_1_3060">
<rect width="18.55" height="18.55" fill="white" transform="translate(0.83905 0.789551)"/>
</clipPath>
</defs>
</svg>
