<svg width="20" height="19" viewBox="0 0 20 19" fill="none" xmlns="http://www.w3.org/2000/svg">
<g clip-path="url(#clip0_1_4568)">
<g clip-path="url(#clip1_1_4568)">
<path d="M16.9395 18.2588C18.0483 18.2588 18.9683 17.3388 18.9683 16.23L18.9683 2.02886C18.9683 0.920091 18.0483 0.000121036 16.9395 0.000120939L2.73834 0.000119698C1.62957 0.000119601 0.709595 0.92009 0.709595 2.02886L0.709594 16.23C0.709594 17.3388 1.62956 18.2588 2.73833 18.2588L16.9395 18.2588ZM16.9395 16.23L7.81019 16.23L7.81019 9.12945L7.81019 2.02886L16.9395 2.02886L16.9395 16.23ZM7.81019 9.12945L11.8677 13.1869L11.8677 10.1438L14.9108 10.1438L14.9108 8.11508L11.8677 8.11508L11.8677 5.07197L7.81019 9.12945Z" fill="white"/>
</g>
</g>
<defs>
<clipPath id="clip0_1_4568">
<rect width="18.55" height="18.55" fill="white" transform="translate(0.838867 0.129395)"/>
</clipPath>
<clipPath id="clip1_1_4568">
<rect width="18.55" height="18.55" fill="white" transform="translate(0.838867 0.129395)"/>
</clipPath>
</defs>
</svg>
