<svg width="20" height="20" viewBox="0 0 20 20" fill="none" xmlns="http://www.w3.org/2000/svg">
<g clip-path="url(#clip0_207_207)">
<path d="M6.18594 0.661671C5.20898 0.661671 4.41844 1.45221 4.41844 2.42917C4.41844 3.40613 5.20898 4.19667 6.18594 4.19667C7.1629 4.19667 7.95344 3.40613 7.95344 2.42917C7.95344 1.45221 7.1629 0.661671 6.18594 0.661671ZM15.7139 0.661671C15.4342 0.696193 15.2996 0.827375 15.2996 0.827375L6.02024 10.0791C5.7924 10.307 5.7924 10.6798 6.02024 10.9076L9.19622 14.0836C9.42406 14.3115 9.79689 14.3115 10.0247 14.0836L19.2765 4.80425C19.2765 4.80425 20.036 3.79622 18.1718 1.93206C17.005 0.765236 16.1799 0.602985 15.7139 0.661671ZM5.77168 11.9847V12.3714C5.77514 12.758 5.63015 13.1481 5.35743 13.4208L1.9329 16.8177C1.69815 17.0525 1.69815 17.4391 1.9329 17.6739L2.43 18.171C2.66475 18.4057 3.05139 18.4057 3.28614 18.171L6.68305 14.7464C6.96268 14.4668 7.33896 14.3253 7.7325 14.3322H8.11915L5.77168 11.9847Z" fill="white"/>
</g>
<defs>
<clipPath id="clip0_207_207">
<rect width="18.55" height="18.55" fill="white" transform="translate(0.838867 0.832031)"/>
</clipPath>
</defs>
</svg>
