<svg width="20" height="19" viewBox="0 0 20 19" fill="none" xmlns="http://www.w3.org/2000/svg">
<g clip-path="url(#clip0_1_1332)">
<path d="M5.99952 0.634766C3.80213 0.634766 1.99934 2.43755 1.99934 4.63495C1.99934 6.83235 3.80213 8.63514 5.99952 8.63514C8.19692 8.63514 9.99971 6.83235 9.99971 4.63495C9.99971 2.43755 8.19692 0.634766 5.99952 0.634766ZM13.9999 0.634766C12.9068 0.634766 11.9998 1.54174 11.9998 2.63486V6.63504C11.9998 7.72816 12.9068 8.63514 13.9999 8.63514H18.0001C19.0932 8.63514 20.0002 7.72816 20.0002 6.63504V2.63486C20.0002 1.54174 19.0932 0.634766 18.0001 0.634766H13.9999ZM5.99952 2.63486C7.11599 2.63486 7.99961 3.51848 7.99961 4.63495C7.99961 5.75142 7.11599 6.63504 5.99952 6.63504C4.88306 6.63504 3.99943 5.75142 3.99943 4.63495C3.99943 3.51848 4.88306 2.63486 5.99952 2.63486ZM13.9999 2.63486H18.0001V6.63504H13.9999V2.63486ZM15.5273 10.3696C15.3069 10.3632 15.0906 10.4298 14.912 10.5591L11.617 12.9537C11.4463 13.0778 11.3192 13.2527 11.254 13.4533C11.1887 13.654 11.1886 13.8702 11.2537 14.0709L12.5135 17.9442C12.5787 18.1451 12.7059 18.3202 12.8767 18.4445C13.0476 18.5687 13.2535 18.6356 13.4647 18.6356H17.5352C17.7465 18.6356 17.9523 18.5687 18.1232 18.4445C18.2941 18.3202 18.4212 18.1451 18.4864 17.9442L19.7463 14.0709C19.8113 13.8702 19.8112 13.654 19.7459 13.4533C19.6807 13.2527 19.5536 13.0778 19.383 12.9537L16.0879 10.5591C15.9244 10.4408 15.729 10.3748 15.5273 10.3696ZM6.00733 10.6352C5.82028 10.6338 5.63656 10.6848 5.47705 10.7825C5.31753 10.8802 5.18862 11.0207 5.10495 11.188L2.10481 17.1883C2.02859 17.3407 1.99261 17.5102 2.00028 17.6805C2.00796 17.8508 2.05903 18.0163 2.14866 18.1613C2.23828 18.3063 2.36349 18.426 2.51238 18.509C2.66127 18.592 2.82891 18.6356 2.99938 18.6356H8.99966C9.17013 18.6356 9.33777 18.592 9.48666 18.509C9.63555 18.426 9.76076 18.3063 9.85038 18.1613C9.94001 18.0163 9.99109 17.8508 9.99876 17.6805C10.0064 17.5102 9.97045 17.3407 9.89423 17.1883L6.89409 11.188C6.81161 11.0231 6.68513 10.8841 6.52864 10.7866C6.37215 10.689 6.19173 10.6367 6.00733 10.6352ZM15.5 12.6041L17.6192 14.1452L16.8086 16.6355H14.1894L13.3807 14.1452L15.5 12.6041ZM5.99952 13.8717L7.3824 16.6355H4.61664L5.99952 13.8717Z" fill="white"/>
</g>
<defs>
<clipPath id="clip0_1_1332">
<rect width="18.55" height="18.55" fill="white" transform="translate(0.839111 0.0239258)"/>
</clipPath>
</defs>
</svg>
