<svg width="20" height="19" viewBox="0 0 20 19" fill="none" xmlns="http://www.w3.org/2000/svg">
<g clip-path="url(#clip0_1_7001)">
<g clip-path="url(#clip1_1_7001)">
<path d="M16.9398 18.1968C18.0485 18.1968 18.9685 17.2768 18.9685 16.168L18.9685 1.96685C18.9685 0.858079 18.0485 -0.0618907 16.9398 -0.0618908L2.73858 -0.061892C1.62981 -0.0618921 0.709839 0.858078 0.709839 1.96685L0.709838 16.168C0.709838 17.2768 1.62981 18.1968 2.73858 18.1968L16.9398 18.1968ZM16.9398 16.168L7.81043 16.168L7.81043 9.06744L7.81043 1.96685L16.9398 1.96685L16.9398 16.168ZM7.81043 9.06744L11.8679 13.1249L11.8679 10.0818L14.911 10.0818L14.911 8.05307L11.8679 8.05307L11.8679 5.00996L7.81043 9.06744Z" fill="white"/>
</g>
</g>
<defs>
<clipPath id="clip0_1_7001">
<rect width="18.55" height="18.55" fill="white" transform="translate(0.839111 0.0673828)"/>
</clipPath>
<clipPath id="clip1_1_7001">
<rect width="18.55" height="18.55" fill="white" transform="translate(0.839111 0.0673828)"/>
</clipPath>
</defs>
</svg>
