<svg width="20" height="20" viewBox="0 0 20 20" fill="none" xmlns="http://www.w3.org/2000/svg">
<g clip-path="url(#clip0_1_4341)">
<path d="M11 0.999023C6.05 0.999023 2 5.04902 2 9.99902C2 14.949 6.05 18.999 11 18.999C13.257 18.999 15.3207 18.1623 16.9062 16.7771C17.0891 16.6893 17.2402 16.5381 17.3281 16.3553C18.9664 14.724 20 12.4811 20 9.99902C20 5.04902 15.95 0.999023 11 0.999023ZM11.9281 2.85527C13.0707 3.00645 14.1395 3.43887 15.05 4.06465C13.9531 5.02793 12.1812 7.01426 11.9562 9.9709C11.6504 9.98496 11.3305 9.99902 11 9.99902C10.6871 9.99902 10.3883 9.98145 10.1 9.9709C10.1035 7.4959 10.5816 5.6959 11.0562 4.51465C11.5133 3.3791 11.8965 2.89395 11.9281 2.85527ZM9.81875 2.91152C9.68164 3.17871 9.5375 3.49512 9.39687 3.83965C8.85195 5.18613 8.32461 7.17598 8.3 9.80215C7.97656 9.75645 7.65664 9.69316 7.37187 9.6334C7.23125 6.68027 6.59844 4.91543 6.41562 4.4584C7.36836 3.6709 8.54961 3.12598 9.81875 2.91152ZM16.4 5.27402C17.1488 6.13184 17.6973 7.17598 17.975 8.31152C17.8379 8.43105 17.5145 8.68066 16.6531 9.04277C15.9816 9.32754 15.0148 9.5877 13.7844 9.77402C14.0867 7.3623 15.6301 5.88574 16.4 5.27402ZM5.0375 6.00527C5.22734 6.69434 5.43828 7.6752 5.54375 9.09902C5.48398 9.07441 5.40312 9.06738 5.34687 9.04277C4.48555 8.68066 4.16211 8.43105 4.025 8.31152C4.22891 7.48184 4.57344 6.69785 5.0375 6.00527ZM3.8 10.3084C4.04609 10.4455 4.32031 10.565 4.64375 10.7021C4.91445 10.8146 5.24141 10.9342 5.57187 11.0396C5.5332 12.242 5.30117 13.2967 5.06562 14.049C4.33086 12.9732 3.85977 11.69 3.8 10.3084ZM18.2 10.3084C18.1262 12.0557 17.402 13.6518 16.2875 14.8646C15.5246 14.4568 14.1219 13.4619 13.8125 11.6021C15.3031 11.3982 16.4984 11.0643 17.3562 10.7021C17.6797 10.565 17.9539 10.4455 18.2 10.3084ZM7.37187 11.4896C7.67773 11.5459 8.01523 11.5881 8.35625 11.6303C8.51797 13.5533 8.95742 15.0721 9.39687 16.1584C9.5375 16.5029 9.68164 16.8193 9.81875 17.0865C8.56367 16.8756 7.39297 16.3412 6.44375 15.5678C6.74258 14.84 7.25234 13.3529 7.37187 11.4896ZM10.1844 11.7709C10.448 11.7814 10.7187 11.799 11 11.799C11.348 11.799 11.6891 11.785 12.0125 11.7709C12.3359 13.9857 13.7598 15.3428 14.8531 16.074C13.9883 16.626 12.9863 17.0021 11.9281 17.1428C11.8965 17.1041 11.5133 16.6189 11.0562 15.4834C10.7012 14.601 10.3426 13.3705 10.1844 11.7709Z" fill="white"/>
</g>
<defs>
<clipPath id="clip0_1_4341">
<rect width="18.55" height="18.55" fill="white" transform="translate(0.838867 0.746094)"/>
</clipPath>
</defs>
</svg>
