<svg width="20" height="19" viewBox="0 0 20 19" fill="none" xmlns="http://www.w3.org/2000/svg">
<g clip-path="url(#clip0_1_345)">
<path d="M5.99928 0.634766C3.80188 0.634766 1.99909 2.43755 1.99909 4.63495C1.99909 6.83235 3.80188 8.63514 5.99928 8.63514C8.19667 8.63514 9.99946 6.83235 9.99946 4.63495C9.99946 2.43755 8.19667 0.634766 5.99928 0.634766ZM13.9996 0.634766C12.9065 0.634766 11.9996 1.54174 11.9996 2.63486V6.63504C11.9996 7.72816 12.9065 8.63514 13.9996 8.63514H17.9998C19.0929 8.63514 19.9999 7.72816 19.9999 6.63504V2.63486C19.9999 1.54174 19.0929 0.634766 17.9998 0.634766H13.9996ZM5.99928 2.63486C7.11574 2.63486 7.99937 3.51848 7.99937 4.63495C7.99937 5.75142 7.11574 6.63504 5.99928 6.63504C4.88281 6.63504 3.99918 5.75142 3.99918 4.63495C3.99918 3.51848 4.88281 2.63486 5.99928 2.63486ZM13.9996 2.63486H17.9998V6.63504H13.9996V2.63486ZM15.5271 10.3696C15.3067 10.3632 15.0904 10.4298 14.9118 10.5591L11.6167 12.9537C11.4461 13.0778 11.319 13.2527 11.2537 13.4533C11.1885 13.654 11.1884 13.8702 11.2534 14.0709L12.5133 17.9442C12.5785 18.1451 12.7056 18.3202 12.8765 18.4445C13.0474 18.5687 13.2532 18.6356 13.4645 18.6356H17.535C17.7462 18.6356 17.9521 18.5687 18.1229 18.4445C18.2938 18.3202 18.421 18.1451 18.4862 17.9442L19.746 14.0709C19.8111 13.8702 19.8109 13.654 19.7457 13.4533C19.6804 13.2527 19.5534 13.0778 19.3827 12.9537L16.0876 10.5591C15.9242 10.4408 15.7288 10.3748 15.5271 10.3696ZM6.00709 10.6352C5.82003 10.6338 5.63632 10.6848 5.4768 10.7825C5.31729 10.8802 5.18837 11.0207 5.1047 11.188L2.10457 17.1883C2.02834 17.3407 1.99236 17.5102 2.00004 17.6805C2.00771 17.8508 2.05879 18.0163 2.14841 18.1613C2.23804 18.3063 2.36324 18.426 2.51214 18.509C2.66103 18.592 2.82867 18.6356 2.99914 18.6356H8.99942C9.16989 18.6356 9.33753 18.592 9.48642 18.509C9.63531 18.426 9.76051 18.3063 9.85014 18.1613C9.93977 18.0163 9.99084 17.8508 9.99852 17.6805C10.0062 17.5102 9.97021 17.3407 9.89399 17.1883L6.89385 11.188C6.81137 11.0231 6.68489 10.8841 6.5284 10.7866C6.37191 10.689 6.19149 10.6367 6.00709 10.6352ZM15.4997 12.6041L17.619 14.1452L16.8084 16.6355H14.1891L13.3805 14.1452L15.4997 12.6041ZM5.99928 13.8717L7.38215 16.6355H4.6164L5.99928 13.8717Z" fill="white"/>
</g>
<defs>
<clipPath id="clip0_1_345">
<rect width="18.55" height="18.55" fill="white" transform="translate(0.838867 0.0239258)"/>
</clipPath>
</defs>
</svg>
