<svg width="20" height="20" viewBox="0 0 20 20" fill="none" xmlns="http://www.w3.org/2000/svg">
<g clip-path="url(#clip0_1_555)">
<g clip-path="url(#clip1_1_555)">
<path d="M16.9395 18.9189C18.0483 18.9189 18.9683 17.999 18.9683 16.8902L18.9683 2.68902C18.9683 1.58025 18.0483 0.660277 16.9395 0.660277L2.73834 0.660276C1.62957 0.660276 0.709595 1.58025 0.709595 2.68902L0.709594 16.8902C0.709594 17.999 1.62956 18.9189 2.73833 18.9189L16.9395 18.9189ZM16.9395 16.8902L7.81019 16.8902L7.81019 9.78961L7.81019 2.68902L16.9395 2.68902L16.9395 16.8902ZM7.81019 9.78961L11.8677 13.8471L11.8677 10.804L14.9108 10.804L14.9108 8.77524L11.8677 8.77524L11.8677 5.73213L7.81019 9.78961Z" fill="white"/>
</g>
</g>
<defs>
<clipPath id="clip0_1_555">
<rect width="18.55" height="18.55" fill="white" transform="translate(0.838867 0.789551)"/>
</clipPath>
<clipPath id="clip1_1_555">
<rect width="18.55" height="18.55" fill="white" transform="translate(0.838867 0.789551)"/>
</clipPath>
</defs>
</svg>
