<svg width="20" height="19" viewBox="0 0 20 19" fill="none" xmlns="http://www.w3.org/2000/svg">
<path d="M17.3636 4H2.63636C2.63636 4 1 9.14286 1 11.7143C1 14.0809 2.83191 16 5.09091 16C6.80909 16 13.1909 16 14.9091 16C17.1681 16 19 14.0809 19 11.7143C19 9.14286 17.3636 4 17.3636 4ZM9.18182 10.8571H7.54545V12.5714H5.90909V10.8571H4.27273V9.14286H5.90909V7.42857H7.54545V9.14286H9.18182V10.8571ZM13.2727 9.14286C12.8211 9.14286 12.4545 8.75886 12.4545 8.28571C12.4545 7.81257 12.8211 7.42857 13.2727 7.42857C13.7244 7.42857 14.0909 7.81257 14.0909 8.28571C14.0909 8.75886 13.7244 9.14286 13.2727 9.14286ZM14.9091 12.5714C14.4575 12.5714 14.0909 12.1874 14.0909 11.7143C14.0909 11.2411 14.4575 10.8571 14.9091 10.8571C15.3607 10.8571 15.7273 11.2411 15.7273 11.7143C15.7273 12.1874 15.3607 12.5714 14.9091 12.5714Z" fill="white"/>
</svg>
