<svg width="20" height="20" viewBox="0 0 20 20" fill="none" xmlns="http://www.w3.org/2000/svg">
<path d="M5.33333 2C4.05425 2 3 3.08438 3 4.4V15.6C3 16.9156 4.05425 18 5.33333 18H14.6667C15.9457 18 17 16.9156 17 15.6V4.4C17 3.08438 15.9457 2 14.6667 2H5.33333ZM5.33333 3.6H6.88889V6H13.1111V3.6H14.6667C15.0981 3.6 15.4444 3.95625 15.4444 4.4V9.2H12.9896C12.6432 7.82188 11.4492 6.8 10 6.8C8.55078 6.8 7.35677 7.82188 7.01042 9.2H4.55556V4.4C4.55556 3.95625 4.90191 3.6 5.33333 3.6ZM8.44444 3.6H11.5556V4.4H8.44444V3.6ZM10 8.4C10.6289 8.4 11.112 8.70938 11.3611 9.2H8.63889C8.88802 8.70938 9.37109 8.4 10 8.4ZM4.55556 10.8H7.01042C7.35677 12.1781 8.55078 13.2 10 13.2C11.4492 13.2 12.6432 12.1781 12.9896 10.8H15.4444V15.6C15.4444 16.0438 15.0981 16.4 14.6667 16.4H13.1111V14H6.88889V16.4H5.33333C4.90191 16.4 4.55556 16.0438 4.55556 15.6V10.8ZM8.63889 10.8H11.3611C11.112 11.2906 10.6289 11.6 10 11.6C9.37109 11.6 8.88802 11.2906 8.63889 10.8ZM8.44444 15.6H11.5556V16.4H8.44444V15.6Z" fill="white"/>
</svg>
