<svg width="20" height="19" viewBox="0 0 20 19" fill="none" xmlns="http://www.w3.org/2000/svg">
<path d="M17.3636 4H2.63633C2.63633 4 0.999969 9.14286 0.999969 11.7143C0.999969 14.0809 2.83188 16 5.09088 16C6.80906 16 13.1909 16 14.9091 16C17.1681 16 19 14.0809 19 11.7143C19 9.14286 17.3636 4 17.3636 4ZM9.18179 10.8571H7.54542V12.5714H5.90906V10.8571H4.2727V9.14286H5.90906V7.42857H7.54542V9.14286H9.18179V10.8571ZM13.2727 9.14286C12.8211 9.14286 12.4545 8.75886 12.4545 8.28571C12.4545 7.81257 12.8211 7.42857 13.2727 7.42857C13.7243 7.42857 14.0909 7.81257 14.0909 8.28571C14.0909 8.75886 13.7243 9.14286 13.2727 9.14286ZM14.9091 12.5714C14.4574 12.5714 14.0909 12.1874 14.0909 11.7143C14.0909 11.2411 14.4574 10.8571 14.9091 10.8571C15.3607 10.8571 15.7272 11.2411 15.7272 11.7143C15.7272 12.1874 15.3607 12.5714 14.9091 12.5714Z" fill="white"/>
</svg>
