<svg width="20" height="20" viewBox="0 0 20 20" fill="none" xmlns="http://www.w3.org/2000/svg">
<g clip-path="url(#clip0_1_6255)">
<path d="M11 0.999023C6.04997 0.999023 1.99997 5.04902 1.99997 9.99902C1.99997 14.949 6.04997 18.999 11 18.999C13.257 18.999 15.3207 18.1623 16.9062 16.7771C17.089 16.6893 17.2402 16.5381 17.3281 16.3553C18.9664 14.724 20 12.4811 20 9.99902C20 5.04902 15.95 0.999023 11 0.999023ZM11.9281 2.85527C13.0707 3.00645 14.1394 3.43887 15.05 4.06465C13.9531 5.02793 12.1812 7.01426 11.9562 9.9709C11.6504 9.98496 11.3304 9.99902 11 9.99902C10.6871 9.99902 10.3883 9.98145 10.1 9.9709C10.1035 7.4959 10.5816 5.6959 11.0562 4.51465C11.5133 3.3791 11.8965 2.89395 11.9281 2.85527ZM9.81872 2.91152C9.68161 3.17871 9.53747 3.49512 9.39684 3.83965C8.85192 5.18613 8.32458 7.17598 8.29997 9.80215C7.97653 9.75645 7.65661 9.69316 7.37184 9.6334C7.23122 6.68027 6.59841 4.91543 6.41559 4.4584C7.36833 3.6709 8.54958 3.12598 9.81872 2.91152ZM16.4 5.27402C17.1488 6.13184 17.6972 7.17598 17.975 8.31152C17.8379 8.43105 17.5144 8.68066 16.6531 9.04277C15.9816 9.32754 15.0148 9.5877 13.7843 9.77402C14.0867 7.3623 15.63 5.88574 16.4 5.27402ZM5.03747 6.00527C5.22731 6.69434 5.43825 7.6752 5.54372 9.09902C5.48395 9.07441 5.40309 9.06738 5.34684 9.04277C4.48552 8.68066 4.16208 8.43105 4.02497 8.31152C4.22888 7.48184 4.57341 6.69785 5.03747 6.00527ZM3.79997 10.3084C4.04606 10.4455 4.32028 10.565 4.64372 10.7021C4.91442 10.8146 5.24138 10.9342 5.57184 11.0396C5.53317 12.242 5.30114 13.2967 5.06559 14.049C4.33083 12.9732 3.85973 11.69 3.79997 10.3084ZM18.2 10.3084C18.1261 12.0557 17.4019 13.6518 16.2875 14.8646C15.5246 14.4568 14.1218 13.4619 13.8125 11.6021C15.3031 11.3982 16.4984 11.0643 17.3562 10.7021C17.6797 10.565 17.9539 10.4455 18.2 10.3084ZM7.37184 11.4896C7.6777 11.5459 8.0152 11.5881 8.35622 11.6303C8.51794 13.5533 8.95739 15.0721 9.39684 16.1584C9.53747 16.5029 9.68161 16.8193 9.81872 17.0865C8.56364 16.8756 7.39294 16.3412 6.44372 15.5678C6.74255 14.84 7.25231 13.3529 7.37184 11.4896ZM10.1843 11.7709C10.448 11.7814 10.7187 11.799 11 11.799C11.348 11.799 11.689 11.785 12.0125 11.7709C12.3359 13.9857 13.7597 15.3428 14.8531 16.074C13.9883 16.626 12.9863 17.0021 11.9281 17.1428C11.8965 17.1041 11.5133 16.6189 11.0562 15.4834C10.7011 14.601 10.3425 13.3705 10.1843 11.7709Z" fill="white"/>
</g>
<defs>
<clipPath id="clip0_1_6255">
<rect width="18.55" height="18.55" fill="white" transform="translate(0.839081 0.746094)"/>
</clipPath>
</defs>
</svg>
