<svg width="20" height="19" viewBox="0 0 20 19" fill="none" xmlns="http://www.w3.org/2000/svg">
<g clip-path="url(#clip0_1_5150)">
<g clip-path="url(#clip1_1_5150)">
<path d="M16.9398 18.2588C18.0485 18.2588 18.9685 17.3388 18.9685 16.23L18.9685 2.02886C18.9685 0.920091 18.0485 0.000121036 16.9398 0.000120939L2.73858 0.000119698C1.62981 0.000119601 0.709839 0.92009 0.709839 2.02886L0.709838 16.23C0.709838 17.3388 1.62981 18.2588 2.73858 18.2588L16.9398 18.2588ZM16.9398 16.23L7.81043 16.23L7.81043 9.12945L7.81043 2.02886L16.9398 2.02886L16.9398 16.23ZM7.81043 9.12945L11.8679 13.1869L11.8679 10.1438L14.911 10.1438L14.911 8.11508L11.8679 8.11508L11.8679 5.07197L7.81043 9.12945Z" fill="white"/>
</g>
</g>
<defs>
<clipPath id="clip0_1_5150">
<rect width="18.55" height="18.55" fill="white" transform="translate(0.839111 0.129395)"/>
</clipPath>
<clipPath id="clip1_1_5150">
<rect width="18.55" height="18.55" fill="white" transform="translate(0.839111 0.129395)"/>
</clipPath>
</defs>
</svg>
