<svg width="20" height="20" viewBox="0 0 20 20" fill="none" xmlns="http://www.w3.org/2000/svg">
<path d="M4.60024 2.1416V5.69716H3.70024C2.21524 5.69716 1.00024 6.89716 1.00024 8.36382V14.586H4.60024V18.1416H15.4002V14.586H19.0002V8.36382C19.0002 6.89716 17.7852 5.69716 16.3002 5.69716H15.4002V2.1416H4.60024ZM6.40024 3.91938H13.6002V5.69716H6.40024V3.91938ZM3.70024 7.47493H16.3002C16.797 7.47493 17.2002 7.87316 17.2002 8.36382V12.8083H15.4002V11.0305H4.60024V12.8083H2.80024V8.36382C2.80024 7.87316 3.20344 7.47493 3.70024 7.47493ZM15.4002 8.36382C15.1615 8.36382 14.9326 8.45747 14.7638 8.62417C14.5951 8.79087 14.5002 9.01696 14.5002 9.25271C14.5002 9.48846 14.5951 9.71455 14.7638 9.88125C14.9326 10.048 15.1615 10.1416 15.4002 10.1416C15.6389 10.1416 15.8679 10.048 16.0366 9.88125C16.2054 9.71455 16.3002 9.48846 16.3002 9.25271C16.3002 9.01696 16.2054 8.79087 16.0366 8.62417C15.8679 8.45747 15.6389 8.36382 15.4002 8.36382ZM6.40024 12.8083H13.6002V16.3638H6.40024V12.8083Z" fill="white"/>
</svg>
