<svg width="20" height="19" viewBox="0 0 20 19" fill="none" xmlns="http://www.w3.org/2000/svg">
<path d="M14.2184 3.66229C14.5384 3.70507 14.848 3.81007 15.1272 3.97341L17.2104 5.18829L16.888 6.75163H16.6H15V8.30718V14.5294H7V8.30718V6.75163H5.4H5.112L4.7904 5.18829L6.8736 3.97341C7.1528 3.81085 7.4624 3.70507 7.7824 3.66229C8.4568 4.42841 9.5472 5.19607 11 5.19607C12.4528 5.19607 13.5432 4.42841 14.2184 3.66229ZM13.892 2.08496H13.4C13.4 2.08496 12.6 3.64052 11 3.64052C9.4 3.64052 8.6 2.08496 8.6 2.08496H8.108C7.3832 2.08496 6.672 2.27629 6.0496 2.63952L3 4.41829L3.8 8.30718H5.4V16.085H16.6V8.30718H18.2L19 4.41829L15.9504 2.63952C15.328 2.27629 14.6168 2.08496 13.892 2.08496Z" fill="white"/>
</svg>
