<svg width="20" height="20" viewBox="0 0 20 20" fill="none" xmlns="http://www.w3.org/2000/svg">
<g clip-path="url(#clip0_1_6992)">
<path d="M6.18619 0.661671C5.20923 0.661671 4.41869 1.45221 4.41869 2.42917C4.41869 3.40613 5.20923 4.19667 6.18619 4.19667C7.16314 4.19667 7.95369 3.40613 7.95369 2.42917C7.95369 1.45221 7.16314 0.661671 6.18619 0.661671ZM15.7141 0.661671C15.4345 0.696193 15.2999 0.827375 15.2999 0.827375L6.02048 10.0791C5.79264 10.307 5.79264 10.6798 6.02048 10.9076L9.19646 14.0836C9.4243 14.3115 9.79713 14.3115 10.025 14.0836L19.2767 4.80425C19.2767 4.80425 20.0362 3.79622 18.172 1.93206C17.0052 0.765236 16.1802 0.602985 15.7141 0.661671ZM5.77193 11.9847V12.3714C5.77538 12.758 5.63039 13.1481 5.35767 13.4208L1.93314 16.8177C1.69839 17.0525 1.69839 17.4391 1.93314 17.6739L2.43025 18.171C2.665 18.4057 3.05164 18.4057 3.28638 18.171L6.6833 14.7464C6.96292 14.4668 7.3392 14.3253 7.73275 14.3322H8.11939L5.77193 11.9847Z" fill="white"/>
</g>
<defs>
<clipPath id="clip0_1_6992">
<rect width="18.55" height="18.55" fill="white" transform="translate(0.839111 0.832031)"/>
</clipPath>
</defs>
</svg>
