<svg width="67" height="67" viewBox="0 0 67 67" fill="none" xmlns="http://www.w3.org/2000/svg">
<path d="M8.37492 8.375C6.83392 8.375 5.58325 9.62567 5.58325 11.1667V39.0833C5.58325 40.6243 6.83392 41.875 8.37492 41.875H58.6249C60.1659 41.875 61.4166 40.6243 61.4166 39.0833V11.1667C61.4166 9.62567 60.1659 8.375 58.6249 8.375H8.37492ZM13.4218 14.6009C13.6284 14.2314 13.9958 13.9583 14.4192 13.9583H52.5807C53.004 13.9583 53.3715 14.2314 53.578 14.6009C53.7655 14.9366 53.999 15.2457 54.2724 15.5192C54.5458 15.7926 54.855 16.026 55.1906 16.2136C55.5602 16.4201 55.8332 16.7875 55.8332 17.2109V33.0391C55.8332 33.4625 55.5602 33.8299 55.1906 34.0364C54.855 34.224 54.5458 34.4574 54.2724 34.7308C53.999 35.0043 53.7655 35.3134 53.578 35.6491C53.3715 36.0186 53.004 36.2917 52.5807 36.2917H14.4192C13.9958 36.2917 13.6284 36.0186 13.4218 35.6491C13.2343 35.3134 13.0009 35.0043 12.7274 34.7308C12.454 34.4574 12.1448 34.224 11.8092 34.0364C11.4396 33.8299 11.1666 33.4625 11.1666 33.0391V17.2109C11.1666 16.7875 11.4396 16.4201 11.8092 16.2136C12.1448 16.026 12.454 15.7926 12.7274 15.5192C13.0009 15.2457 13.2343 14.9366 13.4218 14.6009ZM33.4999 16.75C31.2787 16.75 29.1485 17.6324 27.5779 19.203C26.0073 20.7736 25.1249 22.9038 25.1249 25.125C25.1249 27.3462 26.0073 29.4764 27.5779 31.047C29.1485 32.6176 31.2787 33.5 33.4999 33.5C35.7211 33.5 37.8513 32.6176 39.4219 31.047C40.9926 29.4764 41.8749 27.3462 41.8749 25.125C41.8749 22.9038 40.9926 20.7736 39.4219 19.203C37.8513 17.6324 35.7211 16.75 33.4999 16.75ZM19.5416 22.3333C18.0006 22.3333 16.7499 23.5812 16.7499 25.125C16.7499 26.6688 18.0006 27.9167 19.5416 27.9167C21.0826 27.9167 22.3333 26.6688 22.3333 25.125C22.3333 23.5812 21.0826 22.3333 19.5416 22.3333ZM47.4582 22.3333C45.9172 22.3333 44.6666 23.5812 44.6666 25.125C44.6666 26.6688 45.9172 27.9167 47.4582 27.9167C48.9992 27.9167 50.2499 26.6688 50.2499 25.125C50.2499 23.5812 48.9992 22.3333 47.4582 22.3333ZM18.9465 47.4583C17.7731 47.4583 17.5589 49.1303 18.6945 49.4261L53.6795 58.5378C55.1731 58.9258 56.6938 58.0275 57.0819 56.5367L59.1218 48.7106C59.287 48.077 58.8089 47.4583 58.1542 47.4583H54.4509C53.9964 47.4583 53.5991 47.7648 53.4837 48.2045L53.1986 49.2905C53.0914 49.6992 52.7351 49.9849 52.3264 50.0917C51.5809 50.2867 50.9048 50.6848 50.3716 51.2404C50.0788 51.5454 49.655 51.7165 49.2459 51.61L33.4221 47.4906C33.3398 47.4692 33.2552 47.4583 33.1701 47.4583H18.9465Z" fill="url(#paint0_linear_1_1400)"/>
<defs>
<linearGradient id="paint0_linear_1_1400" x1="60.1181" y1="3.11595" x2="20.3437" y2="67.2242" gradientUnits="userSpaceOnUse">
<stop stop-color="#00FFBB"/>
<stop offset="1" stop-color="#00BF6F"/>
</linearGradient>
</defs>
</svg>
