<svg width="25" height="25" viewBox="0 0 25 25" fill="none" xmlns="http://www.w3.org/2000/svg">
<path d="M12.1827 2.75122C6.66874 2.75122 2.18274 7.23722 2.18274 12.7512C2.18274 18.2652 6.66874 22.7512 12.1827 22.7512C17.6967 22.7512 22.1827 18.2652 22.1827 12.7512C22.1827 11.6252 21.9867 10.5454 21.6417 9.53442L20.0226 11.1536C20.1276 11.6696 20.1827 12.2042 20.1827 12.7512C20.1827 17.1622 16.5937 20.7512 12.1827 20.7512C7.77174 20.7512 4.18274 17.1622 4.18274 12.7512C4.18274 8.34022 7.77174 4.75122 12.1827 4.75122C13.8157 4.75122 15.3347 5.24511 16.6027 6.08911L18.0343 4.65747C16.3863 3.46347 14.3677 2.75122 12.1827 2.75122ZM21.4757 4.04419L11.1827 14.3372L7.88977 11.0442L6.47571 12.4583L11.1827 17.1653L22.8898 5.45825L21.4757 4.04419Z" fill="#00FA0A"/>
</svg>
