<svg width="29" height="29" viewBox="0 0 29 29" fill="none" xmlns="http://www.w3.org/2000/svg">
<path d="M8.35209 8.30016C8.18949 8.3002 8.0306 8.34875 7.89573 8.43959C7.76086 8.53043 7.65614 8.65944 7.59496 8.81013C7.53377 8.96082 7.51891 9.12633 7.55226 9.28551C7.58561 9.4447 7.66566 9.59031 7.78218 9.70375L12.9257 14.8486L7.78218 19.9935C7.70374 20.0689 7.64111 20.1591 7.59797 20.2589C7.55482 20.3588 7.53203 20.4662 7.53093 20.575C7.52982 20.6838 7.55042 20.7917 7.59153 20.8924C7.63263 20.9931 7.69341 21.0846 7.7703 21.1615C7.8472 21.2384 7.93866 21.2992 8.03934 21.3403C8.14002 21.3814 8.24788 21.402 8.35662 21.4009C8.46536 21.3998 8.57279 21.377 8.67261 21.3339C8.77243 21.2907 8.86264 21.2281 8.93795 21.1496L14.0815 16.0047L19.225 21.1496C19.3003 21.2281 19.3905 21.2907 19.4903 21.3339C19.5901 21.377 19.6976 21.3998 19.8063 21.4009C19.915 21.402 20.0229 21.3814 20.1236 21.3403C20.2243 21.2992 20.3157 21.2384 20.3926 21.1615C20.4695 21.0846 20.5303 20.9931 20.5714 20.8924C20.6125 20.7917 20.6331 20.6838 20.632 20.575C20.6309 20.4662 20.6081 20.3588 20.565 20.2589C20.5218 20.1591 20.4592 20.0689 20.3807 19.9935L15.2372 14.8486L20.3807 9.70375C20.4989 9.58891 20.5795 9.44106 20.6122 9.27958C20.6448 9.11809 20.628 8.95051 20.5638 8.79878C20.4996 8.64705 20.3911 8.51826 20.2524 8.42929C20.1138 8.34031 19.9515 8.2953 19.7869 8.30016C19.5746 8.30649 19.373 8.39526 19.225 8.54766L14.0815 13.6926L8.93795 8.54766C8.86179 8.46935 8.7707 8.40709 8.67007 8.36458C8.56944 8.32207 8.46132 8.30017 8.35209 8.30016Z" fill="white"/>
</svg>
