<svg width="30" height="30" viewBox="0 0 30 30" fill="none" xmlns="http://www.w3.org/2000/svg">
<path d="M8.87754 8.00038C8.70379 8.00043 8.534 8.0523 8.38988 8.14938C8.24576 8.24645 8.13385 8.38431 8.06847 8.54534C8.00309 8.70636 7.9872 8.88323 8.02284 9.05333C8.05848 9.22344 8.14402 9.37905 8.26854 9.50026L13.7649 14.9981L8.26854 20.496C8.18471 20.5765 8.11779 20.6729 8.07169 20.7796C8.02558 20.8863 8.00123 21.0011 8.00005 21.1174C7.99886 21.2336 8.02088 21.3489 8.0648 21.4565C8.10873 21.5641 8.17367 21.6619 8.25584 21.7441C8.33801 21.8263 8.43575 21.8912 8.54334 21.9352C8.65092 21.9791 8.76619 22.0011 8.88239 22C8.99859 21.9988 9.11339 21.9744 9.22006 21.9283C9.32673 21.8822 9.42312 21.8152 9.50361 21.7314L15 16.2335L20.4964 21.7314C20.5769 21.8152 20.6733 21.8822 20.7799 21.9283C20.8866 21.9744 21.0014 21.9988 21.1176 22C21.2338 22.0011 21.3491 21.9791 21.4567 21.9352C21.5642 21.8912 21.662 21.8263 21.7442 21.7441C21.8263 21.6619 21.8913 21.5641 21.9352 21.4565C21.9791 21.3489 22.0011 21.2336 22 21.1174C21.9988 21.0011 21.9744 20.8863 21.9283 20.7796C21.8822 20.6729 21.8153 20.5765 21.7315 20.496L16.2351 14.9981L21.7315 9.50026C21.8577 9.37755 21.9439 9.21955 21.9788 9.04699C22.0137 8.87443 21.9956 8.69534 21.927 8.53321C21.8584 8.37107 21.7425 8.23344 21.5943 8.13836C21.4462 8.04329 21.2728 7.99519 21.0969 8.00038C20.87 8.00714 20.6546 8.102 20.4964 8.26486L15 13.7627L9.50361 8.26486C9.42221 8.18117 9.32487 8.11465 9.21734 8.06922C9.10981 8.0238 8.99427 8.00039 8.87754 8.00038Z" fill="white"/>
</svg>
