<svg width="30" height="31" viewBox="0 0 30 31" fill="none" xmlns="http://www.w3.org/2000/svg">
<path d="M8.87754 8.50038C8.70379 8.50043 8.534 8.5523 8.38988 8.64938C8.24576 8.74645 8.13385 8.88431 8.06847 9.04534C8.00309 9.20636 7.9872 9.38323 8.02284 9.55333C8.05848 9.72344 8.14402 9.87905 8.26854 10.0003L13.7649 15.4981L8.26854 20.996C8.18471 21.0765 8.11779 21.1729 8.07169 21.2796C8.02558 21.3863 8.00123 21.5011 8.00005 21.6174C7.99886 21.7336 8.02088 21.8489 8.0648 21.9565C8.10873 22.0641 8.17367 22.1619 8.25584 22.2441C8.33801 22.3263 8.43575 22.3912 8.54334 22.4352C8.65092 22.4791 8.76619 22.5011 8.88239 22.5C8.99859 22.4988 9.11339 22.4744 9.22006 22.4283C9.32673 22.3822 9.42312 22.3152 9.50361 22.2314L15 16.7335L20.4964 22.2314C20.5769 22.3152 20.6733 22.3822 20.7799 22.4283C20.8866 22.4744 21.0014 22.4988 21.1176 22.5C21.2338 22.5011 21.3491 22.4791 21.4567 22.4352C21.5642 22.3912 21.662 22.3263 21.7442 22.2441C21.8263 22.1619 21.8913 22.0641 21.9352 21.9565C21.9791 21.8489 22.0011 21.7336 22 21.6174C21.9988 21.5011 21.9744 21.3863 21.9283 21.2796C21.8822 21.1729 21.8153 21.0765 21.7315 20.996L16.2351 15.4981L21.7315 10.0003C21.8577 9.87755 21.9439 9.71955 21.9788 9.54699C22.0137 9.37443 21.9956 9.19534 21.927 9.03321C21.8584 8.87107 21.7425 8.73344 21.5943 8.63836C21.4462 8.54329 21.2728 8.49519 21.0969 8.50038C20.87 8.50714 20.6546 8.602 20.4964 8.76486L15 14.2627L9.50361 8.76486C9.42221 8.68117 9.32487 8.61465 9.21734 8.56922C9.10981 8.5238 8.99427 8.50039 8.87754 8.50038Z" fill="white"/>
</svg>
