<svg width="19" height="19" viewBox="0 0 19 19" fill="none" xmlns="http://www.w3.org/2000/svg">
<path d="M9.88599 1.91162C9.78345 1.91162 9.68091 1.92041 9.60474 1.9585L2.85474 4.9585H2.71411C2.41528 5.18408 2.33911 5.47998 2.33911 5.77881V13.1382C2.33911 13.437 2.4856 13.7417 2.78442 13.8179L9.53442 16.8179H9.97974L16.7297 13.8179C17.0286 13.6685 17.1985 13.437 17.1985 13.1382V5.77881C17.4241 5.47998 17.26 5.17822 17.0344 5.02881L16.9641 4.9585L10.2141 1.9585C10.1028 1.92041 9.98853 1.91162 9.88599 1.91162ZM9.83911 3.4585L14.7141 5.63818L9.83911 7.81787L4.96411 5.63818L9.83911 3.4585ZM9.83911 5.12256C9.21802 5.12256 8.71411 5.34814 8.71411 5.63818C8.71411 5.92822 9.21802 6.15381 9.83911 6.15381C10.4602 6.15381 10.9641 5.92822 10.9641 5.63818C10.9641 5.34814 10.4602 5.12256 9.83911 5.12256ZM3.83911 6.76318L6.22974 7.88818L9.08911 9.15381V15.0132L3.83911 12.6929V6.76318ZM15.8391 6.76318V12.6226L10.5891 15.0132V9.15381L13.4485 7.88818L15.8391 6.76318ZM4.77661 7.74756C4.68579 7.73291 4.58325 7.73877 4.49536 7.771C4.1438 7.8999 3.99731 8.3833 4.16724 8.84912C4.33716 9.31494 4.77661 9.61084 5.12817 9.48193C5.47974 9.35303 5.62622 8.86963 5.4563 8.40381C5.32739 8.05225 5.052 7.79443 4.77661 7.74756ZM14.4094 8.59131C14.134 8.63818 13.8821 8.896 13.7532 9.24756C13.5833 9.71338 13.7297 10.1968 14.0813 10.3257C14.4329 10.4546 14.8489 10.1587 15.0188 9.69287C15.1887 9.22705 15.0422 8.74365 14.6907 8.61475C14.6028 8.58252 14.5002 8.57666 14.4094 8.59131ZM6.27661 9.99756C6.18579 9.98291 6.08325 9.98877 5.99536 10.021C5.6438 10.1499 5.49731 10.6333 5.66724 11.0991C5.83716 11.5649 6.27661 11.8608 6.62817 11.7319C6.97974 11.603 7.12622 11.1196 6.9563 10.6538C6.82739 10.3022 6.552 10.0444 6.27661 9.99756ZM12.0188 11.6616C11.7493 11.6968 11.4797 11.9253 11.3625 12.2476C11.2073 12.6753 11.3625 13.1265 11.7141 13.2554C12.0657 13.3843 12.4729 13.1206 12.6282 12.6929C12.7834 12.2651 12.6282 11.814 12.2766 11.6851C12.1887 11.6528 12.1096 11.6499 12.0188 11.6616ZM8.15161 12.2476C8.06079 12.2329 7.95825 12.2388 7.87036 12.271C7.5188 12.3999 7.37231 12.8833 7.54224 13.3491C7.71216 13.8149 8.15161 14.1108 8.50317 13.9819C8.85474 13.853 9.00122 13.3696 8.8313 12.9038C8.70239 12.5522 8.427 12.2944 8.15161 12.2476Z" fill="white"/>
</svg>
