<svg width="19" height="19" viewBox="0 0 19 19" fill="none" xmlns="http://www.w3.org/2000/svg">
<path d="M9.88574 1.91138C9.7832 1.91138 9.68066 1.92017 9.60449 1.95825L2.85449 4.95825H2.71387C2.41504 5.18384 2.33887 5.47974 2.33887 5.77856V13.1379C2.33887 13.4368 2.48535 13.7415 2.78418 13.8176L9.53418 16.8176H9.97949L16.7295 13.8176C17.0283 13.6682 17.1982 13.4368 17.1982 13.1379V5.77856C17.4238 5.47974 17.2598 5.17798 17.0342 5.02856L16.9639 4.95825L10.2139 1.95825C10.1025 1.92017 9.98828 1.91138 9.88574 1.91138ZM9.83887 3.45825L14.7139 5.63794L9.83887 7.81763L4.96387 5.63794L9.83887 3.45825ZM9.83887 5.12231C9.21777 5.12231 8.71387 5.3479 8.71387 5.63794C8.71387 5.92798 9.21777 6.15356 9.83887 6.15356C10.46 6.15356 10.9639 5.92798 10.9639 5.63794C10.9639 5.3479 10.46 5.12231 9.83887 5.12231ZM3.83887 6.76294L6.22949 7.88794L9.08887 9.15356V15.0129L3.83887 12.6926V6.76294ZM15.8389 6.76294V12.6223L10.5889 15.0129V9.15356L13.4482 7.88794L15.8389 6.76294ZM4.77637 7.74731C4.68555 7.73267 4.58301 7.73853 4.49512 7.77075C4.14355 7.89966 3.99707 8.38306 4.16699 8.84888C4.33691 9.3147 4.77637 9.6106 5.12793 9.48169C5.47949 9.35278 5.62598 8.86938 5.45605 8.40356C5.32715 8.052 5.05176 7.79419 4.77637 7.74731ZM14.4092 8.59106C14.1338 8.63794 13.8818 8.89575 13.7529 9.24731C13.583 9.71313 13.7295 10.1965 14.0811 10.3254C14.4326 10.4543 14.8486 10.1584 15.0186 9.69263C15.1885 9.22681 15.042 8.74341 14.6904 8.6145C14.6025 8.58228 14.5 8.57642 14.4092 8.59106ZM6.27637 9.99731C6.18555 9.98267 6.08301 9.98853 5.99512 10.0208C5.64355 10.1497 5.49707 10.6331 5.66699 11.0989C5.83691 11.5647 6.27637 11.8606 6.62793 11.7317C6.97949 11.6028 7.12598 11.1194 6.95605 10.6536C6.82715 10.302 6.55176 10.0442 6.27637 9.99731ZM12.0186 11.6614C11.749 11.6965 11.4795 11.925 11.3623 12.2473C11.207 12.675 11.3623 13.1262 11.7139 13.2551C12.0654 13.384 12.4727 13.1204 12.6279 12.6926C12.7832 12.2649 12.6279 11.8137 12.2764 11.6848C12.1885 11.6526 12.1094 11.6497 12.0186 11.6614ZM8.15137 12.2473C8.06055 12.2327 7.95801 12.2385 7.87012 12.2708C7.51855 12.3997 7.37207 12.8831 7.54199 13.3489C7.71191 13.8147 8.15137 14.1106 8.50293 13.9817C8.85449 13.8528 9.00098 13.3694 8.83105 12.9036C8.70215 12.552 8.42676 12.2942 8.15137 12.2473Z" fill="white"/>
</svg>
