<svg width="19" height="19" viewBox="0 0 19 19" fill="none" xmlns="http://www.w3.org/2000/svg">
<path d="M9.88574 2.42871C9.7832 2.42871 9.68066 2.4375 9.60449 2.47559L2.85449 5.47559H2.71387C2.41504 5.70117 2.33887 5.99707 2.33887 6.2959V13.6553C2.33887 13.9541 2.48535 14.2588 2.78418 14.335L9.53418 17.335H9.97949L16.7295 14.335C17.0283 14.1855 17.1982 13.9541 17.1982 13.6553V6.2959C17.4238 5.99707 17.2598 5.69531 17.0342 5.5459L16.9639 5.47559L10.2139 2.47559C10.1025 2.4375 9.98828 2.42871 9.88574 2.42871ZM9.83887 3.97559L14.7139 6.15527L9.83887 8.33496L4.96387 6.15527L9.83887 3.97559ZM9.83887 5.63965C9.21777 5.63965 8.71387 5.86523 8.71387 6.15527C8.71387 6.44531 9.21777 6.6709 9.83887 6.6709C10.46 6.6709 10.9639 6.44531 10.9639 6.15527C10.9639 5.86523 10.46 5.63965 9.83887 5.63965ZM3.83887 7.28027L6.22949 8.40527L9.08887 9.6709V15.5303L3.83887 13.21V7.28027ZM15.8389 7.28027V13.1396L10.5889 15.5303V9.6709L13.4482 8.40527L15.8389 7.28027ZM4.77637 8.26465C4.68555 8.25 4.58301 8.25586 4.49512 8.28809C4.14355 8.41699 3.99707 8.90039 4.16699 9.36621C4.33691 9.83203 4.77637 10.1279 5.12793 9.99902C5.47949 9.87012 5.62598 9.38672 5.45605 8.9209C5.32715 8.56934 5.05176 8.31152 4.77637 8.26465ZM14.4092 9.1084C14.1338 9.15527 13.8818 9.41309 13.7529 9.76465C13.583 10.2305 13.7295 10.7139 14.0811 10.8428C14.4326 10.9717 14.8486 10.6758 15.0186 10.21C15.1885 9.74414 15.042 9.26074 14.6904 9.13184C14.6025 9.09961 14.5 9.09375 14.4092 9.1084ZM6.27637 10.5146C6.18555 10.5 6.08301 10.5059 5.99512 10.5381C5.64355 10.667 5.49707 11.1504 5.66699 11.6162C5.83691 12.082 6.27637 12.3779 6.62793 12.249C6.97949 12.1201 7.12598 11.6367 6.95605 11.1709C6.82715 10.8193 6.55176 10.5615 6.27637 10.5146ZM12.0186 12.1787C11.749 12.2139 11.4795 12.4424 11.3623 12.7646C11.207 13.1924 11.3623 13.6436 11.7139 13.7725C12.0654 13.9014 12.4727 13.6377 12.6279 13.21C12.7832 12.7822 12.6279 12.3311 12.2764 12.2021C12.1885 12.1699 12.1094 12.167 12.0186 12.1787ZM8.15137 12.7646C8.06055 12.75 7.95801 12.7559 7.87012 12.7881C7.51855 12.917 7.37207 13.4004 7.54199 13.8662C7.71191 14.332 8.15137 14.6279 8.50293 14.499C8.85449 14.3701 9.00098 13.8867 8.83105 13.4209C8.70215 13.0693 8.42676 12.8115 8.15137 12.7646Z" fill="white"/>
</svg>
