<svg width="19" height="19" viewBox="0 0 19 19" fill="none" xmlns="http://www.w3.org/2000/svg">
<path d="M9.88599 1.68726C9.78345 1.68726 9.68091 1.69605 9.60474 1.73413L2.85474 4.73413H2.71411C2.41528 4.95972 2.33911 5.25562 2.33911 5.55444V12.9138C2.33911 13.2126 2.4856 13.5173 2.78442 13.5935L9.53442 16.5935H9.97974L16.7297 13.5935C17.0286 13.4441 17.1985 13.2126 17.1985 12.9138V5.55444C17.4241 5.25562 17.26 4.95386 17.0344 4.80444L16.9641 4.73413L10.2141 1.73413C10.1028 1.69605 9.98853 1.68726 9.88599 1.68726ZM9.83911 3.23413L14.7141 5.41382L9.83911 7.59351L4.96411 5.41382L9.83911 3.23413ZM9.83911 4.89819C9.21802 4.89819 8.71411 5.12378 8.71411 5.41382C8.71411 5.70386 9.21802 5.92944 9.83911 5.92944C10.4602 5.92944 10.9641 5.70386 10.9641 5.41382C10.9641 5.12378 10.4602 4.89819 9.83911 4.89819ZM3.83911 6.53882L6.22974 7.66382L9.08911 8.92944V14.7888L3.83911 12.4685V6.53882ZM15.8391 6.53882V12.3982L10.5891 14.7888V8.92944L13.4485 7.66382L15.8391 6.53882ZM4.77661 7.52319C4.68579 7.50855 4.58325 7.5144 4.49536 7.54663C4.1438 7.67554 3.99731 8.15894 4.16724 8.62476C4.33716 9.09058 4.77661 9.38647 5.12817 9.25757C5.47974 9.12866 5.62622 8.64526 5.4563 8.17944C5.32739 7.82788 5.052 7.57007 4.77661 7.52319ZM14.4094 8.36694C14.134 8.41382 13.8821 8.67163 13.7532 9.02319C13.5833 9.48901 13.7297 9.97241 14.0813 10.1013C14.4329 10.2302 14.8489 9.93433 15.0188 9.46851C15.1887 9.00269 15.0422 8.51929 14.6907 8.39038C14.6028 8.35815 14.5002 8.3523 14.4094 8.36694ZM6.27661 9.77319C6.18579 9.75855 6.08325 9.7644 5.99536 9.79663C5.6438 9.92554 5.49731 10.4089 5.66724 10.8748C5.83716 11.3406 6.27661 11.6365 6.62817 11.5076C6.97974 11.3787 7.12622 10.8953 6.9563 10.4294C6.82739 10.0779 6.552 9.82007 6.27661 9.77319ZM12.0188 11.4373C11.7493 11.4724 11.4797 11.7009 11.3625 12.0232C11.2073 12.4509 11.3625 12.9021 11.7141 13.031C12.0657 13.1599 12.4729 12.8962 12.6282 12.4685C12.7834 12.0408 12.6282 11.5896 12.2766 11.4607C12.1887 11.4285 12.1096 11.4255 12.0188 11.4373ZM8.15161 12.0232C8.06079 12.0085 7.95825 12.0144 7.87036 12.0466C7.5188 12.1755 7.37231 12.6589 7.54224 13.1248C7.71216 13.5906 8.15161 13.8865 8.50317 13.7576C8.85474 13.6287 9.00122 13.1453 8.8313 12.6794C8.70239 12.3279 8.427 12.0701 8.15161 12.0232Z" fill="white"/>
</svg>
