<svg width="19" height="19" viewBox="0 0 19 19" fill="none" xmlns="http://www.w3.org/2000/svg">
<path d="M9.88599 2.42871C9.78345 2.42871 9.68091 2.4375 9.60474 2.47559L2.85474 5.47559H2.71411C2.41528 5.70117 2.33911 5.99707 2.33911 6.2959V13.6553C2.33911 13.9541 2.4856 14.2588 2.78442 14.335L9.53442 17.335H9.97974L16.7297 14.335C17.0286 14.1855 17.1985 13.9541 17.1985 13.6553V6.2959C17.4241 5.99707 17.26 5.69531 17.0344 5.5459L16.9641 5.47559L10.2141 2.47559C10.1028 2.4375 9.98853 2.42871 9.88599 2.42871ZM9.83911 3.97559L14.7141 6.15527L9.83911 8.33496L4.96411 6.15527L9.83911 3.97559ZM9.83911 5.63965C9.21802 5.63965 8.71411 5.86523 8.71411 6.15527C8.71411 6.44531 9.21802 6.6709 9.83911 6.6709C10.4602 6.6709 10.9641 6.44531 10.9641 6.15527C10.9641 5.86523 10.4602 5.63965 9.83911 5.63965ZM3.83911 7.28027L6.22974 8.40527L9.08911 9.6709V15.5303L3.83911 13.21V7.28027ZM15.8391 7.28027V13.1396L10.5891 15.5303V9.6709L13.4485 8.40527L15.8391 7.28027ZM4.77661 8.26465C4.68579 8.25 4.58325 8.25586 4.49536 8.28809C4.1438 8.41699 3.99731 8.90039 4.16724 9.36621C4.33716 9.83203 4.77661 10.1279 5.12817 9.99902C5.47974 9.87012 5.62622 9.38672 5.4563 8.9209C5.32739 8.56934 5.052 8.31152 4.77661 8.26465ZM14.4094 9.1084C14.134 9.15527 13.8821 9.41309 13.7532 9.76465C13.5833 10.2305 13.7297 10.7139 14.0813 10.8428C14.4329 10.9717 14.8489 10.6758 15.0188 10.21C15.1887 9.74414 15.0422 9.26074 14.6907 9.13184C14.6028 9.09961 14.5002 9.09375 14.4094 9.1084ZM6.27661 10.5146C6.18579 10.5 6.08325 10.5059 5.99536 10.5381C5.6438 10.667 5.49731 11.1504 5.66724 11.6162C5.83716 12.082 6.27661 12.3779 6.62817 12.249C6.97974 12.1201 7.12622 11.6367 6.9563 11.1709C6.82739 10.8193 6.552 10.5615 6.27661 10.5146ZM12.0188 12.1787C11.7493 12.2139 11.4797 12.4424 11.3625 12.7646C11.2073 13.1924 11.3625 13.6436 11.7141 13.7725C12.0657 13.9014 12.4729 13.6377 12.6282 13.21C12.7834 12.7822 12.6282 12.3311 12.2766 12.2021C12.1887 12.1699 12.1096 12.167 12.0188 12.1787ZM8.15161 12.7646C8.06079 12.75 7.95825 12.7559 7.87036 12.7881C7.5188 12.917 7.37231 13.4004 7.54224 13.8662C7.71216 14.332 8.15161 14.6279 8.50317 14.499C8.85474 14.3701 9.00122 13.8867 8.8313 13.4209C8.70239 13.0693 8.427 12.8115 8.15161 12.7646Z" fill="white"/>
</svg>
