<svg width="19" height="19" viewBox="0 0 19 19" fill="none" xmlns="http://www.w3.org/2000/svg">
<path d="M9.88599 2.17017C9.78345 2.17017 9.68091 2.17896 9.60474 2.21704L2.85474 5.21704H2.71411C2.41528 5.44263 2.33911 5.73853 2.33911 6.03735V13.3967C2.33911 13.6956 2.4856 14.0002 2.78442 14.0764L9.53442 17.0764H9.97974L16.7297 14.0764C17.0286 13.927 17.1985 13.6956 17.1985 13.3967V6.03735C17.4241 5.73853 17.26 5.43677 17.0344 5.28735L16.9641 5.21704L10.2141 2.21704C10.1028 2.17896 9.98853 2.17017 9.88599 2.17017ZM9.83911 3.71704L14.7141 5.89673L9.83911 8.07642L4.96411 5.89673L9.83911 3.71704ZM9.83911 5.3811C9.21802 5.3811 8.71411 5.60669 8.71411 5.89673C8.71411 6.18677 9.21802 6.41235 9.83911 6.41235C10.4602 6.41235 10.9641 6.18677 10.9641 5.89673C10.9641 5.60669 10.4602 5.3811 9.83911 5.3811ZM3.83911 7.02173L6.22974 8.14673L9.08911 9.41235V15.2717L3.83911 12.9514V7.02173ZM15.8391 7.02173V12.8811L10.5891 15.2717V9.41235L13.4485 8.14673L15.8391 7.02173ZM4.77661 8.0061C4.68579 7.99146 4.58325 7.99731 4.49536 8.02954C4.1438 8.15845 3.99731 8.64185 4.16724 9.10767C4.33716 9.57349 4.77661 9.86938 5.12817 9.74048C5.47974 9.61157 5.62622 9.12817 5.4563 8.66235C5.32739 8.31079 5.052 8.05298 4.77661 8.0061ZM14.4094 8.84985C14.134 8.89673 13.8821 9.15454 13.7532 9.5061C13.5833 9.97192 13.7297 10.4553 14.0813 10.5842C14.4329 10.7131 14.8489 10.4172 15.0188 9.95142C15.1887 9.4856 15.0422 9.0022 14.6907 8.87329C14.6028 8.84106 14.5002 8.83521 14.4094 8.84985ZM6.27661 10.2561C6.18579 10.2415 6.08325 10.2473 5.99536 10.2795C5.6438 10.4084 5.49731 10.8918 5.66724 11.3577C5.83716 11.8235 6.27661 12.1194 6.62817 11.9905C6.97974 11.8616 7.12622 11.3782 6.9563 10.9124C6.82739 10.5608 6.552 10.303 6.27661 10.2561ZM12.0188 11.9202C11.7493 11.9553 11.4797 12.1838 11.3625 12.5061C11.2073 12.9338 11.3625 13.385 11.7141 13.5139C12.0657 13.6428 12.4729 13.3792 12.6282 12.9514C12.7834 12.5237 12.6282 12.0725 12.2766 11.9436C12.1887 11.9114 12.1096 11.9084 12.0188 11.9202ZM8.15161 12.5061C8.06079 12.4915 7.95825 12.4973 7.87036 12.5295C7.5188 12.6584 7.37231 13.1418 7.54224 13.6077C7.71216 14.0735 8.15161 14.3694 8.50317 14.2405C8.85474 14.1116 9.00122 13.6282 8.8313 13.1624C8.70239 12.8108 8.427 12.553 8.15161 12.5061Z" fill="white"/>
</svg>
