<svg width="19" height="19" viewBox="0 0 19 19" fill="none" xmlns="http://www.w3.org/2000/svg">
<path d="M9.88574 1.94604C9.7832 1.94604 9.68066 1.95483 9.60449 1.99292L2.85449 4.99292H2.71387C2.41504 5.21851 2.33887 5.5144 2.33887 5.81323V13.1726C2.33887 13.4714 2.48535 13.7761 2.78418 13.8523L9.53418 16.8523H9.97949L16.7295 13.8523C17.0283 13.7029 17.1982 13.4714 17.1982 13.1726V5.81323C17.4238 5.5144 17.2598 5.21265 17.0342 5.06323L16.9639 4.99292L10.2139 1.99292C10.1025 1.95483 9.98828 1.94604 9.88574 1.94604ZM9.83887 3.49292L14.7139 5.67261L9.83887 7.85229L4.96387 5.67261L9.83887 3.49292ZM9.83887 5.15698C9.21777 5.15698 8.71387 5.38257 8.71387 5.67261C8.71387 5.96265 9.21777 6.18823 9.83887 6.18823C10.46 6.18823 10.9639 5.96265 10.9639 5.67261C10.9639 5.38257 10.46 5.15698 9.83887 5.15698ZM3.83887 6.79761L6.22949 7.92261L9.08887 9.18823V15.0476L3.83887 12.7273V6.79761ZM15.8389 6.79761V12.657L10.5889 15.0476V9.18823L13.4482 7.92261L15.8389 6.79761ZM4.77637 7.78198C4.68555 7.76733 4.58301 7.77319 4.49512 7.80542C4.14355 7.93433 3.99707 8.41772 4.16699 8.88354C4.33691 9.34937 4.77637 9.64526 5.12793 9.51636C5.47949 9.38745 5.62598 8.90405 5.45605 8.43823C5.32715 8.08667 5.05176 7.82886 4.77637 7.78198ZM14.4092 8.62573C14.1338 8.67261 13.8818 8.93042 13.7529 9.28198C13.583 9.7478 13.7295 10.2312 14.0811 10.3601C14.4326 10.489 14.8486 10.1931 15.0186 9.72729C15.1885 9.26147 15.042 8.77808 14.6904 8.64917C14.6025 8.61694 14.5 8.61108 14.4092 8.62573ZM6.27637 10.032C6.18555 10.0173 6.08301 10.0232 5.99512 10.0554C5.64355 10.1843 5.49707 10.6677 5.66699 11.1335C5.83691 11.5994 6.27637 11.8953 6.62793 11.7664C6.97949 11.6375 7.12598 11.1541 6.95605 10.6882C6.82715 10.3367 6.55176 10.0789 6.27637 10.032ZM12.0186 11.696C11.749 11.7312 11.4795 11.9597 11.3623 12.282C11.207 12.7097 11.3623 13.1609 11.7139 13.2898C12.0654 13.4187 12.4727 13.155 12.6279 12.7273C12.7832 12.2996 12.6279 11.8484 12.2764 11.7195C12.1885 11.6873 12.1094 11.6843 12.0186 11.696ZM8.15137 12.282C8.06055 12.2673 7.95801 12.2732 7.87012 12.3054C7.51855 12.4343 7.37207 12.9177 7.54199 13.3835C7.71191 13.8494 8.15137 14.1453 8.50293 14.0164C8.85449 13.8875 9.00098 13.4041 8.83105 12.9382C8.70215 12.5867 8.42676 12.3289 8.15137 12.282Z" fill="white"/>
</svg>
