<svg width="19" height="19" viewBox="0 0 19 19" fill="none" xmlns="http://www.w3.org/2000/svg">
<path d="M9.88599 1.91138C9.78345 1.91138 9.68091 1.92017 9.60474 1.95825L2.85474 4.95825H2.71411C2.41528 5.18384 2.33911 5.47974 2.33911 5.77856V13.1379C2.33911 13.4368 2.4856 13.7415 2.78442 13.8176L9.53442 16.8176H9.97974L16.7297 13.8176C17.0286 13.6682 17.1985 13.4368 17.1985 13.1379V5.77856C17.4241 5.47974 17.26 5.17798 17.0344 5.02856L16.9641 4.95825L10.2141 1.95825C10.1028 1.92017 9.98853 1.91138 9.88599 1.91138ZM9.83911 3.45825L14.7141 5.63794L9.83911 7.81763L4.96411 5.63794L9.83911 3.45825ZM9.83911 5.12231C9.21802 5.12231 8.71411 5.3479 8.71411 5.63794C8.71411 5.92798 9.21802 6.15356 9.83911 6.15356C10.4602 6.15356 10.9641 5.92798 10.9641 5.63794C10.9641 5.3479 10.4602 5.12231 9.83911 5.12231ZM3.83911 6.76294L6.22974 7.88794L9.08911 9.15356V15.0129L3.83911 12.6926V6.76294ZM15.8391 6.76294V12.6223L10.5891 15.0129V9.15356L13.4485 7.88794L15.8391 6.76294ZM4.77661 7.74731C4.68579 7.73267 4.58325 7.73853 4.49536 7.77075C4.1438 7.89966 3.99731 8.38306 4.16724 8.84888C4.33716 9.3147 4.77661 9.6106 5.12817 9.48169C5.47974 9.35278 5.62622 8.86938 5.4563 8.40356C5.32739 8.052 5.052 7.79419 4.77661 7.74731ZM14.4094 8.59106C14.134 8.63794 13.8821 8.89575 13.7532 9.24731C13.5833 9.71313 13.7297 10.1965 14.0813 10.3254C14.4329 10.4543 14.8489 10.1584 15.0188 9.69263C15.1887 9.22681 15.0422 8.74341 14.6907 8.6145C14.6028 8.58228 14.5002 8.57642 14.4094 8.59106ZM6.27661 9.99731C6.18579 9.98267 6.08325 9.98853 5.99536 10.0208C5.6438 10.1497 5.49731 10.6331 5.66724 11.0989C5.83716 11.5647 6.27661 11.8606 6.62817 11.7317C6.97974 11.6028 7.12622 11.1194 6.9563 10.6536C6.82739 10.302 6.552 10.0442 6.27661 9.99731ZM12.0188 11.6614C11.7493 11.6965 11.4797 11.925 11.3625 12.2473C11.2073 12.675 11.3625 13.1262 11.7141 13.2551C12.0657 13.384 12.4729 13.1204 12.6282 12.6926C12.7834 12.2649 12.6282 11.8137 12.2766 11.6848C12.1887 11.6526 12.1096 11.6497 12.0188 11.6614ZM8.15161 12.2473C8.06079 12.2327 7.95825 12.2385 7.87036 12.2708C7.5188 12.3997 7.37231 12.8831 7.54224 13.3489C7.71216 13.8147 8.15161 14.1106 8.50317 13.9817C8.85474 13.8528 9.00122 13.3694 8.8313 12.9036C8.70239 12.552 8.427 12.2942 8.15161 12.2473Z" fill="white"/>
</svg>
