<svg width="19" height="19" viewBox="0 0 19 19" fill="none" xmlns="http://www.w3.org/2000/svg">
<path d="M9.88574 2.16992C9.7832 2.16992 9.68066 2.17871 9.60449 2.2168L2.85449 5.2168H2.71387C2.41504 5.44238 2.33887 5.73828 2.33887 6.03711V13.3965C2.33887 13.6953 2.48535 14 2.78418 14.0762L9.53418 17.0762H9.97949L16.7295 14.0762C17.0283 13.9268 17.1982 13.6953 17.1982 13.3965V6.03711C17.4238 5.73828 17.2598 5.43652 17.0342 5.28711L16.9639 5.2168L10.2139 2.2168C10.1025 2.17871 9.98828 2.16992 9.88574 2.16992ZM9.83887 3.7168L14.7139 5.89648L9.83887 8.07617L4.96387 5.89648L9.83887 3.7168ZM9.83887 5.38086C9.21777 5.38086 8.71387 5.60645 8.71387 5.89648C8.71387 6.18652 9.21777 6.41211 9.83887 6.41211C10.46 6.41211 10.9639 6.18652 10.9639 5.89648C10.9639 5.60645 10.46 5.38086 9.83887 5.38086ZM3.83887 7.02148L6.22949 8.14648L9.08887 9.41211V15.2715L3.83887 12.9512V7.02148ZM15.8389 7.02148V12.8809L10.5889 15.2715V9.41211L13.4482 8.14648L15.8389 7.02148ZM4.77637 8.00586C4.68555 7.99121 4.58301 7.99707 4.49512 8.0293C4.14355 8.1582 3.99707 8.6416 4.16699 9.10742C4.33691 9.57324 4.77637 9.86914 5.12793 9.74023C5.47949 9.61133 5.62598 9.12793 5.45605 8.66211C5.32715 8.31055 5.05176 8.05273 4.77637 8.00586ZM14.4092 8.84961C14.1338 8.89648 13.8818 9.1543 13.7529 9.50586C13.583 9.97168 13.7295 10.4551 14.0811 10.584C14.4326 10.7129 14.8486 10.417 15.0186 9.95117C15.1885 9.48535 15.042 9.00195 14.6904 8.87305C14.6025 8.84082 14.5 8.83496 14.4092 8.84961ZM6.27637 10.2559C6.18555 10.2412 6.08301 10.2471 5.99512 10.2793C5.64355 10.4082 5.49707 10.8916 5.66699 11.3574C5.83691 11.8232 6.27637 12.1191 6.62793 11.9902C6.97949 11.8613 7.12598 11.3779 6.95605 10.9121C6.82715 10.5605 6.55176 10.3027 6.27637 10.2559ZM12.0186 11.9199C11.749 11.9551 11.4795 12.1836 11.3623 12.5059C11.207 12.9336 11.3623 13.3848 11.7139 13.5137C12.0654 13.6426 12.4727 13.3789 12.6279 12.9512C12.7832 12.5234 12.6279 12.0723 12.2764 11.9434C12.1885 11.9111 12.1094 11.9082 12.0186 11.9199ZM8.15137 12.5059C8.06055 12.4912 7.95801 12.4971 7.87012 12.5293C7.51855 12.6582 7.37207 13.1416 7.54199 13.6074C7.71191 14.0732 8.15137 14.3691 8.50293 14.2402C8.85449 14.1113 9.00098 13.6279 8.83105 13.1621C8.70215 12.8105 8.42676 12.5527 8.15137 12.5059Z" fill="white"/>
</svg>
