<svg width="18" height="18" viewBox="0 0 18 18" fill="none" xmlns="http://www.w3.org/2000/svg">
<path d="M9.04688 1.52344C8.94434 1.52344 8.8418 1.53223 8.76562 1.57031L2.01562 4.57031H1.875C1.57617 4.7959 1.5 5.0918 1.5 5.39062V12.75C1.5 13.0488 1.64648 13.3535 1.94531 13.4297L8.69531 16.4297H9.14062L15.8906 13.4297C16.1895 13.2803 16.3594 13.0488 16.3594 12.75V5.39062C16.585 5.0918 16.4209 4.79004 16.1953 4.64062L16.125 4.57031L9.375 1.57031C9.26367 1.53223 9.14941 1.52344 9.04688 1.52344ZM9 3.07031L13.875 5.25L9 7.42969L4.125 5.25L9 3.07031ZM9 4.73438C8.37891 4.73438 7.875 4.95996 7.875 5.25C7.875 5.54004 8.37891 5.76562 9 5.76562C9.62109 5.76562 10.125 5.54004 10.125 5.25C10.125 4.95996 9.62109 4.73438 9 4.73438ZM3 6.375L5.39062 7.5L8.25 8.76562V14.625L3 12.3047V6.375ZM15 6.375V12.2344L9.75 14.625V8.76562L12.6094 7.5L15 6.375ZM3.9375 7.35938C3.84668 7.34473 3.74414 7.35059 3.65625 7.38281C3.30469 7.51172 3.1582 7.99512 3.32812 8.46094C3.49805 8.92676 3.9375 9.22266 4.28906 9.09375C4.64062 8.96484 4.78711 8.48145 4.61719 8.01562C4.48828 7.66406 4.21289 7.40625 3.9375 7.35938ZM13.5703 8.20312C13.2949 8.25 13.043 8.50781 12.9141 8.85938C12.7441 9.3252 12.8906 9.80859 13.2422 9.9375C13.5938 10.0664 14.0098 9.77051 14.1797 9.30469C14.3496 8.83887 14.2031 8.35547 13.8516 8.22656C13.7637 8.19434 13.6611 8.18848 13.5703 8.20312ZM5.4375 9.60938C5.34668 9.59473 5.24414 9.60059 5.15625 9.63281C4.80469 9.76172 4.6582 10.2451 4.82812 10.7109C4.99805 11.1768 5.4375 11.4727 5.78906 11.3438C6.14062 11.2148 6.28711 10.7314 6.11719 10.2656C5.98828 9.91406 5.71289 9.65625 5.4375 9.60938ZM11.1797 11.2734C10.9102 11.3086 10.6406 11.5371 10.5234 11.8594C10.3682 12.2871 10.5234 12.7383 10.875 12.8672C11.2266 12.9961 11.6338 12.7324 11.7891 12.3047C11.9443 11.877 11.7891 11.4258 11.4375 11.2969C11.3496 11.2646 11.2705 11.2617 11.1797 11.2734ZM7.3125 11.8594C7.22168 11.8447 7.11914 11.8506 7.03125 11.8828C6.67969 12.0117 6.5332 12.4951 6.70312 12.9609C6.87305 13.4268 7.3125 13.7227 7.66406 13.5938C8.01562 13.4648 8.16211 12.9814 7.99219 12.5156C7.86328 12.1641 7.58789 11.9062 7.3125 11.8594Z" fill="white"/>
</svg>
