<svg width="19" height="19" viewBox="0 0 19 19" fill="none" xmlns="http://www.w3.org/2000/svg">
<path d="M9.88574 2.20459C9.7832 2.20459 9.68066 2.21338 9.60449 2.25146L2.85449 5.25146H2.71387C2.41504 5.47705 2.33887 5.77295 2.33887 6.07178V13.4312C2.33887 13.73 2.48535 14.0347 2.78418 14.1108L9.53418 17.1108H9.97949L16.7295 14.1108C17.0283 13.9614 17.1982 13.73 17.1982 13.4312V6.07178C17.4238 5.77295 17.2598 5.47119 17.0342 5.32178L16.9639 5.25146L10.2139 2.25146C10.1025 2.21338 9.98828 2.20459 9.88574 2.20459ZM9.83887 3.75146L14.7139 5.93115L9.83887 8.11084L4.96387 5.93115L9.83887 3.75146ZM9.83887 5.41553C9.21777 5.41553 8.71387 5.64111 8.71387 5.93115C8.71387 6.22119 9.21777 6.44678 9.83887 6.44678C10.46 6.44678 10.9639 6.22119 10.9639 5.93115C10.9639 5.64111 10.46 5.41553 9.83887 5.41553ZM3.83887 7.05615L6.22949 8.18115L9.08887 9.44678V15.3062L3.83887 12.9858V7.05615ZM15.8389 7.05615V12.9155L10.5889 15.3062V9.44678L13.4482 8.18115L15.8389 7.05615ZM4.77637 8.04053C4.68555 8.02588 4.58301 8.03174 4.49512 8.06396C4.14355 8.19287 3.99707 8.67627 4.16699 9.14209C4.33691 9.60791 4.77637 9.90381 5.12793 9.7749C5.47949 9.646 5.62598 9.1626 5.45605 8.69678C5.32715 8.34521 5.05176 8.0874 4.77637 8.04053ZM14.4092 8.88428C14.1338 8.93115 13.8818 9.18896 13.7529 9.54053C13.583 10.0063 13.7295 10.4897 14.0811 10.6187C14.4326 10.7476 14.8486 10.4517 15.0186 9.98584C15.1885 9.52002 15.042 9.03662 14.6904 8.90771C14.6025 8.87549 14.5 8.86963 14.4092 8.88428ZM6.27637 10.2905C6.18555 10.2759 6.08301 10.2817 5.99512 10.314C5.64355 10.4429 5.49707 10.9263 5.66699 11.3921C5.83691 11.8579 6.27637 12.1538 6.62793 12.0249C6.97949 11.896 7.12598 11.4126 6.95605 10.9468C6.82715 10.5952 6.55176 10.3374 6.27637 10.2905ZM12.0186 11.9546C11.749 11.9897 11.4795 12.2183 11.3623 12.5405C11.207 12.9683 11.3623 13.4194 11.7139 13.5483C12.0654 13.6772 12.4727 13.4136 12.6279 12.9858C12.7832 12.5581 12.6279 12.1069 12.2764 11.978C12.1885 11.9458 12.1094 11.9429 12.0186 11.9546ZM8.15137 12.5405C8.06055 12.5259 7.95801 12.5317 7.87012 12.564C7.51855 12.6929 7.37207 13.1763 7.54199 13.6421C7.71191 14.1079 8.15137 14.4038 8.50293 14.2749C8.85449 14.146 9.00098 13.6626 8.83105 13.1968C8.70215 12.8452 8.42676 12.5874 8.15137 12.5405Z" fill="white"/>
</svg>
