<svg width="19" height="19" viewBox="0 0 19 19" fill="none" xmlns="http://www.w3.org/2000/svg">
<path d="M9.88574 1.9458C9.7832 1.9458 9.68066 1.95459 9.60449 1.99268L2.85449 4.99268H2.71387C2.41504 5.21826 2.33887 5.51416 2.33887 5.81299V13.1724C2.33887 13.4712 2.48535 13.7759 2.78418 13.8521L9.53418 16.8521H9.97949L16.7295 13.8521C17.0283 13.7026 17.1982 13.4712 17.1982 13.1724V5.81299C17.4238 5.51416 17.2598 5.2124 17.0342 5.06299L16.9639 4.99268L10.2139 1.99268C10.1025 1.95459 9.98828 1.9458 9.88574 1.9458ZM9.83887 3.49268L14.7139 5.67236L9.83887 7.85205L4.96387 5.67236L9.83887 3.49268ZM9.83887 5.15674C9.21777 5.15674 8.71387 5.38232 8.71387 5.67236C8.71387 5.9624 9.21777 6.18799 9.83887 6.18799C10.46 6.18799 10.9639 5.9624 10.9639 5.67236C10.9639 5.38232 10.46 5.15674 9.83887 5.15674ZM3.83887 6.79736L6.22949 7.92236L9.08887 9.18799V15.0474L3.83887 12.7271V6.79736ZM15.8389 6.79736V12.6567L10.5889 15.0474V9.18799L13.4482 7.92236L15.8389 6.79736ZM4.77637 7.78174C4.68555 7.76709 4.58301 7.77295 4.49512 7.80518C4.14355 7.93408 3.99707 8.41748 4.16699 8.8833C4.33691 9.34912 4.77637 9.64502 5.12793 9.51611C5.47949 9.38721 5.62598 8.90381 5.45605 8.43799C5.32715 8.08643 5.05176 7.82861 4.77637 7.78174ZM14.4092 8.62549C14.1338 8.67236 13.8818 8.93018 13.7529 9.28174C13.583 9.74756 13.7295 10.231 14.0811 10.3599C14.4326 10.4888 14.8486 10.1929 15.0186 9.72705C15.1885 9.26123 15.042 8.77783 14.6904 8.64893C14.6025 8.6167 14.5 8.61084 14.4092 8.62549ZM6.27637 10.0317C6.18555 10.0171 6.08301 10.0229 5.99512 10.0552C5.64355 10.1841 5.49707 10.6675 5.66699 11.1333C5.83691 11.5991 6.27637 11.895 6.62793 11.7661C6.97949 11.6372 7.12598 11.1538 6.95605 10.688C6.82715 10.3364 6.55176 10.0786 6.27637 10.0317ZM12.0186 11.6958C11.749 11.731 11.4795 11.9595 11.3623 12.2817C11.207 12.7095 11.3623 13.1606 11.7139 13.2896C12.0654 13.4185 12.4727 13.1548 12.6279 12.7271C12.7832 12.2993 12.6279 11.8481 12.2764 11.7192C12.1885 11.687 12.1094 11.6841 12.0186 11.6958ZM8.15137 12.2817C8.06055 12.2671 7.95801 12.2729 7.87012 12.3052C7.51855 12.4341 7.37207 12.9175 7.54199 13.3833C7.71191 13.8491 8.15137 14.145 8.50293 14.0161C8.85449 13.8872 9.00098 13.4038 8.83105 12.938C8.70215 12.5864 8.42676 12.3286 8.15137 12.2817Z" fill="white"/>
</svg>
