<svg width="19" height="19" viewBox="0 0 19 19" fill="none" xmlns="http://www.w3.org/2000/svg">
<path d="M9.88574 1.65283C9.7832 1.65283 9.68066 1.66162 9.60449 1.69971L2.85449 4.69971H2.71387C2.41504 4.92529 2.33887 5.22119 2.33887 5.52002V12.8794C2.33887 13.1782 2.48535 13.4829 2.78418 13.5591L9.53418 16.5591H9.97949L16.7295 13.5591C17.0283 13.4097 17.1982 13.1782 17.1982 12.8794V5.52002C17.4238 5.22119 17.2598 4.91943 17.0342 4.77002L16.9639 4.69971L10.2139 1.69971C10.1025 1.66162 9.98828 1.65283 9.88574 1.65283ZM9.83887 3.19971L14.7139 5.37939L9.83887 7.55908L4.96387 5.37939L9.83887 3.19971ZM9.83887 4.86377C9.21777 4.86377 8.71387 5.08936 8.71387 5.37939C8.71387 5.66943 9.21777 5.89502 9.83887 5.89502C10.46 5.89502 10.9639 5.66943 10.9639 5.37939C10.9639 5.08936 10.46 4.86377 9.83887 4.86377ZM3.83887 6.50439L6.22949 7.62939L9.08887 8.89502V14.7544L3.83887 12.4341V6.50439ZM15.8389 6.50439V12.3638L10.5889 14.7544V8.89502L13.4482 7.62939L15.8389 6.50439ZM4.77637 7.48877C4.68555 7.47412 4.58301 7.47998 4.49512 7.51221C4.14355 7.64111 3.99707 8.12451 4.16699 8.59033C4.33691 9.05615 4.77637 9.35205 5.12793 9.22314C5.47949 9.09424 5.62598 8.61084 5.45605 8.14502C5.32715 7.79346 5.05176 7.53564 4.77637 7.48877ZM14.4092 8.33252C14.1338 8.37939 13.8818 8.63721 13.7529 8.98877C13.583 9.45459 13.7295 9.93799 14.0811 10.0669C14.4326 10.1958 14.8486 9.8999 15.0186 9.43408C15.1885 8.96826 15.042 8.48486 14.6904 8.35596C14.6025 8.32373 14.5 8.31787 14.4092 8.33252ZM6.27637 9.73877C6.18555 9.72412 6.08301 9.72998 5.99512 9.76221C5.64355 9.89111 5.49707 10.3745 5.66699 10.8403C5.83691 11.3062 6.27637 11.6021 6.62793 11.4731C6.97949 11.3442 7.12598 10.8608 6.95605 10.395C6.82715 10.0435 6.55176 9.78564 6.27637 9.73877ZM12.0186 11.4028C11.749 11.438 11.4795 11.6665 11.3623 11.9888C11.207 12.4165 11.3623 12.8677 11.7139 12.9966C12.0654 13.1255 12.4727 12.8618 12.6279 12.4341C12.7832 12.0063 12.6279 11.5552 12.2764 11.4263C12.1885 11.394 12.1094 11.3911 12.0186 11.4028ZM8.15137 11.9888C8.06055 11.9741 7.95801 11.98 7.87012 12.0122C7.51855 12.1411 7.37207 12.6245 7.54199 13.0903C7.71191 13.5562 8.15137 13.8521 8.50293 13.7231C8.85449 13.5942 9.00098 13.1108 8.83105 12.645C8.70215 12.2935 8.42676 12.0356 8.15137 11.9888Z" fill="white"/>
</svg>
