<svg width="19" height="19" viewBox="0 0 19 19" fill="none" xmlns="http://www.w3.org/2000/svg">
<path d="M9.88574 2.17017C9.7832 2.17017 9.68066 2.17896 9.60449 2.21704L2.85449 5.21704H2.71387C2.41504 5.44263 2.33887 5.73853 2.33887 6.03735V13.3967C2.33887 13.6956 2.48535 14.0002 2.78418 14.0764L9.53418 17.0764H9.97949L16.7295 14.0764C17.0283 13.927 17.1982 13.6956 17.1982 13.3967V6.03735C17.4238 5.73853 17.2598 5.43677 17.0342 5.28735L16.9639 5.21704L10.2139 2.21704C10.1025 2.17896 9.98828 2.17017 9.88574 2.17017ZM9.83887 3.71704L14.7139 5.89673L9.83887 8.07642L4.96387 5.89673L9.83887 3.71704ZM9.83887 5.3811C9.21777 5.3811 8.71387 5.60669 8.71387 5.89673C8.71387 6.18677 9.21777 6.41235 9.83887 6.41235C10.46 6.41235 10.9639 6.18677 10.9639 5.89673C10.9639 5.60669 10.46 5.3811 9.83887 5.3811ZM3.83887 7.02173L6.22949 8.14673L9.08887 9.41235V15.2717L3.83887 12.9514V7.02173ZM15.8389 7.02173V12.8811L10.5889 15.2717V9.41235L13.4482 8.14673L15.8389 7.02173ZM4.77637 8.0061C4.68555 7.99146 4.58301 7.99731 4.49512 8.02954C4.14355 8.15845 3.99707 8.64185 4.16699 9.10767C4.33691 9.57349 4.77637 9.86938 5.12793 9.74048C5.47949 9.61157 5.62598 9.12817 5.45605 8.66235C5.32715 8.31079 5.05176 8.05298 4.77637 8.0061ZM14.4092 8.84985C14.1338 8.89673 13.8818 9.15454 13.7529 9.5061C13.583 9.97192 13.7295 10.4553 14.0811 10.5842C14.4326 10.7131 14.8486 10.4172 15.0186 9.95142C15.1885 9.4856 15.042 9.0022 14.6904 8.87329C14.6025 8.84106 14.5 8.83521 14.4092 8.84985ZM6.27637 10.2561C6.18555 10.2415 6.08301 10.2473 5.99512 10.2795C5.64355 10.4084 5.49707 10.8918 5.66699 11.3577C5.83691 11.8235 6.27637 12.1194 6.62793 11.9905C6.97949 11.8616 7.12598 11.3782 6.95605 10.9124C6.82715 10.5608 6.55176 10.303 6.27637 10.2561ZM12.0186 11.9202C11.749 11.9553 11.4795 12.1838 11.3623 12.5061C11.207 12.9338 11.3623 13.385 11.7139 13.5139C12.0654 13.6428 12.4727 13.3792 12.6279 12.9514C12.7832 12.5237 12.6279 12.0725 12.2764 11.9436C12.1885 11.9114 12.1094 11.9084 12.0186 11.9202ZM8.15137 12.5061C8.06055 12.4915 7.95801 12.4973 7.87012 12.5295C7.51855 12.6584 7.37207 13.1418 7.54199 13.6077C7.71191 14.0735 8.15137 14.3694 8.50293 14.2405C8.85449 14.1116 9.00098 13.6282 8.83105 13.1624C8.70215 12.8108 8.42676 12.553 8.15137 12.5061Z" fill="white"/>
</svg>
