<svg width="19" height="19" viewBox="0 0 19 19" fill="none" xmlns="http://www.w3.org/2000/svg">
<path d="M9.88599 2.16992C9.78345 2.16992 9.68091 2.17871 9.60474 2.2168L2.85474 5.2168H2.71411C2.41528 5.44238 2.33911 5.73828 2.33911 6.03711V13.3965C2.33911 13.6953 2.4856 14 2.78442 14.0762L9.53442 17.0762H9.97974L16.7297 14.0762C17.0286 13.9268 17.1985 13.6953 17.1985 13.3965V6.03711C17.4241 5.73828 17.26 5.43652 17.0344 5.28711L16.9641 5.2168L10.2141 2.2168C10.1028 2.17871 9.98853 2.16992 9.88599 2.16992ZM9.83911 3.7168L14.7141 5.89648L9.83911 8.07617L4.96411 5.89648L9.83911 3.7168ZM9.83911 5.38086C9.21802 5.38086 8.71411 5.60645 8.71411 5.89648C8.71411 6.18652 9.21802 6.41211 9.83911 6.41211C10.4602 6.41211 10.9641 6.18652 10.9641 5.89648C10.9641 5.60645 10.4602 5.38086 9.83911 5.38086ZM3.83911 7.02148L6.22974 8.14648L9.08911 9.41211V15.2715L3.83911 12.9512V7.02148ZM15.8391 7.02148V12.8809L10.5891 15.2715V9.41211L13.4485 8.14648L15.8391 7.02148ZM4.77661 8.00586C4.68579 7.99121 4.58325 7.99707 4.49536 8.0293C4.1438 8.1582 3.99731 8.6416 4.16724 9.10742C4.33716 9.57324 4.77661 9.86914 5.12817 9.74023C5.47974 9.61133 5.62622 9.12793 5.4563 8.66211C5.32739 8.31055 5.052 8.05273 4.77661 8.00586ZM14.4094 8.84961C14.134 8.89648 13.8821 9.1543 13.7532 9.50586C13.5833 9.97168 13.7297 10.4551 14.0813 10.584C14.4329 10.7129 14.8489 10.417 15.0188 9.95117C15.1887 9.48535 15.0422 9.00195 14.6907 8.87305C14.6028 8.84082 14.5002 8.83496 14.4094 8.84961ZM6.27661 10.2559C6.18579 10.2412 6.08325 10.2471 5.99536 10.2793C5.6438 10.4082 5.49731 10.8916 5.66724 11.3574C5.83716 11.8232 6.27661 12.1191 6.62817 11.9902C6.97974 11.8613 7.12622 11.3779 6.9563 10.9121C6.82739 10.5605 6.552 10.3027 6.27661 10.2559ZM12.0188 11.9199C11.7493 11.9551 11.4797 12.1836 11.3625 12.5059C11.2073 12.9336 11.3625 13.3848 11.7141 13.5137C12.0657 13.6426 12.4729 13.3789 12.6282 12.9512C12.7834 12.5234 12.6282 12.0723 12.2766 11.9434C12.1887 11.9111 12.1096 11.9082 12.0188 11.9199ZM8.15161 12.5059C8.06079 12.4912 7.95825 12.4971 7.87036 12.5293C7.5188 12.6582 7.37231 13.1416 7.54224 13.6074C7.71216 14.0732 8.15161 14.3691 8.50317 14.2402C8.85474 14.1113 9.00122 13.6279 8.8313 13.1621C8.70239 12.8105 8.427 12.5527 8.15161 12.5059Z" fill="white"/>
</svg>
