<svg width="19" height="19" viewBox="0 0 19 19" fill="none" xmlns="http://www.w3.org/2000/svg">
<path d="M9.88599 1.9458C9.78345 1.9458 9.68091 1.95459 9.60474 1.99268L2.85474 4.99268H2.71411C2.41528 5.21826 2.33911 5.51416 2.33911 5.81299V13.1724C2.33911 13.4712 2.4856 13.7759 2.78442 13.8521L9.53442 16.8521H9.97974L16.7297 13.8521C17.0286 13.7026 17.1985 13.4712 17.1985 13.1724V5.81299C17.4241 5.51416 17.26 5.2124 17.0344 5.06299L16.9641 4.99268L10.2141 1.99268C10.1028 1.95459 9.98853 1.9458 9.88599 1.9458ZM9.83911 3.49268L14.7141 5.67236L9.83911 7.85205L4.96411 5.67236L9.83911 3.49268ZM9.83911 5.15674C9.21802 5.15674 8.71411 5.38232 8.71411 5.67236C8.71411 5.9624 9.21802 6.18799 9.83911 6.18799C10.4602 6.18799 10.9641 5.9624 10.9641 5.67236C10.9641 5.38232 10.4602 5.15674 9.83911 5.15674ZM3.83911 6.79736L6.22974 7.92236L9.08911 9.18799V15.0474L3.83911 12.7271V6.79736ZM15.8391 6.79736V12.6567L10.5891 15.0474V9.18799L13.4485 7.92236L15.8391 6.79736ZM4.77661 7.78174C4.68579 7.76709 4.58325 7.77295 4.49536 7.80518C4.1438 7.93408 3.99731 8.41748 4.16724 8.8833C4.33716 9.34912 4.77661 9.64502 5.12817 9.51611C5.47974 9.38721 5.62622 8.90381 5.4563 8.43799C5.32739 8.08643 5.052 7.82861 4.77661 7.78174ZM14.4094 8.62549C14.134 8.67236 13.8821 8.93018 13.7532 9.28174C13.5833 9.74756 13.7297 10.231 14.0813 10.3599C14.4329 10.4888 14.8489 10.1929 15.0188 9.72705C15.1887 9.26123 15.0422 8.77783 14.6907 8.64893C14.6028 8.6167 14.5002 8.61084 14.4094 8.62549ZM6.27661 10.0317C6.18579 10.0171 6.08325 10.0229 5.99536 10.0552C5.6438 10.1841 5.49731 10.6675 5.66724 11.1333C5.83716 11.5991 6.27661 11.895 6.62817 11.7661C6.97974 11.6372 7.12622 11.1538 6.9563 10.688C6.82739 10.3364 6.552 10.0786 6.27661 10.0317ZM12.0188 11.6958C11.7493 11.731 11.4797 11.9595 11.3625 12.2817C11.2073 12.7095 11.3625 13.1606 11.7141 13.2896C12.0657 13.4185 12.4729 13.1548 12.6282 12.7271C12.7834 12.2993 12.6282 11.8481 12.2766 11.7192C12.1887 11.687 12.1096 11.6841 12.0188 11.6958ZM8.15161 12.2817C8.06079 12.2671 7.95825 12.2729 7.87036 12.3052C7.5188 12.4341 7.37231 12.9175 7.54224 13.3833C7.71216 13.8491 8.15161 14.145 8.50317 14.0161C8.85474 13.8872 9.00122 13.4038 8.8313 12.938C8.70239 12.5864 8.427 12.3286 8.15161 12.2817Z" fill="white"/>
</svg>
