<svg width="19" height="19" viewBox="0 0 19 19" fill="none" xmlns="http://www.w3.org/2000/svg">
<path d="M9.88574 1.6875C9.7832 1.6875 9.68066 1.69629 9.60449 1.73438L2.85449 4.73438H2.71387C2.41504 4.95996 2.33887 5.25586 2.33887 5.55469V12.9141C2.33887 13.2129 2.48535 13.5176 2.78418 13.5938L9.53418 16.5938H9.97949L16.7295 13.5938C17.0283 13.4443 17.1982 13.2129 17.1982 12.9141V5.55469C17.4238 5.25586 17.2598 4.9541 17.0342 4.80469L16.9639 4.73438L10.2139 1.73438C10.1025 1.69629 9.98828 1.6875 9.88574 1.6875ZM9.83887 3.23438L14.7139 5.41406L9.83887 7.59375L4.96387 5.41406L9.83887 3.23438ZM9.83887 4.89844C9.21777 4.89844 8.71387 5.12402 8.71387 5.41406C8.71387 5.7041 9.21777 5.92969 9.83887 5.92969C10.46 5.92969 10.9639 5.7041 10.9639 5.41406C10.9639 5.12402 10.46 4.89844 9.83887 4.89844ZM3.83887 6.53906L6.22949 7.66406L9.08887 8.92969V14.7891L3.83887 12.4688V6.53906ZM15.8389 6.53906V12.3984L10.5889 14.7891V8.92969L13.4482 7.66406L15.8389 6.53906ZM4.77637 7.52344C4.68555 7.50879 4.58301 7.51465 4.49512 7.54688C4.14355 7.67578 3.99707 8.15918 4.16699 8.625C4.33691 9.09082 4.77637 9.38672 5.12793 9.25781C5.47949 9.12891 5.62598 8.64551 5.45605 8.17969C5.32715 7.82812 5.05176 7.57031 4.77637 7.52344ZM14.4092 8.36719C14.1338 8.41406 13.8818 8.67188 13.7529 9.02344C13.583 9.48926 13.7295 9.97266 14.0811 10.1016C14.4326 10.2305 14.8486 9.93457 15.0186 9.46875C15.1885 9.00293 15.042 8.51953 14.6904 8.39062C14.6025 8.3584 14.5 8.35254 14.4092 8.36719ZM6.27637 9.77344C6.18555 9.75879 6.08301 9.76465 5.99512 9.79688C5.64355 9.92578 5.49707 10.4092 5.66699 10.875C5.83691 11.3408 6.27637 11.6367 6.62793 11.5078C6.97949 11.3789 7.12598 10.8955 6.95605 10.4297C6.82715 10.0781 6.55176 9.82031 6.27637 9.77344ZM12.0186 11.4375C11.749 11.4727 11.4795 11.7012 11.3623 12.0234C11.207 12.4512 11.3623 12.9023 11.7139 13.0312C12.0654 13.1602 12.4727 12.8965 12.6279 12.4688C12.7832 12.041 12.6279 11.5898 12.2764 11.4609C12.1885 11.4287 12.1094 11.4258 12.0186 11.4375ZM8.15137 12.0234C8.06055 12.0088 7.95801 12.0146 7.87012 12.0469C7.51855 12.1758 7.37207 12.6592 7.54199 13.125C7.71191 13.5908 8.15137 13.8867 8.50293 13.7578C8.85449 13.6289 9.00098 13.1455 8.83105 12.6797C8.70215 12.3281 8.42676 12.0703 8.15137 12.0234Z" fill="white"/>
</svg>
