<svg width="19" height="19" viewBox="0 0 19 19" fill="none" xmlns="http://www.w3.org/2000/svg">
<path d="M9.88599 1.94604C9.78345 1.94604 9.68091 1.95483 9.60474 1.99292L2.85474 4.99292H2.71411C2.41528 5.21851 2.33911 5.5144 2.33911 5.81323V13.1726C2.33911 13.4714 2.4856 13.7761 2.78442 13.8523L9.53442 16.8523H9.97974L16.7297 13.8523C17.0286 13.7029 17.1985 13.4714 17.1985 13.1726V5.81323C17.4241 5.5144 17.26 5.21265 17.0344 5.06323L16.9641 4.99292L10.2141 1.99292C10.1028 1.95483 9.98853 1.94604 9.88599 1.94604ZM9.83911 3.49292L14.7141 5.67261L9.83911 7.85229L4.96411 5.67261L9.83911 3.49292ZM9.83911 5.15698C9.21802 5.15698 8.71411 5.38257 8.71411 5.67261C8.71411 5.96265 9.21802 6.18823 9.83911 6.18823C10.4602 6.18823 10.9641 5.96265 10.9641 5.67261C10.9641 5.38257 10.4602 5.15698 9.83911 5.15698ZM3.83911 6.79761L6.22974 7.92261L9.08911 9.18823V15.0476L3.83911 12.7273V6.79761ZM15.8391 6.79761V12.657L10.5891 15.0476V9.18823L13.4485 7.92261L15.8391 6.79761ZM4.77661 7.78198C4.68579 7.76733 4.58325 7.77319 4.49536 7.80542C4.1438 7.93433 3.99731 8.41772 4.16724 8.88354C4.33716 9.34937 4.77661 9.64526 5.12817 9.51636C5.47974 9.38745 5.62622 8.90405 5.4563 8.43823C5.32739 8.08667 5.052 7.82886 4.77661 7.78198ZM14.4094 8.62573C14.134 8.67261 13.8821 8.93042 13.7532 9.28198C13.5833 9.7478 13.7297 10.2312 14.0813 10.3601C14.4329 10.489 14.8489 10.1931 15.0188 9.72729C15.1887 9.26147 15.0422 8.77808 14.6907 8.64917C14.6028 8.61694 14.5002 8.61108 14.4094 8.62573ZM6.27661 10.032C6.18579 10.0173 6.08325 10.0232 5.99536 10.0554C5.6438 10.1843 5.49731 10.6677 5.66724 11.1335C5.83716 11.5994 6.27661 11.8953 6.62817 11.7664C6.97974 11.6375 7.12622 11.1541 6.9563 10.6882C6.82739 10.3367 6.552 10.0789 6.27661 10.032ZM12.0188 11.696C11.7493 11.7312 11.4797 11.9597 11.3625 12.282C11.2073 12.7097 11.3625 13.1609 11.7141 13.2898C12.0657 13.4187 12.4729 13.155 12.6282 12.7273C12.7834 12.2996 12.6282 11.8484 12.2766 11.7195C12.1887 11.6873 12.1096 11.6843 12.0188 11.696ZM8.15161 12.282C8.06079 12.2673 7.95825 12.2732 7.87036 12.3054C7.5188 12.4343 7.37231 12.9177 7.54224 13.3835C7.71216 13.8494 8.15161 14.1453 8.50317 14.0164C8.85474 13.8875 9.00122 13.4041 8.8313 12.9382C8.70239 12.5867 8.427 12.3289 8.15161 12.282Z" fill="white"/>
</svg>
