<svg width="19" height="19" viewBox="0 0 19 19" fill="none" xmlns="http://www.w3.org/2000/svg">
<path d="M9.88599 1.65283C9.78345 1.65283 9.68091 1.66162 9.60474 1.69971L2.85474 4.69971H2.71411C2.41528 4.92529 2.33911 5.22119 2.33911 5.52002V12.8794C2.33911 13.1782 2.4856 13.4829 2.78442 13.5591L9.53442 16.5591H9.97974L16.7297 13.5591C17.0286 13.4097 17.1985 13.1782 17.1985 12.8794V5.52002C17.4241 5.22119 17.26 4.91943 17.0344 4.77002L16.9641 4.69971L10.2141 1.69971C10.1028 1.66162 9.98853 1.65283 9.88599 1.65283ZM9.83911 3.19971L14.7141 5.37939L9.83911 7.55908L4.96411 5.37939L9.83911 3.19971ZM9.83911 4.86377C9.21802 4.86377 8.71411 5.08936 8.71411 5.37939C8.71411 5.66943 9.21802 5.89502 9.83911 5.89502C10.4602 5.89502 10.9641 5.66943 10.9641 5.37939C10.9641 5.08936 10.4602 4.86377 9.83911 4.86377ZM3.83911 6.50439L6.22974 7.62939L9.08911 8.89502V14.7544L3.83911 12.4341V6.50439ZM15.8391 6.50439V12.3638L10.5891 14.7544V8.89502L13.4485 7.62939L15.8391 6.50439ZM4.77661 7.48877C4.68579 7.47412 4.58325 7.47998 4.49536 7.51221C4.1438 7.64111 3.99731 8.12451 4.16724 8.59033C4.33716 9.05615 4.77661 9.35205 5.12817 9.22314C5.47974 9.09424 5.62622 8.61084 5.4563 8.14502C5.32739 7.79346 5.052 7.53564 4.77661 7.48877ZM14.4094 8.33252C14.134 8.37939 13.8821 8.63721 13.7532 8.98877C13.5833 9.45459 13.7297 9.93799 14.0813 10.0669C14.4329 10.1958 14.8489 9.8999 15.0188 9.43408C15.1887 8.96826 15.0422 8.48486 14.6907 8.35596C14.6028 8.32373 14.5002 8.31787 14.4094 8.33252ZM6.27661 9.73877C6.18579 9.72412 6.08325 9.72998 5.99536 9.76221C5.6438 9.89111 5.49731 10.3745 5.66724 10.8403C5.83716 11.3062 6.27661 11.6021 6.62817 11.4731C6.97974 11.3442 7.12622 10.8608 6.9563 10.395C6.82739 10.0435 6.552 9.78564 6.27661 9.73877ZM12.0188 11.4028C11.7493 11.438 11.4797 11.6665 11.3625 11.9888C11.2073 12.4165 11.3625 12.8677 11.7141 12.9966C12.0657 13.1255 12.4729 12.8618 12.6282 12.4341C12.7834 12.0063 12.6282 11.5552 12.2766 11.4263C12.1887 11.394 12.1096 11.3911 12.0188 11.4028ZM8.15161 11.9888C8.06079 11.9741 7.95825 11.98 7.87036 12.0122C7.5188 12.1411 7.37231 12.6245 7.54224 13.0903C7.71216 13.5562 8.15161 13.8521 8.50317 13.7231C8.85474 13.5942 9.00122 13.1108 8.8313 12.645C8.70239 12.2935 8.427 12.0356 8.15161 11.9888Z" fill="white"/>
</svg>
