<svg width="19" height="19" viewBox="0 0 19 19" fill="none" xmlns="http://www.w3.org/2000/svg">
<path d="M9.88574 1.68726C9.7832 1.68726 9.68066 1.69605 9.60449 1.73413L2.85449 4.73413H2.71387C2.41504 4.95972 2.33887 5.25562 2.33887 5.55444V12.9138C2.33887 13.2126 2.48535 13.5173 2.78418 13.5935L9.53418 16.5935H9.97949L16.7295 13.5935C17.0283 13.4441 17.1982 13.2126 17.1982 12.9138V5.55444C17.4238 5.25562 17.2598 4.95386 17.0342 4.80444L16.9639 4.73413L10.2139 1.73413C10.1025 1.69605 9.98828 1.68726 9.88574 1.68726ZM9.83887 3.23413L14.7139 5.41382L9.83887 7.59351L4.96387 5.41382L9.83887 3.23413ZM9.83887 4.89819C9.21777 4.89819 8.71387 5.12378 8.71387 5.41382C8.71387 5.70386 9.21777 5.92944 9.83887 5.92944C10.46 5.92944 10.9639 5.70386 10.9639 5.41382C10.9639 5.12378 10.46 4.89819 9.83887 4.89819ZM3.83887 6.53882L6.22949 7.66382L9.08887 8.92944V14.7888L3.83887 12.4685V6.53882ZM15.8389 6.53882V12.3982L10.5889 14.7888V8.92944L13.4482 7.66382L15.8389 6.53882ZM4.77637 7.52319C4.68555 7.50855 4.58301 7.5144 4.49512 7.54663C4.14355 7.67554 3.99707 8.15894 4.16699 8.62476C4.33691 9.09058 4.77637 9.38647 5.12793 9.25757C5.47949 9.12866 5.62598 8.64526 5.45605 8.17944C5.32715 7.82788 5.05176 7.57007 4.77637 7.52319ZM14.4092 8.36694C14.1338 8.41382 13.8818 8.67163 13.7529 9.02319C13.583 9.48901 13.7295 9.97241 14.0811 10.1013C14.4326 10.2302 14.8486 9.93433 15.0186 9.46851C15.1885 9.00269 15.042 8.51929 14.6904 8.39038C14.6025 8.35815 14.5 8.3523 14.4092 8.36694ZM6.27637 9.77319C6.18555 9.75855 6.08301 9.7644 5.99512 9.79663C5.64355 9.92554 5.49707 10.4089 5.66699 10.8748C5.83691 11.3406 6.27637 11.6365 6.62793 11.5076C6.97949 11.3787 7.12598 10.8953 6.95605 10.4294C6.82715 10.0779 6.55176 9.82007 6.27637 9.77319ZM12.0186 11.4373C11.749 11.4724 11.4795 11.7009 11.3623 12.0232C11.207 12.4509 11.3623 12.9021 11.7139 13.031C12.0654 13.1599 12.4727 12.8962 12.6279 12.4685C12.7832 12.0408 12.6279 11.5896 12.2764 11.4607C12.1885 11.4285 12.1094 11.4255 12.0186 11.4373ZM8.15137 12.0232C8.06055 12.0085 7.95801 12.0144 7.87012 12.0466C7.51855 12.1755 7.37207 12.6589 7.54199 13.1248C7.71191 13.5906 8.15137 13.8865 8.50293 13.7576C8.85449 13.6287 9.00098 13.1453 8.83105 12.6794C8.70215 12.3279 8.42676 12.0701 8.15137 12.0232Z" fill="white"/>
</svg>
