<svg width="19" height="19" viewBox="0 0 19 19" fill="none" xmlns="http://www.w3.org/2000/svg">
<path d="M9.88574 1.91162C9.7832 1.91162 9.68066 1.92041 9.60449 1.9585L2.85449 4.9585H2.71387C2.41504 5.18408 2.33887 5.47998 2.33887 5.77881V13.1382C2.33887 13.437 2.48535 13.7417 2.78418 13.8179L9.53418 16.8179H9.97949L16.7295 13.8179C17.0283 13.6685 17.1982 13.437 17.1982 13.1382V5.77881C17.4238 5.47998 17.2598 5.17822 17.0342 5.02881L16.9639 4.9585L10.2139 1.9585C10.1025 1.92041 9.98828 1.91162 9.88574 1.91162ZM9.83887 3.4585L14.7139 5.63818L9.83887 7.81787L4.96387 5.63818L9.83887 3.4585ZM9.83887 5.12256C9.21777 5.12256 8.71387 5.34814 8.71387 5.63818C8.71387 5.92822 9.21777 6.15381 9.83887 6.15381C10.46 6.15381 10.9639 5.92822 10.9639 5.63818C10.9639 5.34814 10.46 5.12256 9.83887 5.12256ZM3.83887 6.76318L6.22949 7.88818L9.08887 9.15381V15.0132L3.83887 12.6929V6.76318ZM15.8389 6.76318V12.6226L10.5889 15.0132V9.15381L13.4482 7.88818L15.8389 6.76318ZM4.77637 7.74756C4.68555 7.73291 4.58301 7.73877 4.49512 7.771C4.14355 7.8999 3.99707 8.3833 4.16699 8.84912C4.33691 9.31494 4.77637 9.61084 5.12793 9.48193C5.47949 9.35303 5.62598 8.86963 5.45605 8.40381C5.32715 8.05225 5.05176 7.79443 4.77637 7.74756ZM14.4092 8.59131C14.1338 8.63818 13.8818 8.896 13.7529 9.24756C13.583 9.71338 13.7295 10.1968 14.0811 10.3257C14.4326 10.4546 14.8486 10.1587 15.0186 9.69287C15.1885 9.22705 15.042 8.74365 14.6904 8.61475C14.6025 8.58252 14.5 8.57666 14.4092 8.59131ZM6.27637 9.99756C6.18555 9.98291 6.08301 9.98877 5.99512 10.021C5.64355 10.1499 5.49707 10.6333 5.66699 11.0991C5.83691 11.5649 6.27637 11.8608 6.62793 11.7319C6.97949 11.603 7.12598 11.1196 6.95605 10.6538C6.82715 10.3022 6.55176 10.0444 6.27637 9.99756ZM12.0186 11.6616C11.749 11.6968 11.4795 11.9253 11.3623 12.2476C11.207 12.6753 11.3623 13.1265 11.7139 13.2554C12.0654 13.3843 12.4727 13.1206 12.6279 12.6929C12.7832 12.2651 12.6279 11.814 12.2764 11.6851C12.1885 11.6528 12.1094 11.6499 12.0186 11.6616ZM8.15137 12.2476C8.06055 12.2329 7.95801 12.2388 7.87012 12.271C7.51855 12.3999 7.37207 12.8833 7.54199 13.3491C7.71191 13.8149 8.15137 14.1108 8.50293 13.9819C8.85449 13.853 9.00098 13.3696 8.83105 12.9038C8.70215 12.5522 8.42676 12.2944 8.15137 12.2476Z" fill="white"/>
</svg>
