<svg width="19" height="19" viewBox="0 0 19 19" fill="none" xmlns="http://www.w3.org/2000/svg">
<path d="M9.88599 2.20459C9.78345 2.20459 9.68091 2.21338 9.60474 2.25146L2.85474 5.25146H2.71411C2.41528 5.47705 2.33911 5.77295 2.33911 6.07178V13.4312C2.33911 13.73 2.4856 14.0347 2.78442 14.1108L9.53442 17.1108H9.97974L16.7297 14.1108C17.0286 13.9614 17.1985 13.73 17.1985 13.4312V6.07178C17.4241 5.77295 17.26 5.47119 17.0344 5.32178L16.9641 5.25146L10.2141 2.25146C10.1028 2.21338 9.98853 2.20459 9.88599 2.20459ZM9.83911 3.75146L14.7141 5.93115L9.83911 8.11084L4.96411 5.93115L9.83911 3.75146ZM9.83911 5.41553C9.21802 5.41553 8.71411 5.64111 8.71411 5.93115C8.71411 6.22119 9.21802 6.44678 9.83911 6.44678C10.4602 6.44678 10.9641 6.22119 10.9641 5.93115C10.9641 5.64111 10.4602 5.41553 9.83911 5.41553ZM3.83911 7.05615L6.22974 8.18115L9.08911 9.44678V15.3062L3.83911 12.9858V7.05615ZM15.8391 7.05615V12.9155L10.5891 15.3062V9.44678L13.4485 8.18115L15.8391 7.05615ZM4.77661 8.04053C4.68579 8.02588 4.58325 8.03174 4.49536 8.06396C4.1438 8.19287 3.99731 8.67627 4.16724 9.14209C4.33716 9.60791 4.77661 9.90381 5.12817 9.7749C5.47974 9.646 5.62622 9.1626 5.4563 8.69678C5.32739 8.34521 5.052 8.0874 4.77661 8.04053ZM14.4094 8.88428C14.134 8.93115 13.8821 9.18896 13.7532 9.54053C13.5833 10.0063 13.7297 10.4897 14.0813 10.6187C14.4329 10.7476 14.8489 10.4517 15.0188 9.98584C15.1887 9.52002 15.0422 9.03662 14.6907 8.90771C14.6028 8.87549 14.5002 8.86963 14.4094 8.88428ZM6.27661 10.2905C6.18579 10.2759 6.08325 10.2817 5.99536 10.314C5.6438 10.4429 5.49731 10.9263 5.66724 11.3921C5.83716 11.8579 6.27661 12.1538 6.62817 12.0249C6.97974 11.896 7.12622 11.4126 6.9563 10.9468C6.82739 10.5952 6.552 10.3374 6.27661 10.2905ZM12.0188 11.9546C11.7493 11.9897 11.4797 12.2183 11.3625 12.5405C11.2073 12.9683 11.3625 13.4194 11.7141 13.5483C12.0657 13.6772 12.4729 13.4136 12.6282 12.9858C12.7834 12.5581 12.6282 12.1069 12.2766 11.978C12.1887 11.9458 12.1096 11.9429 12.0188 11.9546ZM8.15161 12.5405C8.06079 12.5259 7.95825 12.5317 7.87036 12.564C7.5188 12.6929 7.37231 13.1763 7.54224 13.6421C7.71216 14.1079 8.15161 14.4038 8.50317 14.2749C8.85474 14.146 9.00122 13.6626 8.8313 13.1968C8.70239 12.8452 8.427 12.5874 8.15161 12.5405Z" fill="white"/>
</svg>
