<svg width="19" height="19" viewBox="0 0 19 19" fill="none" xmlns="http://www.w3.org/2000/svg">
<path d="M9.88599 1.6875C9.78345 1.6875 9.68091 1.69629 9.60474 1.73438L2.85474 4.73438H2.71411C2.41528 4.95996 2.33911 5.25586 2.33911 5.55469V12.9141C2.33911 13.2129 2.4856 13.5176 2.78442 13.5938L9.53442 16.5938H9.97974L16.7297 13.5938C17.0286 13.4443 17.1985 13.2129 17.1985 12.9141V5.55469C17.4241 5.25586 17.26 4.9541 17.0344 4.80469L16.9641 4.73438L10.2141 1.73438C10.1028 1.69629 9.98853 1.6875 9.88599 1.6875ZM9.83911 3.23438L14.7141 5.41406L9.83911 7.59375L4.96411 5.41406L9.83911 3.23438ZM9.83911 4.89844C9.21802 4.89844 8.71411 5.12402 8.71411 5.41406C8.71411 5.7041 9.21802 5.92969 9.83911 5.92969C10.4602 5.92969 10.9641 5.7041 10.9641 5.41406C10.9641 5.12402 10.4602 4.89844 9.83911 4.89844ZM3.83911 6.53906L6.22974 7.66406L9.08911 8.92969V14.7891L3.83911 12.4688V6.53906ZM15.8391 6.53906V12.3984L10.5891 14.7891V8.92969L13.4485 7.66406L15.8391 6.53906ZM4.77661 7.52344C4.68579 7.50879 4.58325 7.51465 4.49536 7.54688C4.1438 7.67578 3.99731 8.15918 4.16724 8.625C4.33716 9.09082 4.77661 9.38672 5.12817 9.25781C5.47974 9.12891 5.62622 8.64551 5.4563 8.17969C5.32739 7.82812 5.052 7.57031 4.77661 7.52344ZM14.4094 8.36719C14.134 8.41406 13.8821 8.67188 13.7532 9.02344C13.5833 9.48926 13.7297 9.97266 14.0813 10.1016C14.4329 10.2305 14.8489 9.93457 15.0188 9.46875C15.1887 9.00293 15.0422 8.51953 14.6907 8.39062C14.6028 8.3584 14.5002 8.35254 14.4094 8.36719ZM6.27661 9.77344C6.18579 9.75879 6.08325 9.76465 5.99536 9.79688C5.6438 9.92578 5.49731 10.4092 5.66724 10.875C5.83716 11.3408 6.27661 11.6367 6.62817 11.5078C6.97974 11.3789 7.12622 10.8955 6.9563 10.4297C6.82739 10.0781 6.552 9.82031 6.27661 9.77344ZM12.0188 11.4375C11.7493 11.4727 11.4797 11.7012 11.3625 12.0234C11.2073 12.4512 11.3625 12.9023 11.7141 13.0312C12.0657 13.1602 12.4729 12.8965 12.6282 12.4688C12.7834 12.041 12.6282 11.5898 12.2766 11.4609C12.1887 11.4287 12.1096 11.4258 12.0188 11.4375ZM8.15161 12.0234C8.06079 12.0088 7.95825 12.0146 7.87036 12.0469C7.5188 12.1758 7.37231 12.6592 7.54224 13.125C7.71216 13.5908 8.15161 13.8867 8.50317 13.7578C8.85474 13.6289 9.00122 13.1455 8.8313 12.6797C8.70239 12.3281 8.427 12.0703 8.15161 12.0234Z" fill="white"/>
</svg>
