<svg width="96" height="96" viewBox="0 0 96 96" fill="none" xmlns="http://www.w3.org/2000/svg">
<path d="M42.5714 10C38.7321 10 35.05 11.5252 32.3352 14.24C29.6204 16.9548 28.0952 20.6369 28.0952 24.4762C28.0952 28.3155 29.6204 31.9976 32.3352 34.7124C35.05 37.4272 38.7321 38.9524 42.5714 38.9524C46.4108 38.9524 50.0928 37.4272 52.8076 34.7124C55.5225 31.9976 57.0476 28.3155 57.0476 24.4762C57.0476 20.6369 55.5225 16.9548 52.8076 14.24C50.0928 11.5252 46.4108 10 42.5714 10ZM64.2857 42.5714C52.3429 42.5714 42.5714 52.3429 42.5714 64.2857C42.5714 76.2286 52.3429 86 64.2857 86C76.2286 86 86 76.2286 86 64.2857C86 52.3429 76.2286 42.5714 64.2857 42.5714ZM38.249 51.6576C38.6018 50.9343 38.0495 50.075 37.2504 50.1694C25.8566 51.5159 10 56.8329 10 66.0952V74.1429C10 74.6951 10.4477 75.1429 11 75.1429H35.9762C36.6857 75.1429 37.171 74.4237 36.9378 73.7536C35.9053 70.7866 35.3333 67.605 35.3333 64.2857C35.3333 59.7514 36.3875 55.4743 38.249 51.6576ZM60.6667 54.4286C60.6667 53.8763 61.1144 53.4286 61.6667 53.4286H66.9048C67.457 53.4286 67.9048 53.8763 67.9048 54.4286V59.6667C67.9048 60.219 68.3525 60.6667 68.9048 60.6667H74.1429C74.6951 60.6667 75.1429 61.1144 75.1429 61.6667V66.9048C75.1429 67.457 74.6951 67.9048 74.1429 67.9048H68.9048C68.3525 67.9048 67.9048 68.3525 67.9048 68.9048V74.1429C67.9048 74.6951 67.457 75.1429 66.9048 75.1429H61.6667C61.1144 75.1429 60.6667 74.6951 60.6667 74.1429V68.9048C60.6667 68.3525 60.219 67.9048 59.6667 67.9048H54.4286C53.8763 67.9048 53.4286 67.457 53.4286 66.9048V61.6667C53.4286 61.1144 53.8763 60.6667 54.4286 60.6667H59.6667C60.219 60.6667 60.6667 60.219 60.6667 59.6667V54.4286Z" fill="url(#paint0_linear_1_1255)"/>
<defs>
<linearGradient id="paint0_linear_1_1255" x1="84.2325" y1="2.04651" x2="21.4884" y2="93.0698" gradientUnits="userSpaceOnUse">
<stop stop-color="#00FFBB"/>
<stop offset="1" stop-color="#00BF6F"/>
</linearGradient>
</defs>
</svg>
