<svg width="96" height="96" viewBox="0 0 96 96" fill="none" xmlns="http://www.w3.org/2000/svg">
<path d="M48 8C32.536 8 20 20.536 20 36C20 54.0625 42.8378 81.9126 47.2626 87.1391C47.6535 87.6008 48.3465 87.6008 48.7374 87.1391C53.1622 81.9126 76 54.0625 76 36C76 20.536 63.464 8 48 8ZM48 16C59.028 16 68 24.972 68 36C68 45.7906 57.9613 62.2028 48.7884 74.3179C48.3919 74.8417 47.6081 74.8417 47.2116 74.3179C38.0387 62.2028 28 45.7906 28 36C28 24.972 36.972 16 48 16ZM48.6 24.45C48.2444 24.1833 47.7556 24.1833 47.4 24.45L32.4 35.7C32.1482 35.8889 32 36.1852 32 36.5V39C32 39.5523 32.4477 40 33 40H35C35.5523 40 36 40.4477 36 41V48C36 50.208 37.792 52 40 52H43C43.5523 52 44 51.5523 44 51V41C44 40.4477 44.4477 40 45 40H51C51.5523 40 52 40.4477 52 41V51C52 51.5523 52.4477 52 53 52H56C58.208 52 60 50.208 60 48V41C60 40.4477 60.4477 40 61 40H63C63.5523 40 64 39.5523 64 39V36.5C64 36.1852 63.8518 35.8889 63.6 35.7L48.6 24.45Z" fill="url(#paint0_linear_1_2789)"/>
<defs>
<linearGradient id="paint0_linear_1_2789" x1="74.6977" y1="-0.3721" x2="4.03544" y2="71.3849" gradientUnits="userSpaceOnUse">
<stop stop-color="#00FFBB"/>
<stop offset="1" stop-color="#00BF6F"/>
</linearGradient>
</defs>
</svg>
