<svg width="43" height="42" viewBox="0 0 43 42" fill="none" xmlns="http://www.w3.org/2000/svg">
<path d="M20.9886 10C14.9635 10 10.0795 14.7212 10.0795 20.5455C10.0795 26.3697 14.9635 31.0909 20.9886 31.0909C27.0137 31.0909 31.8977 26.3697 31.8977 20.5455C31.8977 14.7212 27.0137 10 20.9886 10ZM20.9886 12.9C22.9468 12.9 24.5341 14.4344 24.5341 16.3273C24.5341 18.2202 22.9468 19.7545 20.9886 19.7545C19.0304 19.7545 17.4432 18.2202 17.4432 16.3273C17.4432 14.4344 19.0304 12.9 20.9886 12.9ZM20.9886 28.9818C17.9668 28.9818 15.305 27.497 13.7384 25.2413C14.9613 23.5224 18.857 22.6545 20.9886 22.6545C23.1203 22.6545 27.0159 23.5224 28.2388 25.2413C26.6723 27.497 24.0104 28.9818 20.9886 28.9818Z" fill="white"/>
</svg>
