<svg width="96" height="96" viewBox="0 0 96 96" fill="none" xmlns="http://www.w3.org/2000/svg">
<path d="M48.0002 8C32.5362 8 20.0002 20.536 20.0002 36C20.0002 54.0625 42.838 81.9126 47.2628 87.1391C47.6538 87.6008 48.3467 87.6008 48.7377 87.1391C53.1625 81.9126 76.0002 54.0625 76.0002 36C76.0002 20.536 63.4642 8 48.0002 8ZM48.0002 16C59.0282 16 68.0002 24.972 68.0002 36C68.0002 45.7906 57.9615 62.2028 48.7887 74.3179C48.3922 74.8417 47.6083 74.8417 47.2118 74.3179C38.039 62.2028 28.0002 45.7906 28.0002 36C28.0002 24.972 36.9722 16 48.0002 16ZM48.6002 24.45C48.2447 24.1833 47.7558 24.1833 47.4002 24.45L32.4002 35.7C32.1484 35.8889 32.0002 36.1852 32.0002 36.5V39C32.0002 39.5523 32.448 40 33.0002 40H35.0002C35.5525 40 36.0002 40.4477 36.0002 41V48C36.0002 50.208 37.7922 52 40.0002 52H43.0002C43.5525 52 44.0002 51.5523 44.0002 51V41C44.0002 40.4477 44.448 40 45.0002 40H51.0002C51.5525 40 52.0002 40.4477 52.0002 41V51C52.0002 51.5523 52.448 52 53.0002 52H56.0002C58.2082 52 60.0002 50.208 60.0002 48V41C60.0002 40.4477 60.448 40 61.0002 40H63.0002C63.5525 40 64.0002 39.5523 64.0002 39V36.5C64.0002 36.1852 63.852 35.8889 63.6002 35.7L48.6002 24.45Z" fill="url(#paint0_linear_1_3503)"/>
<defs>
<linearGradient id="paint0_linear_1_3503" x1="74.6979" y1="-0.3721" x2="4.03569" y2="71.3849" gradientUnits="userSpaceOnUse">
<stop stop-color="#00FFBB"/>
<stop offset="1" stop-color="#00BF6F"/>
</linearGradient>
</defs>
</svg>
