<svg width="29" height="28" viewBox="0 0 29 28" fill="none" xmlns="http://www.w3.org/2000/svg">
<path d="M11.5 2.375C10.3065 2.375 9.16193 2.84911 8.31802 3.69302C7.47411 4.53693 7 5.68153 7 6.875C7 8.06847 7.47411 9.21307 8.31802 10.057C9.16193 10.9009 10.3065 11.375 11.5 11.375C12.6935 11.375 13.8381 10.9009 14.682 10.057C15.5259 9.21307 16 8.06847 16 6.875C16 5.68153 15.5259 4.53693 14.682 3.69302C13.8381 2.84911 12.6935 2.375 11.5 2.375ZM18.25 12.5C14.5375 12.5 11.5 15.5375 11.5 19.25C11.5 22.9625 14.5375 26 18.25 26C21.9625 26 25 22.9625 25 19.25C25 15.5375 21.9625 12.5 18.25 12.5ZM10.4321 14.8027C6.87713 15.0975 1.375 16.7705 1.375 19.8125V22.625H9.91138C9.48838 21.5821 9.25 20.4448 9.25 19.25C9.25 17.63 9.68288 16.1156 10.4321 14.8027ZM17.125 15.875H19.375V18.125H21.625V20.375H19.375V22.625H17.125V20.375H14.875V18.125H17.125V15.875Z" fill="#3A9914"/>
</svg>
