<svg width="43" height="42" viewBox="0 0 43 42" fill="none" xmlns="http://www.w3.org/2000/svg">
<path d="M20.9892 10C14.9641 10 10.0801 14.7212 10.0801 20.5455C10.0801 26.3697 14.9641 31.0909 20.9892 31.0909C27.0143 31.0909 31.8983 26.3697 31.8983 20.5455C31.8983 14.7212 27.0143 10 20.9892 10ZM20.9892 12.9C22.9474 12.9 24.5346 14.4344 24.5346 16.3273C24.5346 18.2202 22.9474 19.7545 20.9892 19.7545C19.031 19.7545 17.4437 18.2202 17.4437 16.3273C17.4437 14.4344 19.031 12.9 20.9892 12.9ZM20.9892 28.9818C17.9674 28.9818 15.3055 27.497 13.739 25.2413C14.9619 23.5224 18.8575 22.6545 20.9892 22.6545C23.1208 22.6545 27.0164 23.5224 28.2394 25.2413C26.6728 27.497 24.011 28.9818 20.9892 28.9818Z" fill="white"/>
</svg>
