<svg width="96" height="96" viewBox="0 0 96 96" fill="none" xmlns="http://www.w3.org/2000/svg">
<path d="M45 12C44.4477 12 44 12.4477 44 13V19C44 19.5523 43.5523 20 43 20H12C7.588 20 4 23.588 4 28V76C4 80.412 7.588 84 12 84H84C88.412 84 92 80.412 92 76V28C92 23.588 88.412 20 84 20H53C52.4477 20 52 19.5523 52 19V13C52 12.4477 51.5523 12 51 12H45ZM12 29C12 28.4477 12.4477 28 13 28H83.0002C83.5524 28 84.0001 28.4476 84.0002 28.9998L84.0076 74.9998C84.0077 75.5522 83.56 76 83.0076 76H13C12.4477 76 12 75.5523 12 75V29ZM36 36C33.8783 36 31.8434 36.8429 30.3431 38.3431C28.8429 39.8434 28 41.8783 28 44C28 46.1217 28.8429 48.1566 30.3431 49.6569C31.8434 51.1571 33.8783 52 36 52C38.1217 52 40.1566 51.1571 41.6569 49.6569C43.1571 48.1566 44 46.1217 44 44C44 41.8783 43.1571 39.8434 41.6569 38.3431C40.1566 36.8429 38.1217 36 36 36ZM61 40C60.4477 40 60 40.4477 60 41V47C60 47.5523 60.4477 48 61 48H75C75.5523 48 76 47.5523 76 47V41C76 40.4477 75.5523 40 75 40H61ZM36 56C27.26 56 20 59.6352 20 64.8672V67C20 67.5523 20.4477 68 21 68H51C51.5523 68 52 67.5523 52 67V64.8672C52 59.6352 44.74 56 36 56ZM61 56C60.4477 56 60 56.4477 60 57V63C60 63.5523 60.4477 64 61 64H75C75.5523 64 76 63.5523 76 63V57C76 56.4477 75.5523 56 75 56H61Z" fill="url(#paint0_linear_1_2797)"/>
<defs>
<linearGradient id="paint0_linear_1_2797" x1="89.9535" y1="4.46511" x2="35.5234" y2="100.974" gradientUnits="userSpaceOnUse">
<stop stop-color="#00FFBB"/>
<stop offset="1" stop-color="#00BF6F"/>
</linearGradient>
</defs>
</svg>
