<svg width="96" height="96" viewBox="0 0 96 96" fill="none" xmlns="http://www.w3.org/2000/svg">
<path d="M30 16C22.3154 16 16 22.3154 16 30C16 37.6846 22.3154 44 30 44C37.6846 44 44 37.6846 44 30C44 22.3154 37.6846 16 30 16ZM65.556 18.2534C65.1066 17.9323 64.4819 18.0363 64.1608 18.4858L25.3233 72.8583C25.0023 73.3077 25.1063 73.9321 25.5556 74.2532L30.444 77.7466C30.8934 78.0677 31.5181 77.9637 31.8392 77.5142L70.6767 23.1417C70.9977 22.6923 70.8937 22.0679 70.4444 21.7468L65.556 18.2534ZM30 24C33.3611 24 36 26.6389 36 30C36 33.3611 33.3611 36 30 36C26.6389 36 24 33.3611 24 30C24 26.6389 26.6389 24 30 24ZM66 52C58.3154 52 52 58.3154 52 66C52 73.6846 58.3154 80 66 80C73.6846 80 80 73.6846 80 66C80 58.3154 73.6846 52 66 52ZM66 60C69.3611 60 72 62.6389 72 66C72 69.3611 69.3611 72 66 72C62.6389 72 60 69.3611 60 66C60 62.6389 62.6389 60 66 60Z" fill="url(#paint0_linear_1_1264)"/>
<defs>
<linearGradient id="paint0_linear_1_1264" x1="78.5116" y1="9.30232" x2="25.6744" y2="85.9535" gradientUnits="userSpaceOnUse">
<stop stop-color="#00FFBB"/>
<stop offset="1" stop-color="#00BF6F"/>
</linearGradient>
</defs>
</svg>
