<svg width="43" height="42" viewBox="0 0 43 42" fill="none" xmlns="http://www.w3.org/2000/svg">
<path d="M20.9887 10C14.9636 10 10.0796 14.7212 10.0796 20.5455C10.0796 26.3697 14.9636 31.0909 20.9887 31.0909C27.0138 31.0909 31.8978 26.3697 31.8978 20.5455C31.8978 14.7212 27.0138 10 20.9887 10ZM20.9887 12.9C22.9469 12.9 24.5341 14.4344 24.5341 16.3273C24.5341 18.2202 22.9469 19.7545 20.9887 19.7545C19.0305 19.7545 17.4432 18.2202 17.4432 16.3273C17.4432 14.4344 19.0305 12.9 20.9887 12.9ZM20.9887 28.9818C17.9669 28.9818 15.305 27.497 13.7385 25.2413C14.9614 23.5224 18.857 22.6545 20.9887 22.6545C23.1203 22.6545 27.016 23.5224 28.2389 25.2413C26.6723 27.497 24.0105 28.9818 20.9887 28.9818Z" fill="white"/>
</svg>
