<svg width="27" height="28" viewBox="0 0 27 28" fill="none" xmlns="http://www.w3.org/2000/svg">
<path d="M13.5 3.11621L3.36621 9.02905C2.67622 9.43136 2.25 10.1728 2.25 10.9714V22.25C2.25 23.4797 3.2703 24.5 4.5 24.5H22.5C23.7297 24.5 24.75 23.4797 24.75 22.25V10.9714C24.75 10.1728 24.3238 9.43136 23.6338 9.02905L13.5 3.11621ZM13.5 5.72217L22.5 10.9714V11.0264L13.5 16.625L4.5 11.0264V10.9714L13.5 5.72217ZM13.5 7.625L10.125 11H12.375V13.6763L13.5 14.375L14.625 13.6763V11H16.875L13.5 7.625Z" fill="#3A9914"/>
</svg>
