<svg width="22" height="23" viewBox="0 0 22 23" fill="none" xmlns="http://www.w3.org/2000/svg">
<path d="M9.91207 4.91895C8.94 4.91895 8.1181 5.54534 7.80872 6.41259H3.9375V7.90623H7.80872C8.1181 8.77348 8.94 9.39987 9.91207 9.39987C11.1473 9.39987 12.1525 8.39465 12.1525 7.15941C12.1525 5.92417 11.1473 4.91895 9.91207 4.91895ZM13.6462 6.41259V7.90623H18.8739V6.41259H13.6462ZM13.6462 10.1467C12.6741 10.1467 11.8522 10.7731 11.5428 11.6403H3.9375V13.134H11.5428C11.8522 14.0012 12.6741 14.6276 13.6462 14.6276C14.8814 14.6276 15.8866 13.6224 15.8866 12.3872C15.8866 11.1519 14.8814 10.1467 13.6462 10.1467ZM17.3803 11.6403V13.134H18.8739V11.6403H17.3803ZM7.67161 15.3744C6.69954 15.3744 5.87764 16.0008 5.56825 16.8681H3.9375V18.3617H5.56825C5.87764 19.229 6.69954 19.8554 7.67161 19.8554C8.90685 19.8554 9.91207 18.8501 9.91207 17.6149C9.91207 16.3797 8.90685 15.3744 7.67161 15.3744ZM11.4057 16.8681V18.3617H18.8739V16.8681H11.4057Z" fill="#ABABAB"/>
</svg>
