<svg width="22" height="23" viewBox="0 0 22 23" fill="none" xmlns="http://www.w3.org/2000/svg">
<path d="M8.41843 5.67383C7.59319 5.67383 6.92478 6.34223 6.92478 7.16747V12.3952C6.92478 13.2205 7.59319 13.8889 8.41843 13.8889H10.6589V16.1293C10.6589 16.9456 11.3362 17.623 12.1525 17.623H17.3803C18.1966 17.623 18.8739 16.9456 18.8739 16.1293V10.9016C18.8739 10.0853 18.1966 9.40793 17.3803 9.40793H15.1398V7.16747C15.1398 6.34223 14.4714 5.67383 13.6462 5.67383H8.41843ZM15.1398 10.9016H17.3803V16.1293H12.1525V13.8889H13.6462C14.4714 13.8889 15.1398 13.2205 15.1398 12.3952V10.9016ZM3.9375 13.8889V16.8761C3.9375 17.6925 4.61482 18.3698 5.43114 18.3698H7.67161V19.8634L9.91207 17.623L7.67161 15.3825V16.8761H5.43114V13.8889H3.9375Z" fill="#ABABAB"/>
</svg>
