<svg width="27" height="28" viewBox="0 0 27 28" fill="none" xmlns="http://www.w3.org/2000/svg">
<path d="M2.375 2.375C1.1453 2.375 0.125 3.3953 0.125 4.625V19.25H2.375V4.625H20.375V2.375H2.375ZM6.875 6.875C6.18762 6.875 5.5784 7.19207 5.16553 7.6792L14.75 13.625L24.2576 7.58691C23.8469 7.15154 23.2696 6.875 22.625 6.875H6.875ZM24.875 9.4436L14.75 15.875L4.625 9.59302V20.375C4.625 21.6181 5.63187 22.625 6.875 22.625H14.75V19.25C14.75 18.629 15.254 18.125 15.875 18.125H18.125V15.875C18.125 15.254 18.629 14.75 19.25 14.75H24.875V9.4436ZM20.375 17V20.375H17V22.625H20.375V26H22.625V22.625H26V20.375H22.625V17H20.375Z" fill="#3A9914"/>
</svg>
