<svg width="22" height="23" viewBox="0 0 22 23" fill="none" xmlns="http://www.w3.org/2000/svg">
<path d="M10.5915 4.91357C7.27118 4.91357 4.27029 6.82834 4.63298 11.3097C4.62783 11.4182 4.61694 11.5233 4.61694 11.635C4.61694 11.7789 4.65264 11.9592 4.66361 12.1178C4.23105 12.4413 3.87012 12.8801 3.87012 13.502C3.87012 14.3782 4.52355 15.0004 5.33605 15.2028C5.78082 16.3592 6.40562 17.4473 7.23227 18.2834C8.14227 19.2039 9.29702 19.85 10.5915 19.85C10.9596 19.85 11.4897 19.7901 11.9918 19.7333C12.4939 19.6765 12.9282 19.6195 12.9282 19.6195L12.7357 18.139C12.7357 18.139 12.3115 18.1932 11.8241 18.2484C11.3366 18.3036 10.7462 18.3564 10.5915 18.3564C9.7949 18.3564 9.00849 17.9557 8.29416 17.2332C7.57982 16.5107 6.97163 15.4805 6.59339 14.3801L6.41981 13.8754H5.73717C5.57536 13.8754 5.36376 13.6638 5.36376 13.502C5.36376 13.3349 5.46252 13.2357 5.67445 13.1651L6.33083 12.9463L6.16309 12.2753C6.10972 12.0618 6.11058 11.9337 6.11058 11.635C6.11058 11.3048 6.1369 11.0099 6.18205 10.7394C7.03695 10.0815 7.72505 10.6341 8.79884 8.9467C9.92364 10.9918 13.0427 9.7137 14.8989 10.2843C15.0107 10.6655 15.0724 11.1084 15.0724 11.635V15.3691H15.599C15.5591 15.5666 15.5179 15.7302 15.4779 15.8621C15.4345 16.0053 15.41 16.0385 15.3758 16.1159H12.021C11.9438 15.8975 11.8007 15.7084 11.6116 15.5747C11.4225 15.4409 11.1966 15.3691 10.9649 15.3691C10.6678 15.3691 10.3829 15.4871 10.1728 15.6972C9.96271 15.9073 9.84469 16.1922 9.84469 16.4893C9.84469 16.7864 9.96271 17.0713 10.1728 17.2814C10.3829 17.4915 10.6678 17.6095 10.9649 17.6095C11.0324 17.6093 11.0998 17.6029 11.1662 17.5906C11.2227 17.6035 11.2804 17.6099 11.3383 17.6095H15.8193C16.0039 17.6099 16.1821 17.5418 16.3196 17.4185C16.3196 17.4185 16.4746 17.2579 16.5792 17.08C16.6838 16.9022 16.7995 16.6515 16.9074 16.2953C16.9897 16.0237 17.0635 15.6667 17.1291 15.2568C17.6736 15.0333 18.0597 14.498 18.0597 13.8754V12.3818C18.0597 11.5603 17.3876 10.8881 16.5661 10.8881H16.5617C16.6739 6.70351 13.8076 4.91357 10.5915 4.91357ZM8.72445 11.635C8.42735 11.635 8.14241 11.753 7.93233 11.9631C7.72225 12.1732 7.60422 12.4581 7.60422 12.7552C7.60422 13.0523 7.72225 13.3372 7.93233 13.5473C8.14241 13.7574 8.42735 13.8754 8.72445 13.8754C9.02156 13.8754 9.30649 13.7574 9.51658 13.5473C9.72666 13.3372 9.84469 13.0523 9.84469 12.7552C9.84469 12.4581 9.72666 12.1732 9.51658 11.9631C9.30649 11.753 9.02156 11.635 8.72445 11.635ZM12.4586 11.635C12.1615 11.635 11.8765 11.753 11.6664 11.9631C11.4564 12.1732 11.3383 12.4581 11.3383 12.7552C11.3383 13.0523 11.4564 13.3372 11.6664 13.5473C11.8765 13.7574 12.1615 13.8754 12.4586 13.8754C12.7557 13.8754 13.0406 13.7574 13.2507 13.5473C13.4608 13.3372 13.5788 13.0523 13.5788 12.7552C13.5788 12.4581 13.4608 12.1732 13.2507 11.9631C13.0406 11.753 12.7557 11.635 12.4586 11.635Z" fill="#ABABAB"/>
</svg>
