<svg width="22" height="23" viewBox="0 0 22 23" fill="none" xmlns="http://www.w3.org/2000/svg">
<path d="M9.91207 4.92139C8.6839 4.92139 7.67161 5.93368 7.67161 7.16185C7.67161 7.4244 7.72703 7.67237 7.81163 7.90867H5.43114C4.61431 7.90867 3.9375 8.58548 3.9375 9.40231V18.3642C3.9375 19.181 4.61431 19.8578 5.43114 19.8578H17.3803C18.1971 19.8578 18.8739 19.181 18.8739 18.3642V9.40231C18.8739 8.58548 18.1971 7.90867 17.3803 7.90867H14.9998C15.0844 7.67237 15.1398 7.4244 15.1398 7.16185C15.1398 5.93368 14.1275 4.92139 12.8994 4.92139C12.3276 4.92139 11.8025 5.14602 11.4057 5.50484C11.009 5.14602 10.4839 4.92139 9.91207 4.92139ZM9.91207 6.41503C10.3322 6.41503 10.6589 6.74176 10.6589 7.16185C10.6589 7.58194 10.3322 7.90867 9.91207 7.90867C9.49198 7.90867 9.16525 7.58194 9.16525 7.16185C9.16525 6.74176 9.49198 6.41503 9.91207 6.41503ZM12.8994 6.41503C13.3194 6.41503 13.6462 6.74176 13.6462 7.16185C13.6462 7.58194 13.3194 7.90867 12.8994 7.90867C12.4793 7.90867 12.1525 7.58194 12.1525 7.16185C12.1525 6.74176 12.4793 6.41503 12.8994 6.41503ZM5.43114 9.40231H9.58533L7.88165 11.106L8.9552 12.1796L11.4057 9.72905L13.8562 12.1796L14.9298 11.106L13.2261 9.40231H17.3803V13.8832H5.43114V9.40231ZM5.43114 16.1237H17.3803V18.3642H5.43114V16.1237Z" fill="#ABABAB"/>
</svg>
