<svg width="22" height="23" viewBox="0 0 22 23" fill="none" xmlns="http://www.w3.org/2000/svg">
<path d="M9.77657 4.86182C8.98429 4.86182 8.22446 5.17655 7.66424 5.73677C7.10401 6.297 6.78928 7.05682 6.78928 7.8491C6.78928 8.64138 7.10401 9.40121 7.66424 9.96143C8.22446 10.5217 8.98429 10.8364 9.77657 10.8364C10.5688 10.8364 11.3287 10.5217 11.8889 9.96143C12.4491 9.40121 12.7639 8.64138 12.7639 7.8491C12.7639 7.05682 12.4491 6.297 11.8889 5.73677C11.3287 5.17655 10.5688 4.86182 9.77657 4.86182ZM14.2575 11.5832C11.793 11.5832 9.77657 13.5996 9.77657 16.0641C9.77657 18.5286 11.793 20.5451 14.2575 20.5451C16.722 20.5451 18.7384 18.5286 18.7384 16.0641C18.7384 13.5996 16.722 11.5832 14.2575 11.5832ZM9.06767 13.1119C6.70771 13.3075 3.05518 14.4181 3.05518 16.4375V18.3046H8.72197C8.44117 17.6123 8.28292 16.8573 8.28292 16.0641C8.28292 14.9887 8.57029 13.9834 9.06767 13.1119ZM13.5107 13.8237H15.0043V15.3173H16.498V16.811H15.0043V18.3046H13.5107V16.811H12.017V15.3173H13.5107V13.8237Z" fill="#ABABAB"/>
</svg>
