<svg width="22" height="23" viewBox="0 0 22 23" fill="none" xmlns="http://www.w3.org/2000/svg">
<path d="M11.4057 4.92432C7.28774 4.92432 3.9375 8.27456 3.9375 12.3925C3.9375 16.5105 7.28774 19.8607 11.4057 19.8607C15.5237 19.8607 18.8739 16.5105 18.8739 12.3925H17.3803C17.3803 15.6868 14.6999 18.3671 11.4057 18.3671C8.11148 18.3671 5.43114 15.6868 5.43114 12.3925C5.43114 9.0983 8.11148 6.41796 11.4057 6.41796C13.2432 6.41796 14.8821 7.25779 15.9785 8.56653L14.393 10.1521H18.8739V5.67114L17.0287 7.51631C15.6598 5.93676 13.6549 4.92432 11.4057 4.92432ZM10.6589 7.9116V12.0833L8.63722 14.105L9.69327 15.161L12.1525 12.7018V7.9116H10.6589Z" fill="#ABABAB"/>
</svg>
