<svg width="22" height="23" viewBox="0 0 22 23" fill="none" xmlns="http://www.w3.org/2000/svg">
<path d="M8.8117 4.42725L7.93215 6.38328L5.79525 6.56415L6.23284 8.66166L4.60938 10.0634L6.19783 11.5045L5.70919 13.5933L7.84025 13.8252L8.67313 15.8031L10.5343 14.7369L12.3693 15.8484L13.2489 13.8923L15.3872 13.7115L14.9496 11.6139L16.5731 10.2122L14.9846 8.77106L15.4733 6.6823L13.3408 6.45037L12.5079 4.47246L10.6467 5.53873L8.8117 4.42725ZM14.3253 15.2999L14.251 15.3072L13.7317 16.461L13.0403 17.9998L11.5977 17.1261L10.5139 16.4712L9.41704 17.0999L7.95257 17.9371L7.29764 16.3822L6.85713 15.3364V20.5933L10.5912 18.7262L14.3253 20.5933V15.2999Z" fill="#ABABAB"/>
</svg>
