<svg width="22" height="23" viewBox="0 0 22 23" fill="none" xmlns="http://www.w3.org/2000/svg">
<path d="M4.68432 4.93506C4.27208 4.93506 3.9375 5.26963 3.9375 5.68188V13.1501C3.9375 13.5623 4.27208 13.8969 4.68432 13.8969H18.1271C18.5393 13.8969 18.8739 13.5623 18.8739 13.1501V5.68188C18.8739 5.26963 18.5393 4.93506 18.1271 4.93506H4.68432ZM6.11232 6.4287H16.6991C16.7548 6.58576 16.8449 6.72841 16.9627 6.84625C17.0806 6.96409 17.2232 7.05416 17.3803 7.10988V11.7221C17.2232 11.7778 17.0806 11.8679 16.9627 11.9857C16.8449 12.1036 16.7548 12.2462 16.6991 12.4033H6.11232C6.0566 12.2462 5.96654 12.1036 5.84869 11.9857C5.73085 11.8679 5.5882 11.7778 5.43114 11.7221V7.10988C5.5882 7.05416 5.73085 6.96409 5.84869 6.84625C5.96654 6.72841 6.0566 6.58576 6.11232 6.4287ZM11.4057 7.17552C10.8115 7.17552 10.2416 7.41157 9.82146 7.83174C9.4013 8.25191 9.16525 8.82178 9.16525 9.41599C9.16525 10.0102 9.4013 10.5801 9.82146 11.0002C10.2416 11.4204 10.8115 11.6564 11.4057 11.6564C11.9999 11.6564 12.5698 11.4204 12.99 11.0002C13.4101 10.5801 13.6462 10.0102 13.6462 9.41599C13.6462 8.82178 13.4101 8.25191 12.99 7.83174C12.5698 7.41157 11.9999 7.17552 11.4057 7.17552ZM7.67161 8.66916C7.25936 8.66916 6.92478 9.00299 6.92478 9.41599C6.92478 9.82898 7.25936 10.1628 7.67161 10.1628C8.08385 10.1628 8.41843 9.82898 8.41843 9.41599C8.41843 9.00299 8.08385 8.66916 7.67161 8.66916ZM15.1398 8.66916C14.7276 8.66916 14.393 9.00299 14.393 9.41599C14.393 9.82898 14.7276 10.1628 15.1398 10.1628C15.5521 10.1628 15.8866 9.82898 15.8866 9.41599C15.8866 9.00299 15.5521 8.66916 15.1398 8.66916ZM10.6589 15.3906V16.8842H8.38196L11.3692 19.8715L14.3565 16.8842H12.1525V15.3906H10.6589Z" fill="#ABABAB"/>
</svg>
