<svg width="22" height="22" viewBox="0 0 22 22" fill="none" xmlns="http://www.w3.org/2000/svg">
<path d="M11.4057 3.93799C7.28102 3.93799 3.9375 7.28151 3.9375 11.4062C3.9375 15.5309 7.28102 18.8744 11.4057 18.8744C15.5304 18.8744 18.8739 15.5309 18.8739 11.4062C18.8739 7.28151 15.5304 3.93799 11.4057 3.93799ZM11.4057 5.99175C12.7463 5.99175 13.8329 7.07837 13.8329 8.41891C13.8329 9.75946 12.7463 10.8461 11.4057 10.8461C10.0652 10.8461 8.97854 9.75946 8.97854 8.41891C8.97854 7.07837 10.0652 5.99175 11.4057 5.99175ZM11.4057 17.3808C9.33702 17.3808 7.51477 16.3292 6.44234 14.7318C7.27952 13.5145 9.94642 12.8998 11.4057 12.8998C12.865 12.8998 15.5319 13.5145 16.3691 14.7318C15.2966 16.3292 13.4744 17.3808 11.4057 17.3808Z" fill="#ABABAB"/>
</svg>
