<svg width="11" height="10" viewBox="0 0 11 10" fill="none" xmlns="http://www.w3.org/2000/svg">
<g clip-path="url(#clip0_1_3880)">
<path fill-rule="evenodd" clip-rule="evenodd" d="M2.23715 3.663C2.65285 3.49592 3.10685 3.40398 3.58231 3.40398C5.57558 3.40398 7.19145 5.01985 7.19145 7.01312C7.19145 7.48859 7.09951 7.94258 6.93243 8.35829C8.25948 7.82494 9.19641 6.52597 9.19641 5.00816C9.19641 3.01489 7.58054 1.39902 5.58727 1.39902C4.06946 1.39902 2.77049 2.33595 2.23715 3.663Z" fill="white"/>
<path d="M2.23703 3.66287L1.86494 3.51332C1.80503 3.66239 1.83986 3.83283 1.95347 3.94643C2.06707 4.06003 2.2375 4.09487 2.38657 4.03496L2.23703 3.66287ZM6.93231 8.35815L6.56022 8.20861C6.50031 8.35768 6.53515 8.52811 6.64875 8.64171C6.76235 8.75532 6.93279 8.79015 7.08186 8.73024L6.93231 8.35815ZM2.38657 4.03496C2.75553 3.88667 3.15882 3.80487 3.58219 3.80487L3.58219 3.00284C3.05463 3.00284 2.54993 3.10492 2.08748 3.29078L2.38657 4.03496ZM3.58219 3.80487C5.35399 3.80487 6.79031 5.24119 6.79031 7.01299L7.59234 7.01299C7.59234 4.79824 5.79694 3.00284 3.58219 3.00284L3.58219 3.80487ZM6.79031 7.01299C6.79031 7.43636 6.70851 7.83965 6.56022 8.20861L7.3044 8.5077C7.49026 8.04525 7.59234 7.54055 7.59234 7.01299L6.79031 7.01299ZM8.79527 5.00803C8.79527 6.35656 7.9631 7.51169 6.78277 7.98606L7.08186 8.73024C8.55563 8.13794 9.5973 6.69511 9.5973 5.00803L8.79527 5.00803ZM5.58715 1.79991C7.35895 1.79991 8.79527 3.23623 8.79527 5.00803L9.5973 5.00803C9.5973 2.79328 7.8019 0.997876 5.58715 0.997875L5.58715 1.79991ZM2.60912 3.81241C3.08349 2.63208 4.23862 1.79991 5.58715 1.79991L5.58715 0.997875C3.90007 0.997875 2.45724 2.03955 1.86494 3.51332L2.60912 3.81241Z" fill="white"/>
</g>
<defs>
<clipPath id="clip0_1_3880">
<rect width="9.62437" height="9.62437" fill="white" transform="translate(10.3989 9.82031) rotate(-180)"/>
</clipPath>
</defs>
</svg>
