<svg width="11" height="11" viewBox="0 0 11 11" fill="none" xmlns="http://www.w3.org/2000/svg">
<path fill-rule="evenodd" clip-rule="evenodd" d="M8.57047 6.98813C8.15476 7.1552 7.70077 7.24714 7.22531 7.24714C5.23204 7.24714 3.61617 5.63127 3.61617 3.638C3.61617 3.16254 3.70811 2.70855 3.87518 2.29284C2.54813 2.82618 1.61121 4.12515 1.61121 5.64296C1.61121 7.63623 3.22707 9.2521 5.22035 9.2521C6.73815 9.2521 8.03713 8.31517 8.57047 6.98813Z" fill="white"/>
<path d="M8.57059 6.98826L8.94268 7.1378C9.00259 6.98873 8.96775 6.8183 8.85415 6.7047C8.74055 6.59109 8.57012 6.55626 8.42105 6.61617L8.57059 6.98826ZM3.8753 2.29297L4.24739 2.44251C4.3073 2.29344 4.27247 2.12301 4.15886 2.00941C4.04526 1.89581 3.87483 1.86097 3.72576 1.92088L3.8753 2.29297ZM8.42105 6.61617C8.05208 6.76445 7.6488 6.84625 7.22543 6.84625V7.64829C7.75299 7.64829 8.25768 7.5462 8.72013 7.36035L8.42105 6.61617ZM7.22543 6.84625C5.45363 6.84625 4.01731 5.40993 4.01731 3.63813H3.21527C3.21527 5.85288 5.01068 7.64829 7.22543 7.64829V6.84625ZM4.01731 3.63813C4.01731 3.21476 4.09911 2.81148 4.24739 2.44251L3.50321 2.14343C3.31736 2.60588 3.21527 3.11057 3.21527 3.63813H4.01731ZM2.01234 5.64309C2.01234 4.29456 2.84452 3.13943 4.02485 2.66506L3.72576 1.92088C2.25199 2.51319 1.21031 3.95601 1.21031 5.64309H2.01234ZM5.22047 8.85122C3.44867 8.85122 2.01234 7.41489 2.01234 5.64309H1.21031C1.21031 7.85784 3.00572 9.65325 5.22047 9.65325V8.85122ZM8.1985 6.83871C7.72413 8.01904 6.569 8.85122 5.22047 8.85122V9.65325C6.90755 9.65325 8.35037 8.61157 8.94268 7.1378L8.1985 6.83871Z" fill="white"/>
</svg>
