<svg width="11" height="11" viewBox="0 0 11 11" fill="none" xmlns="http://www.w3.org/2000/svg">
<path fill-rule="evenodd" clip-rule="evenodd" d="M8.57047 6.98788C8.15476 7.15495 7.70077 7.24689 7.22531 7.24689C5.23204 7.24689 3.61617 5.63103 3.61617 3.63776C3.61617 3.16229 3.70811 2.7083 3.87518 2.29259C2.54813 2.82593 1.61121 4.12491 1.61121 5.64272C1.61121 7.63599 3.22707 9.25186 5.22035 9.25186C6.73815 9.25186 8.03713 8.31493 8.57047 6.98788Z" fill="white"/>
<path d="M8.57059 6.98801L8.94268 7.13755C9.00259 6.98849 8.96775 6.81805 8.85415 6.70445C8.74055 6.59085 8.57012 6.55601 8.42105 6.61592L8.57059 6.98801ZM3.8753 2.29272L4.24739 2.44227C4.3073 2.2932 4.27247 2.12276 4.15886 2.00916C4.04526 1.89556 3.87483 1.86073 3.72576 1.92064L3.8753 2.29272ZM8.42105 6.61592C8.05208 6.76421 7.6488 6.84601 7.22543 6.84601V7.64804C7.75299 7.64804 8.25768 7.54596 8.72013 7.3601L8.42105 6.61592ZM7.22543 6.84601C5.45363 6.84601 4.01731 5.40968 4.01731 3.63789H3.21527C3.21527 5.85263 5.01068 7.64804 7.22543 7.64804V6.84601ZM4.01731 3.63789C4.01731 3.21452 4.09911 2.81123 4.24739 2.44227L3.50321 2.14318C3.31736 2.60563 3.21527 3.11033 3.21527 3.63789H4.01731ZM2.01234 5.64285C2.01234 4.29432 2.84452 3.13919 4.02485 2.66481L3.72576 1.92064C2.25199 2.51294 1.21031 3.95576 1.21031 5.64285H2.01234ZM5.22047 8.85097C3.44867 8.85097 2.01234 7.41465 2.01234 5.64285H1.21031C1.21031 7.8576 3.00572 9.653 5.22047 9.653V8.85097ZM8.1985 6.83847C7.72413 8.0188 6.569 8.85097 5.22047 8.85097V9.653C6.90755 9.653 8.35037 8.61132 8.94268 7.13755L8.1985 6.83847Z" fill="white"/>
</svg>
