<svg width="20" height="19" viewBox="0 0 20 19" fill="none" xmlns="http://www.w3.org/2000/svg">
<g clip-path="url(#clip0_1_6246)">
<path d="M8.7212 0.650391C8.25243 0.650391 7.80286 0.836609 7.47138 1.16808C7.13991 1.49955 6.9537 1.94912 6.9537 2.41789C6.9537 2.88666 7.13991 3.33623 7.47138 3.6677C7.80286 3.99917 8.25243 4.18539 8.7212 4.18539C9.18997 4.18539 9.63954 3.99917 9.97101 3.6677C10.3025 3.33623 10.4887 2.88666 10.4887 2.41789C10.4887 1.94912 10.3025 1.49955 9.97101 1.16808C9.63954 0.836609 9.18997 0.650391 8.7212 0.650391ZM16.5075 3.31027C16.3432 3.29536 16.1757 3.29747 16.007 3.31545C15.332 3.38735 14.6418 3.71574 14.0979 4.25961C13.1308 5.22674 12.8478 6.6505 13.48 7.63927L12.2562 8.86305V8.60414H9.80344L8.80923 6.73998C8.80923 6.73998 8.78445 6.69385 8.78161 6.6882L8.609 6.36542L8.60727 6.36715C8.55556 6.27061 8.53448 6.22158 8.4899 6.14966C8.0931 5.50187 7.38187 5.06914 6.56706 5.06914C5.81675 5.06914 5.14373 5.42771 4.74605 5.99949C4.09649 6.93627 2.74125 8.66689 2.55566 9.70883C2.5424 9.7866 2.53495 9.85995 2.53495 9.92977C2.53495 10.1357 2.69638 10.8924 2.76797 11.1708C2.99332 12.0431 3.29779 13.1539 3.41179 13.5666L0.891724 16.2368L2.18801 17.4365L4.94972 14.5073C5.10173 14.3438 5.1862 14.1293 5.1862 13.9066V11.2071C5.1862 10.9932 5.26316 10.7862 5.40368 10.6254L7.563 8.16227L8.49335 9.90387C8.56878 10.0452 8.68122 10.1634 8.81865 10.2458C8.95607 10.3282 9.11331 10.3717 9.27354 10.3716H12.2562V10.1127L14.1048 8.2641C15.0936 8.89631 16.5173 8.61329 17.4845 7.64617C18.5719 6.55873 18.8008 4.88925 17.828 3.91612C17.4628 3.55101 17.0005 3.355 16.5075 3.31027ZM16.3919 4.1923C16.7108 4.21632 16.9962 4.33407 17.2031 4.54096H17.2048C17.7561 5.09158 17.6772 6.20381 16.8596 7.02133C16.042 7.83895 14.931 7.91654 14.3793 7.36482C13.8275 6.8131 13.9051 5.70207 14.7228 4.88445C15.1316 4.47564 15.6149 4.25213 16.0639 4.1992C16.1762 4.18597 16.2856 4.18429 16.3919 4.1923ZM17.5587 10.3716C17.3243 10.3716 17.0995 10.4648 16.9338 10.6305C16.7681 10.7962 16.6749 11.021 16.6749 11.2554C16.6749 11.4898 16.7681 11.7146 16.9338 11.8803C17.0995 12.046 17.3243 12.1391 17.5587 12.1391C17.7931 12.1391 18.0179 12.046 18.1836 11.8803C18.3493 11.7146 18.4424 11.4898 18.4424 11.2554C18.4424 11.021 18.3493 10.7962 18.1836 10.6305C18.0179 10.4648 17.7931 10.3716 17.5587 10.3716ZM6.21839 11.0379L6.06995 11.2071V13.3888L7.04518 14.3641L7.86679 17.395L9.5756 16.9394L8.69185 13.6788C8.6512 13.5286 8.57275 13.3914 8.46228 13.2818L6.21839 11.0379Z" fill="white"/>
</g>
<defs>
<clipPath id="clip0_1_6246">
<rect width="18.55" height="18.55" fill="white" transform="translate(0.839081 0.320312)"/>
</clipPath>
</defs>
</svg>
