<svg width="20" height="20" viewBox="0 0 20 20" fill="none" xmlns="http://www.w3.org/2000/svg">
<g clip-path="url(#clip0_1_5106)">
<path d="M3.13252 2C2.07674 2 1.23227 2.94418 1.36511 3.99809V3.99983C1.62986 6.07962 2.61186 7.59108 3.43432 8.80253C4.25677 10.014 4.8479 10.9049 4.8479 11.7684C4.84623 11.8861 4.86797 12.003 4.91185 12.1122C4.95574 12.2214 5.02088 12.3207 5.10351 12.4046C5.18614 12.4884 5.2846 12.5549 5.39317 12.6003C5.50173 12.6457 5.61825 12.6691 5.73594 12.6691C5.85362 12.6691 5.97014 12.6457 6.07871 12.6003C6.18728 12.5549 6.28574 12.4884 6.36836 12.4046C6.45099 12.3207 6.51614 12.2214 6.56002 12.1122C6.6039 12.003 6.62564 11.8861 6.62398 11.7684C6.62398 11.7541 6.62066 11.7411 6.62051 11.7268C7.48944 13.6921 8.40006 14.4326 8.40006 14.4326H11.9522C11.9522 14.4326 12.8628 13.6921 13.7318 11.7268C13.7316 11.7411 13.7283 11.7541 13.7283 11.7684C13.7266 11.8861 13.7484 12.003 13.7923 12.1122C13.8361 12.2214 13.9013 12.3207 13.9839 12.4046C14.0665 12.4884 14.165 12.5549 14.2736 12.6003C14.3821 12.6457 14.4987 12.6691 14.6163 12.6691C14.734 12.6691 14.8505 12.6457 14.9591 12.6003C15.0677 12.5549 15.1661 12.4884 15.2488 12.4046C15.3314 12.3207 15.3965 12.2214 15.4404 12.1122C15.4843 12.003 15.506 11.8861 15.5044 11.7684C15.5044 10.9049 16.0955 10.014 16.918 8.80253C17.7404 7.59108 18.7224 6.07962 18.9872 3.99983C19.122 2.94441 18.2755 2 17.2198 2H3.13252ZM17.225 3.77435C17.0155 5.41989 16.2529 6.62096 15.4489 7.80522C15.1628 8.22653 14.8741 8.65541 14.6059 9.09565C14.9531 7.67736 15.2047 5.92147 15.2616 3.77608H17.2198C17.2296 3.77608 17.225 3.77435 17.225 3.77435ZM3.12732 3.77608C3.12696 3.77323 3.12265 3.77608 3.13252 3.77608H5.09072C5.1476 5.92147 5.39914 7.67736 5.74634 9.09565C5.47815 8.65541 5.18943 8.22654 4.9034 7.80522C4.0997 6.62139 3.33711 5.4207 3.12732 3.77608ZM6.62398 16.2086C6.13378 16.2086 5.73594 16.6065 5.73594 17.0967C5.73594 17.5869 6.13378 17.9847 6.62398 17.9847H13.7283C14.2185 17.9847 14.6163 17.5869 14.6163 17.0967C14.6163 16.6065 14.2185 16.2086 13.7283 16.2086H6.62398Z" fill="white"/>
</g>
<defs>
<clipPath id="clip0_1_5106">
<rect width="18.55" height="18.55" fill="white" transform="translate(0.839111 0.746094)"/>
</clipPath>
</defs>
</svg>
