<svg width="20" height="20" viewBox="0 0 20 20" fill="none" xmlns="http://www.w3.org/2000/svg">
<g clip-path="url(#clip0_1_4358)">
<path d="M8.72107 1.65039C8.2523 1.65039 7.80273 1.83661 7.47126 2.16808C7.13979 2.49955 6.95357 2.94912 6.95357 3.41789C6.95357 3.88666 7.13979 4.33623 7.47126 4.6677C7.80273 4.99917 8.2523 5.18539 8.72107 5.18539C9.18984 5.18539 9.63941 4.99917 9.97088 4.6677C10.3024 4.33623 10.4886 3.88666 10.4886 3.41789C10.4886 2.94912 10.3024 2.49955 9.97088 2.16808C9.63941 1.83661 9.18984 1.65039 8.72107 1.65039ZM16.5074 4.31027C16.3431 4.29536 16.1756 4.29747 16.0068 4.31545C15.3319 4.38735 14.6417 4.71574 14.0978 5.25961C13.1307 6.22674 12.8477 7.6505 13.4799 8.63927L12.2561 9.86305V9.60414H9.80332L8.8091 7.73998C8.8091 7.73998 8.78433 7.69385 8.78149 7.6882L8.60888 7.36542L8.60715 7.36715C8.55544 7.27061 8.53436 7.22158 8.48978 7.14966C8.09298 6.50187 7.38175 6.06914 6.56693 6.06914C5.81663 6.06914 5.14361 6.42771 4.74592 6.99949C4.09637 7.93627 2.74112 9.66689 2.55554 10.7088C2.54228 10.7866 2.53482 10.8599 2.53482 10.9298C2.53482 11.1357 2.69626 11.8924 2.76784 12.1708C2.9932 13.0431 3.29767 14.1539 3.41167 14.5666L0.891602 17.2368L2.18788 18.4365L4.9496 15.5073C5.10161 15.3438 5.18607 15.1293 5.18607 14.9066V12.2071C5.18607 11.9932 5.26304 11.7862 5.40356 11.6254L7.56288 9.16227L8.49323 10.9039C8.56866 11.0452 8.6811 11.1634 8.81853 11.2458C8.95595 11.3282 9.11319 11.3717 9.27342 11.3716H12.2561V11.1127L14.1047 9.2641C15.0935 9.89631 16.5172 9.61329 17.4844 8.64617C18.5718 7.55873 18.8007 5.88925 17.8278 4.91612C17.4627 4.55101 17.0004 4.355 16.5074 4.31027ZM16.3917 5.1923C16.7106 5.21632 16.9961 5.33407 17.203 5.54096H17.2047C17.756 6.09158 17.677 7.20381 16.8595 8.02133C16.0419 8.83895 14.9309 8.91654 14.3791 8.36482C13.8274 7.8131 13.905 6.70207 14.7226 5.88445C15.1314 5.47564 15.6148 5.25213 16.0638 5.1992C16.176 5.18597 16.2855 5.18429 16.3917 5.1923ZM17.5586 11.3716C17.3242 11.3716 17.0994 11.4648 16.9337 11.6305C16.7679 11.7962 16.6748 12.021 16.6748 12.2554C16.6748 12.4898 16.7679 12.7146 16.9337 12.8803C17.0994 13.046 17.3242 13.1391 17.5586 13.1391C17.793 13.1391 18.0177 13.046 18.1835 12.8803C18.3492 12.7146 18.4423 12.4898 18.4423 12.2554C18.4423 12.021 18.3492 11.7962 18.1835 11.6305C18.0177 11.4648 17.793 11.3716 17.5586 11.3716ZM6.21827 12.0379L6.06982 12.2071V14.3888L7.04506 15.3641L7.86667 18.395L9.57548 17.9394L8.69173 14.6788C8.65108 14.5286 8.57263 14.3914 8.46216 14.2818L6.21827 12.0379Z" fill="white"/>
</g>
<defs>
<clipPath id="clip0_1_4358">
<rect width="18.55" height="18.55" fill="white" transform="translate(0.838867 0.9375)"/>
</clipPath>
</defs>
</svg>
