<svg width="20" height="19" viewBox="0 0 20 19" fill="none" xmlns="http://www.w3.org/2000/svg">
<g clip-path="url(#clip0_207_201)">
<path d="M8.72107 0.544922C8.2523 0.544922 7.80273 0.73114 7.47126 1.06261C7.13979 1.39408 6.95357 1.84365 6.95357 2.31242C6.95357 2.78119 7.13979 3.23076 7.47126 3.56223C7.80273 3.8937 8.2523 4.07992 8.72107 4.07992C9.18984 4.07992 9.63941 3.8937 9.97088 3.56223C10.3024 3.23076 10.4886 2.78119 10.4886 2.31242C10.4886 1.84365 10.3024 1.39408 9.97088 1.06261C9.63941 0.73114 9.18984 0.544922 8.72107 0.544922ZM16.5074 3.2048C16.3431 3.18989 16.1756 3.19201 16.0068 3.20998C15.3319 3.28188 14.6417 3.61027 14.0978 4.15414C13.1307 5.12127 12.8477 6.54503 13.4799 7.5338L12.2561 8.75758V8.49867H9.80332L8.8091 6.63451C8.8091 6.63451 8.78433 6.58839 8.78149 6.58273L8.60888 6.25995L8.60715 6.26168C8.55544 6.16514 8.53436 6.11611 8.48978 6.04419C8.09298 5.39641 7.38175 4.96367 6.56693 4.96367C5.81663 4.96367 5.14361 5.32224 4.74592 5.89403C4.09637 6.8308 2.74112 8.56142 2.55554 9.60336C2.54228 9.68113 2.53482 9.75448 2.53482 9.8243C2.53482 10.0302 2.69626 10.787 2.76784 11.0653C2.9932 11.9376 3.29767 13.0484 3.41167 13.4611L0.891602 16.1314L2.18788 17.331L4.9496 14.4018C5.10161 14.2384 5.18607 14.0239 5.18607 13.8012V11.1016C5.18607 10.8877 5.26304 10.6807 5.40356 10.5199L7.56288 8.0568L8.49323 9.79841C8.56866 9.93977 8.6811 10.058 8.81853 10.1404C8.95595 10.2228 9.11319 10.2662 9.27342 10.2662H12.2561V10.0073L14.1047 8.15864C15.0935 8.79084 16.5172 8.50783 17.4844 7.5407C18.5718 6.45326 18.8007 4.78378 17.8278 3.81065C17.4627 3.44554 17.0004 3.24953 16.5074 3.2048ZM16.3917 4.08683C16.7106 4.11085 16.9961 4.2286 17.203 4.43549H17.2047C17.756 4.98611 17.677 6.09834 16.8595 6.91586C16.0419 7.73348 14.9309 7.81107 14.3791 7.25935C13.8274 6.70763 13.905 5.5966 14.7226 4.77898C15.1314 4.37017 15.6148 4.14666 16.0638 4.09373C16.176 4.0805 16.2855 4.07882 16.3917 4.08683ZM17.5586 10.2662C17.3242 10.2662 17.0994 10.3593 16.9337 10.525C16.7679 10.6908 16.6748 10.9155 16.6748 11.1499C16.6748 11.3843 16.7679 11.6091 16.9337 11.7748C17.0994 11.9406 17.3242 12.0337 17.5586 12.0337C17.793 12.0337 18.0177 11.9406 18.1835 11.7748C18.3492 11.6091 18.4423 11.3843 18.4423 11.1499C18.4423 10.9155 18.3492 10.6908 18.1835 10.525C18.0177 10.3593 17.793 10.2662 17.5586 10.2662ZM6.21827 10.9324L6.06982 11.1016V13.2833L7.04506 14.2586L7.86667 17.2896L9.57548 16.8339L8.69173 13.5733C8.65108 13.4231 8.57263 13.2859 8.46216 13.1763L6.21827 10.9324Z" fill="white"/>
</g>
<defs>
<clipPath id="clip0_207_201">
<rect width="18.55" height="18.55" fill="white" transform="translate(0.838867 0.214844)"/>
</clipPath>
</defs>
</svg>
