<svg width="20" height="20" viewBox="0 0 20 20" fill="none" xmlns="http://www.w3.org/2000/svg">
<g clip-path="url(#clip0_1_5162)">
<path d="M8.72156 1.65039C8.25279 1.65039 7.80322 1.83661 7.47175 2.16808C7.14028 2.49955 6.95406 2.94912 6.95406 3.41789C6.95406 3.88666 7.14028 4.33623 7.47175 4.6677C7.80322 4.99917 8.25279 5.18539 8.72156 5.18539C9.19033 5.18539 9.6399 4.99917 9.97137 4.6677C10.3028 4.33623 10.4891 3.88666 10.4891 3.41789C10.4891 2.94912 10.3028 2.49955 9.97137 2.16808C9.6399 1.83661 9.19033 1.65039 8.72156 1.65039ZM16.5079 4.31027C16.3436 4.29536 16.1761 4.29747 16.0073 4.31545C15.3324 4.38735 14.6422 4.71574 14.0983 5.25961C13.1312 6.22674 12.8481 7.6505 13.4803 8.63927L12.2566 9.86305V9.60414H9.80381L8.80959 7.73998C8.80959 7.73998 8.78482 7.69385 8.78197 7.6882L8.60937 7.36542L8.60764 7.36715C8.55593 7.27061 8.53485 7.22158 8.49027 7.14966C8.09346 6.50187 7.38224 6.06914 6.56742 6.06914C5.81712 6.06914 5.1441 6.42771 4.74641 6.99949C4.09686 7.93627 2.74161 9.66689 2.55603 10.7088C2.54277 10.7866 2.53531 10.8599 2.53531 10.9298C2.53531 11.1357 2.69675 11.8924 2.76833 12.1708C2.99369 13.0431 3.29815 14.1539 3.41216 14.5666L0.89209 17.2368L2.18837 18.4365L4.95009 15.5073C5.10209 15.3438 5.18656 15.1293 5.18656 14.9066V12.2071C5.18656 11.9932 5.26353 11.7862 5.40405 11.6254L7.56337 9.16227L8.49372 10.9039C8.56915 11.0452 8.68159 11.1634 8.81901 11.2458C8.95644 11.3282 9.11367 11.3717 9.27391 11.3716H12.2566V11.1127L14.1052 9.2641C15.094 9.89631 16.5177 9.61329 17.4848 8.64617C18.5723 7.55873 18.8012 5.88925 17.8283 4.91612C17.4632 4.55101 17.0009 4.355 16.5079 4.31027ZM16.3922 5.1923C16.7111 5.21632 16.9966 5.33407 17.2035 5.54096H17.2052C17.7565 6.09158 17.6775 7.20381 16.86 8.02133C16.0424 8.83895 14.9314 8.91654 14.3796 8.36482C13.8279 7.8131 13.9055 6.70207 14.7231 5.88445C15.1319 5.47564 15.6153 5.25213 16.0643 5.1992C16.1765 5.18597 16.2859 5.18429 16.3922 5.1923ZM17.5591 11.3716C17.3247 11.3716 17.0999 11.4648 16.9342 11.6305C16.7684 11.7962 16.6753 12.021 16.6753 12.2554C16.6753 12.4898 16.7684 12.7146 16.9342 12.8803C17.0999 13.046 17.3247 13.1391 17.5591 13.1391C17.7934 13.1391 18.0182 13.046 18.184 12.8803C18.3497 12.7146 18.4428 12.4898 18.4428 12.2554C18.4428 12.021 18.3497 11.7962 18.184 11.6305C18.0182 11.4648 17.7934 11.3716 17.5591 11.3716ZM6.21875 12.0379L6.07031 12.2071V14.3888L7.04554 15.3641L7.86715 18.395L9.57597 17.9394L8.69222 14.6788C8.65157 14.5286 8.57312 14.3914 8.46265 14.2818L6.21875 12.0379Z" fill="white"/>
</g>
<defs>
<clipPath id="clip0_1_5162">
<rect width="18.55" height="18.55" fill="white" transform="translate(0.839111 0.9375)"/>
</clipPath>
</defs>
</svg>
