<svg width="20" height="19" viewBox="0 0 20 19" fill="none" xmlns="http://www.w3.org/2000/svg">
<g clip-path="url(#clip0_1_5133)">
<path d="M8.72132 0.650391C8.25255 0.650391 7.80298 0.836609 7.47151 1.16808C7.14004 1.49955 6.95382 1.94912 6.95382 2.41789C6.95382 2.88666 7.14004 3.33623 7.47151 3.6677C7.80298 3.99917 8.25255 4.18539 8.72132 4.18539C9.19009 4.18539 9.63966 3.99917 9.97113 3.6677C10.3026 3.33623 10.4888 2.88666 10.4888 2.41789C10.4888 1.94912 10.3026 1.49955 9.97113 1.16808C9.63966 0.836609 9.19009 0.650391 8.72132 0.650391ZM16.5076 3.31027C16.3433 3.29536 16.1758 3.29747 16.0071 3.31545C15.3321 3.38735 14.6419 3.71574 14.098 4.25961C13.1309 5.22674 12.8479 6.6505 13.4801 7.63927L12.2563 8.86305V8.60414H9.80357L8.80935 6.73998C8.80935 6.73998 8.78457 6.69385 8.78173 6.6882L8.60912 6.36542L8.6074 6.36715C8.55569 6.27061 8.53461 6.22158 8.49002 6.14966C8.09322 5.50187 7.38199 5.06914 6.56718 5.06914C5.81687 5.06914 5.14386 5.42771 4.74617 5.99949C4.09661 6.93627 2.74137 8.66689 2.55578 9.70883C2.54252 9.7866 2.53507 9.85995 2.53507 9.92977C2.53507 10.1357 2.6965 10.8924 2.76809 11.1708C2.99344 12.0431 3.29791 13.1539 3.41191 13.5666L0.891846 16.2368L2.18813 17.4365L4.94985 14.5073C5.10185 14.3438 5.18632 14.1293 5.18632 13.9066V11.2071C5.18632 10.9932 5.26329 10.7862 5.4038 10.6254L7.56312 8.16227L8.49348 9.90387C8.56891 10.0452 8.68135 10.1634 8.81877 10.2458C8.95619 10.3282 9.11343 10.3717 9.27366 10.3716H12.2563V10.1127L14.1049 8.2641C15.0937 8.89631 16.5175 8.61329 17.4846 7.64617C18.572 6.55873 18.8009 4.88925 17.8281 3.91612C17.463 3.55101 17.0006 3.355 16.5076 3.31027ZM16.392 4.1923C16.7109 4.21632 16.9964 4.33407 17.2032 4.54096H17.205C17.7562 5.09158 17.6773 6.20381 16.8598 7.02133C16.0421 7.83895 14.9311 7.91654 14.3794 7.36482C13.8276 6.8131 13.9053 5.70207 14.7229 4.88445C15.1317 4.47564 15.6151 4.25213 16.064 4.1992C16.1763 4.18597 16.2857 4.18429 16.392 4.1923ZM17.5588 10.3716C17.3244 10.3716 17.0996 10.4648 16.9339 10.6305C16.7682 10.7962 16.6751 11.021 16.6751 11.2554C16.6751 11.4898 16.7682 11.7146 16.9339 11.8803C17.0996 12.046 17.3244 12.1391 17.5588 12.1391C17.7932 12.1391 18.018 12.046 18.1837 11.8803C18.3495 11.7146 18.4426 11.4898 18.4426 11.2554C18.4426 11.021 18.3495 10.7962 18.1837 10.6305C18.018 10.4648 17.7932 10.3716 17.5588 10.3716ZM6.21851 11.0379L6.07007 11.2071V13.3888L7.0453 14.3641L7.86691 17.395L9.57572 16.9394L8.69197 13.6788C8.65132 13.5286 8.57288 13.3914 8.46241 13.2818L6.21851 11.0379Z" fill="white"/>
</g>
<defs>
<clipPath id="clip0_1_5133">
<rect width="18.55" height="18.55" fill="white" transform="translate(0.839111 0.320312)"/>
</clipPath>
</defs>
</svg>
