<svg width="20" height="19" viewBox="0 0 20 19" fill="none" xmlns="http://www.w3.org/2000/svg">
<g clip-path="url(#clip0_1_6984)">
<path d="M8.72132 0.544922C8.25255 0.544922 7.80298 0.73114 7.47151 1.06261C7.14004 1.39408 6.95382 1.84365 6.95382 2.31242C6.95382 2.78119 7.14004 3.23076 7.47151 3.56223C7.80298 3.8937 8.25255 4.07992 8.72132 4.07992C9.19009 4.07992 9.63966 3.8937 9.97113 3.56223C10.3026 3.23076 10.4888 2.78119 10.4888 2.31242C10.4888 1.84365 10.3026 1.39408 9.97113 1.06261C9.63966 0.73114 9.19009 0.544922 8.72132 0.544922ZM16.5076 3.2048C16.3433 3.18989 16.1758 3.19201 16.0071 3.20998C15.3321 3.28188 14.6419 3.61027 14.098 4.15414C13.1309 5.12127 12.8479 6.54503 13.4801 7.5338L12.2563 8.75758V8.49867H9.80357L8.80935 6.63451C8.80935 6.63451 8.78457 6.58839 8.78173 6.58273L8.60912 6.25995L8.6074 6.26168C8.55569 6.16514 8.53461 6.11611 8.49002 6.04419C8.09322 5.39641 7.38199 4.96367 6.56718 4.96367C5.81687 4.96367 5.14386 5.32224 4.74617 5.89403C4.09661 6.8308 2.74137 8.56142 2.55578 9.60336C2.54252 9.68113 2.53507 9.75448 2.53507 9.8243C2.53507 10.0302 2.6965 10.787 2.76809 11.0653C2.99344 11.9376 3.29791 13.0484 3.41191 13.4611L0.891846 16.1314L2.18813 17.331L4.94985 14.4018C5.10185 14.2384 5.18632 14.0239 5.18632 13.8012V11.1016C5.18632 10.8877 5.26329 10.6807 5.4038 10.5199L7.56312 8.0568L8.49348 9.79841C8.56891 9.93977 8.68135 10.058 8.81877 10.1404C8.95619 10.2228 9.11343 10.2662 9.27366 10.2662H12.2563V10.0073L14.1049 8.15864C15.0937 8.79084 16.5175 8.50783 17.4846 7.5407C18.572 6.45326 18.8009 4.78378 17.8281 3.81065C17.463 3.44554 17.0006 3.24953 16.5076 3.2048ZM16.392 4.08683C16.7109 4.11085 16.9964 4.2286 17.2032 4.43549H17.205C17.7562 4.98611 17.6773 6.09834 16.8598 6.91586C16.0421 7.73348 14.9311 7.81107 14.3794 7.25935C13.8276 6.70763 13.9053 5.5966 14.7229 4.77898C15.1317 4.37017 15.6151 4.14666 16.064 4.09373C16.1763 4.0805 16.2857 4.07882 16.392 4.08683ZM17.5588 10.2662C17.3244 10.2662 17.0996 10.3593 16.9339 10.525C16.7682 10.6908 16.6751 10.9155 16.6751 11.1499C16.6751 11.3843 16.7682 11.6091 16.9339 11.7748C17.0996 11.9406 17.3244 12.0337 17.5588 12.0337C17.7932 12.0337 18.018 11.9406 18.1837 11.7748C18.3495 11.6091 18.4426 11.3843 18.4426 11.1499C18.4426 10.9155 18.3495 10.6908 18.1837 10.525C18.018 10.3593 17.7932 10.2662 17.5588 10.2662ZM6.21851 10.9324L6.07007 11.1016V13.2833L7.0453 14.2586L7.86691 17.2896L9.57572 16.8339L8.69197 13.5733C8.65132 13.4231 8.57288 13.2859 8.46241 13.1763L6.21851 10.9324Z" fill="white"/>
</g>
<defs>
<clipPath id="clip0_1_6984">
<rect width="18.55" height="18.55" fill="white" transform="translate(0.839111 0.214844)"/>
</clipPath>
</defs>
</svg>
