<svg width="20" height="19" viewBox="0 0 20 19" fill="none" xmlns="http://www.w3.org/2000/svg">
<g clip-path="url(#clip0_1_4329)">
<path d="M8.72107 0.650391C8.2523 0.650391 7.80273 0.836609 7.47126 1.16808C7.13979 1.49955 6.95357 1.94912 6.95357 2.41789C6.95357 2.88666 7.13979 3.33623 7.47126 3.6677C7.80273 3.99917 8.2523 4.18539 8.72107 4.18539C9.18984 4.18539 9.63941 3.99917 9.97088 3.6677C10.3024 3.33623 10.4886 2.88666 10.4886 2.41789C10.4886 1.94912 10.3024 1.49955 9.97088 1.16808C9.63941 0.836609 9.18984 0.650391 8.72107 0.650391ZM16.5074 3.31027C16.3431 3.29536 16.1756 3.29747 16.0068 3.31545C15.3319 3.38735 14.6417 3.71574 14.0978 4.25961C13.1307 5.22674 12.8477 6.6505 13.4799 7.63927L12.2561 8.86305V8.60414H9.80332L8.8091 6.73998C8.8091 6.73998 8.78433 6.69385 8.78149 6.6882L8.60888 6.36542L8.60715 6.36715C8.55544 6.27061 8.53436 6.22158 8.48978 6.14966C8.09298 5.50187 7.38175 5.06914 6.56693 5.06914C5.81663 5.06914 5.14361 5.42771 4.74592 5.99949C4.09637 6.93627 2.74112 8.66689 2.55554 9.70883C2.54228 9.7866 2.53482 9.85995 2.53482 9.92977C2.53482 10.1357 2.69626 10.8924 2.76784 11.1708C2.9932 12.0431 3.29767 13.1539 3.41167 13.5666L0.891602 16.2368L2.18788 17.4365L4.9496 14.5073C5.10161 14.3438 5.18607 14.1293 5.18607 13.9066V11.2071C5.18607 10.9932 5.26304 10.7862 5.40356 10.6254L7.56288 8.16227L8.49323 9.90387C8.56866 10.0452 8.6811 10.1634 8.81853 10.2458C8.95595 10.3282 9.11319 10.3717 9.27342 10.3716H12.2561V10.1127L14.1047 8.2641C15.0935 8.89631 16.5172 8.61329 17.4844 7.64617C18.5718 6.55873 18.8007 4.88925 17.8278 3.91612C17.4627 3.55101 17.0004 3.355 16.5074 3.31027ZM16.3917 4.1923C16.7106 4.21632 16.9961 4.33407 17.203 4.54096H17.2047C17.756 5.09158 17.677 6.20381 16.8595 7.02133C16.0419 7.83895 14.9309 7.91654 14.3791 7.36482C13.8274 6.8131 13.905 5.70207 14.7226 4.88445C15.1314 4.47564 15.6148 4.25213 16.0638 4.1992C16.176 4.18597 16.2855 4.18429 16.3917 4.1923ZM17.5586 10.3716C17.3242 10.3716 17.0994 10.4648 16.9337 10.6305C16.7679 10.7962 16.6748 11.021 16.6748 11.2554C16.6748 11.4898 16.7679 11.7146 16.9337 11.8803C17.0994 12.046 17.3242 12.1391 17.5586 12.1391C17.793 12.1391 18.0177 12.046 18.1835 11.8803C18.3492 11.7146 18.4423 11.4898 18.4423 11.2554C18.4423 11.021 18.3492 10.7962 18.1835 10.6305C18.0177 10.4648 17.793 10.3716 17.5586 10.3716ZM6.21827 11.0379L6.06982 11.2071V13.3888L7.04506 14.3641L7.86667 17.395L9.57548 16.9394L8.69173 13.6788C8.65108 13.5286 8.57263 13.3914 8.46216 13.2818L6.21827 11.0379Z" fill="white"/>
</g>
<defs>
<clipPath id="clip0_1_4329">
<rect width="18.55" height="18.55" fill="white" transform="translate(0.838867 0.320312)"/>
</clipPath>
</defs>
</svg>
