<svg width="20" height="19" viewBox="0 0 20 19" fill="none" xmlns="http://www.w3.org/2000/svg">
<g clip-path="url(#clip0_207_180)">
<path d="M3.13277 1.61719C2.07698 1.61719 1.23251 2.56136 1.36536 3.61528V3.61701C1.6301 5.69681 2.61211 7.20827 3.43456 8.41972C4.25701 9.63117 4.84814 10.5221 4.84814 11.3856C4.84648 11.5033 4.86822 11.6201 4.9121 11.7293C4.95598 11.8385 5.02113 11.9379 5.10375 12.0217C5.18638 12.1055 5.28484 12.1721 5.39341 12.2175C5.50198 12.2629 5.61849 12.2863 5.73618 12.2863C5.85387 12.2863 5.97038 12.2629 6.07895 12.2175C6.18752 12.1721 6.28598 12.1055 6.36861 12.0217C6.45123 11.9379 6.51638 11.8385 6.56026 11.7293C6.60414 11.6201 6.62589 11.5033 6.62422 11.3856C6.62422 11.3713 6.6209 11.3582 6.62075 11.344C7.48969 13.3093 8.4003 14.0498 8.4003 14.0498H11.9525C11.9525 14.0498 12.8631 13.3093 13.732 11.344C13.7319 11.3582 13.7285 11.3713 13.7285 11.3856C13.7269 11.5033 13.7486 11.6201 13.7925 11.7293C13.8364 11.8385 13.9015 11.9379 13.9842 12.0217C14.0668 12.1055 14.1652 12.1721 14.2738 12.2175C14.3824 12.2629 14.4989 12.2863 14.6166 12.2863C14.7343 12.2863 14.8508 12.2629 14.9594 12.2175C15.0679 12.1721 15.1664 12.1055 15.249 12.0217C15.3316 11.9379 15.3968 11.8385 15.4407 11.7293C15.4845 11.6201 15.5063 11.5033 15.5046 11.3856C15.5046 10.5221 16.0958 9.63117 16.9182 8.41972C17.7407 7.20827 18.7227 5.6968 18.9874 3.61701C19.1222 2.56159 18.2758 1.61719 17.22 1.61719H3.13277ZM17.2252 3.39153C17.0157 5.03707 16.2531 6.23814 15.4491 7.42241C15.1631 7.84372 14.8744 8.2726 14.6062 8.71284C14.9534 7.29455 15.2049 5.53866 15.2618 3.39327H17.22C17.2299 3.39327 17.2252 3.39153 17.2252 3.39153ZM3.12756 3.39327C3.1272 3.39042 3.1229 3.39327 3.13277 3.39327H5.09096C5.14784 5.53866 5.39939 7.29455 5.74659 8.71284C5.4784 8.2726 5.18967 7.84372 4.90364 7.42241C4.09994 6.23857 3.33736 5.03789 3.12756 3.39327ZM6.62422 15.8258C6.13402 15.8258 5.73618 16.2237 5.73618 16.7139C5.73618 17.2041 6.13402 17.6019 6.62422 17.6019H13.7285C14.2187 17.6019 14.6166 17.2041 14.6166 16.7139C14.6166 16.2237 14.2187 15.8258 13.7285 15.8258H6.62422Z" fill="white"/>
</g>
<defs>
<clipPath id="clip0_207_180">
<rect width="18.55" height="18.55" fill="white" transform="translate(0.838867 0.363281)"/>
</clipPath>
</defs>
</svg>
