<svg width="22" height="22" viewBox="0 0 22 22" fill="none" xmlns="http://www.w3.org/2000/svg">
<g clip-path="url(#clip0_1_4445)">
<path d="M11 3C6.05 3 2 7.05 2 12C2 16.95 6.05 21 11 21C13.257 21 15.3207 20.1633 16.9062 18.7781C17.0891 18.6902 17.2402 18.5391 17.3281 18.3562C18.9664 16.725 20 14.482 20 12C20 7.05 15.95 3 11 3ZM11.9281 4.85625C13.0707 5.00742 14.1395 5.43984 15.05 6.06562C13.9531 7.02891 12.1812 9.01523 11.9562 11.9719C11.6504 11.9859 11.3305 12 11 12C10.6871 12 10.3883 11.9824 10.1 11.9719C10.1035 9.49687 10.5816 7.69687 11.0562 6.51562C11.5133 5.38008 11.8965 4.89492 11.9281 4.85625ZM9.81875 4.9125C9.68164 5.17969 9.5375 5.49609 9.39687 5.84062C8.85195 7.18711 8.32461 9.17695 8.3 11.8031C7.97656 11.7574 7.65664 11.6941 7.37187 11.6344C7.23125 8.68125 6.59844 6.91641 6.41562 6.45937C7.36836 5.67187 8.54961 5.12695 9.81875 4.9125ZM16.4 7.275C17.1488 8.13281 17.6973 9.17695 17.975 10.3125C17.8379 10.432 17.5145 10.6816 16.6531 11.0437C15.9816 11.3285 15.0148 11.5887 13.7844 11.775C14.0867 9.36328 15.6301 7.88672 16.4 7.275ZM5.0375 8.00625C5.22734 8.69531 5.43828 9.67617 5.54375 11.1C5.48398 11.0754 5.40312 11.0684 5.34687 11.0437C4.48555 10.6816 4.16211 10.432 4.025 10.3125C4.22891 9.48281 4.57344 8.69883 5.0375 8.00625ZM3.8 12.3094C4.04609 12.4465 4.32031 12.566 4.64375 12.7031C4.91445 12.8156 5.24141 12.9352 5.57187 13.0406C5.5332 14.243 5.30117 15.2977 5.06562 16.05C4.33086 14.9742 3.85977 13.691 3.8 12.3094ZM18.2 12.3094C18.1262 14.0566 17.402 15.6527 16.2875 16.8656C15.5246 16.4578 14.1219 15.4629 13.8125 13.6031C15.3031 13.3992 16.4984 13.0652 17.3562 12.7031C17.6797 12.566 17.9539 12.4465 18.2 12.3094ZM7.37187 13.4906C7.67773 13.5469 8.01523 13.5891 8.35625 13.6312C8.51797 15.5543 8.95742 17.073 9.39687 18.1594C9.5375 18.5039 9.68164 18.8203 9.81875 19.0875C8.56367 18.8766 7.39297 18.3422 6.44375 17.5687C6.74258 16.841 7.25234 15.3539 7.37187 13.4906ZM10.1844 13.7719C10.448 13.7824 10.7187 13.8 11 13.8C11.348 13.8 11.6891 13.7859 12.0125 13.7719C12.3359 15.9867 13.7598 17.3437 14.8531 18.075C13.9883 18.627 12.9863 19.0031 11.9281 19.1437C11.8965 19.1051 11.5133 18.6199 11.0562 17.4844C10.7012 16.602 10.3426 15.3715 10.1844 13.7719Z" fill="url(#paint0_linear_1_4445)"/>
</g>
<defs>
<linearGradient id="paint0_linear_1_4445" x1="19.5814" y1="1.11628" x2="4.72093" y2="22.6744" gradientUnits="userSpaceOnUse">
<stop stop-color="#00CB08"/>
<stop offset="1" stop-color="#00BF6F"/>
</linearGradient>
<clipPath id="clip0_1_4445">
<rect width="21.2117" height="21.2117" fill="white" transform="translate(0.574219 0.263672)"/>
</clipPath>
</defs>
</svg>
