<svg width="20" height="20" viewBox="0 0 20 20" fill="none" xmlns="http://www.w3.org/2000/svg">
<g clip-path="url(#clip0_1_329)">
<path d="M4.99928 1.43506C2.80188 1.43506 0.999092 3.23785 0.999092 5.43524C0.999092 7.63264 2.80188 9.43543 4.99928 9.43543C7.19667 9.43543 8.99946 7.63264 8.99946 5.43524C8.99946 3.23785 7.19667 1.43506 4.99928 1.43506ZM12.9996 1.43506C11.9065 1.43506 10.9996 2.34204 10.9996 3.43515V7.43534C10.9996 8.52845 11.9065 9.43543 12.9996 9.43543H16.9998C18.0929 9.43543 18.9999 8.52845 18.9999 7.43534V3.43515C18.9999 2.34204 18.0929 1.43506 16.9998 1.43506H12.9996ZM4.99928 3.43515C6.11574 3.43515 6.99937 4.31878 6.99937 5.43524C6.99937 6.55171 6.11574 7.43534 4.99928 7.43534C3.88281 7.43534 2.99918 6.55171 2.99918 5.43524C2.99918 4.31878 3.88281 3.43515 4.99928 3.43515ZM12.9996 5.43524C12.9996 4.33062 13.8951 3.43515 14.9997 3.43515V3.43515C16.1044 3.43515 16.9998 4.33062 16.9998 5.43524V5.43524C16.9998 6.53986 16.1044 7.43534 14.9997 7.43534V7.43534C13.8951 7.43534 12.9996 6.53986 12.9996 5.43524V5.43524ZM14.5271 11.1699C14.3067 11.1635 14.0904 11.2301 13.9118 11.3593L10.6167 13.754C10.4461 13.8781 10.319 14.053 10.2537 14.2536C10.1885 14.4543 10.1884 14.6705 10.2534 14.8712L11.5133 18.7445C11.5785 18.9454 11.7056 19.1205 11.8765 19.2447C12.0474 19.369 12.2532 19.4359 12.4645 19.4359H16.535C16.7462 19.4359 16.9521 19.369 17.1229 19.2447C17.2938 19.1205 17.421 18.9454 17.4862 18.7445L18.746 14.8712C18.8111 14.6705 18.8109 14.4543 18.7457 14.2536C18.6804 14.053 18.5534 13.8781 18.3827 13.754L15.0876 11.3593C14.9242 11.2411 14.7288 11.1751 14.5271 11.1699ZM5.00709 11.4355C4.82003 11.434 4.63632 11.4851 4.4768 11.5828C4.31729 11.6805 4.18837 11.821 4.1047 11.9883L1.10457 17.9886C1.02834 18.141 0.992363 18.3105 1.00004 18.4808C1.00771 18.6511 1.05879 18.8166 1.14841 18.9616C1.23804 19.1066 1.36324 19.2263 1.51214 19.3093C1.66103 19.3923 1.82867 19.4359 1.99914 19.4359H7.99942C8.16989 19.4359 8.33753 19.3923 8.48642 19.3093C8.63531 19.2263 8.76051 19.1066 8.85014 18.9616C8.93977 18.8166 8.99084 18.6511 8.99852 18.4808C9.00619 18.3105 8.97021 18.141 8.89399 17.9886L5.89385 11.9883C5.81137 11.8234 5.68489 11.6844 5.5284 11.5869C5.37191 11.4893 5.19149 11.437 5.00709 11.4355ZM13.4393 14.1755C14.0712 13.7159 14.9278 13.7156 15.5598 14.1752V14.1752C16.1913 14.6345 16.4553 15.4483 16.2136 16.1909V16.1909C15.972 16.9332 15.2797 17.4358 14.4991 17.4358V17.4358C13.7181 17.4358 13.0258 16.9329 12.7846 16.1901V16.1901C12.5436 15.4478 12.8081 14.6345 13.4393 14.1755V14.1755ZM4.23519 16.1991C4.55014 15.5696 5.44842 15.5696 5.76336 16.1991V16.1991C6.04761 16.7672 5.63452 17.4358 4.99928 17.4358V17.4358C4.36403 17.4358 3.95094 16.7672 4.23519 16.1991V16.1991Z" fill="white"/>
</g>
<defs>
<clipPath id="clip0_1_329">
<rect width="18.55" height="18.55" fill="white" transform="translate(0.838867 0.789551)"/>
</clipPath>
</defs>
</svg>
