<svg width="15" height="14" viewBox="0 0 15 14" fill="none" xmlns="http://www.w3.org/2000/svg">
<g clip-path="url(#clip0_1_6096)">
<path d="M6.96131 1.68652C3.81283 1.68652 1.2368 4.26255 1.2368 7.41103C1.2368 10.5595 3.81283 13.1355 6.96131 13.1355C10.1098 13.1355 12.6858 10.5595 12.6858 7.41103C12.6858 4.26255 10.1098 1.68652 6.96131 1.68652ZM6.96131 2.83142C7.55448 2.83142 8.12032 2.94913 8.64176 3.15678L6.96131 3.86228L5.28085 3.15678C5.8023 2.94913 6.36813 2.83142 6.96131 2.83142ZM3.4707 4.4571L3.58363 6.32315L2.39512 7.6749C2.39003 7.58702 2.3817 7.50013 2.3817 7.41103C2.3817 6.28754 2.79292 5.25612 3.4707 4.4571ZM10.4519 4.4571C11.1297 5.25612 11.5409 6.28754 11.5409 7.41103C11.5409 7.50013 11.5326 7.58702 11.5275 7.6749L10.339 6.32315L10.4519 4.4571ZM6.96131 5.3672L9.11247 6.92691L8.25268 9.45486H5.66994L4.81015 6.92691L6.96131 5.3672ZM3.08497 9.83277L4.90071 10.2733L5.81864 11.8397C4.67299 11.5422 3.70034 10.8118 3.08497 9.83277ZM10.8377 9.83277C10.2223 10.8118 9.24963 11.5422 8.10397 11.8397L9.02191 10.2733L10.8377 9.83277Z" fill="white"/>
</g>
<defs>
<clipPath id="clip0_1_6096">
<rect width="13.7399" height="13.7399" fill="white" transform="translate(0.382202 0.0654297)"/>
</clipPath>
</defs>
</svg>
