<svg width="19" height="18" viewBox="0 0 19 18" fill="none" xmlns="http://www.w3.org/2000/svg">
<g clip-path="url(#clip0_1_3110)">
<path d="M3.33013 0.619385C1.91317 0.619385 0.757488 1.77506 0.757488 3.19203V13.4826C0.757488 14.8996 1.91317 16.0552 3.33013 16.0552H5.3668L12.4684 17.7167C12.6593 17.7603 12.8435 17.7703 13.0311 17.7703C14.2036 17.7703 15.2755 16.9496 15.5502 15.7605L17.8548 5.73787C18.1697 4.3544 17.2787 2.97094 15.8986 2.65606L12.388 1.85211C11.9358 1.1185 11.1151 0.619385 10.1905 0.619385H3.33013ZM3.33013 2.33448H10.1905C10.6628 2.33448 11.0481 2.71971 11.0481 3.19203V13.4826C11.0481 13.9549 10.6628 14.3401 10.1905 14.3401H3.33013C2.85781 14.3401 2.47258 13.9549 2.47258 13.4826V3.19203C2.47258 2.71971 2.85781 2.33448 3.33013 2.33448ZM12.7631 3.70119L15.5234 4.31756C15.9857 4.4214 16.2704 4.90377 16.1665 5.36269L13.8619 15.3853C13.7547 15.8442 13.2958 16.1323 12.8435 16.0284L11.45 15.7069C12.2272 15.2647 12.7631 14.4406 12.7631 13.4826V3.70119ZM6.76032 4.04957C6.76032 4.04957 3.33013 6.82655 3.33013 8.39091C3.33013 9.43269 4.17763 10.2936 5.20601 10.2936C5.56444 10.2936 5.91952 10.1663 6.22435 9.97201L5.60799 11.7675H7.91265L7.29629 9.99881C7.57767 10.1797 7.91935 10.2936 8.31462 10.2936C9.34301 10.2936 10.1905 9.43269 10.1905 8.39091C10.1905 6.8299 6.76032 4.04957 6.76032 4.04957Z" fill="white"/>
</g>
<defs>
<clipPath id="clip0_1_3110">
<rect width="18" height="18" fill="white" transform="translate(0.42987)"/>
</clipPath>
</defs>
</svg>
