<svg width="19" height="20" viewBox="0 0 19 20" fill="none" xmlns="http://www.w3.org/2000/svg">
<g clip-path="url(#clip0_1_4408)">
<path d="M9.3418 2.52344C9.23926 2.52344 9.13672 2.53223 9.06055 2.57031L2.31055 5.57031H2.16992C1.87109 5.7959 1.79492 6.0918 1.79492 6.39063V13.75C1.79492 14.0488 1.94141 14.3535 2.24023 14.4297L8.99023 17.4297H9.43555L16.1855 14.4297C16.4844 14.2803 16.6543 14.0488 16.6543 13.75V6.39063C16.8799 6.0918 16.7158 5.79004 16.4902 5.64063L16.4199 5.57031L9.66992 2.57031C9.55859 2.53223 9.44434 2.52344 9.3418 2.52344ZM9.29492 4.07031L14.1699 6.25L9.29492 8.42969L4.41992 6.25L9.29492 4.07031ZM9.29492 5.73438C8.67383 5.73438 8.16992 5.95996 8.16992 6.25C8.16992 6.54004 8.67383 6.76563 9.29492 6.76563C9.91602 6.76563 10.4199 6.54004 10.4199 6.25C10.4199 5.95996 9.91602 5.73438 9.29492 5.73438ZM3.29492 7.375L5.68555 8.5L8.54492 9.76563V15.625L3.29492 13.3047V7.375ZM15.2949 7.375V13.2344L10.0449 15.625V9.76563L12.9043 8.5L15.2949 7.375ZM4.23242 8.35938C4.1416 8.34473 4.03906 8.35059 3.95117 8.38281C3.59961 8.51172 3.45313 8.99512 3.62305 9.46094C3.79297 9.92676 4.23242 10.2227 4.58398 10.0938C4.93555 9.96484 5.08203 9.48145 4.91211 9.01563C4.7832 8.66406 4.50781 8.40625 4.23242 8.35938ZM13.8652 9.20313C13.5898 9.25 13.3379 9.50781 13.209 9.85938C13.0391 10.3252 13.1855 10.8086 13.5371 10.9375C13.8887 11.0664 14.3047 10.7705 14.4746 10.3047C14.6445 9.83887 14.498 9.35547 14.1465 9.22656C14.0586 9.19434 13.9561 9.18848 13.8652 9.20313ZM5.73242 10.6094C5.6416 10.5947 5.53906 10.6006 5.45117 10.6328C5.09961 10.7617 4.95313 11.2451 5.12305 11.7109C5.29297 12.1768 5.73242 12.4727 6.08398 12.3438C6.43555 12.2148 6.58203 11.7314 6.41211 11.2656C6.2832 10.9141 6.00781 10.6563 5.73242 10.6094ZM11.4746 12.2734C11.2051 12.3086 10.9355 12.5371 10.8184 12.8594C10.6631 13.2871 10.8184 13.7383 11.1699 13.8672C11.5215 13.9961 11.9287 13.7324 12.084 13.3047C12.2393 12.877 12.084 12.4258 11.7324 12.2969C11.6445 12.2646 11.5654 12.2617 11.4746 12.2734ZM7.60742 12.8594C7.5166 12.8447 7.41406 12.8506 7.32617 12.8828C6.97461 13.0117 6.82813 13.4951 6.99805 13.9609C7.16797 14.4268 7.60742 14.7227 7.95898 14.5938C8.31055 14.4648 8.45703 13.9814 8.28711 13.5156C8.1582 13.1641 7.88281 12.9063 7.60742 12.8594Z" fill="white"/>
</g>
<defs>
<clipPath id="clip0_1_4408">
<rect width="18.55" height="18.55" fill="white" transform="translate(0.133789 0.724609)"/>
</clipPath>
</defs>
</svg>
