<svg width="22" height="22" viewBox="0 0 22 22" fill="none" xmlns="http://www.w3.org/2000/svg">
<g clip-path="url(#clip0_1_7063)">
<path d="M10.8528 2.76758C5.99213 2.76758 2.01526 6.74445 2.01526 11.6051C2.01526 16.4657 5.99213 20.4426 10.8528 20.4426C15.7134 20.4426 19.6903 16.4657 19.6903 11.6051C19.6903 6.74445 15.7134 2.76758 10.8528 2.76758ZM10.8528 4.53508C11.7685 4.53508 12.642 4.71679 13.447 5.03737L10.8528 6.12652L8.25847 5.03737C9.06347 4.71679 9.93701 4.53508 10.8528 4.53508ZM5.46395 7.04479L5.63829 9.92561L3.80347 12.0124C3.79562 11.8768 3.78276 11.7426 3.78276 11.6051C3.78276 9.87063 4.41759 8.27832 5.46395 7.04479ZM16.2416 7.04479C17.2879 8.27832 17.9228 9.87063 17.9228 11.6051C17.9228 11.7426 17.9099 11.8768 17.902 12.0124L16.0672 9.92561L16.2416 7.04479ZM10.8528 8.44981L14.1737 10.8577L12.8464 14.7603H8.85914L7.53179 10.8577L10.8528 8.44981ZM4.86846 15.3438L7.6716 16.0238L9.08871 18.4421C7.32005 17.9828 5.81847 16.8551 4.86846 15.3438ZM16.8371 15.3438C15.8871 16.8551 14.3855 17.9828 12.6168 18.4421L14.0339 16.0238L16.8371 15.3438Z" fill="white"/>
</g>
<defs>
<clipPath id="clip0_1_7063">
<rect width="21.2117" height="21.2117" fill="white" transform="translate(0.695923 0.263672)"/>
</clipPath>
</defs>
</svg>
