<svg width="20" height="20" viewBox="0 0 20 20" fill="none" xmlns="http://www.w3.org/2000/svg">
<g clip-path="url(#clip0_207_174)">
<path d="M3.13277 2.61719C2.07698 2.61719 1.23251 3.56136 1.36536 4.61528V4.61701C1.6301 6.69681 2.61211 8.20827 3.43456 9.41972C4.25701 10.6312 4.84814 11.5221 4.84814 12.3856C4.84648 12.5033 4.86822 12.6201 4.9121 12.7293C4.95598 12.8385 5.02113 12.9379 5.10375 13.0217C5.18638 13.1055 5.28484 13.1721 5.39341 13.2175C5.50198 13.2629 5.61849 13.2863 5.73618 13.2863C5.85387 13.2863 5.97038 13.2629 6.07895 13.2175C6.18752 13.1721 6.28598 13.1055 6.36861 13.0217C6.45123 12.9379 6.51638 12.8385 6.56026 12.7293C6.60414 12.6201 6.62589 12.5033 6.62422 12.3856C6.62422 12.3713 6.6209 12.3582 6.62075 12.344C7.48969 14.3093 8.4003 15.0498 8.4003 15.0498H11.9525C11.9525 15.0498 12.8631 14.3093 13.732 12.344C13.7319 12.3582 13.7285 12.3713 13.7285 12.3856C13.7269 12.5033 13.7486 12.6201 13.7925 12.7293C13.8364 12.8385 13.9015 12.9379 13.9842 13.0217C14.0668 13.1055 14.1652 13.1721 14.2738 13.2175C14.3824 13.2629 14.4989 13.2863 14.6166 13.2863C14.7343 13.2863 14.8508 13.2629 14.9594 13.2175C15.0679 13.1721 15.1664 13.1055 15.249 13.0217C15.3316 12.9379 15.3968 12.8385 15.4407 12.7293C15.4845 12.6201 15.5063 12.5033 15.5046 12.3856C15.5046 11.5221 16.0958 10.6312 16.9182 9.41972C17.7407 8.20827 18.7227 6.6968 18.9874 4.61701C19.1222 3.56159 18.2758 2.61719 17.22 2.61719H3.13277ZM17.2252 4.39153C17.0157 6.03707 16.2531 7.23814 15.4491 8.42241C15.1631 8.84372 14.8744 9.2726 14.6062 9.71284C14.9534 8.29455 15.2049 6.53866 15.2618 4.39327H17.22C17.2299 4.39327 17.2252 4.39153 17.2252 4.39153ZM3.12756 4.39327C3.1272 4.39042 3.1229 4.39327 3.13277 4.39327H5.09096C5.14784 6.53866 5.39939 8.29455 5.74659 9.71284C5.4784 9.2726 5.18967 8.84372 4.90364 8.42241C4.09994 7.23857 3.33736 6.03789 3.12756 4.39327ZM6.62422 16.8258C6.13402 16.8258 5.73618 17.2237 5.73618 17.7139C5.73618 18.2041 6.13402 18.6019 6.62422 18.6019H13.7285C14.2187 18.6019 14.6166 18.2041 14.6166 17.7139C14.6166 17.2237 14.2187 16.8258 13.7285 16.8258H6.62422Z" fill="white"/>
</g>
<defs>
<clipPath id="clip0_207_174">
<rect width="18.55" height="18.55" fill="white" transform="translate(0.838867 0.746094)"/>
</clipPath>
</defs>
</svg>
