<svg width="19" height="18" viewBox="0 0 19 18" fill="none" xmlns="http://www.w3.org/2000/svg">
<g clip-path="url(#clip0_1_2060)">
<path d="M3.32948 0.619385C1.91251 0.619385 0.756836 1.77506 0.756836 3.19203V13.4826C0.756836 14.8996 1.91251 16.0552 3.32948 16.0552H5.36615L12.4677 17.7167C12.6587 17.7603 12.8429 17.7703 13.0305 17.7703C14.2029 17.7703 15.2748 16.9496 15.5495 15.7605L17.8542 5.73787C18.1691 4.3544 17.278 2.97094 15.8979 2.65606L12.3873 1.85211C11.9351 1.1185 11.1144 0.619385 10.1899 0.619385H3.32948ZM3.32948 2.33448H10.1899C10.6622 2.33448 11.0474 2.71971 11.0474 3.19203V13.4826C11.0474 13.9549 10.6622 14.3401 10.1899 14.3401H3.32948C2.85716 14.3401 2.47193 13.9549 2.47193 13.4826V3.19203C2.47193 2.71971 2.85716 2.33448 3.32948 2.33448ZM12.7625 3.70119L15.5227 4.31756C15.985 4.4214 16.2697 4.90377 16.1659 5.36269L13.8612 15.3853C13.754 15.8442 13.2951 16.1323 12.8429 16.0284L11.4494 15.7069C12.2265 15.2647 12.7625 14.4406 12.7625 13.4826V3.70119ZM6.75967 4.04957C6.75967 4.04957 3.32948 6.82655 3.32948 8.39091C3.32948 9.43269 4.17698 10.2936 5.20536 10.2936C5.56379 10.2936 5.91887 10.1663 6.2237 9.97201L5.60734 11.7675H7.912L7.29563 9.99881C7.57702 10.1797 7.9187 10.2936 8.31397 10.2936C9.34236 10.2936 10.1899 9.43269 10.1899 8.39091C10.1899 6.8299 6.75967 4.04957 6.75967 4.04957Z" fill="white"/>
</g>
<defs>
<clipPath id="clip0_1_2060">
<rect width="18" height="18" fill="white" transform="translate(0.429688)"/>
</clipPath>
</defs>
</svg>
