<svg width="15" height="14" viewBox="0 0 15 14" fill="none" xmlns="http://www.w3.org/2000/svg">
<g clip-path="url(#clip0_1_5952)">
<path d="M6.96129 1.68652C3.81281 1.68652 1.23679 4.26255 1.23679 7.41103C1.23679 10.5595 3.81281 13.1355 6.96129 13.1355C10.1098 13.1355 12.6858 10.5595 12.6858 7.41103C12.6858 4.26255 10.1098 1.68652 6.96129 1.68652ZM6.96129 2.83142C7.55447 2.83142 8.12031 2.94913 8.64175 3.15678L6.96129 3.86228L5.28084 3.15678C5.80228 2.94913 6.36812 2.83142 6.96129 2.83142ZM3.47069 4.4571L3.58361 6.32315L2.3951 7.6749C2.39002 7.58702 2.38169 7.50013 2.38169 7.41103C2.38169 6.28754 2.7929 5.25612 3.47069 4.4571ZM10.4519 4.4571C11.1297 5.25612 11.5409 6.28754 11.5409 7.41103C11.5409 7.50013 11.5326 7.58702 11.5275 7.6749L10.339 6.32315L10.4519 4.4571ZM6.96129 5.3672L9.11246 6.92691L8.25266 9.45486H5.66993L4.81013 6.92691L6.96129 5.3672ZM3.08495 9.83277L4.90069 10.2733L5.81863 11.8397C4.67297 11.5422 3.70032 10.8118 3.08495 9.83277ZM10.8376 9.83277C10.2223 10.8118 9.24961 11.5422 8.10396 11.8397L9.02189 10.2733L10.8376 9.83277Z" fill="white"/>
</g>
<defs>
<clipPath id="clip0_1_5952">
<rect width="13.7399" height="13.7399" fill="white" transform="translate(0.382187 0.0654297)"/>
</clipPath>
</defs>
</svg>
