<svg width="22" height="22" viewBox="0 0 22 22" fill="none" xmlns="http://www.w3.org/2000/svg">
<g clip-path="url(#clip0_1_7068)">
<path d="M3.13252 4C2.07674 4 1.23227 4.94418 1.36511 5.99809V5.99983C1.62986 8.07962 2.61186 9.59108 3.43432 10.8025C4.25677 12.014 4.8479 12.9049 4.8479 13.7684C4.84623 13.8861 4.86797 14.003 4.91185 14.1122C4.95574 14.2214 5.02088 14.3207 5.10351 14.4046C5.18614 14.4884 5.2846 14.5549 5.39317 14.6003C5.50173 14.6457 5.61825 14.6691 5.73594 14.6691C5.85362 14.6691 5.97014 14.6457 6.07871 14.6003C6.18728 14.5549 6.28574 14.4884 6.36836 14.4046C6.45099 14.3207 6.51614 14.2214 6.56002 14.1122C6.6039 14.003 6.62564 13.8861 6.62398 13.7684C6.62398 13.7541 6.62066 13.7411 6.62051 13.7268C7.48944 15.6921 8.40006 16.4326 8.40006 16.4326H11.9522C11.9522 16.4326 12.8628 15.6921 13.7318 13.7268C13.7316 13.7411 13.7283 13.7541 13.7283 13.7684C13.7266 13.8861 13.7484 14.003 13.7923 14.1122C13.8361 14.2214 13.9013 14.3207 13.9839 14.4046C14.0665 14.4884 14.165 14.5549 14.2736 14.6003C14.3821 14.6457 14.4987 14.6691 14.6163 14.6691C14.734 14.6691 14.8505 14.6457 14.9591 14.6003C15.0677 14.5549 15.1661 14.4884 15.2488 14.4046C15.3314 14.3207 15.3965 14.2214 15.4404 14.1122C15.4843 14.003 15.506 13.8861 15.5044 13.7684C15.5044 12.9049 16.0955 12.014 16.918 10.8025C17.7404 9.59108 18.7224 8.07962 18.9872 5.99983C19.122 4.94441 18.2755 4 17.2198 4H3.13252ZM17.225 5.77435C17.0155 7.41989 16.2529 8.62096 15.4489 9.80522C15.1628 10.2265 14.8741 10.6554 14.6059 11.0957C14.9531 9.67736 15.2047 7.92147 15.2616 5.77608H17.2198C17.2296 5.77608 17.225 5.77435 17.225 5.77435ZM3.12732 5.77608C3.12696 5.77323 3.12265 5.77608 3.13252 5.77608H5.09072C5.1476 7.92147 5.39914 9.67736 5.74634 11.0957C5.47815 10.6554 5.18943 10.2265 4.9034 9.80522C4.0997 8.62139 3.33711 7.4207 3.12732 5.77608ZM6.62398 18.2086C6.13378 18.2086 5.73594 18.6065 5.73594 19.0967C5.73594 19.5869 6.13378 19.9847 6.62398 19.9847H13.7283C14.2185 19.9847 14.6163 19.5869 14.6163 19.0967C14.6163 18.6065 14.2185 18.2086 13.7283 18.2086H6.62398Z" fill="white"/>
</g>
<defs>
<clipPath id="clip0_1_7068">
<rect width="21.2117" height="21.2117" fill="white" transform="translate(0.391846 0.263672)"/>
</clipPath>
</defs>
</svg>
