<svg width="19" height="18" viewBox="0 0 19 18" fill="none" xmlns="http://www.w3.org/2000/svg">
<g clip-path="url(#clip0_1_2932)">
<path d="M3.33021 0.619385C1.91325 0.619385 0.757568 1.77506 0.757568 3.19203V13.4826C0.757568 14.8996 1.91325 16.0552 3.33021 16.0552H5.36688L12.4684 17.7167C12.6594 17.7603 12.8436 17.7703 13.0312 17.7703C14.2036 17.7703 15.2756 16.9496 15.5503 15.7605L17.8549 5.73787C18.1698 4.3544 17.2788 2.97094 15.8986 2.65606L12.3881 1.85211C11.9358 1.1185 11.1151 0.619385 10.1906 0.619385H3.33021ZM3.33021 2.33448H10.1906C10.6629 2.33448 11.0481 2.71971 11.0481 3.19203V13.4826C11.0481 13.9549 10.6629 14.3401 10.1906 14.3401H3.33021C2.85789 14.3401 2.47266 13.9549 2.47266 13.4826V3.19203C2.47266 2.71971 2.85789 2.33448 3.33021 2.33448ZM12.7632 3.70119L15.5235 4.31756C15.9857 4.4214 16.2705 4.90377 16.1666 5.36269L13.862 15.3853C13.7548 15.8442 13.2958 16.1323 12.8436 16.0284L11.4501 15.7069C12.2273 15.2647 12.7632 14.4406 12.7632 13.4826V3.70119ZM6.7604 4.04957C6.7604 4.04957 3.33021 6.82655 3.33021 8.39091C3.33021 9.43269 4.17771 10.2936 5.20609 10.2936C5.56452 10.2936 5.9196 10.1663 6.22443 9.97201L5.60807 11.7675H7.91273L7.29637 9.99881C7.57775 10.1797 7.91943 10.2936 8.3147 10.2936C9.34309 10.2936 10.1906 9.43269 10.1906 8.39091C10.1906 6.8299 6.7604 4.04957 6.7604 4.04957Z" fill="white"/>
</g>
<defs>
<clipPath id="clip0_1_2932">
<rect width="18" height="18" fill="white" transform="translate(0.429932)"/>
</clipPath>
</defs>
</svg>
