<svg width="15" height="14" viewBox="0 0 15 14" fill="none" xmlns="http://www.w3.org/2000/svg">
<g clip-path="url(#clip0_1_5663)">
<g clip-path="url(#clip1_1_5663)">
<path d="M2.11197 2.48535C1.42808 2.48535 0.881074 3.09694 0.967126 3.77962V3.78074C1.13862 5.12793 1.77471 6.10698 2.30746 6.8917C2.8402 7.67642 3.22311 8.2535 3.22311 8.81288C3.22203 8.88911 3.23611 8.96478 3.26453 9.03552C3.29296 9.10625 3.33516 9.17063 3.38868 9.22492C3.4422 9.2792 3.50598 9.32231 3.57631 9.35173C3.64663 9.38115 3.7221 9.3963 3.79834 9.3963C3.87457 9.3963 3.95004 9.38115 4.02037 9.35173C4.09069 9.32231 4.15447 9.2792 4.20799 9.22492C4.26151 9.17063 4.30371 9.10625 4.33214 9.03552C4.36056 8.96478 4.37464 8.88911 4.37357 8.81288C4.37357 8.80362 4.37141 8.79514 4.37132 8.78592C4.93417 10.0589 5.52403 10.5386 5.52403 10.5386H7.82495C7.82495 10.5386 8.4148 10.0589 8.97765 8.78592C8.97756 8.79514 8.97541 8.80362 8.97541 8.81288C8.97433 8.88911 8.98841 8.96478 9.01683 9.03552C9.04526 9.10625 9.08746 9.17063 9.14098 9.22492C9.1945 9.2792 9.25828 9.32231 9.3286 9.35173C9.39893 9.38115 9.4744 9.3963 9.55064 9.3963C9.62687 9.3963 9.70234 9.38115 9.77267 9.35173C9.84299 9.32231 9.90677 9.2792 9.96029 9.22492C10.0138 9.17063 10.056 9.10625 10.0844 9.03552C10.1129 8.96478 10.1269 8.88911 10.1259 8.81288C10.1259 8.2535 10.5088 7.67642 11.0415 6.8917C11.5743 6.10698 12.2104 5.12793 12.3818 3.78074C12.4692 3.09709 11.9209 2.48535 11.237 2.48535H2.11197ZM11.2404 3.63469C11.1047 4.70059 10.6107 5.47858 10.0899 6.24569C9.90463 6.5186 9.71762 6.79641 9.54389 7.08157C9.7688 6.16287 9.93173 5.02549 9.96858 3.63581H11.237C11.2434 3.63581 11.2404 3.63469 11.2404 3.63469ZM2.1086 3.63581C2.10836 3.63396 2.10558 3.63581 2.11197 3.63581H3.3804C3.41724 5.02549 3.58018 6.16287 3.80508 7.08157C3.63136 6.79641 3.44434 6.5186 3.25906 6.24569C2.73846 5.47886 2.24449 4.70112 2.1086 3.63581ZM4.37357 11.689C4.05604 11.689 3.79834 11.9467 3.79834 12.2643C3.79834 12.5818 4.05604 12.8395 4.37357 12.8395H8.97541C9.29293 12.8395 9.55064 12.5818 9.55064 12.2643C9.55064 11.9467 9.29293 11.689 8.97541 11.689H4.37357Z" fill="white"/>
</g>
</g>
<defs>
<clipPath id="clip0_1_5663">
<rect width="13.7399" height="13.7399" fill="white" transform="translate(0.336548 0.0654297)"/>
</clipPath>
<clipPath id="clip1_1_5663">
<rect width="13.7388" height="13.7388" fill="white" transform="translate(0.0462036 0.541992)"/>
</clipPath>
</defs>
</svg>
