<svg width="22" height="22" viewBox="0 0 22 22" fill="none" xmlns="http://www.w3.org/2000/svg">
<g clip-path="url(#clip0_1_5078)">
<path d="M10.6851 1.48926C5.85243 1.48926 1.93506 5.40663 1.93506 10.2393C1.93506 15.0719 5.85243 18.9893 10.6851 18.9893C15.5177 18.9893 19.4351 15.0719 19.4351 10.2393C19.4351 5.40663 15.5177 1.48926 10.6851 1.48926ZM12.9478 13.7393L10.0664 10.8579C9.90193 10.6934 9.81006 10.4711 9.81006 10.2393V5.86426C9.81006 5.38126 10.2021 4.98926 10.6851 4.98926C11.1681 4.98926 11.5601 5.38126 11.5601 5.86426V9.87701L14.1851 12.502C14.5263 12.8433 14.5263 13.398 14.1851 13.7393C13.8438 14.0805 13.2891 14.0805 12.9478 13.7393Z" fill="white"/>
</g>
<defs>
<clipPath id="clip0_1_5078">
<rect width="21.2117" height="21.2117" fill="white" transform="translate(0.185059 0.00292969)"/>
</clipPath>
</defs>
</svg>
