<svg width="19" height="18" viewBox="0 0 19 18" fill="none" xmlns="http://www.w3.org/2000/svg">
<g clip-path="url(#clip0_1_5225)">
<path d="M3.33021 0.619141C1.91325 0.619141 0.757568 1.77482 0.757568 3.19178V13.4823C0.757568 14.8993 1.91325 16.055 3.33021 16.055H5.36688L12.4684 17.7165C12.6594 17.76 12.8436 17.7701 13.0312 17.7701C14.2036 17.7701 15.2756 16.9494 15.5503 15.7602L17.8549 5.73763C18.1698 4.35416 17.2788 2.9707 15.8986 2.65582L12.3881 1.85186C11.9358 1.11826 11.1151 0.619141 10.1906 0.619141H3.33021ZM3.33021 2.33423H10.1906C10.6629 2.33423 11.0481 2.71946 11.0481 3.19178V13.4823C11.0481 13.9547 10.6629 14.3399 10.1906 14.3399H3.33021C2.85789 14.3399 2.47266 13.9547 2.47266 13.4823V3.19178C2.47266 2.71946 2.85789 2.33423 3.33021 2.33423ZM12.7632 3.70095L15.5235 4.31731C15.9857 4.42116 16.2705 4.90353 16.1666 5.36245L13.862 15.385C13.7548 15.844 13.2958 16.132 12.8436 16.0282L11.4501 15.7066C12.2273 15.2644 12.7632 14.4404 12.7632 13.4823V3.70095ZM6.7604 4.04933C6.7604 4.04933 3.33021 6.82631 3.33021 8.39066C3.33021 9.43245 4.17771 10.2933 5.20609 10.2933C5.56452 10.2933 5.9196 10.1661 6.22443 9.97176L5.60807 11.7673H7.91273L7.29637 9.99856C7.57775 10.1795 7.91943 10.2933 8.3147 10.2933C9.34309 10.2933 10.1906 9.43245 10.1906 8.39066C10.1906 6.82966 6.7604 4.04933 6.7604 4.04933Z" fill="white"/>
</g>
<defs>
<clipPath id="clip0_1_5225">
<rect width="18" height="18" fill="white" transform="translate(0.429932)"/>
</clipPath>
</defs>
</svg>
