<svg width="20" height="20" viewBox="0 0 20 20" fill="none" xmlns="http://www.w3.org/2000/svg">
<g clip-path="url(#clip0_1_6243)">
<path d="M9.60505 1.7666C4.74442 1.7666 0.767548 5.74348 0.767548 10.6041C0.767548 15.4647 4.74442 19.4416 9.60505 19.4416C14.4657 19.4416 18.4425 15.4647 18.4425 10.6041C18.4425 5.74348 14.4657 1.7666 9.60505 1.7666ZM9.60505 3.5341C10.5208 3.5341 11.3943 3.71581 12.1993 4.03639L9.60505 5.12554L7.01076 4.03639C7.81576 3.71581 8.6893 3.5341 9.60505 3.5341ZM4.21624 6.04381L4.39058 8.92463L2.55576 11.0115C2.54791 10.8758 2.53505 10.7416 2.53505 10.6041C2.53505 8.86965 3.16988 7.27734 4.21624 6.04381ZM14.9939 6.04381C16.0402 7.27734 16.675 8.86965 16.675 10.6041C16.675 10.7416 16.6622 10.8758 16.6543 11.0115L14.8195 8.92463L14.9939 6.04381ZM9.60505 7.44884L12.926 9.85671L11.5987 13.7594H7.61143L6.28408 9.85671L9.60505 7.44884ZM3.62075 14.3428L6.42389 15.0229L7.841 17.4411C6.07234 16.9818 4.57076 15.8542 3.62075 14.3428ZM15.5893 14.3428C14.6393 15.8542 13.1378 16.9818 11.3691 17.4411L12.7862 15.0229L15.5893 14.3428Z" fill="white"/>
</g>
<defs>
<clipPath id="clip0_1_6243">
<rect width="18.55" height="18.55" fill="white" transform="translate(0.839081 0.511719)"/>
</clipPath>
</defs>
</svg>
