<svg width="15" height="14" viewBox="0 0 15 14" fill="none" xmlns="http://www.w3.org/2000/svg">
<g clip-path="url(#clip0_1_5375)">
<g clip-path="url(#clip1_1_5375)">
<path d="M2.11203 2.48535C1.42814 2.48535 0.881136 3.09694 0.967187 3.77962V3.78074C1.13868 5.12793 1.77477 6.10698 2.30752 6.8917C2.84026 7.67642 3.22317 8.2535 3.22317 8.81288C3.22209 8.88911 3.23617 8.96478 3.2646 9.03552C3.29302 9.10625 3.33522 9.17063 3.38874 9.22492C3.44226 9.2792 3.50604 9.32231 3.57637 9.35173C3.64669 9.38115 3.72216 9.3963 3.7984 9.3963C3.87463 9.3963 3.9501 9.38115 4.02043 9.35173C4.09075 9.32231 4.15453 9.2792 4.20805 9.22492C4.26157 9.17063 4.30377 9.10625 4.3322 9.03552C4.36062 8.96478 4.3747 8.88911 4.37363 8.81288C4.37363 8.80362 4.37148 8.79514 4.37138 8.78592C4.93423 10.0589 5.52409 10.5386 5.52409 10.5386H7.82501C7.82501 10.5386 8.41486 10.0589 8.97771 8.78592C8.97762 8.79514 8.97547 8.80362 8.97547 8.81288C8.97439 8.88911 8.98847 8.96478 9.0169 9.03552C9.04532 9.10625 9.08752 9.17063 9.14104 9.22492C9.19456 9.2792 9.25834 9.32231 9.32867 9.35173C9.39899 9.38115 9.47446 9.3963 9.5507 9.3963C9.62693 9.3963 9.7024 9.38115 9.77273 9.35173C9.84305 9.32231 9.90683 9.2792 9.96035 9.22492C10.0139 9.17063 10.0561 9.10625 10.0845 9.03552C10.1129 8.96478 10.127 8.88911 10.1259 8.81288C10.1259 8.2535 10.5088 7.67642 11.0416 6.8917C11.5743 6.10698 12.2104 5.12793 12.3819 3.78074C12.4692 3.09709 11.9209 2.48535 11.2371 2.48535H2.11203ZM11.2404 3.63469C11.1048 4.70059 10.6108 5.47858 10.09 6.24569C9.90469 6.5186 9.71768 6.79641 9.54396 7.08157C9.76886 6.16287 9.93179 5.02549 9.96864 3.63581H11.2371C11.2435 3.63581 11.2404 3.63469 11.2404 3.63469ZM2.10866 3.63581C2.10843 3.63396 2.10564 3.63581 2.11203 3.63581H3.38046C3.4173 5.02549 3.58024 6.16287 3.80514 7.08157C3.63142 6.79641 3.4444 6.5186 3.25912 6.24569C2.73852 5.47886 2.24455 4.70112 2.10866 3.63581ZM4.37363 11.689C4.0561 11.689 3.7984 11.9467 3.7984 12.2643C3.7984 12.5818 4.0561 12.8395 4.37363 12.8395H8.97547C9.29299 12.8395 9.5507 12.5818 9.5507 12.2643C9.5507 11.9467 9.29299 11.689 8.97547 11.689H4.37363Z" fill="white"/>
</g>
</g>
<defs>
<clipPath id="clip0_1_5375">
<rect width="13.7399" height="13.7399" fill="white" transform="translate(0.33667 0.0654297)"/>
</clipPath>
<clipPath id="clip1_1_5375">
<rect width="13.7388" height="13.7388" fill="white" transform="translate(0.0462646 0.541992)"/>
</clipPath>
</defs>
</svg>
