<svg width="22" height="22" viewBox="0 0 22 22" fill="none" xmlns="http://www.w3.org/2000/svg">
<g clip-path="url(#clip0_1_4440)">
<path d="M9.72107 3.78125C9.2523 3.78125 8.80273 3.96747 8.47126 4.29894C8.13979 4.63041 7.95357 5.07998 7.95357 5.54875C7.95357 6.01752 8.13979 6.46709 8.47126 6.79856C8.80273 7.13003 9.2523 7.31625 9.72107 7.31625C10.1898 7.31625 10.6394 7.13003 10.9709 6.79856C11.3024 6.46709 11.4886 6.01752 11.4886 5.54875C11.4886 5.07998 11.3024 4.63041 10.9709 4.29894C10.6394 3.96747 10.1898 3.78125 9.72107 3.78125ZM17.5074 6.44113C17.3431 6.42622 17.1756 6.42833 17.0068 6.44631C16.3319 6.51821 15.6417 6.8466 15.0978 7.39047C14.1307 8.3576 13.8477 9.78136 14.4799 10.7701L13.2561 11.9939V11.735H10.8033L9.8091 9.87084C9.8091 9.87084 9.78433 9.82471 9.78149 9.81906L9.60888 9.49628L9.60715 9.49801C9.55544 9.40147 9.53436 9.35244 9.48978 9.28052C9.09298 8.63273 8.38175 8.2 7.56693 8.2C6.81663 8.2 6.14361 8.55857 5.74592 9.13035C5.09637 10.0671 3.74112 11.7977 3.55554 12.8397C3.54228 12.9175 3.53482 12.9908 3.53482 13.0606C3.53482 13.2665 3.69626 14.0233 3.76784 14.3017C3.9932 15.1739 4.29767 16.2848 4.41167 16.6975L1.8916 19.3677L3.18788 20.5673L5.9496 17.6382C6.10161 17.4747 6.18607 17.2602 6.18607 17.0375V14.3379C6.18607 14.1241 6.26304 13.9171 6.40356 13.7562L8.56288 11.2931L9.49323 13.0347C9.56866 13.1761 9.6811 13.2943 9.81853 13.3767C9.95595 13.4591 10.1132 13.5026 10.2734 13.5025H13.2561V13.2436L15.1047 11.395C16.0935 12.0272 17.5172 11.7442 18.4844 10.777C19.5718 9.68959 19.8007 8.02011 18.8278 7.04698C18.4627 6.68187 18.0004 6.48586 17.5074 6.44113ZM17.3917 7.32315C17.7106 7.34718 17.9961 7.46493 18.203 7.67182H18.2047C18.756 8.22244 18.677 9.33467 17.8595 10.1522C17.0419 10.9698 15.9309 11.0474 15.3791 10.4957C14.8274 9.94396 14.905 8.83293 15.7226 8.01531C16.1314 7.6065 16.6148 7.38299 17.0638 7.33006C17.176 7.31683 17.2855 7.31515 17.3917 7.32315ZM18.5586 13.5025C18.3242 13.5025 18.0994 13.5956 17.9337 13.7613C17.7679 13.9271 17.6748 14.1519 17.6748 14.3863C17.6748 14.6206 17.7679 14.8454 17.9337 15.0112C18.0994 15.1769 18.3242 15.27 18.5586 15.27C18.793 15.27 19.0177 15.1769 19.1835 15.0112C19.3492 14.8454 19.4423 14.6206 19.4423 14.3863C19.4423 14.1519 19.3492 13.9271 19.1835 13.7613C19.0177 13.5956 18.793 13.5025 18.5586 13.5025ZM7.21827 14.1688L7.06982 14.3379V16.5197L8.04506 17.4949L8.86667 20.5259L10.5755 20.0702L9.69173 16.8097C9.65108 16.6594 9.57263 16.5222 9.46216 16.4127L7.21827 14.1688Z" fill="url(#paint0_linear_1_4440)"/>
</g>
<defs>
<linearGradient id="paint0_linear_1_4440" x1="19.0353" y1="2.02457" x2="5.40699" y2="22.6972" gradientUnits="userSpaceOnUse">
<stop stop-color="#00CB08"/>
<stop offset="1" stop-color="#00BF6F"/>
</linearGradient>
<clipPath id="clip0_1_4440">
<rect width="21.2117" height="21.2117" fill="white" transform="translate(0.292969 0.393555)"/>
</clipPath>
</defs>
</svg>
