<svg width="22" height="22" viewBox="0 0 22 22" fill="none" xmlns="http://www.w3.org/2000/svg">
<g clip-path="url(#clip0_1_5236)">
<path d="M7.18619 2.76714C6.20923 2.76714 5.41869 3.55768 5.41869 4.53464C5.41869 5.5116 6.20923 6.30214 7.18619 6.30214C8.16314 6.30214 8.95369 5.5116 8.95369 4.53464C8.95369 3.55768 8.16314 2.76714 7.18619 2.76714ZM16.7141 2.76714C16.4345 2.80166 16.2999 2.93284 16.2999 2.93284L7.02048 12.1846C6.79264 12.4124 6.79264 12.7853 7.02048 13.0131L10.1965 16.1891C10.4243 16.4169 10.7971 16.4169 11.025 16.1891L20.2767 6.90972C20.2767 6.90972 21.0362 5.90169 19.172 4.03753C18.0052 2.87071 17.1802 2.70845 16.7141 2.76714ZM6.77193 14.0902V14.4768C6.77538 14.8635 6.63039 15.2536 6.35767 15.5263L2.93314 18.9232C2.69839 19.1579 2.69839 19.5446 2.93314 19.7793L3.43025 20.2764C3.665 20.5112 4.05164 20.5112 4.28638 20.2764L7.6833 16.8519C7.96292 16.5723 8.3392 16.4307 8.73275 16.4376H9.11939L6.77193 14.0902Z" fill="url(#paint0_linear_1_5236)"/>
</g>
<defs>
<linearGradient id="paint0_linear_1_5236" x1="20.0188" y1="0.904963" x2="5.4029" y2="22.0809" gradientUnits="userSpaceOnUse">
<stop stop-color="#00CB08"/>
<stop offset="1" stop-color="#00BF6F"/>
</linearGradient>
<clipPath id="clip0_1_5236">
<rect width="21.2117" height="21.2117" fill="white" transform="translate(0.729736 0.263672)"/>
</clipPath>
</defs>
</svg>
