<svg width="15" height="14" viewBox="0 0 15 14" fill="none" xmlns="http://www.w3.org/2000/svg">
<g clip-path="url(#clip0_1_5478)">
<path d="M6.96145 1.68701C3.81297 1.68701 1.23694 4.26304 1.23694 7.41152C1.23694 10.56 3.81297 13.136 6.96145 13.136C10.1099 13.136 12.686 10.56 12.686 7.41152C12.686 4.26304 10.1099 1.68701 6.96145 1.68701ZM6.96145 2.83191C7.55462 2.83191 8.12046 2.94962 8.6419 3.15727L6.96145 3.86277L5.28099 3.15727C5.80243 2.94962 6.36827 2.83191 6.96145 2.83191ZM3.47084 4.45758L3.58376 6.32364L2.39526 7.67538C2.39017 7.5875 2.38184 7.50061 2.38184 7.41152C2.38184 6.28803 2.79305 5.2566 3.47084 4.45758ZM10.4521 4.45758C11.1298 5.2566 11.5411 6.28803 11.5411 7.41152C11.5411 7.50061 11.5327 7.5875 11.5276 7.67538L10.3391 6.32364L10.4521 4.45758ZM6.96145 5.36769L9.11261 6.9274L8.25281 9.45535H5.67008L4.81028 6.9274L6.96145 5.36769ZM3.0851 9.83325L4.90085 10.2738L5.81878 11.8402C4.67313 11.5427 3.70047 10.8123 3.0851 9.83325ZM10.8378 9.83325C10.2224 10.8123 9.24977 11.5427 8.10411 11.8402L9.02205 10.2738L10.8378 9.83325Z" fill="white"/>
</g>
<defs>
<clipPath id="clip0_1_5478">
<rect width="13.7399" height="13.7399" fill="white" transform="translate(0.382324 0.0654297)"/>
</clipPath>
</defs>
</svg>
