<svg width="19" height="18" viewBox="0 0 19 18" fill="none" xmlns="http://www.w3.org/2000/svg">
<g clip-path="url(#clip0_1_4418)">
<path d="M3.32948 0.619141C1.91251 0.619141 0.756836 1.77482 0.756836 3.19178V13.4823C0.756836 14.8993 1.91251 16.055 3.32948 16.055H5.36615L12.4677 17.7165C12.6587 17.76 12.8429 17.7701 13.0305 17.7701C14.2029 17.7701 15.2748 16.9494 15.5495 15.7602L17.8542 5.73763C18.1691 4.35416 17.278 2.9707 15.8979 2.65582L12.3873 1.85186C11.9351 1.11826 11.1144 0.619141 10.1899 0.619141H3.32948ZM3.32948 2.33423H10.1899C10.6622 2.33423 11.0474 2.71946 11.0474 3.19178V13.4823C11.0474 13.9547 10.6622 14.3399 10.1899 14.3399H3.32948C2.85716 14.3399 2.47193 13.9547 2.47193 13.4823V3.19178C2.47193 2.71946 2.85716 2.33423 3.32948 2.33423ZM12.7625 3.70095L15.5227 4.31731C15.985 4.42116 16.2697 4.90353 16.1659 5.36245L13.8612 15.385C13.754 15.844 13.2951 16.132 12.8429 16.0282L11.4494 15.7066C12.2265 15.2644 12.7625 14.4404 12.7625 13.4823V3.70095ZM6.75967 4.04933C6.75967 4.04933 3.32948 6.82631 3.32948 8.39066C3.32948 9.43245 4.17698 10.2933 5.20536 10.2933C5.56379 10.2933 5.91887 10.1661 6.2237 9.97176L5.60734 11.7673H7.912L7.29563 9.99856C7.57702 10.1795 7.9187 10.2933 8.31397 10.2933C9.34236 10.2933 10.1899 9.43245 10.1899 8.39066C10.1899 6.82966 6.75967 4.04933 6.75967 4.04933Z" fill="white"/>
</g>
<defs>
<clipPath id="clip0_1_4418">
<rect width="18" height="18" fill="white" transform="translate(0.429688)"/>
</clipPath>
</defs>
</svg>
