<svg width="19" height="18" viewBox="0 0 19 18" fill="none" xmlns="http://www.w3.org/2000/svg">
<g clip-path="url(#clip0_1_6318)">
<path d="M3.33012 0.619141C1.91316 0.619141 0.757477 1.77482 0.757477 3.19178V13.4823C0.757477 14.8993 1.91316 16.055 3.33012 16.055H5.36679L12.4684 17.7165C12.6593 17.76 12.8435 17.7701 13.0311 17.7701C14.2035 17.7701 15.2755 16.9494 15.5502 15.7602L17.8548 5.73763C18.1697 4.35416 17.2787 2.9707 15.8985 2.65582L12.388 1.85186C11.9357 1.11826 11.115 0.619141 10.1905 0.619141H3.33012ZM3.33012 2.33423H10.1905C10.6628 2.33423 11.048 2.71946 11.048 3.19178V13.4823C11.048 13.9547 10.6628 14.3399 10.1905 14.3399H3.33012C2.8578 14.3399 2.47257 13.9547 2.47257 13.4823V3.19178C2.47257 2.71946 2.8578 2.33423 3.33012 2.33423ZM12.7631 3.70095L15.5234 4.31731C15.9856 4.42116 16.2704 4.90353 16.1665 5.36245L13.8619 15.385C13.7547 15.844 13.2958 16.132 12.8435 16.0282L11.45 15.7066C12.2272 15.2644 12.7631 14.4404 12.7631 13.4823V3.70095ZM6.76031 4.04933C6.76031 4.04933 3.33012 6.82631 3.33012 8.39066C3.33012 9.43245 4.17762 10.2933 5.206 10.2933C5.56443 10.2933 5.91951 10.1661 6.22434 9.97176L5.60798 11.7673H7.91264L7.29627 9.99856C7.57766 10.1795 7.91934 10.2933 8.31461 10.2933C9.343 10.2933 10.1905 9.43245 10.1905 8.39066C10.1905 6.82966 6.76031 4.04933 6.76031 4.04933Z" fill="white"/>
</g>
<defs>
<clipPath id="clip0_1_6318">
<rect width="18" height="18" fill="white" transform="translate(0.429871)"/>
</clipPath>
</defs>
</svg>
