<svg width="23" height="23" viewBox="0 0 23 23" fill="none" xmlns="http://www.w3.org/2000/svg">
<g clip-path="url(#clip0_1_4694)">
<path d="M11.0982 3.39844C6.23762 3.39844 2.26074 7.37531 2.26074 12.2359C2.26074 17.0966 6.23762 21.0734 11.0982 21.0734C15.9589 21.0734 19.9357 17.0966 19.9357 12.2359C19.9357 7.37531 15.9589 3.39844 11.0982 3.39844ZM11.0982 5.16594C12.014 5.16594 12.8875 5.34765 13.6925 5.66822L11.0982 6.75738L8.50395 5.66822C9.30896 5.34765 10.1825 5.16594 11.0982 5.16594ZM5.70944 7.67565L5.88377 10.5565L4.04896 12.6433C4.0411 12.5076 4.02824 12.3735 4.02824 12.2359C4.02824 10.5015 4.66307 8.90918 5.70944 7.67565ZM16.487 7.67565C17.5334 8.90918 18.1682 10.5015 18.1682 12.2359C18.1682 12.3735 18.1554 12.5076 18.1475 12.6433L16.3127 10.5565L16.487 7.67565ZM11.0982 9.08067L14.4192 11.4885L13.0919 15.3912H9.10463L7.77728 11.4885L11.0982 9.08067ZM5.11394 15.9746L7.91709 16.6547L9.33419 19.0729C7.56553 18.6136 6.06395 17.486 5.11394 15.9746ZM17.0825 15.9746C16.1325 17.486 14.631 18.6136 12.8623 19.0729L14.2794 16.6547L17.0825 15.9746Z" fill="white"/>
</g>
<defs>
<clipPath id="clip0_1_4694">
<rect width="21.2117" height="21.2117" fill="white" transform="translate(0.941406 0.894531)"/>
</clipPath>
</defs>
</svg>
