<svg width="22" height="22" viewBox="0 0 22 22" fill="none" xmlns="http://www.w3.org/2000/svg">
<g clip-path="url(#clip0_1_4430)">
<path d="M7.18594 2.89702C6.20898 2.89702 5.41844 3.68756 5.41844 4.66452C5.41844 5.64148 6.20898 6.43202 7.18594 6.43202C8.1629 6.43202 8.95344 5.64148 8.95344 4.66452C8.95344 3.68756 8.1629 2.89702 7.18594 2.89702ZM16.7139 2.89702C16.4342 2.93154 16.2996 3.06273 16.2996 3.06273L7.02024 12.3145C6.7924 12.5423 6.7924 12.9152 7.02024 13.143L10.1962 16.319C10.4241 16.5468 10.7969 16.5468 11.0247 16.319L20.2765 7.0396C20.2765 7.0396 21.036 6.03157 19.1718 4.16741C18.005 3.00059 17.1799 2.83834 16.7139 2.89702ZM6.77168 14.2201V14.6067C6.77514 14.9934 6.63015 15.3834 6.35743 15.6562L2.9329 19.0531C2.69815 19.2878 2.69815 19.6745 2.9329 19.9092L3.43 20.4063C3.66475 20.6411 4.05139 20.6411 4.28614 20.4063L7.68305 16.9818C7.96268 16.7022 8.33896 16.5606 8.7325 16.5675H9.11915L6.77168 14.2201Z" fill="url(#paint0_linear_1_4430)"/>
</g>
<defs>
<linearGradient id="paint0_linear_1_4430" x1="20.0186" y1="1.03485" x2="5.40266" y2="22.2108" gradientUnits="userSpaceOnUse">
<stop stop-color="#00CB08"/>
<stop offset="1" stop-color="#00BF6F"/>
</linearGradient>
<clipPath id="clip0_1_4430">
<rect width="21.2117" height="21.2117" fill="white" transform="translate(0.729492 0.393555)"/>
</clipPath>
</defs>
</svg>
