<svg width="20" height="19" viewBox="0 0 20 19" fill="none" xmlns="http://www.w3.org/2000/svg">
<g clip-path="url(#clip0_1_6266)">
<path d="M4.99958 0.774414C2.80219 0.774414 0.999397 2.5772 0.999397 4.7746C0.999397 6.972 2.80219 8.77478 4.99958 8.77478C7.19698 8.77478 8.99977 6.972 8.99977 4.7746C8.99977 2.5772 7.19698 0.774414 4.99958 0.774414ZM13 0.774414C11.9068 0.774414 10.9999 1.68139 10.9999 2.77451V6.77469C10.9999 7.86781 11.9068 8.77478 13 8.77478H17.0001C18.0933 8.77478 19.0002 7.86781 19.0002 6.77469V2.77451C19.0002 1.68139 18.0933 0.774414 17.0001 0.774414H13ZM4.99958 2.77451C6.11605 2.77451 6.99967 3.65813 6.99967 4.7746C6.99967 5.89106 6.11605 6.77469 4.99958 6.77469C3.88312 6.77469 2.99949 5.89106 2.99949 4.7746C2.99949 3.65813 3.88312 2.77451 4.99958 2.77451ZM13 4.7746C13 3.66998 13.8954 2.77451 15 2.77451V2.77451C16.1047 2.77451 17.0001 3.66998 17.0001 4.7746V4.7746C17.0001 5.87922 16.1047 6.77469 15 6.77469V6.77469C13.8954 6.77469 13 5.87922 13 4.7746V4.7746ZM14.5274 10.5092C14.307 10.5029 14.0907 10.5695 13.9121 10.6987L10.617 13.0933C10.4464 13.2174 10.3193 13.3923 10.254 13.593C10.1888 13.7937 10.1887 14.0098 10.2537 14.2106L11.5136 18.0838C11.5788 18.2848 11.7059 18.4599 11.8768 18.5841C12.0477 18.7083 12.2535 18.7752 12.4648 18.7752H16.5353C16.7465 18.7752 16.9524 18.7083 17.1232 18.5841C17.2941 18.4599 17.4213 18.2848 17.4865 18.0838L18.7463 14.2106C18.8114 14.0098 18.8112 13.7937 18.746 13.593C18.6807 13.3923 18.5537 13.2174 18.383 13.0933L15.0879 10.6987C14.9245 10.5805 14.7291 10.5144 14.5274 10.5092ZM5.0074 10.7749C4.82034 10.7734 4.63662 10.8244 4.47711 10.9221C4.31759 11.0198 4.18868 11.1603 4.10501 11.3276L1.10487 17.3279C1.02865 17.4804 0.992669 17.6498 1.00034 17.8201C1.00802 17.9904 1.05909 18.1559 1.14872 18.3009C1.23835 18.4459 1.36355 18.5656 1.51244 18.6487C1.66133 18.7317 1.82897 18.7752 1.99944 18.7752H7.99972C8.17019 18.7752 8.33783 18.7317 8.48672 18.6487C8.63562 18.5656 8.76082 18.4459 8.85045 18.3009C8.94007 18.1559 8.99115 17.9904 8.99882 17.8201C9.0065 17.6498 8.97051 17.4804 8.89429 17.3279L5.89415 11.3276C5.81167 11.1627 5.6852 11.0238 5.5287 10.9262C5.37221 10.8287 5.1918 10.7763 5.0074 10.7749ZM13.4396 13.5149C14.0715 13.0553 14.9281 13.055 15.5601 13.5146V13.5146C16.1916 13.9738 16.4556 14.7877 16.2139 15.5303V15.5303C15.9723 16.2726 15.28 16.7752 14.4994 16.7752V16.7752C13.7184 16.7752 13.0261 16.2722 12.7849 15.5294V15.5294C12.5439 14.7872 12.8084 13.9738 13.4396 13.5149V13.5149ZM4.2355 15.5384C4.55044 14.909 5.44872 14.909 5.76367 15.5384V15.5384C6.04792 16.1065 5.63483 16.7752 4.99958 16.7752V16.7752C4.36433 16.7752 3.95124 16.1065 4.2355 15.5384V15.5384Z" fill="white"/>
</g>
<defs>
<clipPath id="clip0_1_6266">
<rect width="18.55" height="18.55" fill="white" transform="translate(0.839081 0.128906)"/>
</clipPath>
</defs>
</svg>
