<svg width="15" height="14" viewBox="0 0 15 14" fill="none" xmlns="http://www.w3.org/2000/svg">
<g clip-path="url(#clip0_1_6204)">
<path d="M6.96131 1.68701C3.81283 1.68701 1.2368 4.26304 1.2368 7.41152C1.2368 10.56 3.81283 13.136 6.96131 13.136C10.1098 13.136 12.6858 10.56 12.6858 7.41152C12.6858 4.26304 10.1098 1.68701 6.96131 1.68701ZM6.96131 2.83191C7.55448 2.83191 8.12032 2.94962 8.64176 3.15727L6.96131 3.86277L5.28085 3.15727C5.8023 2.94962 6.36813 2.83191 6.96131 2.83191ZM3.4707 4.45758L3.58363 6.32364L2.39512 7.67538C2.39003 7.5875 2.3817 7.50061 2.3817 7.41152C2.3817 6.28803 2.79292 5.2566 3.4707 4.45758ZM10.4519 4.45758C11.1297 5.2566 11.5409 6.28803 11.5409 7.41152C11.5409 7.50061 11.5326 7.5875 11.5275 7.67538L10.339 6.32364L10.4519 4.45758ZM6.96131 5.36769L9.11247 6.9274L8.25268 9.45535H5.66994L4.81015 6.9274L6.96131 5.36769ZM3.08497 9.83325L4.90071 10.2738L5.81864 11.8402C4.67299 11.5427 3.70034 10.8123 3.08497 9.83325ZM10.8377 9.83325C10.2223 10.8123 9.24963 11.5427 8.10397 11.8402L9.02191 10.2738L10.8377 9.83325Z" fill="white"/>
</g>
<defs>
<clipPath id="clip0_1_6204">
<rect width="13.7399" height="13.7399" fill="white" transform="translate(0.382202 0.0654297)"/>
</clipPath>
</defs>
</svg>
