<svg width="15" height="14" viewBox="0 0 15 14" fill="none" xmlns="http://www.w3.org/2000/svg">
<g clip-path="url(#clip0_1_5766)">
<path d="M6.96132 1.68701C3.81284 1.68701 1.23682 4.26304 1.23682 7.41152C1.23682 10.56 3.81284 13.136 6.96132 13.136C10.1098 13.136 12.6858 10.56 12.6858 7.41152C12.6858 4.26304 10.1098 1.68701 6.96132 1.68701ZM6.96132 2.83191C7.5545 2.83191 8.12034 2.94962 8.64178 3.15727L6.96132 3.86277L5.28087 3.15727C5.80231 2.94962 6.36815 2.83191 6.96132 2.83191ZM3.47072 4.45758L3.58364 6.32364L2.39513 7.67538C2.39005 7.5875 2.38172 7.50061 2.38172 7.41152C2.38172 6.28803 2.79293 5.2566 3.47072 4.45758ZM10.4519 4.45758C11.1297 5.2566 11.5409 6.28803 11.5409 7.41152C11.5409 7.50061 11.5326 7.5875 11.5275 7.67538L10.339 6.32364L10.4519 4.45758ZM6.96132 5.36769L9.11249 6.9274L8.25269 9.45535H5.66996L4.81016 6.9274L6.96132 5.36769ZM3.08498 9.83325L4.90072 10.2738L5.81866 11.8402C4.673 11.5427 3.70035 10.8123 3.08498 9.83325ZM10.8377 9.83325C10.2223 10.8123 9.24964 11.5427 8.10399 11.8402L9.02192 10.2738L10.8377 9.83325Z" fill="white"/>
</g>
<defs>
<clipPath id="clip0_1_5766">
<rect width="13.7399" height="13.7399" fill="white" transform="translate(0.382263 0.0654297)"/>
</clipPath>
</defs>
</svg>
