<svg width="20" height="19" viewBox="0 0 20 19" fill="none" xmlns="http://www.w3.org/2000/svg">
<path d="M3.13228 2C2.0765 2 1.23202 2.94418 1.36487 3.99809V3.99983C1.62961 6.07962 2.61162 7.59108 3.43407 8.80253C4.25652 10.014 4.84765 10.9049 4.84765 11.7684C4.84599 11.8861 4.86773 12.003 4.91161 12.1122C4.95549 12.2214 5.02064 12.3207 5.10327 12.4046C5.18589 12.4884 5.28435 12.5549 5.39292 12.6003C5.50149 12.6457 5.618 12.6691 5.73569 12.6691C5.85338 12.6691 5.96989 12.6457 6.07846 12.6003C6.18703 12.5549 6.28549 12.4884 6.36812 12.4046C6.45075 12.3207 6.51589 12.2214 6.55978 12.1122C6.60366 12.003 6.6254 11.8861 6.62373 11.7684C6.62373 11.7541 6.62041 11.7411 6.62026 11.7268C7.4892 13.6921 8.39981 14.4326 8.39981 14.4326H11.952C11.952 14.4326 12.8626 13.6921 13.7315 11.7268C13.7314 11.7411 13.7281 11.7541 13.7281 11.7684C13.7264 11.8861 13.7481 12.003 13.792 12.1122C13.8359 12.2214 13.901 12.3207 13.9837 12.4046C14.0663 12.4884 14.1648 12.5549 14.2733 12.6003C14.3819 12.6457 14.4984 12.6691 14.6161 12.6691C14.7338 12.6691 14.8503 12.6457 14.9589 12.6003C15.0674 12.5549 15.1659 12.4884 15.2485 12.4046C15.3312 12.3207 15.3963 12.2214 15.4402 12.1122C15.4841 12.003 15.5058 11.8861 15.5041 11.7684C15.5041 10.9049 16.0953 10.014 16.9177 8.80253C17.7402 7.59108 18.7222 6.07962 18.9869 3.99983C19.1217 2.94441 18.2753 2 17.2195 2H3.13228ZM17.2247 3.77435C17.0152 5.41989 16.2526 6.62096 15.4486 7.80522C15.1626 8.22653 14.8739 8.65541 14.6057 9.09565C14.9529 7.67736 15.2044 5.92147 15.2613 3.77608H17.2195C17.2294 3.77608 17.2247 3.77435 17.2247 3.77435ZM3.12707 3.77608C3.12671 3.77323 3.12241 3.77608 3.13228 3.77608H5.09048C5.14736 5.92147 5.3989 7.67736 5.7461 9.09565C5.47791 8.65541 5.18919 8.22654 4.90315 7.80522C4.09945 6.62139 3.33687 5.4207 3.12707 3.77608ZM6.62373 16.2086C6.13353 16.2086 5.73569 16.6065 5.73569 17.0967C5.73569 17.5869 6.13353 17.9847 6.62373 17.9847H13.7281C14.2183 17.9847 14.6161 17.5869 14.6161 17.0967C14.6161 16.6065 14.2183 16.2086 13.7281 16.2086H6.62373Z" fill="white"/>
</svg>
