<svg width="20" height="20" viewBox="0 0 20 20" fill="none" xmlns="http://www.w3.org/2000/svg">
<path d="M4.16846 4.16846C2.67521 5.66246 1.75 7.72525 1.75 10C1.75 12.2747 2.67521 14.3375 4.16846 15.8315L5.229 14.771C4.0065 13.5485 3.25 11.8607 3.25 10C3.25 8.13925 4.0065 6.4515 5.229 5.229L4.16846 4.16846ZM15.8315 4.16846L14.771 5.229C15.9935 6.4515 16.75 8.13925 16.75 10C16.75 11.8607 15.9935 13.5485 14.771 14.771L15.8315 15.8315C17.3248 14.3375 18.25 12.2747 18.25 10C18.25 7.72525 17.3248 5.66246 15.8315 4.16846ZM6.28955 6.28955C5.33855 7.2398 4.75 8.5525 4.75 10C4.75 11.4475 5.33855 12.7602 6.28955 13.7104L7.3501 12.6499C6.6706 11.9712 6.25 11.0335 6.25 10C6.25 8.9665 6.67135 8.0296 7.3501 7.3501L6.28955 6.28955ZM13.7104 6.28955L12.6499 7.3501C13.3294 8.02885 13.75 8.9665 13.75 10C13.75 11.0335 13.3287 11.9704 12.6499 12.6499L13.7104 13.7104C14.6607 12.7594 15.25 11.4475 15.25 10C15.25 8.5525 14.6614 7.2398 13.7104 6.28955ZM10 7.75C9.40326 7.75 8.83097 7.98705 8.40901 8.40901C7.98705 8.83097 7.75 9.40326 7.75 10C7.75 10.5967 7.98705 11.169 8.40901 11.591C8.83097 12.0129 9.40326 12.25 10 12.25C10.5967 12.25 11.169 12.0129 11.591 11.591C12.0129 11.169 12.25 10.5967 12.25 10C12.25 9.40326 12.0129 8.83097 11.591 8.40901C11.169 7.98705 10.5967 7.75 10 7.75Z" fill="white"/>
</svg>
