<svg width="19" height="18" viewBox="0 0 19 18" fill="none" xmlns="http://www.w3.org/2000/svg">
<g clip-path="url(#clip0_1_4643)">
<path d="M3.32997 0.619141C1.913 0.619141 0.757324 1.77482 0.757324 3.19178V13.4823C0.757324 14.8993 1.913 16.055 3.32997 16.055H5.36664L12.4682 17.7165C12.6591 17.76 12.8434 17.7701 13.031 17.7701C14.2034 17.7701 15.2753 16.9494 15.55 15.7602L17.8547 5.73763C18.1696 4.35416 17.2785 2.9707 15.8984 2.65582L12.3878 1.85186C11.9356 1.11826 11.1149 0.619141 10.1903 0.619141H3.32997ZM3.32997 2.33423H10.1903C10.6627 2.33423 11.0479 2.71946 11.0479 3.19178V13.4823C11.0479 13.9547 10.6627 14.3399 10.1903 14.3399H3.32997C2.85765 14.3399 2.47242 13.9547 2.47242 13.4823V3.19178C2.47242 2.71946 2.85765 2.33423 3.32997 2.33423ZM12.763 3.70095L15.5232 4.31731C15.9855 4.42116 16.2702 4.90353 16.1664 5.36245L13.8617 15.385C13.7545 15.844 13.2956 16.132 12.8434 16.0282L11.4499 15.7066C12.227 15.2644 12.763 14.4404 12.763 13.4823V3.70095ZM6.76015 4.04933C6.76015 4.04933 3.32997 6.82631 3.32997 8.39066C3.32997 9.43245 4.17746 10.2933 5.20585 10.2933C5.56428 10.2933 5.91936 10.1661 6.22419 9.97176L5.60783 11.7673H7.91248L7.29612 9.99856C7.5775 10.1795 7.91918 10.2933 8.31446 10.2933C9.34285 10.2933 10.1903 9.43245 10.1903 8.39066C10.1903 6.82966 6.76015 4.04933 6.76015 4.04933Z" fill="white"/>
</g>
<defs>
<clipPath id="clip0_1_4643">
<rect width="18" height="18" fill="white" transform="translate(0.429688)"/>
</clipPath>
</defs>
</svg>
