<svg width="20" height="20" viewBox="0 0 20 20" fill="none" xmlns="http://www.w3.org/2000/svg">
<g clip-path="url(#clip0_1_4413)">
<path d="M9.97656 1.75L10 3.25C10.4365 3.25 10.8734 3.2913 11.2964 3.37305L11.582 1.90088C11.0645 1.80038 10.5325 1.75 10 1.75H9.97656ZM8.3667 1.9126C7.83795 2.0191 7.31782 2.17799 6.81982 2.38574L7.39844 3.76855C7.80494 3.59905 8.22985 3.46955 8.6626 3.3833L8.3667 1.9126ZM13.1318 2.36523L12.5635 3.75391C12.97 3.92116 13.3627 4.12904 13.731 4.37354L14.5601 3.12256C14.1101 2.82406 13.6298 2.56923 13.1318 2.36523ZM5.39746 3.15332C4.95121 3.45332 4.53188 3.79914 4.15088 4.18164L5.21436 5.23926C5.52561 4.92576 5.86939 4.64222 6.23389 4.39697L5.39746 3.15332ZM15.811 4.14502L14.7549 5.20996C15.0691 5.52121 15.3526 5.86353 15.5986 6.22803L16.8423 5.39014C16.5415 4.94464 16.1943 4.52527 15.811 4.14502ZM10 4.75C7.105 4.75 4.75 7.105 4.75 10C4.75 12.895 7.105 15.25 10 15.25C12.895 15.25 15.25 12.895 15.25 10C15.25 7.105 12.895 4.75 10 4.75ZM3.12842 5.43262C2.82992 5.88112 2.57366 6.36062 2.36816 6.85938L3.75537 7.43066C3.92337 7.02266 4.13271 6.63065 4.37646 6.26465L3.12842 5.43262ZM10 6.25C12.0677 6.25 13.75 7.93225 13.75 10C13.75 12.0677 12.0677 13.75 10 13.75C7.93225 13.75 6.25 12.0677 6.25 10C6.25 7.93225 7.93225 6.25 10 6.25ZM17.6113 6.81104L16.2285 7.39111C16.3988 7.79686 16.5282 8.22181 16.6152 8.65381L18.0859 8.35791C17.9794 7.82841 17.8198 7.30829 17.6113 6.81104ZM10 7.75C8.7595 7.75 7.75 8.7595 7.75 10C7.75 11.2405 8.7595 12.25 10 12.25C11.2405 12.25 12.25 11.2405 12.25 10C12.25 8.7595 11.2405 7.75 10 7.75ZM1.90381 8.40918C1.80181 8.92968 1.75 9.46525 1.75 10V10.0161L3.25 10C3.25 9.56125 3.29198 9.12375 3.37598 8.69775L1.90381 8.40918ZM10 9.25C10.4132 9.25 10.75 9.58675 10.75 10C10.75 10.4132 10.4132 10.75 10 10.75C9.58675 10.75 9.25 10.4132 9.25 10C9.25 9.58675 9.58675 9.25 10 9.25ZM18.25 9.96777L16.75 10C16.75 10.4425 16.7058 10.8856 16.6211 11.3169L18.0933 11.6084C18.1975 11.0811 18.25 10.54 18.25 10V9.96777ZM3.38184 11.3315L1.91113 11.6245C2.01613 12.1525 2.17506 12.6726 2.38281 13.1714L3.76709 12.5942C3.59759 12.187 3.46809 11.7628 3.38184 11.3315ZM16.2388 12.5811C16.0708 12.9868 15.8607 13.3788 15.6147 13.7471L16.8628 14.5806C17.1628 14.1313 17.4205 13.651 17.626 13.1553L16.2388 12.5811ZM4.39258 13.7603L3.14746 14.5967C3.44671 15.0429 3.79328 15.4608 4.17578 15.8418L5.23486 14.7798C4.92211 14.4678 4.63783 14.1255 4.39258 13.7603ZM14.7754 14.771C14.4634 15.0837 14.1196 15.3666 13.7544 15.6118L14.5894 16.8569C15.0356 16.5577 15.4557 16.2118 15.8374 15.8301L14.7754 14.771ZM6.25879 15.6191L5.42529 16.8672C5.87454 17.1672 6.3548 17.4234 6.85205 17.6289L7.4248 16.2417C7.0183 16.0737 6.62629 15.8651 6.25879 15.6191ZM12.5869 16.2358C12.1804 16.4046 11.7562 16.5341 11.3242 16.6196L11.6157 18.0918C12.1452 17.9868 12.6668 17.8286 13.1641 17.6216L12.5869 16.2358ZM8.69043 16.6226L8.40039 18.0947C8.92314 18.1975 9.4615 18.25 10 18.25H10.0469L10.0923 18.2441L10.0088 17.5015V16.75H9.96631C9.53581 16.7477 9.10668 16.7043 8.69043 16.6226Z" fill="white"/>
</g>
<defs>
<clipPath id="clip0_1_4413">
<rect width="18" height="18" fill="white" transform="translate(1 1)"/>
</clipPath>
</defs>
</svg>
