<svg width="20" height="20" viewBox="0 0 20 20" fill="none" xmlns="http://www.w3.org/2000/svg">
<g clip-path="url(#clip0_1_4398)">
<path d="M12.7026 2.49805C12.3048 2.49805 11.9233 2.65608 11.642 2.93739C11.3607 3.21869 11.2026 3.60022 11.2026 3.99805C11.2026 4.39587 11.3607 4.7774 11.642 5.05871C11.9233 5.34001 12.3048 5.49805 12.7026 5.49805C12.8996 5.49805 13.0947 5.45925 13.2767 5.38387C13.4587 5.30848 13.624 5.198 13.7633 5.05871C13.9026 4.91942 14.0131 4.75406 14.0885 4.57207C14.1638 4.39008 14.2026 4.19503 14.2026 3.99805C14.2026 3.60022 14.0446 3.21869 13.7633 2.93739C13.482 2.65608 13.1005 2.49805 12.7026 2.49805ZM10.4526 5.49951L7.04395 5.50098L4.45264 7.95898L5.48682 9.04736L7.63867 7.00244L8.71094 7.00684L4.01465 16.8169L5.32422 17.5479L7.0835 13.8564L11.7681 13.0259L12.6689 11.8145L10.1875 10.9458L11.4238 8.42481L12.4961 9.99805H15.7041V8.49805H13.2871L11.7505 6.24658L11.7461 6.24365C11.6142 6.01753 11.4254 5.82987 11.1985 5.69933C10.9716 5.56878 10.7144 5.49989 10.4526 5.49951Z" fill="white"/>
</g>
<defs>
<clipPath id="clip0_1_4398">
<rect width="18.55" height="18.55" fill="white" transform="translate(0.838867 0.724609)"/>
</clipPath>
</defs>
</svg>
