<svg width="23" height="22" viewBox="0 0 23 22" fill="none" xmlns="http://www.w3.org/2000/svg">
<g clip-path="url(#clip0_1_5083)">
<path d="M11.0377 2.50684C6.17707 2.50684 2.2002 6.48371 2.2002 11.3443C2.2002 16.205 6.17707 20.1818 11.0377 20.1818C15.8983 20.1818 19.8752 16.205 19.8752 11.3443C19.8752 6.48371 15.8983 2.50684 11.0377 2.50684ZM11.0377 4.27434C11.9534 4.27434 12.827 4.45605 13.632 4.77662L11.0377 5.86578L8.44341 4.77662C9.24841 4.45605 10.1219 4.27434 11.0377 4.27434ZM5.64889 6.78405L5.82322 9.66487L3.98841 11.7517C3.98056 11.616 3.9677 11.4819 3.9677 11.3443C3.9677 9.60989 4.60253 8.01757 5.64889 6.78405ZM16.4265 6.78405C17.4729 8.01757 18.1077 9.60989 18.1077 11.3443C18.1077 11.4819 18.0948 11.616 18.087 11.7517L16.2522 9.66487L16.4265 6.78405ZM11.0377 8.18907L14.3587 10.5969L13.0313 14.4996H9.04408L7.71673 10.5969L11.0377 8.18907ZM5.0534 15.083L7.85654 15.7631L9.27365 18.1813C7.50499 17.722 6.0034 16.5944 5.0534 15.083ZM17.022 15.083C16.072 16.5944 14.5704 17.722 12.8017 18.1813L14.2188 15.7631L17.022 15.083Z" fill="white"/>
</g>
<defs>
<clipPath id="clip0_1_5083">
<rect width="21.2117" height="21.2117" fill="white" transform="translate(0.880859 0.00292969)"/>
</clipPath>
</defs>
</svg>
