<svg width="20" height="19" viewBox="0 0 20 19" fill="none" xmlns="http://www.w3.org/2000/svg">
<g clip-path="url(#clip0_1_6433)">
<path d="M4.99928 0.774414C2.80188 0.774414 0.999092 2.5772 0.999092 4.7746C0.999092 6.972 2.80188 8.77478 4.99928 8.77478C7.19667 8.77478 8.99946 6.972 8.99946 4.7746C8.99946 2.5772 7.19667 0.774414 4.99928 0.774414ZM12.9996 0.774414C11.9065 0.774414 10.9996 1.68139 10.9996 2.77451V6.77469C10.9996 7.86781 11.9065 8.77478 12.9996 8.77478H16.9998C18.0929 8.77478 18.9999 7.86781 18.9999 6.77469V2.77451C18.9999 1.68139 18.0929 0.774414 16.9998 0.774414H12.9996ZM4.99928 2.77451C6.11574 2.77451 6.99937 3.65813 6.99937 4.7746C6.99937 5.89106 6.11574 6.77469 4.99928 6.77469C3.88281 6.77469 2.99918 5.89106 2.99918 4.7746C2.99918 3.65813 3.88281 2.77451 4.99928 2.77451ZM12.9996 4.7746C12.9996 3.66998 13.8951 2.77451 14.9997 2.77451V2.77451C16.1044 2.77451 16.9998 3.66998 16.9998 4.7746V4.7746C16.9998 5.87922 16.1044 6.77469 14.9997 6.77469V6.77469C13.8951 6.77469 12.9996 5.87922 12.9996 4.7746V4.7746ZM14.5271 10.5092C14.3067 10.5029 14.0904 10.5695 13.9118 10.6987L10.6167 13.0933C10.4461 13.2174 10.319 13.3923 10.2537 13.593C10.1885 13.7937 10.1884 14.0098 10.2534 14.2106L11.5133 18.0838C11.5785 18.2848 11.7056 18.4599 11.8765 18.5841C12.0474 18.7083 12.2532 18.7752 12.4645 18.7752H16.535C16.7462 18.7752 16.9521 18.7083 17.1229 18.5841C17.2938 18.4599 17.421 18.2848 17.4862 18.0838L18.746 14.2106C18.8111 14.0098 18.8109 13.7937 18.7457 13.593C18.6804 13.3923 18.5534 13.2174 18.3827 13.0933L15.0876 10.6987C14.9242 10.5805 14.7288 10.5144 14.5271 10.5092ZM5.00709 10.7749C4.82003 10.7734 4.63632 10.8244 4.4768 10.9221C4.31729 11.0198 4.18837 11.1603 4.1047 11.3276L1.10457 17.3279C1.02834 17.4804 0.992363 17.6498 1.00004 17.8201C1.00771 17.9904 1.05879 18.1559 1.14841 18.3009C1.23804 18.4459 1.36324 18.5656 1.51214 18.6487C1.66103 18.7317 1.82867 18.7752 1.99914 18.7752H7.99942C8.16989 18.7752 8.33753 18.7317 8.48642 18.6487C8.63531 18.5656 8.76051 18.4459 8.85014 18.3009C8.93977 18.1559 8.99084 17.9904 8.99852 17.8201C9.00619 17.6498 8.97021 17.4804 8.89399 17.3279L5.89385 11.3276C5.81137 11.1627 5.68489 11.0238 5.5284 10.9262C5.37191 10.8287 5.19149 10.7763 5.00709 10.7749ZM13.4393 13.5149C14.0712 13.0553 14.9278 13.055 15.5598 13.5146V13.5146C16.1913 13.9738 16.4553 14.7877 16.2136 15.5303V15.5303C15.972 16.2726 15.2797 16.7752 14.4991 16.7752V16.7752C13.7181 16.7752 13.0258 16.2722 12.7846 15.5294V15.5294C12.5436 14.7872 12.8081 13.9738 13.4393 13.5149V13.5149ZM4.23519 15.5384C4.55014 14.909 5.44842 14.909 5.76336 15.5384V15.5384C6.04761 16.1065 5.63452 16.7752 4.99928 16.7752V16.7752C4.36403 16.7752 3.95094 16.1065 4.23519 15.5384V15.5384Z" fill="white"/>
</g>
<defs>
<clipPath id="clip0_1_6433">
<rect width="18.55" height="18.55" fill="white" transform="translate(0.838867 0.128906)"/>
</clipPath>
</defs>
</svg>
