<svg width="22" height="22" viewBox="0 0 22 22" fill="none" xmlns="http://www.w3.org/2000/svg">
<g clip-path="url(#clip0_1_4425)">
<path d="M10.6051 2.89746C5.74445 2.89746 1.76758 6.87434 1.76758 11.735C1.76758 16.5956 5.74445 20.5725 10.6051 20.5725C15.4657 20.5725 19.4426 16.5956 19.4426 11.735C19.4426 6.87434 15.4657 2.89746 10.6051 2.89746ZM10.6051 4.66496C11.5208 4.66496 12.3944 4.84667 13.1994 5.16725L10.6051 6.2564L8.01079 5.16725C8.81579 4.84667 9.68933 4.66496 10.6051 4.66496ZM5.21627 7.17467L5.39061 10.0555L3.55579 12.1423C3.54794 12.0066 3.53508 11.8725 3.53508 11.735C3.53508 10.0005 4.16991 8.4082 5.21627 7.17467ZM15.9939 7.17467C17.0402 8.4082 17.6751 10.0005 17.6751 11.735C17.6751 11.8725 17.6622 12.0066 17.6544 12.1423L15.8195 10.0555L15.9939 7.17467ZM10.6051 8.5797L13.926 10.9876L12.5987 14.8902H8.61146L7.28411 10.9876L10.6051 8.5797ZM4.62078 15.4736L7.42392 16.1537L8.84103 18.5719C7.07237 18.1127 5.57079 16.985 4.62078 15.4736ZM16.5894 15.4736C15.6394 16.985 14.1378 18.1127 12.3691 18.5719L13.7862 16.1537L16.5894 15.4736Z" fill="url(#paint0_linear_1_4425)"/>
</g>
<defs>
<linearGradient id="paint0_linear_1_4425" x1="19.0315" y1="1.04775" x2="4.43938" y2="22.2166" gradientUnits="userSpaceOnUse">
<stop stop-color="#00CB08"/>
<stop offset="1" stop-color="#00BF6F"/>
</linearGradient>
<clipPath id="clip0_1_4425">
<rect width="21.2117" height="21.2117" fill="white" transform="translate(0.448242 0.393555)"/>
</clipPath>
</defs>
</svg>
