<svg width="30" height="31" viewBox="0 0 30 31" fill="none" xmlns="http://www.w3.org/2000/svg">
<g filter="url(#filter0_d_8_2921)">
<path d="M23.8889 4.5C23.2752 4.5 22.78 5.10396 22.2601 5.42996C22.0884 5.53764 21.8848 5.6 21.6667 5.6C21.4485 5.6 21.2449 5.53764 21.0732 5.42996C20.5533 5.10396 20.0581 4.5 19.4444 4.5V4.5C18.8308 4.5 18.3356 5.10396 17.8157 5.42996C17.644 5.53764 17.4404 5.6 17.2222 5.6C17.004 5.6 16.8005 5.53764 16.6288 5.42996C16.1089 5.10396 15.6137 4.5 15 4.5V4.5C14.3864 4.5 13.8911 5.10396 13.3712 5.42996C13.1995 5.53764 12.996 5.6 12.7778 5.6C12.5596 5.6 12.3561 5.53764 12.1843 5.42996C11.6644 5.10396 11.1692 4.5 10.5556 4.5V4.5C9.94191 4.5 9.44668 5.10396 8.92679 5.42996C8.75506 5.53764 8.55151 5.6 8.33333 5.6C8.11516 5.6 7.91161 5.53764 7.73988 5.42996C7.21999 5.10396 6.72476 4.5 6.11111 4.5V4.5C5.49778 4.5 5 4.9928 5 5.6V24.3C5 25.5155 5.99444 26.5 7.22222 26.5H22.7778C24.0056 26.5 25 25.5155 25 24.3V5.6C25 4.9928 24.5022 4.5 23.8889 4.5V4.5ZM16.1111 22.1H9.44444C8.83111 22.1 8.33333 21.6072 8.33333 21C8.33333 20.3928 8.83111 19.9 9.44444 19.9H16.1111C16.7244 19.9 17.2222 20.3928 17.2222 21C17.2222 21.6072 16.7244 22.1 16.1111 22.1ZM16.1111 17.7H9.44444C8.83111 17.7 8.33333 17.2072 8.33333 16.6C8.33333 15.9928 8.83111 15.5 9.44444 15.5H16.1111C16.7244 15.5 17.2222 15.9928 17.2222 16.6C17.2222 17.2072 16.7244 17.7 16.1111 17.7ZM21.1111 22.1H20C19.6933 22.1 19.4444 21.8536 19.4444 21.55V20.45C19.4444 20.1464 19.6933 19.9 20 19.9H21.1111C21.4178 19.9 21.6667 20.1464 21.6667 20.45V21.55C21.6667 21.8536 21.4178 22.1 21.1111 22.1ZM21.1111 17.7H20C19.6933 17.7 19.4444 17.4536 19.4444 17.15V16.05C19.4444 15.7464 19.6933 15.5 20 15.5H21.1111C21.4178 15.5 21.6667 15.7464 21.6667 16.05V17.15C21.6667 17.4536 21.4178 17.7 21.1111 17.7ZM20.5556 12.2H9.44444C8.83111 12.2 8.33333 11.7072 8.33333 11.1C8.33333 10.4928 8.83111 10 9.44444 10H20.5556C21.1689 10 21.6667 10.4928 21.6667 11.1C21.6667 11.7072 21.1689 12.2 20.5556 12.2Z" fill="#631094"/>
<path d="M23.8889 4.5C23.2752 4.5 22.78 5.10396 22.2601 5.42996C22.0884 5.53764 21.8848 5.6 21.6667 5.6C21.4485 5.6 21.2449 5.53764 21.0732 5.42996C20.5533 5.10396 20.0581 4.5 19.4444 4.5V4.5C18.8308 4.5 18.3356 5.10396 17.8157 5.42996C17.644 5.53764 17.4404 5.6 17.2222 5.6C17.004 5.6 16.8005 5.53764 16.6288 5.42996C16.1089 5.10396 15.6137 4.5 15 4.5V4.5C14.3864 4.5 13.8911 5.10396 13.3712 5.42996C13.1995 5.53764 12.996 5.6 12.7778 5.6C12.5596 5.6 12.3561 5.53764 12.1843 5.42996C11.6644 5.10396 11.1692 4.5 10.5556 4.5V4.5C9.94191 4.5 9.44668 5.10396 8.92679 5.42996C8.75506 5.53764 8.55151 5.6 8.33333 5.6C8.11516 5.6 7.91161 5.53764 7.73988 5.42996C7.21999 5.10396 6.72476 4.5 6.11111 4.5V4.5C5.49778 4.5 5 4.9928 5 5.6V24.3C5 25.5155 5.99444 26.5 7.22222 26.5H22.7778C24.0056 26.5 25 25.5155 25 24.3V5.6C25 4.9928 24.5022 4.5 23.8889 4.5V4.5ZM16.1111 22.1H9.44444C8.83111 22.1 8.33333 21.6072 8.33333 21C8.33333 20.3928 8.83111 19.9 9.44444 19.9H16.1111C16.7244 19.9 17.2222 20.3928 17.2222 21C17.2222 21.6072 16.7244 22.1 16.1111 22.1ZM16.1111 17.7H9.44444C8.83111 17.7 8.33333 17.2072 8.33333 16.6C8.33333 15.9928 8.83111 15.5 9.44444 15.5H16.1111C16.7244 15.5 17.2222 15.9928 17.2222 16.6C17.2222 17.2072 16.7244 17.7 16.1111 17.7ZM21.1111 22.1H20C19.6933 22.1 19.4444 21.8536 19.4444 21.55V20.45C19.4444 20.1464 19.6933 19.9 20 19.9H21.1111C21.4178 19.9 21.6667 20.1464 21.6667 20.45V21.55C21.6667 21.8536 21.4178 22.1 21.1111 22.1ZM21.1111 17.7H20C19.6933 17.7 19.4444 17.4536 19.4444 17.15V16.05C19.4444 15.7464 19.6933 15.5 20 15.5H21.1111C21.4178 15.5 21.6667 15.7464 21.6667 16.05V17.15C21.6667 17.4536 21.4178 17.7 21.1111 17.7ZM20.5556 12.2H9.44444C8.83111 12.2 8.33333 11.7072 8.33333 11.1C8.33333 10.4928 8.83111 10 9.44444 10H20.5556C21.1689 10 21.6667 10.4928 21.6667 11.1C21.6667 11.7072 21.1689 12.2 20.5556 12.2Z" fill="url(#paint0_linear_8_2921)"/>
<path d="M23.8889 4.5C23.2752 4.5 22.78 5.10396 22.2601 5.42996C22.0884 5.53764 21.8848 5.6 21.6667 5.6C21.4485 5.6 21.2449 5.53764 21.0732 5.42996C20.5533 5.10396 20.0581 4.5 19.4444 4.5V4.5C18.8308 4.5 18.3356 5.10396 17.8157 5.42996C17.644 5.53764 17.4404 5.6 17.2222 5.6C17.004 5.6 16.8005 5.53764 16.6288 5.42996C16.1089 5.10396 15.6137 4.5 15 4.5V4.5C14.3864 4.5 13.8911 5.10396 13.3712 5.42996C13.1995 5.53764 12.996 5.6 12.7778 5.6C12.5596 5.6 12.3561 5.53764 12.1843 5.42996C11.6644 5.10396 11.1692 4.5 10.5556 4.5V4.5C9.94191 4.5 9.44668 5.10396 8.92679 5.42996C8.75506 5.53764 8.55151 5.6 8.33333 5.6C8.11516 5.6 7.91161 5.53764 7.73988 5.42996C7.21999 5.10396 6.72476 4.5 6.11111 4.5V4.5C5.49778 4.5 5 4.9928 5 5.6V24.3C5 25.5155 5.99444 26.5 7.22222 26.5H22.7778C24.0056 26.5 25 25.5155 25 24.3V5.6C25 4.9928 24.5022 4.5 23.8889 4.5V4.5ZM16.1111 22.1H9.44444C8.83111 22.1 8.33333 21.6072 8.33333 21C8.33333 20.3928 8.83111 19.9 9.44444 19.9H16.1111C16.7244 19.9 17.2222 20.3928 17.2222 21C17.2222 21.6072 16.7244 22.1 16.1111 22.1ZM16.1111 17.7H9.44444C8.83111 17.7 8.33333 17.2072 8.33333 16.6C8.33333 15.9928 8.83111 15.5 9.44444 15.5H16.1111C16.7244 15.5 17.2222 15.9928 17.2222 16.6C17.2222 17.2072 16.7244 17.7 16.1111 17.7ZM21.1111 22.1H20C19.6933 22.1 19.4444 21.8536 19.4444 21.55V20.45C19.4444 20.1464 19.6933 19.9 20 19.9H21.1111C21.4178 19.9 21.6667 20.1464 21.6667 20.45V21.55C21.6667 21.8536 21.4178 22.1 21.1111 22.1ZM21.1111 17.7H20C19.6933 17.7 19.4444 17.4536 19.4444 17.15V16.05C19.4444 15.7464 19.6933 15.5 20 15.5H21.1111C21.4178 15.5 21.6667 15.7464 21.6667 16.05V17.15C21.6667 17.4536 21.4178 17.7 21.1111 17.7ZM20.5556 12.2H9.44444C8.83111 12.2 8.33333 11.7072 8.33333 11.1C8.33333 10.4928 8.83111 10 9.44444 10H20.5556C21.1689 10 21.6667 10.4928 21.6667 11.1C21.6667 11.7072 21.1689 12.2 20.5556 12.2Z" fill="url(#paint1_linear_8_2921)"/>
</g>
<defs>
<filter id="filter0_d_8_2921" x="3" y="2.5" width="24" height="26" filterUnits="userSpaceOnUse" color-interpolation-filters="sRGB">
<feFlood flood-opacity="0" result="BackgroundImageFix"/>
<feColorMatrix in="SourceAlpha" type="matrix" values="0 0 0 0 0 0 0 0 0 0 0 0 0 0 0 0 0 0 127 0" result="hardAlpha"/>
<feMorphology radius="5" operator="erode" in="SourceAlpha" result="effect1_dropShadow_8_2921"/>
<feOffset/>
<feGaussianBlur stdDeviation="3.5"/>
<feComposite in2="hardAlpha" operator="out"/>
<feColorMatrix type="matrix" values="0 0 0 0 0.194508 0 0 0 0 0.06375 0 0 0 0 0.566667 0 0 0 1 0"/>
<feBlend mode="normal" in2="BackgroundImageFix" result="effect1_dropShadow_8_2921"/>
<feBlend mode="normal" in="SourceGraphic" in2="effect1_dropShadow_8_2921" result="shape"/>
</filter>
<linearGradient id="paint0_linear_8_2921" x1="26.7966" y1="4.5" x2="-0.919794" y2="30.6352" gradientUnits="userSpaceOnUse">
<stop stop-color="#B900FA"/>
<stop offset="1" stop-color="#0046FA"/>
</linearGradient>
<linearGradient id="paint1_linear_8_2921" x1="24.5349" y1="2.19767" x2="5.82163" y2="26.8771" gradientUnits="userSpaceOnUse">
<stop stop-color="#00CB08"/>
<stop offset="1" stop-color="#00BF6F"/>
</linearGradient>
</defs>
</svg>
