<svg width="22" height="22" viewBox="0 0 22 22" fill="none" xmlns="http://www.w3.org/2000/svg">
<g clip-path="url(#clip0_1_5088)">
<path d="M3.31758 3.73926C2.2618 3.73926 1.41732 4.68343 1.55017 5.73735V5.73908C1.81492 7.81888 2.79692 9.33034 3.61937 10.5418C4.44183 11.7532 5.03295 12.6441 5.03295 13.5077C5.03129 13.6254 5.05303 13.7422 5.09691 13.8514C5.14079 13.9606 5.20594 14.06 5.28857 14.1438C5.3712 14.2276 5.46965 14.2942 5.57822 14.3396C5.68679 14.385 5.80331 14.4084 5.921 14.4084C6.03868 14.4084 6.1552 14.385 6.26377 14.3396C6.37234 14.2942 6.47079 14.2276 6.55342 14.1438C6.63605 14.06 6.7012 13.9606 6.74508 13.8514C6.78896 13.7422 6.8107 13.6254 6.80904 13.5077C6.80904 13.4934 6.80571 13.4803 6.80557 13.4661C7.6745 15.4313 8.58512 16.1718 8.58512 16.1718H12.1373C12.1373 16.1718 13.0479 15.4313 13.9168 13.4661C13.9167 13.4803 13.9134 13.4934 13.9134 13.5077C13.9117 13.6254 13.9334 13.7422 13.9773 13.8514C14.0212 13.9606 14.0863 14.06 14.169 14.1438C14.2516 14.2276 14.3501 14.2942 14.4586 14.3396C14.5672 14.385 14.6837 14.4084 14.8014 14.4084C14.9191 14.4084 15.0356 14.385 15.1442 14.3396C15.2527 14.2942 15.3512 14.2276 15.4338 14.1438C15.5165 14.06 15.5816 13.9606 15.6255 13.8514C15.6694 13.7422 15.6911 13.6254 15.6894 13.5077C15.6894 12.6441 16.2806 11.7532 17.103 10.5418C17.9255 9.33034 18.9075 7.81887 19.1722 5.73908C19.307 4.68366 18.4606 3.73926 17.4048 3.73926H3.31758ZM17.41 5.5136C17.2006 7.15914 16.4379 8.36021 15.6339 9.54448C15.3479 9.96579 15.0592 10.3947 14.791 10.8349C15.1382 9.41662 15.3897 7.66073 15.4466 5.51534H17.4048C17.4147 5.51534 17.41 5.5136 17.41 5.5136ZM3.31238 5.51534C3.31202 5.51249 3.30771 5.51534 3.31758 5.51534H5.27578C5.33266 7.66073 5.5842 9.41662 5.9314 10.8349C5.66321 10.3947 5.37449 9.96579 5.08846 9.54448C4.28475 8.36064 3.52217 7.15996 3.31238 5.51534ZM6.80904 17.9479C6.31884 17.9479 5.921 18.3457 5.921 18.8359C5.921 19.3261 6.31884 19.724 6.80904 19.724H13.9134C14.4036 19.724 14.8014 19.3261 14.8014 18.8359C14.8014 18.3457 14.4036 17.9479 13.9134 17.9479H6.80904Z" fill="white"/>
</g>
<defs>
<clipPath id="clip0_1_5088">
<rect width="21.2117" height="21.2117" fill="white" transform="translate(0.576904 0.00292969)"/>
</clipPath>
</defs>
</svg>
