<svg width="15" height="14" viewBox="0 0 15 14" fill="none" xmlns="http://www.w3.org/2000/svg">
<g clip-path="url(#clip0_1_5370)">
<path d="M6.96145 1.68652C3.81297 1.68652 1.23694 4.26255 1.23694 7.41103C1.23694 10.5595 3.81297 13.1355 6.96145 13.1355C10.1099 13.1355 12.686 10.5595 12.686 7.41103C12.686 4.26255 10.1099 1.68652 6.96145 1.68652ZM6.96145 2.83142C7.55462 2.83142 8.12046 2.94913 8.6419 3.15678L6.96145 3.86228L5.28099 3.15678C5.80243 2.94913 6.36827 2.83142 6.96145 2.83142ZM3.47084 4.4571L3.58376 6.32315L2.39526 7.6749C2.39017 7.58702 2.38184 7.50013 2.38184 7.41103C2.38184 6.28754 2.79305 5.25612 3.47084 4.4571ZM10.4521 4.4571C11.1298 5.25612 11.5411 6.28754 11.5411 7.41103C11.5411 7.50013 11.5327 7.58702 11.5276 7.6749L10.3391 6.32315L10.4521 4.4571ZM6.96145 5.3672L9.11261 6.92691L8.25281 9.45486H5.67008L4.81028 6.92691L6.96145 5.3672ZM3.0851 9.83277L4.90085 10.2733L5.81878 11.8397C4.67313 11.5422 3.70047 10.8118 3.0851 9.83277ZM10.8378 9.83277C10.2224 10.8118 9.24977 11.5422 8.10411 11.8397L9.02205 10.2733L10.8378 9.83277Z" fill="white"/>
</g>
<defs>
<clipPath id="clip0_1_5370">
<rect width="13.7399" height="13.7399" fill="white" transform="translate(0.382324 0.0654297)"/>
</clipPath>
</defs>
</svg>
