<svg width="20" height="20" viewBox="0 0 20 20" fill="none" xmlns="http://www.w3.org/2000/svg">
<g clip-path="url(#clip0_1_590)">
<path d="M4.16797 4.16846C2.67472 5.66246 1.74951 7.72525 1.74951 10C1.74951 12.2747 2.67472 14.3375 4.16797 15.8315L5.22852 14.771C4.00602 13.5485 3.24951 11.8607 3.24951 10C3.24951 8.13925 4.00602 6.4515 5.22852 5.229L4.16797 4.16846ZM15.8311 4.16846L14.7705 5.229C15.993 6.4515 16.7495 8.13925 16.7495 10C16.7495 11.8607 15.993 13.5485 14.7705 14.771L15.8311 15.8315C17.3243 14.3375 18.2495 12.2747 18.2495 10C18.2495 7.72525 17.3243 5.66246 15.8311 4.16846ZM6.28906 6.28955C5.33806 7.2398 4.74951 8.5525 4.74951 10C4.74951 11.4475 5.33806 12.7602 6.28906 13.7104L7.34961 12.6499C6.67011 11.9712 6.24951 11.0335 6.24951 10C6.24951 8.9665 6.67086 8.0296 7.34961 7.3501L6.28906 6.28955ZM13.71 6.28955L12.6494 7.3501C13.3289 8.02885 13.7495 8.9665 13.7495 10C13.7495 11.0335 13.3282 11.9704 12.6494 12.6499L13.71 13.7104C14.6602 12.7594 15.2495 11.4475 15.2495 10C15.2495 8.5525 14.661 7.2398 13.71 6.28955ZM9.99951 7.75C9.40277 7.75 8.83048 7.98705 8.40852 8.40901C7.98656 8.83097 7.74951 9.40326 7.74951 10C7.74951 10.5967 7.98656 11.169 8.40852 11.591C8.83048 12.0129 9.40277 12.25 9.99951 12.25C10.5962 12.25 11.1685 12.0129 11.5905 11.591C12.0125 11.169 12.2495 10.5967 12.2495 10C12.2495 9.40326 12.0125 8.83097 11.5905 8.40901C11.1685 7.98705 10.5962 7.75 9.99951 7.75Z" fill="white"/>
</g>
<defs>
<clipPath id="clip0_1_590">
<rect width="18" height="18" fill="white" transform="translate(0.999512 1)"/>
</clipPath>
</defs>
</svg>
