<svg width="19" height="18" viewBox="0 0 19 18" fill="none" xmlns="http://www.w3.org/2000/svg">
<g clip-path="url(#clip0_1_1387)">
<path d="M3.33021 0.619629C1.91325 0.619629 0.757568 1.77531 0.757568 3.19227V13.4828C0.757568 14.8998 1.91325 16.0555 3.33021 16.0555H5.36688L12.4684 17.717C12.6594 17.7605 12.8436 17.7706 13.0312 17.7706C14.2036 17.7706 15.2756 16.9499 15.5503 15.7607L17.8549 5.73811C18.1698 4.35465 17.2788 2.97118 15.8986 2.6563L12.3881 1.85235C11.9358 1.11875 11.1151 0.619629 10.1906 0.619629H3.33021ZM3.33021 2.33472H10.1906C10.6629 2.33472 11.0481 2.71995 11.0481 3.19227V13.4828C11.0481 13.9552 10.6629 14.3404 10.1906 14.3404H3.33021C2.85789 14.3404 2.47266 13.9552 2.47266 13.4828V3.19227C2.47266 2.71995 2.85789 2.33472 3.33021 2.33472ZM12.7632 3.70144L15.5235 4.3178C15.9857 4.42164 16.2705 4.90402 16.1666 5.36294L13.862 15.3855C13.7548 15.8444 13.2958 16.1325 12.8436 16.0287L11.4501 15.7071C12.2273 15.2649 12.7632 14.4409 12.7632 13.4828V3.70144ZM6.7604 4.04982C6.7604 4.04982 3.33021 6.8268 3.33021 8.39115C3.33021 9.43294 4.17771 10.2938 5.20609 10.2938C5.56452 10.2938 5.9196 10.1665 6.22443 9.97225L5.60807 11.7677H7.91273L7.29637 9.99905C7.57775 10.1799 7.91943 10.2938 8.3147 10.2938C9.34309 10.2938 10.1906 9.43294 10.1906 8.39115C10.1906 6.83015 6.7604 4.04982 6.7604 4.04982Z" fill="white"/>
</g>
<defs>
<clipPath id="clip0_1_1387">
<rect width="18" height="18" fill="white" transform="translate(0.429932)"/>
</clipPath>
</defs>
</svg>
