<svg width="19" height="20" viewBox="0 0 19 20" fill="none" xmlns="http://www.w3.org/2000/svg">
<g clip-path="url(#clip0_1_3100)">
<path d="M9.34232 2.52344C9.23978 2.52344 9.13724 2.53223 9.06107 2.57031L2.31107 5.57031H2.17044C1.87161 5.7959 1.79544 6.0918 1.79544 6.39063V13.75C1.79544 14.0488 1.94193 14.3535 2.24075 14.4297L8.99075 17.4297H9.43607L16.1861 14.4297C16.4849 14.2803 16.6548 14.0488 16.6548 13.75V6.39063C16.8804 6.0918 16.7163 5.79004 16.4908 5.64063L16.4204 5.57031L9.67044 2.57031C9.55911 2.53223 9.44485 2.52344 9.34232 2.52344ZM9.29544 4.07031L14.1704 6.25L9.29544 8.42969L4.42044 6.25L9.29544 4.07031ZM9.29544 5.73438C8.67435 5.73438 8.17044 5.95996 8.17044 6.25C8.17044 6.54004 8.67435 6.76563 9.29544 6.76563C9.91653 6.76563 10.4204 6.54004 10.4204 6.25C10.4204 5.95996 9.91653 5.73438 9.29544 5.73438ZM3.29544 7.375L5.68607 8.5L8.54544 9.76563V15.625L3.29544 13.3047V7.375ZM15.2954 7.375V13.2344L10.0454 15.625V9.76563L12.9048 8.5L15.2954 7.375ZM4.23294 8.35938C4.14212 8.34473 4.03958 8.35059 3.95169 8.38281C3.60013 8.51172 3.45364 8.99512 3.62357 9.46094C3.79349 9.92676 4.23294 10.2227 4.5845 10.0938C4.93607 9.96484 5.08255 9.48145 4.91263 9.01563C4.78372 8.66406 4.50833 8.40625 4.23294 8.35938ZM13.8658 9.20313C13.5904 9.25 13.3384 9.50781 13.2095 9.85938C13.0396 10.3252 13.1861 10.8086 13.5376 10.9375C13.8892 11.0664 14.3052 10.7705 14.4751 10.3047C14.6451 9.83887 14.4986 9.35547 14.147 9.22656C14.0591 9.19434 13.9566 9.18848 13.8658 9.20313ZM5.73294 10.6094C5.64212 10.5947 5.53958 10.6006 5.45169 10.6328C5.10013 10.7617 4.95364 11.2451 5.12357 11.7109C5.29349 12.1768 5.73294 12.4727 6.0845 12.3438C6.43607 12.2148 6.58255 11.7314 6.41263 11.2656C6.28372 10.9141 6.00833 10.6563 5.73294 10.6094ZM11.4751 12.2734C11.2056 12.3086 10.9361 12.5371 10.8189 12.8594C10.6636 13.2871 10.8189 13.7383 11.1704 13.8672C11.522 13.9961 11.9292 13.7324 12.0845 13.3047C12.2398 12.877 12.0845 12.4258 11.7329 12.2969C11.6451 12.2646 11.5659 12.2617 11.4751 12.2734ZM7.60794 12.8594C7.51712 12.8447 7.41458 12.8506 7.32669 12.8828C6.97513 13.0117 6.82864 13.4951 6.99857 13.9609C7.16849 14.4268 7.60794 14.7227 7.9595 14.5938C8.31107 14.4648 8.45755 13.9814 8.28763 13.5156C8.15872 13.1641 7.88333 12.9063 7.60794 12.8594Z" fill="white"/>
</g>
<defs>
<clipPath id="clip0_1_3100">
<rect width="18.55" height="18.55" fill="white" transform="translate(0.134491 0.725098)"/>
</clipPath>
</defs>
</svg>
