<svg width="19" height="20" viewBox="0 0 19 20" fill="none" xmlns="http://www.w3.org/2000/svg">
<g clip-path="url(#clip0_1_595)">
<path d="M9.34229 2.52344C9.23975 2.52344 9.13721 2.53223 9.06104 2.57031L2.31104 5.57031H2.17041C1.87158 5.7959 1.79541 6.0918 1.79541 6.39063V13.75C1.79541 14.0488 1.94189 14.3535 2.24072 14.4297L8.99072 17.4297H9.43604L16.186 14.4297C16.4849 14.2803 16.6548 14.0488 16.6548 13.75V6.39063C16.8804 6.0918 16.7163 5.79004 16.4907 5.64063L16.4204 5.57031L9.67041 2.57031C9.55908 2.53223 9.44482 2.52344 9.34229 2.52344ZM9.29541 4.07031L14.1704 6.25L9.29541 8.42969L4.42041 6.25L9.29541 4.07031ZM9.29541 5.73438C8.67432 5.73438 8.17041 5.95996 8.17041 6.25C8.17041 6.54004 8.67432 6.76563 9.29541 6.76563C9.9165 6.76563 10.4204 6.54004 10.4204 6.25C10.4204 5.95996 9.9165 5.73438 9.29541 5.73438ZM3.29541 7.375L5.68604 8.5L8.54541 9.76563V15.625L3.29541 13.3047V7.375ZM15.2954 7.375V13.2344L10.0454 15.625V9.76563L12.9048 8.5L15.2954 7.375ZM4.23291 8.35938C4.14209 8.34473 4.03955 8.35059 3.95166 8.38281C3.6001 8.51172 3.45361 8.99512 3.62354 9.46094C3.79346 9.92676 4.23291 10.2227 4.58447 10.0938C4.93604 9.96484 5.08252 9.48145 4.9126 9.01563C4.78369 8.66406 4.5083 8.40625 4.23291 8.35938ZM13.8657 9.20313C13.5903 9.25 13.3384 9.50781 13.2095 9.85938C13.0396 10.3252 13.186 10.8086 13.5376 10.9375C13.8892 11.0664 14.3052 10.7705 14.4751 10.3047C14.645 9.83887 14.4985 9.35547 14.147 9.22656C14.0591 9.19434 13.9565 9.18848 13.8657 9.20313ZM5.73291 10.6094C5.64209 10.5947 5.53955 10.6006 5.45166 10.6328C5.1001 10.7617 4.95361 11.2451 5.12354 11.7109C5.29346 12.1768 5.73291 12.4727 6.08447 12.3438C6.43604 12.2148 6.58252 11.7314 6.4126 11.2656C6.28369 10.9141 6.0083 10.6563 5.73291 10.6094ZM11.4751 12.2734C11.2056 12.3086 10.936 12.5371 10.8188 12.8594C10.6636 13.2871 10.8188 13.7383 11.1704 13.8672C11.522 13.9961 11.9292 13.7324 12.0845 13.3047C12.2397 12.877 12.0845 12.4258 11.7329 12.2969C11.645 12.2646 11.5659 12.2617 11.4751 12.2734ZM7.60791 12.8594C7.51709 12.8447 7.41455 12.8506 7.32666 12.8828C6.9751 13.0117 6.82861 13.4951 6.99854 13.9609C7.16846 14.4268 7.60791 14.7227 7.95947 14.5938C8.31104 14.4648 8.45752 13.9814 8.2876 13.5156C8.15869 13.1641 7.8833 12.9063 7.60791 12.8594Z" fill="white"/>
</g>
<defs>
<clipPath id="clip0_1_595">
<rect width="18.55" height="18.55" fill="white" transform="translate(0.134277 0.725098)"/>
</clipPath>
</defs>
</svg>
