<svg width="20" height="19" viewBox="0 0 20 19" fill="none" xmlns="http://www.w3.org/2000/svg">
<g clip-path="url(#clip0_1_6938)">
<path d="M4.99964 0.774414C2.80225 0.774414 0.999458 2.5772 0.999458 4.7746C0.999458 6.972 2.80225 8.77478 4.99964 8.77478C7.19704 8.77478 8.99983 6.972 8.99983 4.7746C8.99983 2.5772 7.19704 0.774414 4.99964 0.774414ZM13 0.774414C11.9069 0.774414 10.9999 1.68139 10.9999 2.77451V6.77469C10.9999 7.86781 11.9069 8.77478 13 8.77478H17.0002C18.0933 8.77478 19.0003 7.86781 19.0003 6.77469V2.77451C19.0003 1.68139 18.0933 0.774414 17.0002 0.774414H13ZM4.99964 2.77451C6.11611 2.77451 6.99974 3.65813 6.99974 4.7746C6.99974 5.89106 6.11611 6.77469 4.99964 6.77469C3.88318 6.77469 2.99955 5.89106 2.99955 4.7746C2.99955 3.65813 3.88318 2.77451 4.99964 2.77451ZM13 4.7746C13 3.66998 13.8955 2.77451 15.0001 2.77451V2.77451C16.1047 2.77451 17.0002 3.66998 17.0002 4.7746V4.7746C17.0002 5.87922 16.1047 6.77469 15.0001 6.77469V6.77469C13.8955 6.77469 13 5.87922 13 4.7746V4.7746ZM14.5274 10.5092C14.3071 10.5029 14.0908 10.5695 13.9122 10.6987L10.6171 13.0933C10.4464 13.2174 10.3194 13.3923 10.2541 13.593C10.1889 13.7937 10.1887 14.0098 10.2538 14.2106L11.5136 18.0838C11.5788 18.2848 11.706 18.4599 11.8769 18.5841C12.0477 18.7083 12.2536 18.7752 12.4648 18.7752H16.5353C16.7466 18.7752 16.9524 18.7083 17.1233 18.5841C17.2942 18.4599 17.4213 18.2848 17.4865 18.0838L18.7464 14.2106C18.8114 14.0098 18.8113 13.7937 18.7461 13.593C18.6808 13.3923 18.5537 13.2174 18.3831 13.0933L15.088 10.6987C14.9245 10.5805 14.7291 10.5144 14.5274 10.5092ZM5.00746 10.7749C4.8204 10.7734 4.63668 10.8244 4.47717 10.9221C4.31766 11.0198 4.18874 11.1603 4.10507 11.3276L1.10493 17.3279C1.02871 17.4804 0.99273 17.6498 1.0004 17.8201C1.00808 17.9904 1.05915 18.1559 1.14878 18.3009C1.23841 18.4459 1.36361 18.5656 1.5125 18.6487C1.66139 18.7317 1.82903 18.7752 1.9995 18.7752H7.99978C8.17025 18.7752 8.33789 18.7317 8.48678 18.6487C8.63568 18.5656 8.76088 18.4459 8.85051 18.3009C8.94013 18.1559 8.99121 17.9904 8.99888 17.8201C9.00656 17.6498 8.97058 17.4804 8.89435 17.3279L5.89422 11.3276C5.81173 11.1627 5.68526 11.0238 5.52876 10.9262C5.37227 10.8287 5.19186 10.7763 5.00746 10.7749ZM13.4396 13.5149C14.0716 13.0553 14.9281 13.055 15.5601 13.5146V13.5146C16.1917 13.9738 16.4556 14.7877 16.2139 15.5303V15.5303C15.9723 16.2726 15.2801 16.7752 14.4994 16.7752V16.7752C13.7185 16.7752 13.0262 16.2722 12.785 15.5294V15.5294C12.544 14.7872 12.8085 13.9738 13.4396 13.5149V13.5149ZM4.23556 15.5384C4.5505 14.909 5.44879 14.909 5.76373 15.5384V15.5384C6.04798 16.1065 5.63489 16.7752 4.99964 16.7752V16.7752C4.3644 16.7752 3.95131 16.1065 4.23556 15.5384V15.5384Z" fill="white"/>
</g>
<defs>
<clipPath id="clip0_1_6938">
<rect width="18.55" height="18.55" fill="white" transform="translate(0.839111 0.128906)"/>
</clipPath>
</defs>
</svg>
