<svg width="22" height="22" viewBox="0 0 22 22" fill="none" xmlns="http://www.w3.org/2000/svg">
<g clip-path="url(#clip0_1_7058)">
<path d="M10.5 1.75C5.66738 1.75 1.75 5.66738 1.75 10.5C1.75 15.3326 5.66738 19.25 10.5 19.25C15.3326 19.25 19.25 15.3326 19.25 10.5C19.25 5.66738 15.3326 1.75 10.5 1.75ZM12.7628 14L9.88138 11.1186C9.71688 10.9541 9.625 10.7319 9.625 10.5V6.125C9.625 5.642 10.017 5.25 10.5 5.25C10.983 5.25 11.375 5.642 11.375 6.125V10.1378L14 12.7628C14.3412 13.104 14.3412 13.6588 14 14C13.6588 14.3412 13.104 14.3412 12.7628 14Z" fill="white"/>
</g>
<defs>
<clipPath id="clip0_1_7058">
<rect width="21.2117" height="21.2117" fill="white" transform="translate(0 0.263672)"/>
</clipPath>
</defs>
</svg>
