<svg width="20" height="20" viewBox="0 0 20 20" fill="none" xmlns="http://www.w3.org/2000/svg">
<path d="M4.16846 4.16797C2.67521 5.66197 1.75 7.72476 1.75 9.99951C1.75 12.2743 2.67521 14.3371 4.16846 15.8311L5.229 14.7705C4.0065 13.548 3.25 11.8603 3.25 9.99951C3.25 8.13876 4.0065 6.45102 5.229 5.22852L4.16846 4.16797ZM15.8315 4.16797L14.771 5.22852C15.9935 6.45102 16.75 8.13876 16.75 9.99951C16.75 11.8603 15.9935 13.548 14.771 14.7705L15.8315 15.8311C17.3248 14.3371 18.25 12.2743 18.25 9.99951C18.25 7.72476 17.3248 5.66197 15.8315 4.16797ZM6.28955 6.28906C5.33855 7.23931 4.75 8.55201 4.75 9.99951C4.75 11.447 5.33855 12.7597 6.28955 13.71L7.3501 12.6494C6.6706 11.9707 6.25 11.033 6.25 9.99951C6.25 8.96601 6.67135 8.02911 7.3501 7.34961L6.28955 6.28906ZM13.7104 6.28906L12.6499 7.34961C13.3294 8.02836 13.75 8.96601 13.75 9.99951C13.75 11.033 13.3287 11.9699 12.6499 12.6494L13.7104 13.71C14.6607 12.759 15.25 11.447 15.25 9.99951C15.25 8.55201 14.6614 7.23931 13.7104 6.28906ZM10 7.74951C9.40326 7.74951 8.83097 7.98656 8.40901 8.40852C7.98705 8.83048 7.75 9.40277 7.75 9.99951C7.75 10.5962 7.98705 11.1685 8.40901 11.5905C8.83097 12.0125 9.40326 12.2495 10 12.2495C10.5967 12.2495 11.169 12.0125 11.591 11.5905C12.0129 11.1685 12.25 10.5962 12.25 9.99951C12.25 9.40277 12.0129 8.83048 11.591 8.40852C11.169 7.98656 10.5967 7.74951 10 7.74951Z" fill="white"/>
</svg>
