<svg width="15" height="14" viewBox="0 0 15 14" fill="none" xmlns="http://www.w3.org/2000/svg">
<g clip-path="url(#clip0_1_5365)">
<path d="M7.72923 1.02832C4.59889 1.02832 2.0614 3.56581 2.0614 6.69615C2.0614 9.82649 4.59889 12.364 7.72923 12.364C10.8596 12.364 13.3971 9.82649 13.3971 6.69615C13.3971 3.56581 10.8596 1.02832 7.72923 1.02832ZM9.19493 8.96328L7.32851 7.09686C7.22196 6.99031 7.16245 6.84635 7.16245 6.69615V3.86223C7.16245 3.54937 7.41637 3.29545 7.72923 3.29545C8.04209 3.29545 8.29601 3.54937 8.29601 3.86223V6.4615L9.99636 8.16185C10.2174 8.3829 10.2174 8.74224 9.99636 8.96328C9.77532 9.18433 9.41598 9.18433 9.19493 8.96328Z" fill="white"/>
</g>
<defs>
<clipPath id="clip0_1_5365">
<rect width="13.7399" height="13.7399" fill="white" transform="translate(0.927979 0.0654297)"/>
</clipPath>
</defs>
</svg>
