<svg width="23" height="23" viewBox="0 0 23 23" fill="none" xmlns="http://www.w3.org/2000/svg">
<g clip-path="url(#clip0_1_4974)">
<path d="M11.0982 3.39746C6.23762 3.39746 2.26074 7.37434 2.26074 12.235C2.26074 17.0956 6.23762 21.0725 11.0982 21.0725C15.9589 21.0725 19.9357 17.0956 19.9357 12.235C19.9357 7.37434 15.9589 3.39746 11.0982 3.39746ZM11.0982 5.16496C12.014 5.16496 12.8875 5.34667 13.6925 5.66725L11.0982 6.7564L8.50395 5.66725C9.30896 5.34667 10.1825 5.16496 11.0982 5.16496ZM5.70944 7.67467L5.88377 10.5555L4.04896 12.6423C4.0411 12.5066 4.02824 12.3725 4.02824 12.235C4.02824 10.5005 4.66307 8.9082 5.70944 7.67467ZM16.487 7.67467C17.5334 8.9082 18.1682 10.5005 18.1682 12.235C18.1682 12.3725 18.1554 12.5066 18.1475 12.6423L16.3127 10.5555L16.487 7.67467ZM11.0982 9.0797L14.4192 11.4876L13.0919 15.3902H9.10463L7.77728 11.4876L11.0982 9.0797ZM5.11394 15.9736L7.91709 16.6537L9.33419 19.0719C7.56553 18.6127 6.06395 17.485 5.11394 15.9736ZM17.0825 15.9736C16.1325 17.485 14.631 18.6127 12.8623 19.0719L14.2794 16.6537L17.0825 15.9736Z" fill="white"/>
</g>
<defs>
<clipPath id="clip0_1_4974">
<rect width="21.2117" height="21.2117" fill="white" transform="translate(0.941406 0.894043)"/>
</clipPath>
</defs>
</svg>
