<svg width="22" height="22" viewBox="0 0 22 22" fill="none" xmlns="http://www.w3.org/2000/svg">
<g clip-path="url(#clip0_1_4440)">
<path d="M9.72107 3.65137C9.2523 3.65137 8.80273 3.83759 8.47126 4.16906C8.13979 4.50053 7.95357 4.9501 7.95357 5.41887C7.95357 5.88764 8.13979 6.33721 8.47126 6.66868C8.80273 7.00015 9.2523 7.18637 9.72107 7.18637C10.1898 7.18637 10.6394 7.00015 10.9709 6.66868C11.3024 6.33721 11.4886 5.88764 11.4886 5.41887C11.4886 4.9501 11.3024 4.50053 10.9709 4.16906C10.6394 3.83759 10.1898 3.65137 9.72107 3.65137ZM17.5074 6.31125C17.3431 6.29634 17.1756 6.29845 17.0068 6.31643C16.3319 6.38833 15.6417 6.71671 15.0978 7.26059C14.1307 8.22771 13.8477 9.65147 14.4799 10.6402L13.2561 11.864V11.6051H10.8033L9.8091 9.74096C9.8091 9.74096 9.78433 9.69483 9.78149 9.68917L9.60888 9.3664L9.60715 9.36813C9.55544 9.27159 9.53436 9.22256 9.48978 9.15064C9.09298 8.50285 8.38175 8.07012 7.56693 8.07012C6.81663 8.07012 6.14361 8.42869 5.74592 9.00047C5.09637 9.93725 3.74112 11.6679 3.55554 12.7098C3.54228 12.7876 3.53482 12.8609 3.53482 12.9307C3.53482 13.1367 3.69626 13.8934 3.76784 14.1718C3.9932 15.0441 4.29767 16.1549 4.41167 16.5676L1.8916 19.2378L3.18788 20.4374L5.9496 17.5083C6.10161 17.3448 6.18607 17.1303 6.18607 16.9076V14.208C6.18607 13.9942 6.26304 13.7872 6.40356 13.6264L8.56288 11.1632L9.49323 12.9049C9.56866 13.0462 9.6811 13.1644 9.81853 13.2468C9.95595 13.3292 10.1132 13.3727 10.2734 13.3726H13.2561V13.1137L15.1047 11.2651C16.0935 11.8973 17.5172 11.6143 18.4844 10.6471C19.5718 9.55971 19.8007 7.89022 18.8278 6.9171C18.4627 6.55199 18.0004 6.35598 17.5074 6.31125ZM17.3917 7.19327C17.7106 7.21729 17.9961 7.33504 18.203 7.54194H18.2047C18.756 8.09256 18.677 9.20479 17.8595 10.0223C17.0419 10.8399 15.9309 10.9175 15.3791 10.3658C14.8274 9.81408 14.905 8.70304 15.7226 7.88543C16.1314 7.47662 16.6148 7.2531 17.0638 7.20018C17.176 7.18694 17.2855 7.18526 17.3917 7.19327ZM18.5586 13.3726C18.3242 13.3726 18.0994 13.4657 17.9337 13.6315C17.7679 13.7972 17.6748 14.022 17.6748 14.2564C17.6748 14.4908 17.7679 14.7155 17.9337 14.8813C18.0994 15.047 18.3242 15.1401 18.5586 15.1401C18.793 15.1401 19.0177 15.047 19.1835 14.8813C19.3492 14.7155 19.4423 14.4908 19.4423 14.2564C19.4423 14.022 19.3492 13.7972 19.1835 13.6315C19.0177 13.4657 18.793 13.3726 18.5586 13.3726ZM7.21827 14.0389L7.06982 14.208V16.3898L8.04506 17.365L8.86667 20.396L10.5755 19.9403L9.69173 16.6798C9.65108 16.5295 9.57263 16.3924 9.46216 16.2828L7.21827 14.0389Z" fill="url(#paint0_linear_1_4440)"/>
</g>
<defs>
<linearGradient id="paint0_linear_1_4440" x1="19.0353" y1="1.89468" x2="5.40699" y2="22.5673" gradientUnits="userSpaceOnUse">
<stop stop-color="#00CB08"/>
<stop offset="1" stop-color="#00BF6F"/>
</linearGradient>
<clipPath id="clip0_1_4440">
<rect width="21.2117" height="21.2117" fill="white" transform="translate(0.292969 0.263672)"/>
</clipPath>
</defs>
</svg>
