<svg width="19" height="20" viewBox="0 0 19 20" fill="none" xmlns="http://www.w3.org/2000/svg">
<g clip-path="url(#clip0_1_6288)">
<path d="M4.85229 3.25C3.61857 3.25 2.60229 4.26627 2.60229 5.5V15.25C2.60229 16.0788 3.27354 16.75 4.10229 16.75H14.6023C15.431 16.75 16.1023 16.0788 16.1023 15.25V7.75C16.1023 6.92125 15.431 6.25 14.6023 6.25H6.35229H4.85229C4.42852 6.25 4.10229 5.92377 4.10229 5.5C4.10229 5.07623 4.42852 4.75 4.85229 4.75H15.3523V3.25H4.85229ZM13.8523 10.75C14.2663 10.75 14.6023 11.086 14.6023 11.5C14.6023 11.914 14.2663 12.25 13.8523 12.25C13.4383 12.25 13.1023 11.914 13.1023 11.5C13.1023 11.086 13.4383 10.75 13.8523 10.75Z" fill="white"/>
</g>
<defs>
<clipPath id="clip0_1_6288">
<rect width="18.55" height="18.55" fill="white" transform="translate(0.191345 0.724609)"/>
</clipPath>
</defs>
</svg>
