<svg width="22" height="22" viewBox="0 0 22 22" fill="none" xmlns="http://www.w3.org/2000/svg">
<g clip-path="url(#clip0_1_4435)">
<path d="M15.0238 2.89746C12.1965 2.89746 8.48542 4.04703 5.74442 6.87434C1.41542 11.2033 0.95974 17.7486 2.817 19.6059C3.43493 20.2238 4.6777 20.5725 6.26914 20.5725C9.01015 20.5725 12.7212 19.4229 15.5485 16.5956C19.8775 12.2666 20.3332 5.72132 18.4759 3.86406C17.7682 3.24613 16.5255 2.89746 15.0238 2.89746ZM15.0238 4.66496C15.5278 4.66496 15.9214 4.734 16.2666 4.80305L14.8305 6.23914L16.1009 7.50953L17.5922 6.0182C18.0064 7.89962 17.461 12.2079 14.3057 15.4357C11.7443 17.9109 8.47852 18.805 6.26914 18.805C5.72716 18.805 5.30254 18.7463 4.94352 18.6669L6.37961 17.2308L5.10922 15.9604L3.70075 17.3689C3.55576 16.7095 3.49362 15.7395 3.70075 14.3862C3.96656 12.9708 4.68806 10.3334 6.98719 8.03426C9.54868 5.55907 12.8144 4.66496 15.0238 4.66496ZM13.9467 7.12289L12.5659 8.50375C12.1412 7.97902 12.0411 7.67523 11.8478 7.48191C11.582 7.2161 11.147 7.2161 10.8812 7.48191L10.7707 7.59238C10.5049 7.8582 10.5049 8.29317 10.7707 8.55898C10.9744 8.76266 11.2126 8.72124 11.8202 9.24941L10.3565 10.7131C9.93187 10.1884 9.83176 9.88461 9.63844 9.69129C9.37262 9.42547 8.93765 9.42547 8.67184 9.69129L8.56137 9.80176C8.29555 10.0676 8.29555 10.5025 8.56137 10.7684C8.76505 10.972 9.00324 10.9306 9.61082 11.4588L8.14711 12.9225C7.7225 12.3978 7.62239 12.094 7.42907 11.9007C7.16325 11.6348 6.72828 11.6348 6.46246 11.9007L6.35199 12.0111C6.08618 12.2769 6.08618 12.7119 6.35199 12.9777C6.55567 13.1814 6.79387 13.14 7.40145 13.6682L5.99297 15.0766L7.26336 16.347L8.6166 14.9938C9.10681 15.6186 9.08955 15.7843 9.36227 15.988C9.71439 16.2538 10.0631 16.2538 10.3289 15.988L10.4393 15.8775C10.7052 15.6117 10.7052 15.1768 10.4393 14.9109C10.246 14.7176 9.94223 14.6175 9.4175 14.1929L10.826 12.7844C11.3162 13.4093 11.2989 13.575 11.5716 13.7786C11.9238 14.0444 12.2724 14.0444 12.5382 13.7786L12.6487 13.6682C12.9145 13.4023 12.9145 12.9674 12.6487 12.7016C12.4554 12.5082 12.1516 12.4081 11.6269 11.9835L13.0354 10.575C13.5256 11.1999 13.5083 11.3656 13.781 11.5693C14.1331 11.8351 14.4818 11.8351 14.7476 11.5693L14.8581 11.4588C15.1239 11.193 15.1239 10.758 14.8581 10.4922C14.6648 10.2989 14.361 10.1988 13.8363 9.77414L15.2171 8.39328L13.9467 7.12289Z" fill="url(#paint0_linear_1_4435)"/>
</g>
<defs>
<linearGradient id="paint0_linear_1_4435" x1="19.0975" y1="1.04775" x2="4.52049" y2="22.2563" gradientUnits="userSpaceOnUse">
<stop stop-color="#00CB08"/>
<stop offset="1" stop-color="#00BF6F"/>
</linearGradient>
<clipPath id="clip0_1_4435">
<rect width="21.2117" height="21.2117" fill="white" transform="translate(0.0117188 0.393555)"/>
</clipPath>
</defs>
</svg>
