<svg width="20" height="20" viewBox="0 0 20 20" fill="none" xmlns="http://www.w3.org/2000/svg">
<g clip-path="url(#clip0_1_1316)">
<path d="M4.99952 1.43506C2.80213 1.43506 0.999336 3.23785 0.999336 5.43524C0.999336 7.63264 2.80213 9.43543 4.99952 9.43543C7.19692 9.43543 8.99971 7.63264 8.99971 5.43524C8.99971 3.23785 7.19692 1.43506 4.99952 1.43506ZM12.9999 1.43506C11.9068 1.43506 10.9998 2.34204 10.9998 3.43515V7.43534C10.9998 8.52845 11.9068 9.43543 12.9999 9.43543H17.0001C18.0932 9.43543 19.0002 8.52845 19.0002 7.43534V3.43515C19.0002 2.34204 18.0932 1.43506 17.0001 1.43506H12.9999ZM4.99952 3.43515C6.11599 3.43515 6.99961 4.31878 6.99961 5.43524C6.99961 6.55171 6.11599 7.43534 4.99952 7.43534C3.88306 7.43534 2.99943 6.55171 2.99943 5.43524C2.99943 4.31878 3.88306 3.43515 4.99952 3.43515ZM12.9999 5.43524C12.9999 4.33062 13.8954 3.43515 15 3.43515V3.43515C16.1046 3.43515 17.0001 4.33062 17.0001 5.43524V5.43524C17.0001 6.53986 16.1046 7.43534 15 7.43534V7.43534C13.8954 7.43534 12.9999 6.53986 12.9999 5.43524V5.43524ZM14.5273 11.1699C14.3069 11.1635 14.0906 11.2301 13.912 11.3593L10.617 13.754C10.4463 13.8781 10.3192 14.053 10.254 14.2536C10.1887 14.4543 10.1886 14.6705 10.2537 14.8712L11.5135 18.7445C11.5787 18.9454 11.7059 19.1205 11.8767 19.2447C12.0476 19.369 12.2535 19.4359 12.4647 19.4359H16.5352C16.7465 19.4359 16.9523 19.369 17.1232 19.2447C17.2941 19.1205 17.4212 18.9454 17.4864 18.7445L18.7463 14.8712C18.8113 14.6705 18.8112 14.4543 18.7459 14.2536C18.6807 14.053 18.5536 13.8781 18.383 13.754L15.0879 11.3593C14.9244 11.2411 14.729 11.1751 14.5273 11.1699ZM5.00733 11.4355C4.82028 11.434 4.63656 11.4851 4.47705 11.5828C4.31753 11.6805 4.18862 11.821 4.10495 11.9883L1.10481 17.9886C1.02859 18.141 0.992608 18.3105 1.00028 18.4808C1.00796 18.6511 1.05903 18.8166 1.14866 18.9616C1.23828 19.1066 1.36349 19.2263 1.51238 19.3093C1.66127 19.3923 1.82891 19.4359 1.99938 19.4359H7.99966C8.17013 19.4359 8.33777 19.3923 8.48666 19.3093C8.63555 19.2263 8.76076 19.1066 8.85038 18.9616C8.94001 18.8166 8.99109 18.6511 8.99876 18.4808C9.00643 18.3105 8.97045 18.141 8.89423 17.9886L5.89409 11.9883C5.81161 11.8234 5.68513 11.6844 5.52864 11.5869C5.37215 11.4893 5.19173 11.437 5.00733 11.4355ZM13.4395 14.1755C14.0715 13.7159 14.928 13.7156 15.56 14.1752V14.1752C16.1916 14.6345 16.4555 15.4483 16.2138 16.1909V16.1909C15.9722 16.9332 15.28 17.4358 14.4993 17.4358V17.4358C13.7184 17.4358 13.026 16.9329 12.7849 16.1901V16.1901C12.5439 15.4478 12.8083 14.6345 13.4395 14.1755V14.1755ZM4.23544 16.1991C4.55038 15.5696 5.44866 15.5696 5.76361 16.1991V16.1991C6.04786 16.7672 5.63477 17.4358 4.99952 17.4358V17.4358C4.36427 17.4358 3.95118 16.7672 4.23544 16.1991V16.1991Z" fill="white"/>
</g>
<defs>
<clipPath id="clip0_1_1316">
<rect width="18.55" height="18.55" fill="white" transform="translate(0.839111 0.789551)"/>
</clipPath>
</defs>
</svg>
