<svg width="22" height="22" viewBox="0 0 22 22" fill="none" xmlns="http://www.w3.org/2000/svg">
<g clip-path="url(#clip0_1_4655)">
<path d="M7.18692 2.76714C6.20996 2.76714 5.41942 3.55768 5.41942 4.53464C5.41942 5.5116 6.20996 6.30214 7.18692 6.30214C8.16388 6.30214 8.95442 5.5116 8.95442 4.53464C8.95442 3.55768 8.16388 2.76714 7.18692 2.76714ZM16.7148 2.76714C16.4352 2.80166 16.3006 2.93284 16.3006 2.93284L7.02122 12.1846C6.79337 12.4124 6.79337 12.7853 7.02122 13.0131L10.1972 16.1891C10.425 16.4169 10.7979 16.4169 11.0257 16.1891L20.2775 6.90972C20.2775 6.90972 21.0369 5.90169 19.1728 4.03753C18.006 2.87071 17.1809 2.70845 16.7148 2.76714ZM6.77266 14.0902V14.4768C6.77611 14.8635 6.63112 15.2536 6.3584 15.5263L2.93387 18.9232C2.69913 19.1579 2.69913 19.5446 2.93387 19.7793L3.43098 20.2764C3.66573 20.5112 4.05237 20.5112 4.28711 20.2764L7.68403 16.8519C7.96365 16.5723 8.33994 16.4307 8.73348 16.4376H9.12012L6.77266 14.0902Z" fill="url(#paint0_linear_1_4655)"/>
</g>
<defs>
<linearGradient id="paint0_linear_1_4655" x1="20.0196" y1="0.904963" x2="5.40363" y2="22.0809" gradientUnits="userSpaceOnUse">
<stop stop-color="#00CB08"/>
<stop offset="1" stop-color="#00BF6F"/>
</linearGradient>
<clipPath id="clip0_1_4655">
<rect width="21.2117" height="21.2117" fill="white" transform="translate(0.72998 0.263672)"/>
</clipPath>
</defs>
</svg>
