<svg width="15" height="14" viewBox="0 0 15 14" fill="none" xmlns="http://www.w3.org/2000/svg">
<g clip-path="url(#clip0_1_5658)">
<path d="M6.96132 1.68652C3.81284 1.68652 1.23682 4.26255 1.23682 7.41103C1.23682 10.5595 3.81284 13.1355 6.96132 13.1355C10.1098 13.1355 12.6858 10.5595 12.6858 7.41103C12.6858 4.26255 10.1098 1.68652 6.96132 1.68652ZM6.96132 2.83142C7.5545 2.83142 8.12034 2.94913 8.64178 3.15678L6.96132 3.86228L5.28087 3.15678C5.80231 2.94913 6.36815 2.83142 6.96132 2.83142ZM3.47072 4.4571L3.58364 6.32315L2.39513 7.6749C2.39005 7.58702 2.38172 7.50013 2.38172 7.41103C2.38172 6.28754 2.79293 5.25612 3.47072 4.4571ZM10.4519 4.4571C11.1297 5.25612 11.5409 6.28754 11.5409 7.41103C11.5409 7.50013 11.5326 7.58702 11.5275 7.6749L10.339 6.32315L10.4519 4.4571ZM6.96132 5.3672L9.11249 6.92691L8.25269 9.45486H5.66996L4.81016 6.92691L6.96132 5.3672ZM3.08498 9.83277L4.90072 10.2733L5.81866 11.8397C4.673 11.5422 3.70035 10.8118 3.08498 9.83277ZM10.8377 9.83277C10.2223 10.8118 9.24964 11.5422 8.10399 11.8397L9.02192 10.2733L10.8377 9.83277Z" fill="white"/>
</g>
<defs>
<clipPath id="clip0_1_5658">
<rect width="13.7399" height="13.7399" fill="white" transform="translate(0.382263 0.0654297)"/>
</clipPath>
</defs>
</svg>
