<svg width="19" height="18" viewBox="0 0 19 18" fill="none" xmlns="http://www.w3.org/2000/svg">
<g clip-path="url(#clip0_1_605)">
<path d="M3.32997 0.619629C1.913 0.619629 0.757324 1.77531 0.757324 3.19227V13.4828C0.757324 14.8998 1.913 16.0555 3.32997 16.0555H5.36664L12.4682 17.717C12.6591 17.7605 12.8434 17.7706 13.031 17.7706C14.2034 17.7706 15.2753 16.9499 15.55 15.7607L17.8547 5.73811C18.1696 4.35465 17.2785 2.97118 15.8984 2.6563L12.3878 1.85235C11.9356 1.11875 11.1149 0.619629 10.1903 0.619629H3.32997ZM3.32997 2.33472H10.1903C10.6627 2.33472 11.0479 2.71995 11.0479 3.19227V13.4828C11.0479 13.9552 10.6627 14.3404 10.1903 14.3404H3.32997C2.85765 14.3404 2.47242 13.9552 2.47242 13.4828V3.19227C2.47242 2.71995 2.85765 2.33472 3.32997 2.33472ZM12.763 3.70144L15.5232 4.3178C15.9855 4.42164 16.2702 4.90402 16.1664 5.36294L13.8617 15.3855C13.7545 15.8444 13.2956 16.1325 12.8434 16.0287L11.4499 15.7071C12.227 15.2649 12.763 14.4409 12.763 13.4828V3.70144ZM6.76015 4.04982C6.76015 4.04982 3.32997 6.8268 3.32997 8.39115C3.32997 9.43294 4.17746 10.2938 5.20585 10.2938C5.56428 10.2938 5.91936 10.1665 6.22419 9.97225L5.60783 11.7677H7.91248L7.29612 9.99905C7.5775 10.1799 7.91918 10.2938 8.31446 10.2938C9.34285 10.2938 10.1903 9.43294 10.1903 8.39115C10.1903 6.83015 6.76015 4.04982 6.76015 4.04982Z" fill="white"/>
</g>
<defs>
<clipPath id="clip0_1_605">
<rect width="18" height="18" fill="white" transform="translate(0.429688)"/>
</clipPath>
</defs>
</svg>
