<svg width="19" height="20" viewBox="0 0 19 20" fill="none" xmlns="http://www.w3.org/2000/svg">
<g clip-path="url(#clip0_1_4379)">
<path d="M4.85254 3.25C3.61881 3.25 2.60254 4.26627 2.60254 5.5V15.25C2.60254 16.0788 3.27379 16.75 4.10254 16.75H14.6025C15.4313 16.75 16.1025 16.0788 16.1025 15.25V7.75C16.1025 6.92125 15.4313 6.25 14.6025 6.25H6.35254H4.85254C4.42877 6.25 4.10254 5.92377 4.10254 5.5C4.10254 5.07623 4.42877 4.75 4.85254 4.75H15.3525V3.25H4.85254ZM13.8525 10.75C14.2665 10.75 14.6025 11.086 14.6025 11.5C14.6025 11.914 14.2665 12.25 13.8525 12.25C13.4385 12.25 13.1025 11.914 13.1025 11.5C13.1025 11.086 13.4385 10.75 13.8525 10.75Z" fill="white"/>
</g>
<defs>
<clipPath id="clip0_1_4379">
<rect width="18.55" height="18.55" fill="white" transform="translate(0.191406 0.724609)"/>
</clipPath>
</defs>
</svg>
