<svg width="20" height="19" viewBox="0 0 20 19" fill="none" xmlns="http://www.w3.org/2000/svg">
<g clip-path="url(#clip0_1_4354)">
<path d="M9.60508 0.767578C4.74445 0.767578 0.767578 4.74445 0.767578 9.60508C0.767578 14.4657 4.74445 18.4426 9.60508 18.4426C14.4657 18.4426 18.4426 14.4657 18.4426 9.60508C18.4426 4.74445 14.4657 0.767578 9.60508 0.767578ZM9.60508 2.53508C10.5208 2.53508 11.3944 2.71679 12.1994 3.03737L9.60508 4.12652L7.01079 3.03737C7.81579 2.71679 8.68933 2.53508 9.60508 2.53508ZM4.21627 5.04479L4.39061 7.92561L2.55579 10.0124C2.54794 9.87676 2.53508 9.74262 2.53508 9.60508C2.53508 7.87063 3.16991 6.27832 4.21627 5.04479ZM14.9939 5.04479C16.0402 6.27832 16.6751 7.87063 16.6751 9.60508C16.6751 9.74262 16.6622 9.87676 16.6544 10.0124L14.8195 7.92561L14.9939 5.04479ZM9.60508 6.44981L12.926 8.85769L11.5987 12.7603H7.61146L6.28411 8.85769L9.60508 6.44981ZM3.62078 13.3438L6.42392 14.0238L7.84103 16.4421C6.07237 15.9828 4.57079 14.8551 3.62078 13.3438ZM15.5894 13.3438C14.6394 14.8551 13.1378 15.9828 11.3691 16.4421L12.7862 14.0238L15.5894 13.3438Z" fill="white"/>
</g>
<defs>
<clipPath id="clip0_1_4354">
<rect width="18.55" height="18.55" fill="white" transform="translate(0.838867 0.128906)"/>
</clipPath>
</defs>
</svg>
