<svg width="20" height="20" viewBox="0 0 20 20" fill="none" xmlns="http://www.w3.org/2000/svg">
<g clip-path="url(#clip0_1_380)">
<path d="M12.7026 2.49854C12.3048 2.49854 11.9233 2.65657 11.642 2.93788C11.3607 3.21918 11.2026 3.60071 11.2026 3.99854C11.2026 4.39636 11.3607 4.77789 11.642 5.0592C11.9233 5.3405 12.3048 5.49854 12.7026 5.49854C12.8996 5.49854 13.0947 5.45974 13.2767 5.38435C13.4587 5.30897 13.624 5.19848 13.7633 5.0592C13.9026 4.91991 14.0131 4.75455 14.0885 4.57256C14.1638 4.39057 14.2026 4.19552 14.2026 3.99854C14.2026 3.60071 14.0446 3.21918 13.7633 2.93788C13.482 2.65657 13.1005 2.49854 12.7026 2.49854ZM10.4526 5.5L7.04395 5.50147L4.45264 7.95947L5.48682 9.04785L7.63867 7.00293L8.71094 7.00732L4.01465 16.8174L5.32422 17.5483L7.0835 13.8569L11.7681 13.0264L12.6689 11.8149L10.1875 10.9463L11.4238 8.42529L12.4961 9.99854H15.7041V8.49854H13.2871L11.7505 6.24707L11.7461 6.24414C11.6142 6.01802 11.4254 5.83036 11.1985 5.69981C10.9716 5.56927 10.7144 5.50038 10.4526 5.5Z" fill="white"/>
</g>
<defs>
<clipPath id="clip0_1_380">
<rect width="18.55" height="18.55" fill="white" transform="translate(0.838867 0.725098)"/>
</clipPath>
</defs>
</svg>
