<svg width="22" height="22" viewBox="0 0 22 22" fill="none" xmlns="http://www.w3.org/2000/svg">
<g clip-path="url(#clip0_1_4445)">
<path d="M11 3.12988C6.05 3.12988 2 7.17988 2 12.1299C2 17.0799 6.05 21.1299 11 21.1299C13.257 21.1299 15.3207 20.2932 16.9062 18.908C17.0891 18.8201 17.2402 18.6689 17.3281 18.4861C18.9664 16.8549 20 14.6119 20 12.1299C20 7.17988 15.95 3.12988 11 3.12988ZM11.9281 4.98613C13.0707 5.1373 14.1395 5.56973 15.05 6.19551C13.9531 7.15879 12.1812 9.14512 11.9562 12.1018C11.6504 12.1158 11.3305 12.1299 11 12.1299C10.6871 12.1299 10.3883 12.1123 10.1 12.1018C10.1035 9.62676 10.5816 7.82676 11.0562 6.64551C11.5133 5.50996 11.8965 5.0248 11.9281 4.98613ZM9.81875 5.04238C9.68164 5.30957 9.5375 5.62598 9.39687 5.97051C8.85195 7.31699 8.32461 9.30684 8.3 11.933C7.97656 11.8873 7.65664 11.824 7.37187 11.7643C7.23125 8.81113 6.59844 7.04629 6.41562 6.58926C7.36836 5.80176 8.54961 5.25684 9.81875 5.04238ZM16.4 7.40488C17.1488 8.2627 17.6973 9.30684 17.975 10.4424C17.8379 10.5619 17.5145 10.8115 16.6531 11.1736C15.9816 11.4584 15.0148 11.7186 13.7844 11.9049C14.0867 9.49316 15.6301 8.0166 16.4 7.40488ZM5.0375 8.13613C5.22734 8.8252 5.43828 9.80605 5.54375 11.2299C5.48398 11.2053 5.40312 11.1982 5.34687 11.1736C4.48555 10.8115 4.16211 10.5619 4.025 10.4424C4.22891 9.6127 4.57344 8.82871 5.0375 8.13613ZM3.8 12.4393C4.04609 12.5764 4.32031 12.6959 4.64375 12.833C4.91445 12.9455 5.24141 13.065 5.57187 13.1705C5.5332 14.3729 5.30117 15.4275 5.06562 16.1799C4.33086 15.1041 3.85977 13.8209 3.8 12.4393ZM18.2 12.4393C18.1262 14.1865 17.402 15.7826 16.2875 16.9955C15.5246 16.5877 14.1219 15.5928 13.8125 13.733C15.3031 13.5291 16.4984 13.1951 17.3562 12.833C17.6797 12.6959 17.9539 12.5764 18.2 12.4393ZM7.37187 13.6205C7.67773 13.6768 8.01523 13.7189 8.35625 13.7611C8.51797 15.6842 8.95742 17.2029 9.39687 18.2893C9.5375 18.6338 9.68164 18.9502 9.81875 19.2174C8.56367 19.0064 7.39297 18.4721 6.44375 17.6986C6.74258 16.9709 7.25234 15.4838 7.37187 13.6205ZM10.1844 13.9018C10.448 13.9123 10.7187 13.9299 11 13.9299C11.348 13.9299 11.6891 13.9158 12.0125 13.9018C12.3359 16.1166 13.7598 17.4736 14.8531 18.2049C13.9883 18.7568 12.9863 19.133 11.9281 19.2736C11.8965 19.235 11.5133 18.7498 11.0562 17.6143C10.7012 16.7318 10.3426 15.5014 10.1844 13.9018Z" fill="url(#paint0_linear_1_4445)"/>
</g>
<defs>
<linearGradient id="paint0_linear_1_4445" x1="19.5814" y1="1.24616" x2="4.72093" y2="22.8043" gradientUnits="userSpaceOnUse">
<stop stop-color="#00CB08"/>
<stop offset="1" stop-color="#00BF6F"/>
</linearGradient>
<clipPath id="clip0_1_4445">
<rect width="21.2117" height="21.2117" fill="white" transform="translate(0.574219 0.393555)"/>
</clipPath>
</defs>
</svg>
