<svg width="23" height="22" viewBox="0 0 23 22" fill="none" xmlns="http://www.w3.org/2000/svg">
<g clip-path="url(#clip0_1_4450)">
<path d="M4.53508 2.76758C3.55853 2.76758 2.76758 3.55853 2.76758 4.53508V6.30258V8.95383C2.76758 9.91982 3.56908 10.7213 4.53508 10.7213H8.95383C9.91982 10.7213 10.7213 9.91982 10.7213 8.95383V5.41883V4.53508C10.7213 3.55853 9.93037 2.76758 8.95383 2.76758H4.53508ZM14.2563 2.76758C13.2798 2.76758 12.4888 3.55853 12.4888 4.53508V6.30258V8.95383C12.4888 9.91982 13.2903 10.7213 14.2563 10.7213H18.6751C19.6411 10.7213 20.4426 9.91982 20.4426 8.95383V5.41883V4.53508C20.4426 3.55853 19.6516 2.76758 18.6751 2.76758H14.2563ZM4.53508 6.30258H8.95383V8.95383H4.53508V6.30258ZM14.2563 6.30258H18.6751V8.95383H14.2563V6.30258ZM4.53508 12.4888C3.55853 12.4888 2.76758 13.2798 2.76758 14.2563V16.0238V18.6751C2.76758 19.6411 3.56908 20.4426 4.53508 20.4426H8.95383C9.91982 20.4426 10.7213 19.6411 10.7213 18.6751V15.1401V14.2563C10.7213 13.2798 9.93037 12.4888 8.95383 12.4888H4.53508ZM14.2563 12.4888C13.2798 12.4888 12.4888 13.2798 12.4888 14.2563V15.1401V16.0238V18.6751C12.4888 19.6411 13.2903 20.4426 14.2563 20.4426H18.6751C19.6411 20.4426 20.4426 19.6411 20.4426 18.6751V16.0238V15.1401V14.2563C20.4426 13.2798 19.6516 12.4888 18.6751 12.4888H14.2563ZM4.53508 16.0238H8.95383V18.6751H4.53508V16.0238ZM14.2563 16.0238H18.6751V18.6751H14.2563V16.0238Z" fill="white"/>
</g>
<defs>
<clipPath id="clip0_1_4450">
<rect width="21.2117" height="21.2117" fill="white" transform="translate(0.855957 0.263672)"/>
</clipPath>
</defs>
</svg>
