<svg width="19" height="18" viewBox="0 0 19 18" fill="none" xmlns="http://www.w3.org/2000/svg">
<g clip-path="url(#clip0_1_2225)">
<path d="M3.32997 0.619385C1.913 0.619385 0.757324 1.77506 0.757324 3.19203V13.4826C0.757324 14.8996 1.913 16.0552 3.32997 16.0552H5.36664L12.4682 17.7167C12.6591 17.7603 12.8434 17.7703 13.031 17.7703C14.2034 17.7703 15.2753 16.9496 15.55 15.7605L17.8547 5.73787C18.1696 4.3544 17.2785 2.97094 15.8984 2.65606L12.3878 1.85211C11.9356 1.1185 11.1149 0.619385 10.1903 0.619385H3.32997ZM3.32997 2.33448H10.1903C10.6627 2.33448 11.0479 2.71971 11.0479 3.19203V13.4826C11.0479 13.9549 10.6627 14.3401 10.1903 14.3401H3.32997C2.85765 14.3401 2.47242 13.9549 2.47242 13.4826V3.19203C2.47242 2.71971 2.85765 2.33448 3.32997 2.33448ZM12.763 3.70119L15.5232 4.31756C15.9855 4.4214 16.2702 4.90377 16.1664 5.36269L13.8617 15.3853C13.7545 15.8442 13.2956 16.1323 12.8434 16.0284L11.4499 15.7069C12.227 15.2647 12.763 14.4406 12.763 13.4826V3.70119ZM6.76015 4.04957C6.76015 4.04957 3.32997 6.82655 3.32997 8.39091C3.32997 9.43269 4.17746 10.2936 5.20585 10.2936C5.56428 10.2936 5.91936 10.1663 6.22419 9.97201L5.60783 11.7675H7.91248L7.29612 9.99881C7.5775 10.1797 7.91918 10.2936 8.31446 10.2936C9.34285 10.2936 10.1903 9.43269 10.1903 8.39091C10.1903 6.8299 6.76015 4.04957 6.76015 4.04957Z" fill="white"/>
</g>
<defs>
<clipPath id="clip0_1_2225">
<rect width="18" height="18" fill="white" transform="translate(0.429688)"/>
</clipPath>
</defs>
</svg>
