<svg width="20" height="19" viewBox="0 0 20 19" fill="none" xmlns="http://www.w3.org/2000/svg">
<g clip-path="url(#clip0_1_6219)">
<path d="M3.13249 2C2.07671 2 1.23224 2.94418 1.36508 3.99809V3.99983C1.62983 6.07962 2.61183 7.59108 3.43429 8.80253C4.25674 10.014 4.84787 10.9049 4.84787 11.7684C4.8462 11.8861 4.86794 12.003 4.91182 12.1122C4.9557 12.2214 5.02085 12.3207 5.10348 12.4046C5.18611 12.4884 5.28457 12.5549 5.39313 12.6003C5.5017 12.6457 5.61822 12.6691 5.73591 12.6691C5.85359 12.6691 5.97011 12.6457 6.07868 12.6003C6.18725 12.5549 6.28571 12.4884 6.36833 12.4046C6.45096 12.3207 6.51611 12.2214 6.55999 12.1122C6.60387 12.003 6.62561 11.8861 6.62395 11.7684C6.62395 11.7541 6.62062 11.7411 6.62048 11.7268C7.48941 13.6921 8.40003 14.4326 8.40003 14.4326H11.9522C11.9522 14.4326 12.8628 13.6921 13.7317 11.7268C13.7316 11.7411 13.7283 11.7541 13.7283 11.7684C13.7266 11.8861 13.7483 12.003 13.7922 12.1122C13.8361 12.2214 13.9013 12.3207 13.9839 12.4046C14.0665 12.4884 14.165 12.5549 14.2735 12.6003C14.3821 12.6457 14.4986 12.6691 14.6163 12.6691C14.734 12.6691 14.8505 12.6457 14.9591 12.6003C15.0677 12.5549 15.1661 12.4884 15.2487 12.4046C15.3314 12.3207 15.3965 12.2214 15.4404 12.1122C15.4843 12.003 15.506 11.8861 15.5044 11.7684C15.5044 10.9049 16.0955 10.014 16.9179 8.80253C17.7404 7.59108 18.7224 6.07962 18.9871 3.99983C19.1219 2.94441 18.2755 2 17.2197 2H3.13249ZM17.2249 3.77435C17.0155 5.41989 16.2528 6.62096 15.4488 7.80522C15.1628 8.22653 14.8741 8.65541 14.6059 9.09565C14.9531 7.67736 15.2046 5.92147 15.2615 3.77608H17.2197C17.2296 3.77608 17.2249 3.77435 17.2249 3.77435ZM3.12729 3.77608C3.12693 3.77323 3.12262 3.77608 3.13249 3.77608H5.09069C5.14757 5.92147 5.39911 7.67736 5.74631 9.09565C5.47812 8.65541 5.1894 8.22654 4.90337 7.80522C4.09967 6.62139 3.33708 5.4207 3.12729 3.77608ZM6.62395 16.2086C6.13375 16.2086 5.73591 16.6065 5.73591 17.0967C5.73591 17.5869 6.13375 17.9847 6.62395 17.9847H13.7283C14.2185 17.9847 14.6163 17.5869 14.6163 17.0967C14.6163 16.6065 14.2185 16.2086 13.7283 16.2086H6.62395Z" fill="white"/>
</g>
<defs>
<clipPath id="clip0_1_6219">
<rect width="18.55" height="18.55" fill="white" transform="translate(0.839081 0.128906)"/>
</clipPath>
</defs>
</svg>
