<svg width="20" height="20" viewBox="0 0 20 20" fill="none" xmlns="http://www.w3.org/2000/svg">
<g clip-path="url(#clip0_1_585)">
<path d="M12.7031 2.49854C12.3053 2.49854 11.9238 2.65657 11.6425 2.93788C11.3612 3.21918 11.2031 3.60071 11.2031 3.99854C11.2031 4.39636 11.3612 4.77789 11.6425 5.0592C11.9238 5.3405 12.3053 5.49854 12.7031 5.49854C12.9001 5.49854 13.0952 5.45974 13.2772 5.38435C13.4591 5.30897 13.6245 5.19848 13.7638 5.0592C13.9031 4.91991 14.0136 4.75455 14.0889 4.57256C14.1643 4.39057 14.2031 4.19552 14.2031 3.99854C14.2031 3.60071 14.0451 3.21918 13.7638 2.93788C13.4825 2.65657 13.1009 2.49854 12.7031 2.49854ZM10.4531 5.5L7.04443 5.50147L4.45312 7.95947L5.4873 9.04785L7.63916 7.00293L8.71143 7.00732L4.01514 16.8174L5.32471 17.5483L7.08398 13.8569L11.7686 13.0264L12.6694 11.8149L10.188 10.9463L11.4243 8.42529L12.4966 9.99854H15.7046V8.49854H13.2876L11.751 6.24707L11.7466 6.24414C11.6147 6.01802 11.4259 5.83036 11.199 5.69981C10.972 5.56927 10.7149 5.50038 10.4531 5.5Z" fill="white"/>
</g>
<defs>
<clipPath id="clip0_1_585">
<rect width="18.55" height="18.55" fill="white" transform="translate(0.838867 0.725098)"/>
</clipPath>
</defs>
</svg>
