<svg width="20" height="20" viewBox="0 0 20 20" fill="none" xmlns="http://www.w3.org/2000/svg">
<g clip-path="url(#clip0_1_600)">
<path d="M9.97607 1.75L9.99951 3.25C10.436 3.25 10.8729 3.2913 11.2959 3.37305L11.5815 1.90088C11.064 1.80038 10.532 1.75 9.99951 1.75H9.97607ZM8.36621 1.9126C7.83746 2.0191 7.31734 2.17799 6.81934 2.38574L7.39795 3.76855C7.80445 3.59905 8.22936 3.46955 8.66211 3.3833L8.36621 1.9126ZM13.1313 2.36523L12.563 3.75391C12.9695 3.92116 13.3622 4.12904 13.7305 4.37354L14.5596 3.12256C14.1096 2.82406 13.6293 2.56923 13.1313 2.36523ZM5.39697 3.15332C4.95072 3.45332 4.53139 3.79914 4.15039 4.18164L5.21387 5.23926C5.52512 4.92576 5.8689 4.64222 6.2334 4.39697L5.39697 3.15332ZM15.8105 4.14502L14.7544 5.20996C15.0686 5.52121 15.3521 5.86353 15.5981 6.22803L16.8418 5.39014C16.541 4.94464 16.1938 4.52527 15.8105 4.14502ZM9.99951 4.75C7.10451 4.75 4.74951 7.105 4.74951 10C4.74951 12.895 7.10451 15.25 9.99951 15.25C12.8945 15.25 15.2495 12.895 15.2495 10C15.2495 7.105 12.8945 4.75 9.99951 4.75ZM3.12793 5.43262C2.82943 5.88112 2.57318 6.36062 2.36768 6.85938L3.75488 7.43066C3.92288 7.02266 4.13223 6.63065 4.37598 6.26465L3.12793 5.43262ZM9.99951 6.25C12.0673 6.25 13.7495 7.93225 13.7495 10C13.7495 12.0677 12.0673 13.75 9.99951 13.75C7.93176 13.75 6.24951 12.0677 6.24951 10C6.24951 7.93225 7.93176 6.25 9.99951 6.25ZM17.6108 6.81104L16.228 7.39111C16.3983 7.79686 16.5277 8.22181 16.6147 8.65381L18.0854 8.35791C17.9789 7.82841 17.8193 7.30829 17.6108 6.81104ZM9.99951 7.75C8.75901 7.75 7.74951 8.7595 7.74951 10C7.74951 11.2405 8.75901 12.25 9.99951 12.25C11.24 12.25 12.2495 11.2405 12.2495 10C12.2495 8.7595 11.24 7.75 9.99951 7.75ZM1.90332 8.40918C1.80132 8.92968 1.74951 9.46525 1.74951 10V10.0161L3.24951 10C3.24951 9.56125 3.29149 9.12375 3.37549 8.69775L1.90332 8.40918ZM9.99951 9.25C10.4128 9.25 10.7495 9.58675 10.7495 10C10.7495 10.4132 10.4128 10.75 9.99951 10.75C9.58626 10.75 9.24951 10.4132 9.24951 10C9.24951 9.58675 9.58626 9.25 9.99951 9.25ZM18.2495 9.96777L16.7495 10C16.7495 10.4425 16.7054 10.8856 16.6206 11.3169L18.0928 11.6084C18.197 11.0811 18.2495 10.54 18.2495 10V9.96777ZM3.38135 11.3315L1.91064 11.6245C2.01564 12.1525 2.17457 12.6726 2.38232 13.1714L3.7666 12.5942C3.5971 12.187 3.4676 11.7628 3.38135 11.3315ZM16.2383 12.5811C16.0703 12.9868 15.8603 13.3788 15.6143 13.7471L16.8623 14.5806C17.1623 14.1313 17.42 13.651 17.6255 13.1553L16.2383 12.5811ZM4.39209 13.7603L3.14697 14.5967C3.44622 15.0429 3.79279 15.4608 4.17529 15.8418L5.23438 14.7798C4.92163 14.4678 4.63734 14.1255 4.39209 13.7603ZM14.7749 14.771C14.4629 15.0837 14.1192 15.3666 13.7539 15.6118L14.5889 16.8569C15.0351 16.5577 15.4552 16.2118 15.8369 15.8301L14.7749 14.771ZM6.2583 15.6191L5.4248 16.8672C5.87405 17.1672 6.35431 17.4234 6.85156 17.6289L7.42432 16.2417C7.01782 16.0737 6.6258 15.8651 6.2583 15.6191ZM12.5864 16.2358C12.1799 16.4046 11.7557 16.5341 11.3237 16.6196L11.6152 18.0918C12.1447 17.9868 12.6663 17.8286 13.1636 17.6216L12.5864 16.2358ZM8.68994 16.6226L8.3999 18.0947C8.92265 18.1975 9.46101 18.25 9.99951 18.25H10.0464L10.0918 18.2441L10.0083 17.5015V16.75H9.96582C9.53532 16.7477 9.10619 16.7043 8.68994 16.6226Z" fill="white"/>
</g>
<defs>
<clipPath id="clip0_1_600">
<rect width="18" height="18" fill="white" transform="translate(0.999512 1)"/>
</clipPath>
</defs>
</svg>
