<svg width="29" height="29" viewBox="0 0 29 29" fill="none" xmlns="http://www.w3.org/2000/svg">
<g filter="url(#filter0_d_1_6345)">
<path d="M23.2365 4.55664C22.6622 4.55664 22.1988 5.12182 21.7123 5.4269C21.5516 5.52766 21.3611 5.58602 21.1569 5.58602C20.9527 5.58602 20.7622 5.52766 20.6015 5.4269C20.115 5.12182 19.6516 4.55664 19.0774 4.55664V4.55664C18.5031 4.55664 18.0397 5.12182 17.5532 5.4269C17.3925 5.52766 17.202 5.58602 16.9978 5.58602C16.7936 5.58602 16.6031 5.52766 16.4424 5.4269C15.9559 5.12182 15.4925 4.55664 14.9182 4.55664V4.55664C14.344 4.55664 13.8806 5.12182 13.3941 5.4269C13.2334 5.52766 13.0429 5.58602 12.8387 5.58602C12.6345 5.58602 12.444 5.52766 12.2833 5.4269C11.7968 5.12182 11.3334 4.55664 10.7591 4.55664V4.55664C10.1849 4.55664 9.72147 5.12182 9.23495 5.4269C9.07425 5.52766 8.88377 5.58602 8.6796 5.58602C8.47543 5.58602 8.28495 5.52766 8.12425 5.4269C7.63773 5.12182 7.1743 4.55664 6.60005 4.55664V4.55664C6.02609 4.55664 5.56027 5.0178 5.56027 5.58602V23.0854C5.56027 24.2229 6.49087 25.1442 7.63982 25.1442H22.1967C23.3456 25.1442 24.2762 24.2229 24.2762 23.0854V5.58602C24.2762 5.0178 23.8104 4.55664 23.2365 4.55664V4.55664ZM15.958 21.0267H9.71937C9.14542 21.0267 8.6796 20.5655 8.6796 19.9973C8.6796 19.4291 9.14542 18.9679 9.71937 18.9679H15.958C16.532 18.9679 16.9978 19.4291 16.9978 19.9973C16.9978 20.5655 16.532 21.0267 15.958 21.0267ZM15.958 16.9092H9.71937C9.14542 16.9092 8.6796 16.448 8.6796 15.8798C8.6796 15.3116 9.14542 14.8504 9.71937 14.8504H15.958C16.532 14.8504 16.9978 15.3116 16.9978 15.8798C16.9978 16.448 16.532 16.9092 15.958 16.9092ZM20.637 21.0267H19.5972C19.3103 21.0267 19.0774 20.7961 19.0774 20.512V19.4826C19.0774 19.1985 19.3103 18.9679 19.5972 18.9679H20.637C20.924 18.9679 21.1569 19.1985 21.1569 19.4826V20.512C21.1569 20.7961 20.924 21.0267 20.637 21.0267ZM20.637 16.9092H19.5972C19.3103 16.9092 19.0774 16.6786 19.0774 16.3945V15.3651C19.0774 15.081 19.3103 14.8504 19.5972 14.8504H20.637C20.924 14.8504 21.1569 15.081 21.1569 15.3651V16.3945C21.1569 16.6786 20.924 16.9092 20.637 16.9092ZM20.1171 11.7623H9.71937C9.14542 11.7623 8.6796 11.3011 8.6796 10.7329C8.6796 10.1647 9.14542 9.70353 9.71937 9.70353H20.1171C20.6911 9.70353 21.1569 10.1647 21.1569 10.7329C21.1569 11.3011 20.6911 11.7623 20.1171 11.7623Z" fill="#631094"/>
<path d="M23.2365 4.55664C22.6622 4.55664 22.1988 5.12182 21.7123 5.4269C21.5516 5.52766 21.3611 5.58602 21.1569 5.58602C20.9527 5.58602 20.7622 5.52766 20.6015 5.4269C20.115 5.12182 19.6516 4.55664 19.0774 4.55664V4.55664C18.5031 4.55664 18.0397 5.12182 17.5532 5.4269C17.3925 5.52766 17.202 5.58602 16.9978 5.58602C16.7936 5.58602 16.6031 5.52766 16.4424 5.4269C15.9559 5.12182 15.4925 4.55664 14.9182 4.55664V4.55664C14.344 4.55664 13.8806 5.12182 13.3941 5.4269C13.2334 5.52766 13.0429 5.58602 12.8387 5.58602C12.6345 5.58602 12.444 5.52766 12.2833 5.4269C11.7968 5.12182 11.3334 4.55664 10.7591 4.55664V4.55664C10.1849 4.55664 9.72147 5.12182 9.23495 5.4269C9.07425 5.52766 8.88377 5.58602 8.6796 5.58602C8.47543 5.58602 8.28495 5.52766 8.12425 5.4269C7.63773 5.12182 7.1743 4.55664 6.60005 4.55664V4.55664C6.02609 4.55664 5.56027 5.0178 5.56027 5.58602V23.0854C5.56027 24.2229 6.49087 25.1442 7.63982 25.1442H22.1967C23.3456 25.1442 24.2762 24.2229 24.2762 23.0854V5.58602C24.2762 5.0178 23.8104 4.55664 23.2365 4.55664V4.55664ZM15.958 21.0267H9.71937C9.14542 21.0267 8.6796 20.5655 8.6796 19.9973C8.6796 19.4291 9.14542 18.9679 9.71937 18.9679H15.958C16.532 18.9679 16.9978 19.4291 16.9978 19.9973C16.9978 20.5655 16.532 21.0267 15.958 21.0267ZM15.958 16.9092H9.71937C9.14542 16.9092 8.6796 16.448 8.6796 15.8798C8.6796 15.3116 9.14542 14.8504 9.71937 14.8504H15.958C16.532 14.8504 16.9978 15.3116 16.9978 15.8798C16.9978 16.448 16.532 16.9092 15.958 16.9092ZM20.637 21.0267H19.5972C19.3103 21.0267 19.0774 20.7961 19.0774 20.512V19.4826C19.0774 19.1985 19.3103 18.9679 19.5972 18.9679H20.637C20.924 18.9679 21.1569 19.1985 21.1569 19.4826V20.512C21.1569 20.7961 20.924 21.0267 20.637 21.0267ZM20.637 16.9092H19.5972C19.3103 16.9092 19.0774 16.6786 19.0774 16.3945V15.3651C19.0774 15.081 19.3103 14.8504 19.5972 14.8504H20.637C20.924 14.8504 21.1569 15.081 21.1569 15.3651V16.3945C21.1569 16.6786 20.924 16.9092 20.637 16.9092ZM20.1171 11.7623H9.71937C9.14542 11.7623 8.6796 11.3011 8.6796 10.7329C8.6796 10.1647 9.14542 9.70353 9.71937 9.70353H20.1171C20.6911 9.70353 21.1569 10.1647 21.1569 10.7329C21.1569 11.3011 20.6911 11.7623 20.1171 11.7623Z" fill="url(#paint0_linear_1_6345)"/>
<path d="M23.2365 4.55664C22.6622 4.55664 22.1988 5.12182 21.7123 5.4269C21.5516 5.52766 21.3611 5.58602 21.1569 5.58602C20.9527 5.58602 20.7622 5.52766 20.6015 5.4269C20.115 5.12182 19.6516 4.55664 19.0774 4.55664V4.55664C18.5031 4.55664 18.0397 5.12182 17.5532 5.4269C17.3925 5.52766 17.202 5.58602 16.9978 5.58602C16.7936 5.58602 16.6031 5.52766 16.4424 5.4269C15.9559 5.12182 15.4925 4.55664 14.9182 4.55664V4.55664C14.344 4.55664 13.8806 5.12182 13.3941 5.4269C13.2334 5.52766 13.0429 5.58602 12.8387 5.58602C12.6345 5.58602 12.444 5.52766 12.2833 5.4269C11.7968 5.12182 11.3334 4.55664 10.7591 4.55664V4.55664C10.1849 4.55664 9.72147 5.12182 9.23495 5.4269C9.07425 5.52766 8.88377 5.58602 8.6796 5.58602C8.47543 5.58602 8.28495 5.52766 8.12425 5.4269C7.63773 5.12182 7.1743 4.55664 6.60005 4.55664V4.55664C6.02609 4.55664 5.56027 5.0178 5.56027 5.58602V23.0854C5.56027 24.2229 6.49087 25.1442 7.63982 25.1442H22.1967C23.3456 25.1442 24.2762 24.2229 24.2762 23.0854V5.58602C24.2762 5.0178 23.8104 4.55664 23.2365 4.55664V4.55664ZM15.958 21.0267H9.71937C9.14542 21.0267 8.6796 20.5655 8.6796 19.9973C8.6796 19.4291 9.14542 18.9679 9.71937 18.9679H15.958C16.532 18.9679 16.9978 19.4291 16.9978 19.9973C16.9978 20.5655 16.532 21.0267 15.958 21.0267ZM15.958 16.9092H9.71937C9.14542 16.9092 8.6796 16.448 8.6796 15.8798C8.6796 15.3116 9.14542 14.8504 9.71937 14.8504H15.958C16.532 14.8504 16.9978 15.3116 16.9978 15.8798C16.9978 16.448 16.532 16.9092 15.958 16.9092ZM20.637 21.0267H19.5972C19.3103 21.0267 19.0774 20.7961 19.0774 20.512V19.4826C19.0774 19.1985 19.3103 18.9679 19.5972 18.9679H20.637C20.924 18.9679 21.1569 19.1985 21.1569 19.4826V20.512C21.1569 20.7961 20.924 21.0267 20.637 21.0267ZM20.637 16.9092H19.5972C19.3103 16.9092 19.0774 16.6786 19.0774 16.3945V15.3651C19.0774 15.081 19.3103 14.8504 19.5972 14.8504H20.637C20.924 14.8504 21.1569 15.081 21.1569 15.3651V16.3945C21.1569 16.6786 20.924 16.9092 20.637 16.9092ZM20.1171 11.7623H9.71937C9.14542 11.7623 8.6796 11.3011 8.6796 10.7329C8.6796 10.1647 9.14542 9.70353 9.71937 9.70353H20.1171C20.6911 9.70353 21.1569 10.1647 21.1569 10.7329C21.1569 11.3011 20.6911 11.7623 20.1171 11.7623Z" fill="url(#paint1_linear_1_6345)"/>
</g>
<defs>
<filter id="filter0_d_1_6345" x="3.68868" y="2.68505" width="22.4591" height="24.3311" filterUnits="userSpaceOnUse" color-interpolation-filters="sRGB">
<feFlood flood-opacity="0" result="BackgroundImageFix"/>
<feColorMatrix in="SourceAlpha" type="matrix" values="0 0 0 0 0 0 0 0 0 0 0 0 0 0 0 0 0 0 127 0" result="hardAlpha"/>
<feMorphology radius="4.67899" operator="erode" in="SourceAlpha" result="effect1_dropShadow_1_6345"/>
<feOffset/>
<feGaussianBlur stdDeviation="3.27529"/>
<feComposite in2="hardAlpha" operator="out"/>
<feColorMatrix type="matrix" values="0 0 0 0 0.194508 0 0 0 0 0.06375 0 0 0 0 0.566667 0 0 0 1 0"/>
<feBlend mode="normal" in2="BackgroundImageFix" result="effect1_dropShadow_1_6345"/>
<feBlend mode="normal" in="SourceGraphic" in2="effect1_dropShadow_1_6345" result="shape"/>
</filter>
<linearGradient id="paint0_linear_1_6345" x1="25.9575" y1="4.55664" x2="0.020543" y2="29.0139" gradientUnits="userSpaceOnUse">
<stop stop-color="#B900FA"/>
<stop offset="1" stop-color="#0046FA"/>
</linearGradient>
<linearGradient id="paint1_linear_1_6345" x1="23.841" y1="2.40213" x2="6.32915" y2="25.4971" gradientUnits="userSpaceOnUse">
<stop stop-color="#00CB08"/>
<stop offset="1" stop-color="#00BF6F"/>
</linearGradient>
</defs>
</svg>
