<svg width="20" height="20" viewBox="0 0 20 20" fill="none" xmlns="http://www.w3.org/2000/svg">
<g clip-path="url(#clip0_1_3039)">
<path d="M4.99952 1.43481C2.80213 1.43481 0.999336 3.2376 0.999336 5.435C0.999336 7.6324 2.80213 9.43518 4.99952 9.43518C7.19692 9.43518 8.99971 7.6324 8.99971 5.435C8.99971 3.2376 7.19692 1.43481 4.99952 1.43481ZM12.9999 1.43481C11.9068 1.43481 10.9998 2.34179 10.9998 3.43491V7.43509C10.9998 8.52821 11.9068 9.43518 12.9999 9.43518H17.0001C18.0932 9.43518 19.0002 8.52821 19.0002 7.43509V3.43491C19.0002 2.34179 18.0932 1.43481 17.0001 1.43481H12.9999ZM4.99952 3.43491C6.11599 3.43491 6.99961 4.31853 6.99961 5.435C6.99961 6.55147 6.11599 7.43509 4.99952 7.43509C3.88306 7.43509 2.99943 6.55147 2.99943 5.435C2.99943 4.31853 3.88306 3.43491 4.99952 3.43491ZM12.9999 5.435C12.9999 4.33038 13.8954 3.43491 15 3.43491V3.43491C16.1046 3.43491 17.0001 4.33038 17.0001 5.435V5.435C17.0001 6.53962 16.1046 7.43509 15 7.43509V7.43509C13.8954 7.43509 12.9999 6.53962 12.9999 5.435V5.435ZM14.5273 11.1696C14.3069 11.1633 14.0906 11.2299 13.912 11.3591L10.617 13.7537C10.4463 13.8778 10.3192 14.0527 10.254 14.2534C10.1887 14.4541 10.1886 14.6702 10.2537 14.871L11.5135 18.7442C11.5787 18.9452 11.7059 19.1203 11.8767 19.2445C12.0476 19.3687 12.2535 19.4356 12.4647 19.4356H16.5352C16.7465 19.4356 16.9523 19.3687 17.1232 19.2445C17.2941 19.1203 17.4212 18.9452 17.4864 18.7442L18.7463 14.871C18.8113 14.6702 18.8112 14.4541 18.7459 14.2534C18.6807 14.0527 18.5536 13.8778 18.383 13.7537L15.0879 11.3591C14.9244 11.2409 14.729 11.1748 14.5273 11.1696ZM5.00733 11.4353C4.82028 11.4338 4.63656 11.4848 4.47705 11.5825C4.31753 11.6802 4.18862 11.8207 4.10495 11.988L1.10481 17.9883C1.02859 18.1408 0.992608 18.3102 1.00028 18.4805C1.00796 18.6508 1.05903 18.8163 1.14866 18.9613C1.23828 19.1063 1.36349 19.226 1.51238 19.3091C1.66127 19.3921 1.82891 19.4356 1.99938 19.4356H7.99966C8.17013 19.4356 8.33777 19.3921 8.48666 19.3091C8.63555 19.226 8.76076 19.1063 8.85038 18.9613C8.94001 18.8163 8.99109 18.6508 8.99876 18.4805C9.00643 18.3102 8.97045 18.1408 8.89423 17.9883L5.89409 11.988C5.81161 11.8231 5.68513 11.6842 5.52864 11.5866C5.37215 11.4891 5.19173 11.4367 5.00733 11.4353ZM13.4395 14.1753C14.0715 13.7157 14.928 13.7154 15.56 14.175V14.175C16.1916 14.6342 16.4555 15.4481 16.2138 16.1907V16.1907C15.9722 16.933 15.28 17.4356 14.4993 17.4356V17.4356C13.7184 17.4356 13.026 16.9326 12.7849 16.1898V16.1898C12.5439 15.4476 12.8083 14.6342 13.4395 14.1753V14.1753ZM4.23544 16.1988C4.55038 15.5694 5.44866 15.5694 5.76361 16.1988V16.1988C6.04786 16.7669 5.63477 17.4356 4.99952 17.4356V17.4356C4.36427 17.4356 3.95118 16.7669 4.23544 16.1988V16.1988Z" fill="white"/>
</g>
<defs>
<clipPath id="clip0_1_3039">
<rect width="18.55" height="18.55" fill="white" transform="translate(0.83905 0.789551)"/>
</clipPath>
</defs>
</svg>
