<svg width="19" height="18" viewBox="0 0 19 18" fill="none" xmlns="http://www.w3.org/2000/svg">
<g clip-path="url(#clip0_1_400)">
<path d="M3.32948 0.619629C1.91251 0.619629 0.756836 1.77531 0.756836 3.19227V13.4828C0.756836 14.8998 1.91251 16.0555 3.32948 16.0555H5.36615L12.4677 17.717C12.6587 17.7605 12.8429 17.7706 13.0305 17.7706C14.2029 17.7706 15.2748 16.9499 15.5495 15.7607L17.8542 5.73811C18.1691 4.35465 17.278 2.97118 15.8979 2.6563L12.3873 1.85235C11.9351 1.11875 11.1144 0.619629 10.1899 0.619629H3.32948ZM3.32948 2.33472H10.1899C10.6622 2.33472 11.0474 2.71995 11.0474 3.19227V13.4828C11.0474 13.9552 10.6622 14.3404 10.1899 14.3404H3.32948C2.85716 14.3404 2.47193 13.9552 2.47193 13.4828V3.19227C2.47193 2.71995 2.85716 2.33472 3.32948 2.33472ZM12.7625 3.70144L15.5227 4.3178C15.985 4.42164 16.2697 4.90402 16.1659 5.36294L13.8612 15.3855C13.754 15.8444 13.2951 16.1325 12.8429 16.0287L11.4494 15.7071C12.2265 15.2649 12.7625 14.4409 12.7625 13.4828V3.70144ZM6.75967 4.04982C6.75967 4.04982 3.32948 6.8268 3.32948 8.39115C3.32948 9.43294 4.17698 10.2938 5.20536 10.2938C5.56379 10.2938 5.91887 10.1665 6.2237 9.97225L5.60734 11.7677H7.912L7.29563 9.99905C7.57702 10.1799 7.9187 10.2938 8.31397 10.2938C9.34236 10.2938 10.1899 9.43294 10.1899 8.39115C10.1899 6.83015 6.75967 4.04982 6.75967 4.04982Z" fill="white"/>
</g>
<defs>
<clipPath id="clip0_1_400">
<rect width="18" height="18" fill="white" transform="translate(0.429688)"/>
</clipPath>
</defs>
</svg>
