<svg width="20" height="19" viewBox="0 0 20 19" fill="none" xmlns="http://www.w3.org/2000/svg">
<g clip-path="url(#clip0_207_198)">
<path d="M9.60508 1.66113C4.74445 1.66113 0.767578 5.63801 0.767578 10.4986C0.767578 15.3593 4.74445 19.3361 9.60508 19.3361C14.4657 19.3361 18.4426 15.3593 18.4426 10.4986C18.4426 5.63801 14.4657 1.66113 9.60508 1.66113ZM9.60508 3.42863C10.5208 3.42863 11.3944 3.61034 12.1994 3.93092L9.60508 5.02007L7.01079 3.93092C7.81579 3.61034 8.68933 3.42863 9.60508 3.42863ZM4.21627 5.93834L4.39061 8.81916L2.55579 10.906C2.54794 10.7703 2.53508 10.6362 2.53508 10.4986C2.53508 8.76418 3.16991 7.17187 4.21627 5.93834ZM14.9939 5.93834C16.0402 7.17187 16.6751 8.76418 16.6751 10.4986C16.6751 10.6362 16.6622 10.7703 16.6544 10.906L14.8195 8.81916L14.9939 5.93834ZM9.60508 7.34337L12.926 9.75124L11.5987 13.6539H7.61146L6.28411 9.75124L9.60508 7.34337ZM3.62078 14.2373L6.42392 14.9174L7.84103 17.3356C6.07237 16.8763 4.57079 15.7487 3.62078 14.2373ZM15.5894 14.2373C14.6394 15.7487 13.1378 16.8763 11.3691 17.3356L12.7862 14.9174L15.5894 14.2373Z" fill="white"/>
</g>
<defs>
<clipPath id="clip0_207_198">
<rect width="18.55" height="18.55" fill="white" transform="translate(0.838867 0.40625)"/>
</clipPath>
</defs>
</svg>
