<svg width="20" height="20" viewBox="0 0 20 20" fill="none" xmlns="http://www.w3.org/2000/svg">
<g clip-path="url(#clip0_1_4628)">
<path d="M4.16797 4.16797C2.67472 5.66197 1.74951 7.72476 1.74951 9.99951C1.74951 12.2743 2.67472 14.3371 4.16797 15.8311L5.22852 14.7705C4.00602 13.548 3.24951 11.8603 3.24951 9.99951C3.24951 8.13876 4.00602 6.45102 5.22852 5.22852L4.16797 4.16797ZM15.8311 4.16797L14.7705 5.22852C15.993 6.45102 16.7495 8.13876 16.7495 9.99951C16.7495 11.8603 15.993 13.548 14.7705 14.7705L15.8311 15.8311C17.3243 14.3371 18.2495 12.2743 18.2495 9.99951C18.2495 7.72476 17.3243 5.66197 15.8311 4.16797ZM6.28906 6.28906C5.33806 7.23931 4.74951 8.55201 4.74951 9.99951C4.74951 11.447 5.33806 12.7597 6.28906 13.71L7.34961 12.6494C6.67011 11.9707 6.24951 11.033 6.24951 9.99951C6.24951 8.96601 6.67086 8.02911 7.34961 7.34961L6.28906 6.28906ZM13.71 6.28906L12.6494 7.34961C13.3289 8.02836 13.7495 8.96601 13.7495 9.99951C13.7495 11.033 13.3282 11.9699 12.6494 12.6494L13.71 13.71C14.6602 12.759 15.2495 11.447 15.2495 9.99951C15.2495 8.55201 14.661 7.23931 13.71 6.28906ZM9.99951 7.74951C9.40277 7.74951 8.83048 7.98656 8.40852 8.40852C7.98656 8.83048 7.74951 9.40277 7.74951 9.99951C7.74951 10.5962 7.98656 11.1685 8.40852 11.5905C8.83048 12.0125 9.40277 12.2495 9.99951 12.2495C10.5962 12.2495 11.1685 12.0125 11.5905 11.5905C12.0125 11.1685 12.2495 10.5962 12.2495 9.99951C12.2495 9.40277 12.0125 8.83048 11.5905 8.40852C11.1685 7.98656 10.5962 7.74951 9.99951 7.74951Z" fill="white"/>
</g>
<defs>
<clipPath id="clip0_1_4628">
<rect width="18" height="18" fill="white" transform="translate(0.999512 1)"/>
</clipPath>
</defs>
</svg>
