<svg width="20" height="20" viewBox="0 0 20 20" fill="none" xmlns="http://www.w3.org/2000/svg">
<g clip-path="url(#clip0_1_5920)">
<path d="M4.52075 4.16846C3.0275 5.66246 2.10229 7.72525 2.10229 10C2.10229 12.2747 3.0275 14.3375 4.52075 15.8315L5.5813 14.771C4.3588 13.5485 3.60229 11.8607 3.60229 10C3.60229 8.13925 4.3588 6.4515 5.5813 5.229L4.52075 4.16846ZM16.1838 4.16846L15.1233 5.229C16.3458 6.4515 17.1023 8.13925 17.1023 10C17.1023 11.8607 16.3458 13.5485 15.1233 14.771L16.1838 15.8315C17.6771 14.3375 18.6023 12.2747 18.6023 10C18.6023 7.72525 17.6771 5.66246 16.1838 4.16846ZM6.64185 6.28955C5.69085 7.2398 5.10229 8.5525 5.10229 10C5.10229 11.4475 5.69085 12.7602 6.64185 13.7104L7.70239 12.6499C7.02289 11.9712 6.60229 11.0335 6.60229 10C6.60229 8.9665 7.02364 8.0296 7.70239 7.3501L6.64185 6.28955ZM14.0627 6.28955L13.0022 7.3501C13.6817 8.02885 14.1023 8.9665 14.1023 10C14.1023 11.0335 13.6809 11.9704 13.0022 12.6499L14.0627 13.7104C15.013 12.7594 15.6023 11.4475 15.6023 10C15.6023 8.5525 15.0137 7.2398 14.0627 6.28955ZM10.3523 7.75C9.75556 7.75 9.18326 7.98705 8.7613 8.40901C8.33935 8.83097 8.10229 9.40326 8.10229 10C8.10229 10.5967 8.33935 11.169 8.7613 11.591C9.18326 12.0129 9.75556 12.25 10.3523 12.25C10.949 12.25 11.5213 12.0129 11.9433 11.591C12.3652 11.169 12.6023 10.5967 12.6023 10C12.6023 9.40326 12.3652 8.83097 11.9433 8.40901C11.5213 7.98705 10.949 7.75 10.3523 7.75Z" fill="white"/>
</g>
<defs>
<clipPath id="clip0_1_5920">
<rect width="18.55" height="18.55" fill="white" transform="translate(0.839111 0.725098)"/>
</clipPath>
</defs>
</svg>
