<svg width="22" height="22" viewBox="0 0 22 22" fill="none" xmlns="http://www.w3.org/2000/svg">
<g clip-path="url(#clip0_1_5246)">
<path d="M9.72156 3.65137C9.25279 3.65137 8.80322 3.83759 8.47175 4.16906C8.14028 4.50053 7.95406 4.9501 7.95406 5.41887C7.95406 5.88764 8.14028 6.33721 8.47175 6.66868C8.80322 7.00015 9.25279 7.18637 9.72156 7.18637C10.1903 7.18637 10.6399 7.00015 10.9714 6.66868C11.3028 6.33721 11.4891 5.88764 11.4891 5.41887C11.4891 4.9501 11.3028 4.50053 10.9714 4.16906C10.6399 3.83759 10.1903 3.65137 9.72156 3.65137ZM17.5079 6.31125C17.3436 6.29634 17.1761 6.29845 17.0073 6.31643C16.3324 6.38833 15.6422 6.71671 15.0983 7.26059C14.1312 8.22771 13.8481 9.65147 14.4803 10.6402L13.2566 11.864V11.6051H10.8038L9.80959 9.74096C9.80959 9.74096 9.78482 9.69483 9.78197 9.68917L9.60937 9.3664L9.60764 9.36813C9.55593 9.27159 9.53485 9.22256 9.49027 9.15064C9.09346 8.50285 8.38224 8.07012 7.56742 8.07012C6.81712 8.07012 6.1441 8.42869 5.74641 9.00047C5.09686 9.93725 3.74161 11.6679 3.55603 12.7098C3.54277 12.7876 3.53531 12.8609 3.53531 12.9307C3.53531 13.1367 3.69675 13.8934 3.76833 14.1718C3.99369 15.0441 4.29815 16.1549 4.41216 16.5676L1.89209 19.2378L3.18837 20.4374L5.95009 17.5083C6.10209 17.3448 6.18656 17.1303 6.18656 16.9076V14.208C6.18656 13.9942 6.26353 13.7872 6.40405 13.6264L8.56337 11.1632L9.49372 12.9049C9.56915 13.0462 9.68159 13.1644 9.81901 13.2468C9.95644 13.3292 10.1137 13.3727 10.2739 13.3726H13.2566V13.1137L15.1052 11.2651C16.094 11.8973 17.5177 11.6143 18.4848 10.6471C19.5723 9.55971 19.8012 7.89022 18.8283 6.9171C18.4632 6.55199 18.0009 6.35598 17.5079 6.31125ZM17.3922 7.19327C17.7111 7.21729 17.9966 7.33504 18.2035 7.54194H18.2052C18.7565 8.09256 18.6775 9.20479 17.86 10.0223C17.0424 10.8399 15.9314 10.9175 15.3796 10.3658C14.8279 9.81408 14.9055 8.70304 15.7231 7.88543C16.1319 7.47662 16.6153 7.2531 17.0643 7.20018C17.1765 7.18694 17.2859 7.18526 17.3922 7.19327ZM18.5591 13.3726C18.3247 13.3726 18.0999 13.4657 17.9342 13.6315C17.7684 13.7972 17.6753 14.022 17.6753 14.2564C17.6753 14.4908 17.7684 14.7155 17.9342 14.8813C18.0999 15.047 18.3247 15.1401 18.5591 15.1401C18.7934 15.1401 19.0182 15.047 19.184 14.8813C19.3497 14.7155 19.4428 14.4908 19.4428 14.2564C19.4428 14.022 19.3497 13.7972 19.184 13.6315C19.0182 13.4657 18.7934 13.3726 18.5591 13.3726ZM7.21875 14.0389L7.07031 14.208V16.3898L8.04554 17.365L8.86715 20.396L10.576 19.9403L9.69222 16.6798C9.65157 16.5295 9.57312 16.3924 9.46265 16.2828L7.21875 14.0389Z" fill="url(#paint0_linear_1_5246)"/>
</g>
<defs>
<linearGradient id="paint0_linear_1_5246" x1="19.0358" y1="1.89468" x2="5.40747" y2="22.5673" gradientUnits="userSpaceOnUse">
<stop stop-color="#00CB08"/>
<stop offset="1" stop-color="#00BF6F"/>
</linearGradient>
<clipPath id="clip0_1_5246">
<rect width="21.2117" height="21.2117" fill="white" transform="translate(0.292969 0.263672)"/>
</clipPath>
</defs>
</svg>
