<svg width="15" height="14" viewBox="0 0 15 14" fill="none" xmlns="http://www.w3.org/2000/svg">
<g clip-path="url(#clip0_1_6091)">
<path d="M7.72912 1.02832C4.59878 1.02832 2.06129 3.56581 2.06129 6.69615C2.06129 9.82649 4.59878 12.364 7.72912 12.364C10.8595 12.364 13.397 9.82649 13.397 6.69615C13.397 3.56581 10.8595 1.02832 7.72912 1.02832ZM9.19482 8.96328L7.32841 7.09686C7.22185 6.99031 7.16234 6.84635 7.16234 6.69615V3.86223C7.16234 3.54937 7.41626 3.29545 7.72912 3.29545C8.04199 3.29545 8.29591 3.54937 8.29591 3.86223V6.4615L9.99626 8.16185C10.2173 8.3829 10.2173 8.74224 9.99626 8.96328C9.77521 9.18433 9.41587 9.18433 9.19482 8.96328Z" fill="white"/>
</g>
<defs>
<clipPath id="clip0_1_6091">
<rect width="13.7399" height="13.7399" fill="white" transform="translate(0.927889 0.0654297)"/>
</clipPath>
</defs>
</svg>
