<svg width="20" height="20" viewBox="0 0 20 20" fill="none" xmlns="http://www.w3.org/2000/svg">
<g clip-path="url(#clip0_1_5129)">
<path d="M9.60508 1.7666C4.74445 1.7666 0.767578 5.74348 0.767578 10.6041C0.767578 15.4647 4.74445 19.4416 9.60508 19.4416C14.4657 19.4416 18.4426 15.4647 18.4426 10.6041C18.4426 5.74348 14.4657 1.7666 9.60508 1.7666ZM9.60508 3.5341C10.5208 3.5341 11.3944 3.71581 12.1994 4.03639L9.60508 5.12554L7.01079 4.03639C7.81579 3.71581 8.68933 3.5341 9.60508 3.5341ZM4.21627 6.04381L4.39061 8.92463L2.55579 11.0115C2.54794 10.8758 2.53508 10.7416 2.53508 10.6041C2.53508 8.86965 3.16991 7.27734 4.21627 6.04381ZM14.9939 6.04381C16.0402 7.27734 16.6751 8.86965 16.6751 10.6041C16.6751 10.7416 16.6622 10.8758 16.6544 11.0115L14.8195 8.92463L14.9939 6.04381ZM9.60508 7.44884L12.926 9.85671L11.5987 13.7594H7.61146L6.28411 9.85671L9.60508 7.44884ZM3.62078 14.3428L6.42392 15.0229L7.84103 17.4411C6.07237 16.9818 4.57079 15.8542 3.62078 14.3428ZM15.5894 14.3428C14.6394 15.8542 13.1378 16.9818 11.3691 17.4411L12.7862 15.0229L15.5894 14.3428Z" fill="white"/>
</g>
<defs>
<clipPath id="clip0_1_5129">
<rect width="18.55" height="18.55" fill="white" transform="translate(0.839111 0.511719)"/>
</clipPath>
</defs>
</svg>
