<svg width="20" height="20" viewBox="0 0 20 20" fill="none" xmlns="http://www.w3.org/2000/svg">
<g clip-path="url(#clip0_1_5205)">
<path d="M12.7031 2.49805C12.3053 2.49805 11.9238 2.65608 11.6425 2.93739C11.3612 3.21869 11.2031 3.60022 11.2031 3.99805C11.2031 4.39587 11.3612 4.7774 11.6425 5.05871C11.9238 5.34001 12.3053 5.49805 12.7031 5.49805C12.9001 5.49805 13.0952 5.45925 13.2772 5.38387C13.4591 5.30848 13.6245 5.198 13.7638 5.05871C13.9031 4.91942 14.0136 4.75406 14.0889 4.57207C14.1643 4.39008 14.2031 4.19503 14.2031 3.99805C14.2031 3.60022 14.0451 3.21869 13.7638 2.93739C13.4825 2.65608 13.1009 2.49805 12.7031 2.49805ZM10.4531 5.49951L7.04443 5.50098L4.45312 7.95898L5.4873 9.04736L7.63916 7.00244L8.71143 7.00684L4.01514 16.8169L5.32471 17.5479L7.08398 13.8564L11.7686 13.0259L12.6694 11.8145L10.188 10.9458L11.4243 8.42481L12.4966 9.99805H15.7046V8.49805H13.2876L11.751 6.24658L11.7466 6.24365C11.6147 6.01753 11.4259 5.82987 11.199 5.69933C10.972 5.56878 10.7149 5.49989 10.4531 5.49951Z" fill="white"/>
</g>
<defs>
<clipPath id="clip0_1_5205">
<rect width="18.55" height="18.55" fill="white" transform="translate(0.839111 0.724609)"/>
</clipPath>
</defs>
</svg>
