<svg width="15" height="14" viewBox="0 0 15 14" fill="none" xmlns="http://www.w3.org/2000/svg">
<g clip-path="url(#clip0_1_6060)">
<path d="M6.96129 1.68701C3.81281 1.68701 1.23679 4.26304 1.23679 7.41152C1.23679 10.56 3.81281 13.136 6.96129 13.136C10.1098 13.136 12.6858 10.56 12.6858 7.41152C12.6858 4.26304 10.1098 1.68701 6.96129 1.68701ZM6.96129 2.83191C7.55447 2.83191 8.12031 2.94962 8.64175 3.15727L6.96129 3.86277L5.28084 3.15727C5.80228 2.94962 6.36812 2.83191 6.96129 2.83191ZM3.47069 4.45758L3.58361 6.32364L2.3951 7.67538C2.39002 7.5875 2.38169 7.50061 2.38169 7.41152C2.38169 6.28803 2.7929 5.2566 3.47069 4.45758ZM10.4519 4.45758C11.1297 5.2566 11.5409 6.28803 11.5409 7.41152C11.5409 7.50061 11.5326 7.5875 11.5275 7.67538L10.339 6.32364L10.4519 4.45758ZM6.96129 5.36769L9.11246 6.9274L8.25266 9.45535H5.66993L4.81013 6.9274L6.96129 5.36769ZM3.08495 9.83325L4.90069 10.2738L5.81863 11.8402C4.67297 11.5427 3.70032 10.8123 3.08495 9.83325ZM10.8376 9.83325C10.2223 10.8123 9.24961 11.5427 8.10396 11.8402L9.02189 10.2738L10.8376 9.83325Z" fill="white"/>
</g>
<defs>
<clipPath id="clip0_1_6060">
<rect width="13.7399" height="13.7399" fill="white" transform="translate(0.382187 0.0654297)"/>
</clipPath>
</defs>
</svg>
