<svg width="22" height="22" viewBox="0 0 22 22" fill="none" xmlns="http://www.w3.org/2000/svg">
<g clip-path="url(#clip0_1_4425)">
<path d="M10.6051 2.76758C5.74445 2.76758 1.76758 6.74445 1.76758 11.6051C1.76758 16.4657 5.74445 20.4426 10.6051 20.4426C15.4657 20.4426 19.4426 16.4657 19.4426 11.6051C19.4426 6.74445 15.4657 2.76758 10.6051 2.76758ZM10.6051 4.53508C11.5208 4.53508 12.3944 4.71679 13.1994 5.03737L10.6051 6.12652L8.01079 5.03737C8.81579 4.71679 9.68933 4.53508 10.6051 4.53508ZM5.21627 7.04479L5.39061 9.92561L3.55579 12.0124C3.54794 11.8768 3.53508 11.7426 3.53508 11.6051C3.53508 9.87063 4.16991 8.27832 5.21627 7.04479ZM15.9939 7.04479C17.0402 8.27832 17.6751 9.87063 17.6751 11.6051C17.6751 11.7426 17.6622 11.8768 17.6544 12.0124L15.8195 9.92561L15.9939 7.04479ZM10.6051 8.44981L13.926 10.8577L12.5987 14.7603H8.61146L7.28411 10.8577L10.6051 8.44981ZM4.62078 15.3438L7.42392 16.0238L8.84103 18.4421C7.07237 17.9828 5.57079 16.8551 4.62078 15.3438ZM16.5894 15.3438C15.6394 16.8551 14.1378 17.9828 12.3691 18.4421L13.7862 16.0238L16.5894 15.3438Z" fill="url(#paint0_linear_1_4425)"/>
</g>
<defs>
<linearGradient id="paint0_linear_1_4425" x1="19.0315" y1="0.917867" x2="4.43938" y2="22.0868" gradientUnits="userSpaceOnUse">
<stop stop-color="#00CB08"/>
<stop offset="1" stop-color="#00BF6F"/>
</linearGradient>
<clipPath id="clip0_1_4425">
<rect width="21.2117" height="21.2117" fill="white" transform="translate(0.448242 0.263672)"/>
</clipPath>
</defs>
</svg>
