<svg width="20" height="20" viewBox="0 0 20 20" fill="none" xmlns="http://www.w3.org/2000/svg">
<g clip-path="url(#clip0_1_6323)">
<path d="M4.52075 4.16797C3.0275 5.66197 2.10229 7.72476 2.10229 9.99951C2.10229 12.2743 3.0275 14.3371 4.52075 15.8311L5.5813 14.7705C4.3588 13.548 3.60229 11.8603 3.60229 9.99951C3.60229 8.13876 4.3588 6.45102 5.5813 5.22852L4.52075 4.16797ZM16.1838 4.16797L15.1233 5.22852C16.3458 6.45102 17.1023 8.13876 17.1023 9.99951C17.1023 11.8603 16.3458 13.548 15.1233 14.7705L16.1838 15.8311C17.6771 14.3371 18.6023 12.2743 18.6023 9.99951C18.6023 7.72476 17.6771 5.66197 16.1838 4.16797ZM6.64185 6.28906C5.69085 7.23931 5.10229 8.55201 5.10229 9.99951C5.10229 11.447 5.69085 12.7597 6.64185 13.71L7.70239 12.6494C7.02289 11.9707 6.60229 11.033 6.60229 9.99951C6.60229 8.96601 7.02364 8.02911 7.70239 7.34961L6.64185 6.28906ZM14.0627 6.28906L13.0022 7.34961C13.6817 8.02836 14.1023 8.96601 14.1023 9.99951C14.1023 11.033 13.6809 11.9699 13.0022 12.6494L14.0627 13.71C15.013 12.759 15.6023 11.447 15.6023 9.99951C15.6023 8.55201 15.0137 7.23931 14.0627 6.28906ZM10.3523 7.74951C9.75556 7.74951 9.18326 7.98656 8.7613 8.40852C8.33935 8.83048 8.10229 9.40277 8.10229 9.99951C8.10229 10.5962 8.33935 11.1685 8.7613 11.5905C9.18326 12.0125 9.75556 12.2495 10.3523 12.2495C10.949 12.2495 11.5213 12.0125 11.9433 11.5905C12.3652 11.1685 12.6023 10.5962 12.6023 9.99951C12.6023 9.40277 12.3652 8.83048 11.9433 8.40852C11.5213 7.98656 10.949 7.74951 10.3523 7.74951Z" fill="white"/>
</g>
<defs>
<clipPath id="clip0_1_6323">
<rect width="18.55" height="18.55" fill="white" transform="translate(0.839081 0.724609)"/>
</clipPath>
</defs>
</svg>
