<svg width="15" height="14" viewBox="0 0 15 14" fill="none" xmlns="http://www.w3.org/2000/svg">
<g clip-path="url(#clip0_1_5957)">
<g clip-path="url(#clip1_1_5957)">
<path d="M2.11192 2.48535C1.42804 2.48535 0.881029 3.09694 0.96708 3.77962V3.78074C1.13857 5.12793 1.77467 6.10698 2.30741 6.8917C2.84016 7.67642 3.22306 8.2535 3.22306 8.81288C3.22198 8.88911 3.23606 8.96478 3.26449 9.03552C3.29291 9.10625 3.33511 9.17063 3.38863 9.22492C3.44216 9.2792 3.50593 9.32231 3.57626 9.35173C3.64659 9.38115 3.72206 9.3963 3.79829 9.3963C3.87452 9.3963 3.94999 9.38115 4.02032 9.35173C4.09065 9.32231 4.15442 9.2792 4.20795 9.22492C4.26147 9.17063 4.30367 9.10625 4.33209 9.03552C4.36052 8.96478 4.3746 8.88911 4.37352 8.81288C4.37352 8.80362 4.37137 8.79514 4.37127 8.78592C4.93413 10.0589 5.52398 10.5386 5.52398 10.5386H7.8249C7.8249 10.5386 8.41475 10.0589 8.97761 8.78592C8.97751 8.79514 8.97536 8.80362 8.97536 8.81288C8.97428 8.88911 8.98836 8.96478 9.01679 9.03552C9.04521 9.10625 9.08741 9.17063 9.14093 9.22492C9.19446 9.2792 9.25823 9.32231 9.32856 9.35173C9.39888 9.38115 9.47436 9.3963 9.55059 9.3963C9.62682 9.3963 9.70229 9.38115 9.77262 9.35173C9.84295 9.32231 9.90672 9.2792 9.96025 9.22492C10.0138 9.17063 10.056 9.10625 10.0844 9.03552C10.1128 8.96478 10.1269 8.88911 10.1258 8.81288C10.1258 8.2535 10.5087 7.67642 11.0415 6.8917C11.5742 6.10698 12.2103 5.12793 12.3818 3.78074C12.4691 3.09709 11.9208 2.48535 11.237 2.48535H2.11192ZM11.2403 3.63469C11.1046 4.70059 10.6107 5.47858 10.0899 6.24569C9.90458 6.5186 9.71757 6.79641 9.54385 7.08157C9.76875 6.16287 9.93169 5.02549 9.96853 3.63581H11.237C11.2433 3.63581 11.2403 3.63469 11.2403 3.63469ZM2.10855 3.63581C2.10832 3.63396 2.10553 3.63581 2.11192 3.63581H3.38035C3.41719 5.02549 3.58013 6.16287 3.80503 7.08157C3.63131 6.79641 3.44429 6.5186 3.25901 6.24569C2.73841 5.47886 2.24445 4.70112 2.10855 3.63581ZM4.37352 11.689C4.05599 11.689 3.79829 11.9467 3.79829 12.2643C3.79829 12.5818 4.05599 12.8395 4.37352 12.8395H8.97536C9.29289 12.8395 9.55059 12.5818 9.55059 12.2643C9.55059 11.9467 9.29289 11.689 8.97536 11.689H4.37352Z" fill="white"/>
</g>
</g>
<defs>
<clipPath id="clip0_1_5957">
<rect width="13.7399" height="13.7399" fill="white" transform="translate(0.336517 0.0654297)"/>
</clipPath>
<clipPath id="clip1_1_5957">
<rect width="13.7388" height="13.7388" fill="white" transform="translate(0.0461426 0.541992)"/>
</clipPath>
</defs>
</svg>
