<svg width="20" height="20" viewBox="0 0 20 20" fill="none" xmlns="http://www.w3.org/2000/svg">
<g clip-path="url(#clip0_1_1989)">
<path d="M4.99928 1.43481C2.80188 1.43481 0.999092 3.2376 0.999092 5.435C0.999092 7.6324 2.80188 9.43518 4.99928 9.43518C7.19667 9.43518 8.99946 7.6324 8.99946 5.435C8.99946 3.2376 7.19667 1.43481 4.99928 1.43481ZM12.9996 1.43481C11.9065 1.43481 10.9996 2.34179 10.9996 3.43491V7.43509C10.9996 8.52821 11.9065 9.43518 12.9996 9.43518H16.9998C18.0929 9.43518 18.9999 8.52821 18.9999 7.43509V3.43491C18.9999 2.34179 18.0929 1.43481 16.9998 1.43481H12.9996ZM4.99928 3.43491C6.11574 3.43491 6.99937 4.31853 6.99937 5.435C6.99937 6.55147 6.11574 7.43509 4.99928 7.43509C3.88281 7.43509 2.99918 6.55147 2.99918 5.435C2.99918 4.31853 3.88281 3.43491 4.99928 3.43491ZM12.9996 5.435C12.9996 4.33038 13.8951 3.43491 14.9997 3.43491V3.43491C16.1044 3.43491 16.9998 4.33038 16.9998 5.435V5.435C16.9998 6.53962 16.1044 7.43509 14.9997 7.43509V7.43509C13.8951 7.43509 12.9996 6.53962 12.9996 5.435V5.435ZM14.5271 11.1696C14.3067 11.1633 14.0904 11.2299 13.9118 11.3591L10.6167 13.7537C10.4461 13.8778 10.319 14.0527 10.2537 14.2534C10.1885 14.4541 10.1884 14.6702 10.2534 14.871L11.5133 18.7442C11.5785 18.9452 11.7056 19.1203 11.8765 19.2445C12.0474 19.3687 12.2532 19.4356 12.4645 19.4356H16.535C16.7462 19.4356 16.9521 19.3687 17.1229 19.2445C17.2938 19.1203 17.421 18.9452 17.4862 18.7442L18.746 14.871C18.8111 14.6702 18.8109 14.4541 18.7457 14.2534C18.6804 14.0527 18.5534 13.8778 18.3827 13.7537L15.0876 11.3591C14.9242 11.2409 14.7288 11.1748 14.5271 11.1696ZM5.00709 11.4353C4.82003 11.4338 4.63632 11.4848 4.4768 11.5825C4.31729 11.6802 4.18837 11.8207 4.1047 11.988L1.10457 17.9883C1.02834 18.1408 0.992363 18.3102 1.00004 18.4805C1.00771 18.6508 1.05879 18.8163 1.14841 18.9613C1.23804 19.1063 1.36324 19.226 1.51214 19.3091C1.66103 19.3921 1.82867 19.4356 1.99914 19.4356H7.99942C8.16989 19.4356 8.33753 19.3921 8.48642 19.3091C8.63531 19.226 8.76051 19.1063 8.85014 18.9613C8.93977 18.8163 8.99084 18.6508 8.99852 18.4805C9.00619 18.3102 8.97021 18.1408 8.89399 17.9883L5.89385 11.988C5.81137 11.8231 5.68489 11.6842 5.5284 11.5866C5.37191 11.4891 5.19149 11.4367 5.00709 11.4353ZM13.4393 14.1753C14.0712 13.7157 14.9278 13.7154 15.5598 14.175V14.175C16.1913 14.6342 16.4553 15.4481 16.2136 16.1907V16.1907C15.972 16.933 15.2797 17.4356 14.4991 17.4356V17.4356C13.7181 17.4356 13.0258 16.9326 12.7846 16.1898V16.1898C12.5436 15.4476 12.8081 14.6342 13.4393 14.1753V14.1753ZM4.23519 16.1988C4.55014 15.5694 5.44842 15.5694 5.76336 16.1988V16.1988C6.04761 16.7669 5.63452 17.4356 4.99928 17.4356V17.4356C4.36403 17.4356 3.95094 16.7669 4.23519 16.1988V16.1988Z" fill="white"/>
</g>
<defs>
<clipPath id="clip0_1_1989">
<rect width="18.55" height="18.55" fill="white" transform="translate(0.838867 0.789551)"/>
</clipPath>
</defs>
</svg>
