<svg width="22" height="22" viewBox="0 0 22 22" fill="none" xmlns="http://www.w3.org/2000/svg">
<g clip-path="url(#clip0_1_4660)">
<path d="M15.0238 2.76758C12.1965 2.76758 8.48542 3.91714 5.74442 6.74445C1.41542 11.0734 0.95974 17.6187 2.817 19.476C3.43493 20.0939 4.6777 20.4426 6.26914 20.4426C9.01015 20.4426 12.7212 19.293 15.5485 16.4657C19.8775 12.1367 20.3332 5.59144 18.4759 3.73418C17.7682 3.11624 16.5255 2.76758 15.0238 2.76758ZM15.0238 4.53508C15.5278 4.53508 15.9214 4.60412 16.2666 4.67316L14.8305 6.10926L16.1009 7.37965L17.5922 5.88832C18.0064 7.76974 17.461 12.078 14.3057 15.3058C11.7443 17.781 8.47852 18.6751 6.26914 18.6751C5.72716 18.6751 5.30254 18.6164 4.94352 18.537L6.37961 17.1009L5.10922 15.8305L3.70075 17.239C3.55576 16.5796 3.49362 15.6096 3.70075 14.2563C3.96656 12.8409 4.68806 10.2035 6.98719 7.90437C9.54868 5.42918 12.8144 4.53508 15.0238 4.53508ZM13.9467 6.99301L12.5659 8.37387C12.1412 7.84914 12.0411 7.54535 11.8478 7.35203C11.582 7.08622 11.147 7.08622 10.8812 7.35203L10.7707 7.4625C10.5049 7.72832 10.5049 8.16329 10.7707 8.4291C10.9744 8.63278 11.2126 8.59135 11.8202 9.11953L10.3565 10.5832C9.93187 10.0585 9.83176 9.75473 9.63844 9.56141C9.37262 9.29559 8.93765 9.29559 8.67184 9.56141L8.56137 9.67187C8.29555 9.93769 8.29555 10.3727 8.56137 10.6385C8.76505 10.8422 9.00324 10.8007 9.61082 11.3289L8.14711 12.7926C7.7225 12.2679 7.62239 11.9641 7.42907 11.7708C7.16325 11.505 6.72828 11.505 6.46246 11.7708L6.35199 11.8812C6.08618 12.1471 6.08618 12.582 6.35199 12.8479C6.55567 13.0515 6.79387 13.0101 7.40145 13.5383L5.99297 14.9468L7.26336 16.2171L8.6166 14.8639C9.10681 15.4887 9.08955 15.6544 9.36227 15.8581C9.71439 16.1239 10.0631 16.1239 10.3289 15.8581L10.4393 15.7477C10.7052 15.4818 10.7052 15.0469 10.4393 14.7811C10.246 14.5877 9.94223 14.4876 9.4175 14.063L10.826 12.6545C11.3162 13.2794 11.2989 13.4451 11.5716 13.6487C11.9238 13.9146 12.2724 13.9146 12.5382 13.6487L12.6487 13.5383C12.9145 13.2725 12.9145 12.8375 12.6487 12.5717C12.4554 12.3784 12.1516 12.2782 11.6269 11.8536L13.0354 10.4452C13.5256 11.07 13.5083 11.2357 13.781 11.4394C14.1331 11.7052 14.4818 11.7052 14.7476 11.4394L14.8581 11.3289C15.1239 11.0631 15.1239 10.6281 14.8581 10.3623C14.6648 10.169 14.361 10.0689 13.8363 9.64426L15.2171 8.2634L13.9467 6.99301Z" fill="url(#paint0_linear_1_4660)"/>
</g>
<defs>
<linearGradient id="paint0_linear_1_4660" x1="19.0975" y1="0.917867" x2="4.52049" y2="22.1264" gradientUnits="userSpaceOnUse">
<stop stop-color="#00CB08"/>
<stop offset="1" stop-color="#00BF6F"/>
</linearGradient>
<clipPath id="clip0_1_4660">
<rect width="21.2117" height="21.2117" fill="white" transform="translate(0.0112305 0.263672)"/>
</clipPath>
</defs>
</svg>
