<svg width="15" height="14" viewBox="0 0 15 14" fill="none" xmlns="http://www.w3.org/2000/svg">
<g clip-path="url(#clip0_1_6101)">
<g clip-path="url(#clip1_1_6101)">
<path d="M2.11194 2.48535C1.42805 2.48535 0.881044 3.09694 0.967095 3.77962V3.78074C1.13858 5.12793 1.77468 6.10698 2.30743 6.8917C2.84017 7.67642 3.22308 8.2535 3.22308 8.81288C3.222 8.88911 3.23608 8.96478 3.2645 9.03552C3.29293 9.10625 3.33513 9.17063 3.38865 9.22492C3.44217 9.2792 3.50595 9.32231 3.57627 9.35173C3.6466 9.38115 3.72207 9.3963 3.79831 9.3963C3.87454 9.3963 3.95001 9.38115 4.02034 9.35173C4.09066 9.32231 4.15444 9.2792 4.20796 9.22492C4.26148 9.17063 4.30368 9.10625 4.33211 9.03552C4.36053 8.96478 4.37461 8.88911 4.37354 8.81288C4.37354 8.80362 4.37138 8.79514 4.37129 8.78592C4.93414 10.0589 5.524 10.5386 5.524 10.5386H7.82492C7.82492 10.5386 8.41477 10.0589 8.97762 8.78592C8.97753 8.79514 8.97538 8.80362 8.97538 8.81288C8.9743 8.88911 8.98838 8.96478 9.0168 9.03552C9.04523 9.10625 9.08743 9.17063 9.14095 9.22492C9.19447 9.2792 9.25825 9.32231 9.32857 9.35173C9.3989 9.38115 9.47437 9.3963 9.55061 9.3963C9.62684 9.3963 9.70231 9.38115 9.77264 9.35173C9.84296 9.32231 9.90674 9.2792 9.96026 9.22492C10.0138 9.17063 10.056 9.10625 10.0844 9.03552C10.1128 8.96478 10.1269 8.88911 10.1258 8.81288C10.1258 8.2535 10.5087 7.67642 11.0415 6.8917C11.5742 6.10698 12.2103 5.12793 12.3818 3.78074C12.4691 3.09709 11.9209 2.48535 11.237 2.48535H2.11194ZM11.2403 3.63469C11.1047 4.70059 10.6107 5.47858 10.0899 6.24569C9.9046 6.5186 9.71759 6.79641 9.54386 7.08157C9.76877 6.16287 9.9317 5.02549 9.96855 3.63581H11.237C11.2434 3.63581 11.2403 3.63469 11.2403 3.63469ZM2.10857 3.63581C2.10833 3.63396 2.10555 3.63581 2.11194 3.63581H3.38036C3.41721 5.02549 3.58015 6.16287 3.80505 7.08157C3.63133 6.79641 3.44431 6.5186 3.25903 6.24569C2.73843 5.47886 2.24446 4.70112 2.10857 3.63581ZM4.37354 11.689C4.05601 11.689 3.79831 11.9467 3.79831 12.2643C3.79831 12.5818 4.05601 12.8395 4.37354 12.8395H8.97538C9.2929 12.8395 9.55061 12.5818 9.55061 12.2643C9.55061 11.9467 9.2929 11.689 8.97538 11.689H4.37354Z" fill="white"/>
</g>
</g>
<defs>
<clipPath id="clip0_1_6101">
<rect width="13.7399" height="13.7399" fill="white" transform="translate(0.336533 0.0654297)"/>
</clipPath>
<clipPath id="clip1_1_6101">
<rect width="13.7388" height="13.7388" fill="white" transform="translate(0.0461578 0.541992)"/>
</clipPath>
</defs>
</svg>
