<svg width="20" height="20" viewBox="0 0 20 20" fill="none" xmlns="http://www.w3.org/2000/svg">
<g clip-path="url(#clip0_1_6949)">
<path d="M4.99964 1.3916C2.80225 1.3916 0.999458 3.19439 0.999458 5.39179C0.999458 7.58918 2.80225 9.39197 4.99964 9.39197C7.19704 9.39197 8.99983 7.58918 8.99983 5.39179C8.99983 3.19439 7.19704 1.3916 4.99964 1.3916ZM13 1.3916C11.9069 1.3916 10.9999 2.29858 10.9999 3.39169V7.39188C10.9999 8.48499 11.9069 9.39197 13 9.39197H17.0002C18.0933 9.39197 19.0003 8.48499 19.0003 7.39188V3.39169C19.0003 2.29858 18.0933 1.3916 17.0002 1.3916H13ZM4.99964 3.39169C6.11611 3.39169 6.99974 4.27532 6.99974 5.39179C6.99974 6.50825 6.11611 7.39188 4.99964 7.39188C3.88318 7.39188 2.99955 6.50825 2.99955 5.39179C2.99955 4.27532 3.88318 3.39169 4.99964 3.39169ZM13 5.39179C13 4.28717 13.8955 3.39169 15.0001 3.39169V3.39169C16.1047 3.39169 17.0002 4.28717 17.0002 5.39179V5.39179C17.0002 6.49641 16.1047 7.39188 15.0001 7.39188V7.39188C13.8955 7.39188 13 6.49641 13 5.39179V5.39179ZM14.5274 11.1264C14.3071 11.12 14.0908 11.1867 13.9122 11.3159L10.6171 13.7105C10.4464 13.8346 10.3194 14.0095 10.2541 14.2102C10.1889 14.4109 10.1887 14.627 10.2538 14.8278L11.5136 18.701C11.5788 18.9019 11.706 19.0771 11.8769 19.2013C12.0477 19.3255 12.2536 19.3924 12.4648 19.3924H16.5353C16.7466 19.3924 16.9524 19.3255 17.1233 19.2013C17.2942 19.0771 17.4213 18.9019 17.4865 18.701L18.7464 14.8278C18.8114 14.627 18.8113 14.4109 18.7461 14.2102C18.6808 14.0095 18.5537 13.8346 18.3831 13.7105L15.088 11.3159C14.9245 11.1976 14.7291 11.1316 14.5274 11.1264ZM5.00746 11.3921C4.8204 11.3906 4.63668 11.4416 4.47717 11.5393C4.31766 11.637 4.18874 11.7775 4.10507 11.9448L1.10493 17.9451C1.02871 18.0976 0.99273 18.267 1.0004 18.4373C1.00808 18.6076 1.05915 18.7731 1.14878 18.9181C1.23841 19.0631 1.36361 19.1828 1.5125 19.2658C1.66139 19.3489 1.82903 19.3924 1.9995 19.3924H7.99978C8.17025 19.3924 8.33789 19.3489 8.48678 19.2658C8.63568 19.1828 8.76088 19.0631 8.85051 18.9181C8.94013 18.7731 8.99121 18.6076 8.99888 18.4373C9.00656 18.267 8.97058 18.0976 8.89435 17.9451L5.89422 11.9448C5.81173 11.7799 5.68526 11.641 5.52876 11.5434C5.37227 11.4459 5.19186 11.3935 5.00746 11.3921ZM13.4396 14.1321C14.0716 13.6725 14.9281 13.6722 15.5601 14.1318V14.1318C16.1917 14.591 16.4556 15.4049 16.2139 16.1474V16.1474C15.9723 16.8898 15.2801 17.3923 14.4994 17.3923V17.3923C13.7185 17.3923 13.0262 16.8894 12.785 16.1466V16.1466C12.544 15.4044 12.8085 14.591 13.4396 14.1321V14.1321ZM4.23556 16.1556C4.5505 15.5262 5.44879 15.5262 5.76373 16.1556V16.1556C6.04798 16.7237 5.63489 17.3923 4.99964 17.3923V17.3923C4.3644 17.3923 3.95131 16.7237 4.23556 16.1556V16.1556Z" fill="white"/>
</g>
<defs>
<clipPath id="clip0_1_6949">
<rect width="18.55" height="18.55" fill="white" transform="translate(0.839111 0.746094)"/>
</clipPath>
</defs>
</svg>
