<svg width="30" height="30" viewBox="0 0 30 30" fill="none" xmlns="http://www.w3.org/2000/svg">
<g filter="url(#filter0_d_1_6909)">
<path d="M23.8889 4C23.2752 4 22.78 4.60396 22.2601 4.92996C22.0884 5.03764 21.8848 5.1 21.6667 5.1C21.4485 5.1 21.2449 5.03764 21.0732 4.92996C20.5533 4.60396 20.0581 4 19.4444 4V4C18.8308 4 18.3356 4.60396 17.8157 4.92996C17.644 5.03764 17.4404 5.1 17.2222 5.1C17.004 5.1 16.8005 5.03764 16.6288 4.92996C16.1089 4.60396 15.6137 4 15 4V4C14.3864 4 13.8911 4.60396 13.3712 4.92996C13.1995 5.03764 12.996 5.1 12.7778 5.1C12.5596 5.1 12.3561 5.03764 12.1843 4.92996C11.6644 4.60396 11.1692 4 10.5556 4V4C9.94191 4 9.44668 4.60396 8.92679 4.92996C8.75506 5.03764 8.55151 5.1 8.33333 5.1C8.11516 5.1 7.91161 5.03764 7.73988 4.92996C7.21999 4.60396 6.72476 4 6.11111 4V4C5.49778 4 5 4.4928 5 5.1V23.8C5 25.0155 5.99444 26 7.22222 26H22.7778C24.0056 26 25 25.0155 25 23.8V5.1C25 4.4928 24.5022 4 23.8889 4V4ZM16.1111 21.6H9.44444C8.83111 21.6 8.33333 21.1072 8.33333 20.5C8.33333 19.8928 8.83111 19.4 9.44444 19.4H16.1111C16.7244 19.4 17.2222 19.8928 17.2222 20.5C17.2222 21.1072 16.7244 21.6 16.1111 21.6ZM16.1111 17.2H9.44444C8.83111 17.2 8.33333 16.7072 8.33333 16.1C8.33333 15.4928 8.83111 15 9.44444 15H16.1111C16.7244 15 17.2222 15.4928 17.2222 16.1C17.2222 16.7072 16.7244 17.2 16.1111 17.2ZM21.1111 21.6H20C19.6933 21.6 19.4444 21.3536 19.4444 21.05V19.95C19.4444 19.6464 19.6933 19.4 20 19.4H21.1111C21.4178 19.4 21.6667 19.6464 21.6667 19.95V21.05C21.6667 21.3536 21.4178 21.6 21.1111 21.6ZM21.1111 17.2H20C19.6933 17.2 19.4444 16.9536 19.4444 16.65V15.55C19.4444 15.2464 19.6933 15 20 15H21.1111C21.4178 15 21.6667 15.2464 21.6667 15.55V16.65C21.6667 16.9536 21.4178 17.2 21.1111 17.2ZM20.5556 11.7H9.44444C8.83111 11.7 8.33333 11.2072 8.33333 10.6C8.33333 9.9928 8.83111 9.5 9.44444 9.5H20.5556C21.1689 9.5 21.6667 9.9928 21.6667 10.6C21.6667 11.2072 21.1689 11.7 20.5556 11.7Z" fill="#631094"/>
<path d="M23.8889 4C23.2752 4 22.78 4.60396 22.2601 4.92996C22.0884 5.03764 21.8848 5.1 21.6667 5.1C21.4485 5.1 21.2449 5.03764 21.0732 4.92996C20.5533 4.60396 20.0581 4 19.4444 4V4C18.8308 4 18.3356 4.60396 17.8157 4.92996C17.644 5.03764 17.4404 5.1 17.2222 5.1C17.004 5.1 16.8005 5.03764 16.6288 4.92996C16.1089 4.60396 15.6137 4 15 4V4C14.3864 4 13.8911 4.60396 13.3712 4.92996C13.1995 5.03764 12.996 5.1 12.7778 5.1C12.5596 5.1 12.3561 5.03764 12.1843 4.92996C11.6644 4.60396 11.1692 4 10.5556 4V4C9.94191 4 9.44668 4.60396 8.92679 4.92996C8.75506 5.03764 8.55151 5.1 8.33333 5.1C8.11516 5.1 7.91161 5.03764 7.73988 4.92996C7.21999 4.60396 6.72476 4 6.11111 4V4C5.49778 4 5 4.4928 5 5.1V23.8C5 25.0155 5.99444 26 7.22222 26H22.7778C24.0056 26 25 25.0155 25 23.8V5.1C25 4.4928 24.5022 4 23.8889 4V4ZM16.1111 21.6H9.44444C8.83111 21.6 8.33333 21.1072 8.33333 20.5C8.33333 19.8928 8.83111 19.4 9.44444 19.4H16.1111C16.7244 19.4 17.2222 19.8928 17.2222 20.5C17.2222 21.1072 16.7244 21.6 16.1111 21.6ZM16.1111 17.2H9.44444C8.83111 17.2 8.33333 16.7072 8.33333 16.1C8.33333 15.4928 8.83111 15 9.44444 15H16.1111C16.7244 15 17.2222 15.4928 17.2222 16.1C17.2222 16.7072 16.7244 17.2 16.1111 17.2ZM21.1111 21.6H20C19.6933 21.6 19.4444 21.3536 19.4444 21.05V19.95C19.4444 19.6464 19.6933 19.4 20 19.4H21.1111C21.4178 19.4 21.6667 19.6464 21.6667 19.95V21.05C21.6667 21.3536 21.4178 21.6 21.1111 21.6ZM21.1111 17.2H20C19.6933 17.2 19.4444 16.9536 19.4444 16.65V15.55C19.4444 15.2464 19.6933 15 20 15H21.1111C21.4178 15 21.6667 15.2464 21.6667 15.55V16.65C21.6667 16.9536 21.4178 17.2 21.1111 17.2ZM20.5556 11.7H9.44444C8.83111 11.7 8.33333 11.2072 8.33333 10.6C8.33333 9.9928 8.83111 9.5 9.44444 9.5H20.5556C21.1689 9.5 21.6667 9.9928 21.6667 10.6C21.6667 11.2072 21.1689 11.7 20.5556 11.7Z" fill="url(#paint0_linear_1_6909)"/>
<path d="M23.8889 4C23.2752 4 22.78 4.60396 22.2601 4.92996C22.0884 5.03764 21.8848 5.1 21.6667 5.1C21.4485 5.1 21.2449 5.03764 21.0732 4.92996C20.5533 4.60396 20.0581 4 19.4444 4V4C18.8308 4 18.3356 4.60396 17.8157 4.92996C17.644 5.03764 17.4404 5.1 17.2222 5.1C17.004 5.1 16.8005 5.03764 16.6288 4.92996C16.1089 4.60396 15.6137 4 15 4V4C14.3864 4 13.8911 4.60396 13.3712 4.92996C13.1995 5.03764 12.996 5.1 12.7778 5.1C12.5596 5.1 12.3561 5.03764 12.1843 4.92996C11.6644 4.60396 11.1692 4 10.5556 4V4C9.94191 4 9.44668 4.60396 8.92679 4.92996C8.75506 5.03764 8.55151 5.1 8.33333 5.1C8.11516 5.1 7.91161 5.03764 7.73988 4.92996C7.21999 4.60396 6.72476 4 6.11111 4V4C5.49778 4 5 4.4928 5 5.1V23.8C5 25.0155 5.99444 26 7.22222 26H22.7778C24.0056 26 25 25.0155 25 23.8V5.1C25 4.4928 24.5022 4 23.8889 4V4ZM16.1111 21.6H9.44444C8.83111 21.6 8.33333 21.1072 8.33333 20.5C8.33333 19.8928 8.83111 19.4 9.44444 19.4H16.1111C16.7244 19.4 17.2222 19.8928 17.2222 20.5C17.2222 21.1072 16.7244 21.6 16.1111 21.6ZM16.1111 17.2H9.44444C8.83111 17.2 8.33333 16.7072 8.33333 16.1C8.33333 15.4928 8.83111 15 9.44444 15H16.1111C16.7244 15 17.2222 15.4928 17.2222 16.1C17.2222 16.7072 16.7244 17.2 16.1111 17.2ZM21.1111 21.6H20C19.6933 21.6 19.4444 21.3536 19.4444 21.05V19.95C19.4444 19.6464 19.6933 19.4 20 19.4H21.1111C21.4178 19.4 21.6667 19.6464 21.6667 19.95V21.05C21.6667 21.3536 21.4178 21.6 21.1111 21.6ZM21.1111 17.2H20C19.6933 17.2 19.4444 16.9536 19.4444 16.65V15.55C19.4444 15.2464 19.6933 15 20 15H21.1111C21.4178 15 21.6667 15.2464 21.6667 15.55V16.65C21.6667 16.9536 21.4178 17.2 21.1111 17.2ZM20.5556 11.7H9.44444C8.83111 11.7 8.33333 11.2072 8.33333 10.6C8.33333 9.9928 8.83111 9.5 9.44444 9.5H20.5556C21.1689 9.5 21.6667 9.9928 21.6667 10.6C21.6667 11.2072 21.1689 11.7 20.5556 11.7Z" fill="url(#paint1_linear_1_6909)"/>
</g>
<defs>
<filter id="filter0_d_1_6909" x="3" y="2" width="24" height="26" filterUnits="userSpaceOnUse" color-interpolation-filters="sRGB">
<feFlood flood-opacity="0" result="BackgroundImageFix"/>
<feColorMatrix in="SourceAlpha" type="matrix" values="0 0 0 0 0 0 0 0 0 0 0 0 0 0 0 0 0 0 127 0" result="hardAlpha"/>
<feMorphology radius="5" operator="erode" in="SourceAlpha" result="effect1_dropShadow_1_6909"/>
<feOffset/>
<feGaussianBlur stdDeviation="3.5"/>
<feComposite in2="hardAlpha" operator="out"/>
<feColorMatrix type="matrix" values="0 0 0 0 0.194508 0 0 0 0 0.06375 0 0 0 0 0.566667 0 0 0 1 0"/>
<feBlend mode="normal" in2="BackgroundImageFix" result="effect1_dropShadow_1_6909"/>
<feBlend mode="normal" in="SourceGraphic" in2="effect1_dropShadow_1_6909" result="shape"/>
</filter>
<linearGradient id="paint0_linear_1_6909" x1="26.7966" y1="4" x2="-0.919794" y2="30.1352" gradientUnits="userSpaceOnUse">
<stop stop-color="#B900FA"/>
<stop offset="1" stop-color="#0046FA"/>
</linearGradient>
<linearGradient id="paint1_linear_1_6909" x1="24.5349" y1="1.69767" x2="5.82163" y2="26.3771" gradientUnits="userSpaceOnUse">
<stop stop-color="#00CB08"/>
<stop offset="1" stop-color="#00BF6F"/>
</linearGradient>
</defs>
</svg>
