<svg width="15" height="14" viewBox="0 0 15 14" fill="none" xmlns="http://www.w3.org/2000/svg">
<g clip-path="url(#clip0_1_5947)">
<path d="M7.72911 1.02832C4.59877 1.02832 2.06128 3.56581 2.06128 6.69615C2.06128 9.82649 4.59877 12.364 7.72911 12.364C10.8594 12.364 13.3969 9.82649 13.3969 6.69615C13.3969 3.56581 10.8594 1.02832 7.72911 1.02832ZM9.19481 8.96328L7.32839 7.09686C7.22184 6.99031 7.16233 6.84635 7.16233 6.69615V3.86223C7.16233 3.54937 7.41624 3.29545 7.72911 3.29545C8.04197 3.29545 8.29589 3.54937 8.29589 3.86223V6.4615L9.99624 8.16185C10.2173 8.3829 10.2173 8.74224 9.99624 8.96328C9.77519 9.18433 9.41585 9.18433 9.19481 8.96328Z" fill="white"/>
</g>
<defs>
<clipPath id="clip0_1_5947">
<rect width="13.7399" height="13.7399" fill="white" transform="translate(0.927887 0.0654297)"/>
</clipPath>
</defs>
</svg>
