<svg width="20" height="19" viewBox="0 0 20 19" fill="none" xmlns="http://www.w3.org/2000/svg">
<g clip-path="url(#clip0_1_4294)">
<path d="M3.13277 2C2.07698 2 1.23251 2.94418 1.36536 3.99809V3.99983C1.6301 6.07962 2.61211 7.59108 3.43456 8.80253C4.25701 10.014 4.84814 10.9049 4.84814 11.7684C4.84648 11.8861 4.86822 12.003 4.9121 12.1122C4.95598 12.2214 5.02113 12.3207 5.10375 12.4046C5.18638 12.4884 5.28484 12.5549 5.39341 12.6003C5.50198 12.6457 5.61849 12.6691 5.73618 12.6691C5.85387 12.6691 5.97038 12.6457 6.07895 12.6003C6.18752 12.5549 6.28598 12.4884 6.36861 12.4046C6.45123 12.3207 6.51638 12.2214 6.56026 12.1122C6.60414 12.003 6.62589 11.8861 6.62422 11.7684C6.62422 11.7541 6.6209 11.7411 6.62075 11.7268C7.48969 13.6921 8.4003 14.4326 8.4003 14.4326H11.9525C11.9525 14.4326 12.8631 13.6921 13.732 11.7268C13.7319 11.7411 13.7285 11.7541 13.7285 11.7684C13.7269 11.8861 13.7486 12.003 13.7925 12.1122C13.8364 12.2214 13.9015 12.3207 13.9842 12.4046C14.0668 12.4884 14.1652 12.5549 14.2738 12.6003C14.3824 12.6457 14.4989 12.6691 14.6166 12.6691C14.7343 12.6691 14.8508 12.6457 14.9594 12.6003C15.0679 12.5549 15.1664 12.4884 15.249 12.4046C15.3316 12.3207 15.3968 12.2214 15.4407 12.1122C15.4845 12.003 15.5063 11.8861 15.5046 11.7684C15.5046 10.9049 16.0958 10.014 16.9182 8.80253C17.7407 7.59108 18.7227 6.07962 18.9874 3.99983C19.1222 2.94441 18.2758 2 17.22 2H3.13277ZM17.2252 3.77435C17.0157 5.41989 16.2531 6.62096 15.4491 7.80522C15.1631 8.22653 14.8744 8.65541 14.6062 9.09565C14.9534 7.67736 15.2049 5.92147 15.2618 3.77608H17.22C17.2299 3.77608 17.2252 3.77435 17.2252 3.77435ZM3.12756 3.77608C3.1272 3.77323 3.1229 3.77608 3.13277 3.77608H5.09096C5.14784 5.92147 5.39939 7.67736 5.74659 9.09565C5.4784 8.65541 5.18967 8.22654 4.90364 7.80522C4.09994 6.62139 3.33736 5.4207 3.12756 3.77608ZM6.62422 16.2086C6.13402 16.2086 5.73618 16.6065 5.73618 17.0967C5.73618 17.5869 6.13402 17.9847 6.62422 17.9847H13.7285C14.2187 17.9847 14.6166 17.5869 14.6166 17.0967C14.6166 16.6065 14.2187 16.2086 13.7285 16.2086H6.62422Z" fill="white"/>
</g>
<defs>
<clipPath id="clip0_1_4294">
<rect width="18.55" height="18.55" fill="white" transform="translate(0.838867 0.128906)"/>
</clipPath>
</defs>
</svg>
