<svg width="23" height="22" viewBox="0 0 23 22" fill="none" xmlns="http://www.w3.org/2000/svg">
<g clip-path="url(#clip0_1_4450)">
<path d="M4.53508 2.89746C3.55853 2.89746 2.76758 3.68842 2.76758 4.66496V6.43246V9.08371C2.76758 10.0497 3.56908 10.8512 4.53508 10.8512H8.95383C9.91982 10.8512 10.7213 10.0497 10.7213 9.08371V5.54871V4.66496C10.7213 3.68842 9.93037 2.89746 8.95383 2.89746H4.53508ZM14.2563 2.89746C13.2798 2.89746 12.4888 3.68842 12.4888 4.66496V6.43246V9.08371C12.4888 10.0497 13.2903 10.8512 14.2563 10.8512H18.6751C19.6411 10.8512 20.4426 10.0497 20.4426 9.08371V5.54871V4.66496C20.4426 3.68842 19.6516 2.89746 18.6751 2.89746H14.2563ZM4.53508 6.43246H8.95383V9.08371H4.53508V6.43246ZM14.2563 6.43246H18.6751V9.08371H14.2563V6.43246ZM4.53508 12.6187C3.55853 12.6187 2.76758 13.4097 2.76758 14.3862V16.1537V18.805C2.76758 19.771 3.56908 20.5725 4.53508 20.5725H8.95383C9.91982 20.5725 10.7213 19.771 10.7213 18.805V15.27V14.3862C10.7213 13.4097 9.93037 12.6187 8.95383 12.6187H4.53508ZM14.2563 12.6187C13.2798 12.6187 12.4888 13.4097 12.4888 14.3862V15.27V16.1537V18.805C12.4888 19.771 13.2903 20.5725 14.2563 20.5725H18.6751C19.6411 20.5725 20.4426 19.771 20.4426 18.805V16.1537V15.27V14.3862C20.4426 13.4097 19.6516 12.6187 18.6751 12.6187H14.2563ZM4.53508 16.1537H8.95383V18.805H4.53508V16.1537ZM14.2563 16.1537H18.6751V18.805H14.2563V16.1537Z" fill="white"/>
</g>
<defs>
<clipPath id="clip0_1_4450">
<rect width="21.2117" height="21.2117" fill="white" transform="translate(0.855957 0.393555)"/>
</clipPath>
</defs>
</svg>
