<svg width="67" height="67" viewBox="0 0 67 67" fill="none" xmlns="http://www.w3.org/2000/svg">
<path d="M33.4999 5.5835C18.115 5.5835 5.58325 18.1153 5.58325 33.5002C5.58325 48.885 18.115 61.4168 33.4999 61.4168C48.8848 61.4168 61.4166 48.885 61.4166 33.5002C61.4166 18.1153 48.8848 5.5835 33.4999 5.5835ZM33.4999 11.1668C45.8673 11.1668 55.8332 21.1327 55.8332 33.5002C55.8332 45.8676 45.8673 55.8335 33.4999 55.8335C21.1325 55.8335 11.1666 45.8676 11.1666 33.5002C11.1666 21.1327 21.1325 11.1668 33.4999 11.1668ZM31.7083 13.9585C31.156 13.9585 30.7083 14.4062 30.7083 14.9585V17.9639C30.7083 18.4028 30.4192 18.7833 30.0125 18.9482C29.8179 19.0271 29.6282 19.1136 29.4433 19.2092C28.5834 19.6559 27.8437 20.2367 27.2296 20.9486C26.6126 21.6632 26.1387 22.4937 25.8065 23.4513C25.4771 24.4144 25.3103 25.4768 25.3103 26.6409C25.3103 27.9837 25.4952 29.1344 25.8665 30.1087C26.2405 31.083 26.7666 31.9346 27.4422 32.6605C28.1178 33.3863 28.9249 34.027 29.874 34.5798C30.8232 35.1353 31.8834 35.6638 33.0419 36.1719C33.7175 36.4594 34.2878 36.7591 34.754 37.0606C35.223 37.3593 35.6031 37.6902 35.899 38.0475C36.1921 38.4049 36.4112 38.7979 36.5424 39.2362C36.6708 39.6745 36.7332 40.1851 36.7332 40.7574C36.7332 41.2627 36.663 41.7314 36.5206 42.1641C36.3782 42.5941 36.1674 42.9664 35.8826 43.2819C35.5979 43.5974 35.2491 43.8448 34.8303 44.0234C34.4088 44.1993 33.9191 44.2906 33.3636 44.2906C32.8779 44.2906 32.3986 44.2098 31.9296 44.0507C31.4634 43.8916 31.044 43.621 30.6755 43.2274C30.307 42.8393 30.0209 42.3184 29.8031 41.668C29.6594 41.244 29.5617 40.6876 29.5112 40.0824C29.4652 39.5321 29.0228 39.0835 28.4705 39.0835H25.3343C24.782 39.0835 24.3311 39.5316 24.3611 40.0831C24.4301 41.3516 24.6329 42.5313 24.9722 43.4673C25.3994 44.6454 25.9725 45.622 26.6843 46.3953C27.3934 47.1713 28.2086 47.7624 29.127 48.1728C29.4045 48.2973 29.6863 48.4051 29.9713 48.4999C30.4037 48.6437 30.7137 49.0363 30.7137 49.492V52.0418C30.7137 52.5941 31.1614 53.0418 31.7137 53.0418H35.2916C35.8439 53.0418 36.2916 52.5941 36.2916 52.0418V49.4254C36.2916 48.9753 36.5947 48.5867 37.0162 48.4288C37.2561 48.339 37.4895 48.2389 37.7147 48.1291C38.5857 47.7048 39.3251 47.145 39.9393 46.4443C40.5562 45.7464 41.0355 44.9183 41.3733 43.958C41.7055 43.0005 41.8749 41.9198 41.8749 40.7138C41.8749 39.385 41.6874 38.2339 41.3133 37.2624C40.9392 36.2909 40.4186 35.4394 39.743 34.7052C39.0674 33.9737 38.2602 33.3224 37.3167 32.7641C36.3731 32.2002 35.3289 31.6506 34.1815 31.1174C33.4696 30.788 32.876 30.4703 32.3931 30.1632C31.9157 29.8562 31.5247 29.5253 31.2371 29.1763C30.9468 28.8274 30.7437 28.4499 30.6265 28.0368C30.5064 27.6264 30.4465 27.1708 30.4465 26.6628C30.4465 26.1575 30.5064 25.6834 30.6265 25.2451C30.7437 24.8068 30.9259 24.4211 31.1772 24.1001C31.4256 23.7791 31.7379 23.5265 32.1259 23.3422C32.5084 23.158 32.9722 23.0641 33.5054 23.0641C34.488 23.0641 35.2691 23.4703 35.8554 24.2855C36.3078 24.915 36.5815 25.8007 36.6829 26.9287C36.7322 27.4768 37.1723 27.9223 37.7226 27.9223H40.8653C41.4192 27.9223 41.8714 27.4716 41.8363 26.9188C41.7756 25.9634 41.6315 25.0786 41.4006 24.2691C41.0879 23.1664 40.6399 22.2107 40.0592 21.4011C39.4814 20.5915 38.7728 19.9381 37.9437 19.4328C37.6409 19.2431 37.3195 19.0864 36.9857 18.9524C36.5794 18.7891 36.2916 18.4092 36.2916 17.9714V14.9585C36.2916 14.4062 35.8439 13.9585 35.2916 13.9585H31.7083Z" fill="url(#paint0_linear_1_1394)"/>
<defs>
<linearGradient id="paint0_linear_1_1394" x1="60.1181" y1="-0.259532" x2="14.0232" y2="66.6106" gradientUnits="userSpaceOnUse">
<stop stop-color="#00FFBB"/>
<stop offset="1" stop-color="#00BF6F"/>
</linearGradient>
</defs>
</svg>
