<svg width="19" height="18" viewBox="0 0 19 18" fill="none" xmlns="http://www.w3.org/2000/svg">
<path d="M9.5001 0C4.63947 0 0.662598 3.97687 0.662598 8.8375C0.662598 13.6981 4.63947 17.675 9.5001 17.675C14.3607 17.675 18.3376 13.6981 18.3376 8.8375C18.3376 3.97687 14.3607 0 9.5001 0ZM9.5001 1.7675C10.4158 1.7675 11.2894 1.94921 12.0944 2.26979L9.5001 3.35894L6.90581 2.26979C7.71081 1.94921 8.58435 1.7675 9.5001 1.7675ZM4.11129 4.27721L4.28563 7.15803L2.45081 9.24485C2.44296 9.10919 2.4301 8.97505 2.4301 8.8375C2.4301 7.10305 3.06493 5.51074 4.11129 4.27721ZM14.8889 4.27721C15.9353 5.51074 16.5701 7.10305 16.5701 8.8375C16.5701 8.97505 16.5572 9.10919 16.5494 9.24485L14.7146 7.15803L14.8889 4.27721ZM9.5001 5.68224L12.8211 8.09011L11.4937 11.9928H7.50648L6.17913 8.09011L9.5001 5.68224ZM3.5158 12.5762L6.31894 13.2562L7.73605 15.6745C5.96739 15.2152 4.46581 14.0876 3.5158 12.5762ZM15.4844 12.5762C14.5344 14.0876 13.0328 15.2152 11.2641 15.6745L12.6813 13.2562L15.4844 12.5762Z" fill="white"/>
</svg>
