<svg width="22" height="23" viewBox="0 0 22 23" fill="none" xmlns="http://www.w3.org/2000/svg">
<path d="M3.01619 0.78833C1.72703 0.78833 0.682861 1.88222 0.682861 3.23277V20.3439C0.682861 21.6944 1.72703 22.7883 3.01619 22.7883H19.3495C20.6387 22.7883 21.6829 21.6944 21.6829 20.3439V3.23277C21.6829 1.88222 20.6387 0.78833 19.3495 0.78833H3.01619ZM3.01619 3.23277H19.3495V20.3439H3.01619V3.23277ZM10.5995 5.67722C7.70036 5.67722 5.34953 8.14 5.34953 11.1772C5.34953 14.2144 7.70036 16.6772 10.5995 16.6772C11.6262 16.6772 12.5755 16.3567 13.384 15.8226L16.1913 18.7636L17.8411 17.0353L15.0338 14.0943C15.5436 13.2473 15.8495 12.2528 15.8495 11.1772C15.8495 8.14 13.4987 5.67722 10.5995 5.67722ZM10.5995 8.12166C12.2107 8.12166 13.5162 9.48933 13.5162 11.1772C13.5162 12.8651 12.2107 14.2328 10.5995 14.2328C8.98836 14.2328 7.68286 12.8651 7.68286 11.1772C7.68286 9.48933 8.98836 8.12166 10.5995 8.12166Z" fill="#0C1C18"/>
</svg>
