<svg width="23" height="23" viewBox="0 0 23 23" fill="none" xmlns="http://www.w3.org/2000/svg">
<g filter="url(#filter0_d_1_465)">
<path d="M4 11.5608C4 12.1131 4.44771 12.5608 5 12.5608L12.4725 12.5608C13.3581 12.5608 13.8066 13.627 13.1874 14.26L10.7913 16.7096C10.4111 17.0982 10.4111 17.7194 10.7913 18.1081L10.9489 18.2692C11.3411 18.6702 11.9864 18.6702 12.3786 18.2692L18.316 12.1993C18.6962 11.8106 18.6962 11.1894 18.316 10.8007L12.3786 4.73082C11.9864 4.32984 11.3411 4.32984 10.9489 4.73082L10.7913 4.8919C10.4111 5.28056 10.4111 5.90176 10.7913 6.29042L13.1874 8.73997C13.8066 9.37305 13.3581 10.4392 12.4725 10.4392L5 10.4392C4.44771 10.4392 4 10.8869 4 11.4392L4 11.5608Z" fill="#00A38F"/>
</g>
<defs>
<filter id="filter0_d_1_465" x="0.497363" y="0.927539" width="21.6063" height="21.1449" filterUnits="userSpaceOnUse" color-interpolation-filters="sRGB">
<feFlood flood-opacity="0" result="BackgroundImageFix"/>
<feColorMatrix in="SourceAlpha" type="matrix" values="0 0 0 0 0 0 0 0 0 0 0 0 0 0 0 0 0 0 127 0" result="hardAlpha"/>
<feOffset/>
<feGaussianBlur stdDeviation="1.75132"/>
<feComposite in2="hardAlpha" operator="out"/>
<feColorMatrix type="matrix" values="0 0 0 0 0.143542 0 0 0 0 0.65 0 0 0 0 0.52845 0 0 0 0.36 0"/>
<feBlend mode="normal" in2="BackgroundImageFix" result="effect1_dropShadow_1_465"/>
<feBlend mode="normal" in="SourceGraphic" in2="effect1_dropShadow_1_465" result="shape"/>
</filter>
</defs>
</svg>
