<svg width="22" height="23" viewBox="0 0 22 23" fill="none" xmlns="http://www.w3.org/2000/svg">
<path d="M3.01613 0.78833C1.72697 0.78833 0.6828 1.88222 0.6828 3.23277V20.3439C0.6828 21.6944 1.72697 22.7883 3.01613 22.7883H19.3495C20.6386 22.7883 21.6828 21.6944 21.6828 20.3439V3.23277C21.6828 1.88222 20.6386 0.78833 19.3495 0.78833H3.01613ZM3.01613 3.23277H19.3495V20.3439H3.01613V3.23277ZM10.5995 5.67722C7.7003 5.67722 5.34947 8.14 5.34947 11.1772C5.34947 14.2144 7.7003 16.6772 10.5995 16.6772C11.6261 16.6772 12.5755 16.3567 13.384 15.8226L16.1913 18.7636L17.841 17.0353L15.0337 14.0943C15.5435 13.2473 15.8495 12.2528 15.8495 11.1772C15.8495 8.14 13.4986 5.67722 10.5995 5.67722ZM10.5995 8.12166C12.2106 8.12166 13.5161 9.48933 13.5161 11.1772C13.5161 12.8651 12.2106 14.2328 10.5995 14.2328C8.9883 14.2328 7.6828 12.8651 7.6828 11.1772C7.6828 9.48933 8.9883 8.12166 10.5995 8.12166Z" fill="#0C1C18"/>
</svg>
