<svg width="18" height="17" viewBox="0 0 18 17" fill="none" xmlns="http://www.w3.org/2000/svg">
<path d="M9.2247 0.374023C4.67614 0.374023 0.95459 4.09557 0.95459 8.64413C0.95459 13.1927 4.67614 16.9142 9.2247 16.9142C13.7733 16.9142 17.4948 13.1927 17.4948 8.64413C17.4948 4.09557 13.7733 0.374023 9.2247 0.374023ZM9.2247 2.02805C10.0817 2.02805 10.8991 2.19809 11.6524 2.49809L9.2247 3.51731L6.79697 2.49809C7.55029 2.19809 8.36775 2.02805 9.2247 2.02805ZM4.18187 4.37663L4.34501 7.07249L2.628 9.02534C2.62065 8.89838 2.60861 8.77285 2.60861 8.64413C2.60861 7.02104 3.20269 5.53096 4.18187 4.37663ZM14.2675 4.37663C15.2467 5.53096 15.8408 7.02104 15.8408 8.64413C15.8408 8.77285 15.8288 8.89838 15.8214 9.02534L14.1044 7.07249L14.2675 4.37663ZM9.2247 5.69145L12.3325 7.94473L11.0903 11.5968H7.35908L6.11695 7.94473L9.2247 5.69145ZM3.62461 12.1428L6.24778 12.7792L7.57391 15.0422C5.9188 14.6124 4.51362 13.5571 3.62461 12.1428ZM14.8248 12.1428C13.9358 13.5571 12.5306 14.6124 10.8755 15.0422L12.2016 12.7792L14.8248 12.1428Z" fill="#25AF8D"/>
</svg>
